<?xml version="1.0" encoding="utf-8"?>
<!-- Generator: Adobe Illustrator 27.4.0, SVG Export Plug-In . SVG Version: 6.00 Build 0)  -->
<svg version="1.1" id="Layer_1" xmlns="http://www.w3.org/2000/svg" xmlns:xlink="http://www.w3.org/1999/xlink" x="0px" y="0px"
	 viewBox="0 0 140.15 44.73" style="enable-background:new 0 0 140.15 44.73;" xml:space="preserve">
<style type="text/css">
	.st0{fill:#F5FAFE;}
	.st1{fill:#2B4F9F;}
</style>
<g>
	<rect x="2.1" y="2.8" class="st0" width="135.15" height="39.93"/>
	<g>
		<g>
			<g>
				<g>
					<path class="st1" d="M139.08,42.32c-0.03,0.52,0.29,0.33,0.34,0.41C139.35,41.87,139,42.35,139.08,42.32z"/>
					<polygon class="st1" points="138.36,33.79 138.49,33.94 138.18,32.68 					"/>
					<path class="st1" d="M138.37,25.81c-0.54,0.75,0.09,2.89-0.1,4.31l-0.12,0.23l0.43,0.64
						C138.51,29.27,138.22,27.03,138.37,25.81z"/>
					<path class="st1" d="M139.53,21.55c-0.21,0.26-0.18-0.92-0.07,0.99c0.02-0.1,0.04-0.12,0.05-0.18
						C139.51,22.19,139.51,21.96,139.53,21.55z"/>
					<path class="st1" d="M139.52,22.37C139.53,23.21,139.69,21.82,139.52,22.37L139.52,22.37z"/>
					<path class="st1" d="M139.4,18.49l0.19,1.11c0.12-0.23,0.15-1.22,0.24-0.85C139.72,17.61,139.6,17.84,139.4,18.49z"/>
					<path class="st1" d="M139.01,17.44l0.08,0.57C139.14,17.91,139.15,17.76,139.01,17.44z"/>
					<path class="st1" d="M139.25,19.23l-0.17-1.22c-0.09,0.16-0.26,0.18,0.06,0.56C138.99,18.47,139.14,18.71,139.25,19.23z"/>
					<path class="st1" d="M139.17,19.92c-0.12,0.62-0.19,1.42-0.38,0.31C138.87,22.35,139.24,22.03,139.17,19.92z"/>
					<path class="st1" d="M137.82,25.4l-0.16,0.83l0.18,0.72C137.75,26.59,137.98,25.35,137.82,25.4z"/>
					<path class="st1" d="M139.67,11.59c-0.11-0.07-0.3,0.37-0.45,0.45l0.13,0.82C139.43,12.44,139.5,11.65,139.67,11.59z"/>
					<path class="st1" d="M139.22,12.04l-0.2-1.22C139.01,11.91,139.1,12.11,139.22,12.04z"/>
					<polygon class="st1" points="138.41,17.24 138.82,19.25 138.41,16.85 					"/>
					<polygon class="st1" points="139.69,6.92 139.95,7.61 139.55,6.38 					"/>
					<path class="st1" d="M139.64,2.27c0.22,0.84,0.37-1.6,0.5-0.65c-0.01-0.59-0.05-1.14-0.09-1.62c-1.05,0.08-2,0.2-2.83,0.3
						c0.81-0.06,1.66-0.07,2.56-0.03C139.76,0.87,139.71,1.54,139.64,2.27z"/>
					<path class="st1" d="M135.16,0.55c0.62-0.05,1.29-0.15,2.06-0.25C136.52,0.35,135.83,0.43,135.16,0.55z"/>
					<path class="st1" d="M139.09,8.74c0.07-0.09,0.25-0.28,0.33-0.96l-0.32,0.48C139.09,8.4,139.09,8.57,139.09,8.74z"/>
					<path class="st1" d="M139.08,8.27l0.01-0.02c0.01-0.52,0.02-0.88,0.02-1.04C139.1,7.35,139.1,7.67,139.08,8.27z"/>
					<path class="st1" d="M139.08,8.86c0-0.04,0-0.08,0-0.12C139.05,8.78,139.04,8.81,139.08,8.86z"/>
					<path class="st1" d="M138.7,14.03c-0.18-0.72-0.37-2.22-0.64-0.77C138.28,13.78,138.43,12.95,138.7,14.03z"/>
					<path class="st1" d="M138.68,9.46l-0.07,1.3c0.08-0.03,0.21-0.26,0.3,0.1L138.68,9.46z"/>
					<polygon class="st1" points="138.58,8.82 138.68,9.46 138.71,8.97 					"/>
					<path class="st1" d="M138.84,0.85c-1.06,0.14-2.05,0.15-3.18,0.17c1.1,0.06,2.2,0.09,3.27,0.1c0,0.09,0,0.17,0,0.25
						c0.09,0.05,0.24,0.37,0.27-0.52C139.11,0.85,138.99,0.85,138.84,0.85z"/>
					<path class="st1" d="M139.12,5.13c-0.01-0.06-0.01-0.14-0.02-0.2C139.07,5.05,139.06,5.16,139.12,5.13z"/>
					<polygon class="st1" points="128.34,1.02 128.45,1.08 128.47,1.02 					"/>
					<path class="st1" d="M138.88,1.62c-0.06,0.92,0.02,1.37,0.12,1.83c-0.03-0.65-0.05-1.34-0.06-2.09
						C138.89,1.34,138.86,1.35,138.88,1.62z"/>
					<path class="st1" d="M132.91,0.7c0.29,0.07,0.62,0.12,0.97,0.18C133.59,0.77,133.01,0.62,132.91,0.7z"/>
					<path class="st1" d="M139.19,4.6c0,0.05,0.01,0.09,0.01,0.14C139.27,4.41,139.24,4.46,139.19,4.6z"/>
					<path class="st1" d="M139.19,4.6c-0.05-0.47-0.13-0.81-0.2-1.14c0.03,0.53,0.06,1.03,0.11,1.47
						C139.12,4.81,139.15,4.69,139.19,4.6z"/>
					<path class="st1" d="M126.27,3.08c0.1-0.3,1.57-0.57,2.84-0.25c1.25-0.22,0.43-1.2-0.66-1.75c-0.04,0.13-0.04,0.25-1.32,0.42
						c0.45,0.16,2.85,0.38,1.77,0.65c-1.7,0.15-1.39-0.11-2.22-0.26c0.7,0.37-2.16,0.54-1.79,1.08l1.49-0.19
						C126.4,2.87,125.86,3,126.27,3.08z"/>
					<path class="st1" d="M130.9,1.11l0.53-0.04c-0.6-0.05-1.03-0.17-1.83-0.4c-0.88,0.14-1.06,0.26-1.12,0.35l2.6,0.04L130.9,1.11z
						"/>
					<path class="st1" d="M133.8,1.07c-0.41,0.32-1.68,0.46-0.9,0.81c0.78-0.01,1.05-0.08,1.24-0.16c0.17-0.08,0.33-0.18,1.02-0.25
						c-0.98,0.02-1.12,0.02-1.22,0c-0.08-0.02,0.03-0.05,0.17-0.09c0.14-0.04,0.28-0.09,0.32-0.14c-0.01-0.05-0.15-0.1-0.6-0.15
						c0.12-0.01,0.24-0.02,0.36-0.03l0.17-0.01l0.27-0.01c0.36-0.01,0.71-0.02,1.05-0.03c-0.36-0.02-0.72-0.04-1.07-0.07l-0.25-0.02
						l-0.16-0.02l-0.31-0.04c0.02,0.01,0.04,0.01,0.06,0.02l0.01,0l0,0.01c0.11,0.04,0.14,0.06,0.02,0.04
						c-0.01,0-0.04,0.01-0.05,0.01C133.89,0.99,133.85,1.03,133.8,1.07c-0.72-0.07-0.11-0.09,0.11-0.12
						c0.01-0.02,0.03-0.03,0.03-0.05l-0.01,0l-2.51,0.18C131.95,1.12,132.62,1.11,133.8,1.07z"/>
					<path class="st1" d="M137.36,11.93c0.03-0.08,0.05-0.07,0.08-0.08C137.4,11.68,137.37,11.62,137.36,11.93z"/>
					<path class="st1" d="M137.56,10.9c0.05,0.18,0.17,0.33,0.14,0.93c-0.1,0.51-0.15,0-0.26,0.02c0.09,0.36,0.23,1.25,0.39,0.13
						l-0.04-0.18c0.11-1.01,0.51-2.31,0.56-2.13C138.05,9.96,137.84,10.22,137.56,10.9z"/>
					<path class="st1" d="M138.19,4.84l-0.16-2.61l-0.28,1.51l0.17-0.16C137.85,5.05,138.06,4.68,138.19,4.84z"/>
					<polygon class="st1" points="128.1,0.86 128.38,0.52 127.17,1 					"/>
					<polygon class="st1" points="125.39,0.9 125.49,0.6 124.77,0.78 					"/>
					<path class="st1" d="M3.88,32.6l0.08,0.61C3.94,32.92,3.91,32.73,3.88,32.6z"/>
					<path class="st1" d="M3.9,28.16l-0.15-0.11C3.84,28.25,3.9,28.34,3.9,28.16z"/>
					<path class="st1" d="M58.76,0.93c-0.89-0.28-1.89-0.71-1.78-0.37l0.27,0.33C57.88,0.83,58.36,0.86,58.76,0.93z"/>
					<path class="st1" d="M13.14,2.88c0.08,0.03,0.17,0.07,0.26,0.1c0.22-0.11,0.42-0.22,0.6-0.31C13.74,2.73,13.45,2.8,13.14,2.88z
						"/>
					<path class="st1" d="M12.51,4.22l-1.18-0.21C11.59,4.09,11.97,4.16,12.51,4.22z"/>
					<path class="st1" d="M16.22,40.61l0.72-0.33C15.81,40.28,16.31,40.44,16.22,40.61z"/>
					<path class="st1" d="M97.6,1.02c-0.77-0.13-1.38-0.18-1.92-0.2C96.61,1.01,97.36,1.29,97.6,1.02z"/>
					<path class="st1" d="M0.43,30.85c0.06,0.38,0.13,0.54,0.2,0.52C0.57,30.99,0.51,30.77,0.43,30.85z"/>
					<path class="st1" d="M93.45,0.83c0.14,0.03,0.27,0.05,0.41,0.08c0.56-0.05,1.13-0.1,1.82-0.08C94.99,0.69,94.21,0.6,93.45,0.83
						z"/>
					<path class="st1" d="M104.18,40.88c0.06,0.01,0.14,0.02,0.2,0.04C104.39,40.87,104.31,40.87,104.18,40.88z"/>
					<path class="st1" d="M129.8,44.16c-0.25,0.02-0.66,0.02-1.05,0.02C128.94,44.21,129.26,44.2,129.8,44.16z"/>
					<path class="st1" d="M114.47,0.76C115.05,0.74,114.56,0.72,114.47,0.76L114.47,0.76z"/>
					<path class="st1" d="M117.27,2.05c-0.12,0.04-0.22,0.08-0.23,0.16C117.09,2.13,117.17,2.08,117.27,2.05z"/>
					<path class="st1" d="M87.72,2.85c-0.02,0-0.03,0-0.05,0C87.84,2.91,87.81,2.9,87.72,2.85z"/>
					<path class="st1" d="M115.34,0.91c-0.22-0.04-0.46-0.07-0.74-0.1C114.72,0.84,114.95,0.87,115.34,0.91z"/>
					<path class="st1" d="M115.22,0.75c0.2,0.01,0.35,0.02,0.5,0.03C115.8,0.73,115.73,0.7,115.22,0.75z"/>
					<path class="st1" d="M113.67,0.78c0.33-0.01,0.64,0.01,0.93,0.03c-0.11-0.02-0.16-0.04-0.13-0.05
						C114.3,0.76,114.07,0.77,113.67,0.78z"/>
					<path class="st1" d="M57.05,41.75c0.04,0.01,0.08,0.02,0.12,0.03C57.75,41.64,57.5,41.66,57.05,41.75z"/>
					<path class="st1" d="M43.79,4.31c0.03-0.01,0.04-0.01,0.07-0.02c-0.03,0-0.06-0.01-0.09-0.01L43.79,4.31z"/>
					<path class="st1" d="M41.72,4.56c0.88-0.41,1.38-0.36,2.05-0.27l-0.68-0.94L41.72,4.56z"/>
					<path class="st1" d="M4.15,40.86c-0.03-0.03-0.06-0.07-0.07-0.1c0.06-0.17,0.13-0.31,0.19-0.43c0.1,0.02,0.16,0.03,0.22,0.02
						c0.42-0.22,0.3-0.18,0.51-0.51c-0.15,0.21-0.28,0.34-0.42,0.42c-0.08,0.02-0.11-0.05-0.13-0.14l-0.02-0.15l-0.01-0.08
						l-0.01-0.04l-0.01-0.19c-0.04-1.08-0.14-1.98-0.54-2.06l0.21-0.96c-0.01,0.27,0.05,0.32,0.04,0.59
						c0.49-1.86-0.74-1.38-0.59-3.78c0.08-0.84,0.23-1.42,0.35-0.85l-0.25-1.86c0.02-0.54,0.2-0.41,0.18,0.13l-0.08-2.84l0.03,0.02
						c-0.16-0.41-0.41-1.32-0.51-1.77c0.15-0.72,0.11,0.36,0.24,0.18l-0.25-1.57c0.26-0.64,0.52,0.66,0.48,1.75
						c1.02-1.47-0.26-1.3,0.34-4.47l0.13,1.48c0.58-0.96,0.37-2.12,0.73-3.79C4.72,20.25,4,23.21,3.75,21.5
						c0.08-0.48,0.11-1.11-0.09-2.03c0.36-0.01,0.27-0.91,0.25-2.03l0.48,0.08c-0.14-1.22-0.38-1.12-0.6-1.84
						c0.05-1.36,0.42-1.64,0.73-1.96c0.08-2.17-0.6,1.5-0.69-1.07c0.18-1.8-0.01-3.07-0.3-5.23C3.7,6.16,3.83,7.64,3.97,7.19
						L3.59,6.07c0.01-0.27,0.13-0.19,0.19-0.14C3.73,5.66,3.69,5.64,3.63,5.6C3.58,5.56,3.52,5.54,3.46,5.51
						c-0.12-0.06-0.23-0.16-0.3-0.66C2.93,4.64,3.05,4.23,3.21,3.91c0.41,0.1,0.81,0.22,1.13,0.27C4.5,4.2,4.65,4.21,4.79,4.19
						c0.08-0.01,0.13-0.03,0.23-0.05c0.14-0.02,0.27-0.06,0.4-0.1C5.87,4.17,5.2,4.33,5.34,4.51C7.86,4.12,7.5,4.23,9.57,3.7
						l1.76,0.31c-1.29-0.36,0.36-0.79,1.81-1.14c-0.46-0.17-0.85-0.33-1.11-0.4l2.31-0.26C14.61,2.3,14.38,2.46,14,2.66
						c0.16-0.04,0.31-0.08,0.42-0.11c0.83,0.18,0.4,0.45-0.19,0.72c-0.28-0.1-0.56-0.2-0.83-0.3c-0.57,0.29-1.11,0.61-0.99,0.9
						c0.15-0.06,0.44-0.1,0.76-0.13c-0.15,0.08-0.24,0.15-0.18,0.2c0.08,0.05,0.32-0.06,0.7-0.18l0.53,0.53l0.13-0.21l3.02,0.33
						c2.16-0.54,4.05-1.33,7.48-1.55C24,3.26,24.67,3.51,24.62,3.97c-0.94-0.49-2.66,0.21-4.44,0.11c0.93,0.05,0.72,0.27,0.49,0.35
						l3.18-0.45c-0.07,0.38,0.67,0.28,1.5,0.44c-0.63-0.75,2.37-0.5,3.66-0.73c0.08,0.25-0.23,0.51-1.81,0.45
						c1.74,0.57,2.25-0.88,3.95-0.4c-0.39,0.01-0.59-0.03-0.74,0.1c0.9-0.22,3.1-0.05,2.58,0.17l-0.38,0.01
						c2.56,0.09,7.78,0.01,8.16-0.63c0.03,0.08-0.33,0.77-0.49,0.9l4.56-2.15c-0.4,0.55,1.14,1.85-0.98,2.16
						c0.61,0.08,1.36,0.17,2.64-0.02c-0.42-0.08-1.03-0.79-0.47-0.84c1.56,0.61,1.08,0.33,3,0.85c-0.62-0.12,0.07-0.98,1.05-0.95
						c-0.15,0.13,0.08,0.85-0.28,0.94l2.45-0.84c-0.61,0.15-0.11,0.71,0.44,0.95c-0.25-0.17,2.12,0.02,2.77-0.07l-1.04-0.2
						c2.76,0.13,2.73-1.19,5.47-1.14c-0.33,0.17-0.82,1.07,0.57,1.18c0.64-0.43,2.83-2.08,5.25-2.41l0.47,0.25l1.86-0.28
						c-1.16,0.65-4.41,2.02-6.18,2.55c1.03,0.2,0.29,0.29,1.84,0.27c0.55,0.23-0.84,0.35-1.3,0.36L66,5.04
						c-0.16-0.5,2.76-0.51,2.62-0.93l-3.91,0.52c-0.16-0.5,2.26-1.43,4.82-1.34c0.65,0.2-0.49,0.9-0.43,1.07
						c0.33-0.17,2.42-0.33,2.66-0.21l-1.08,0.27c1.42,0.19,2.32-0.67,4.03-0.19c0.59,0.03,1.76,0.65,1.86,0.35
						c-0.96-0.58-1.15-2.36-0.51-2.79c0.21,0.04,3.1,0.55,3.77,0.83c0.97,0.45-1.46,1.08-0.63,1.46c0.04-0.14,0.57-0.31,0.8-0.36
						c0.62,0.12-0.26,0.43,1.09,0.36c0.22-0.51,2.74,0.04,0.64-0.43c1.32-0.15,1.4,0.11,2.94,0.08c-0.49-0.33,1.39-1.12,2.71-1.27
						c-0.08,0.13,0.22,0.3,0.36,0.38c2.7,0.05,4.15,0.28,6.66,0.28c0.23,0.12,1.45,0.27,0.93,0.49c0.36-0.09,0.69-0.26,1.47-0.28
						c1.5,0.44-1.73,0.07-0.59,0.6c0.1-0.3,2.01-0.41,3.11-0.6c-0.34-0.46-2.55-0.09-3.66,0.1c-0.01-0.63,1.92-1.3,4.55-1.59
						c2.09-0.16,0.91,0.41,1.27,0.32c3.93,0.11,3.34-1.11,6.6-0.65c1.29,0.4,0.06,0.8,0.35,1.09c-1.7,0.15-2.61-0.26-3.77-0.24
						l1.42,0.19c-0.54,0.13-1.68,0.24-2.3,0.12c1.08,0.36,6.63,0.07,9.66,0.4c0.54-0.14,1.47-0.28,1.03-0.44l-0.96,0.06
						c-0.88-0.33,1.8-0.45,0.59-0.6c1.29-0.23,2.73-0.59,4.54-0.4l0.34,0.46c-0.04-0.13-1.18-0.27-1.69-0.13
						c0.75-0.2,2.78,0.62,3.6,0.02l-1.27-0.32c1.29-0.23,2.89-0.72,4.49-0.57c-0.73-0.45-0.37,0.05-1.51-0.48
						c0.99,0.66-4.1-0.03-2.52,0.67c-1.17-0.62-2.02-0.26-3.55-0.79c0.05,0.15,0.54,0.29-0.8,0.22c-0.06,0.04-0.2,0.1-0.3,0.13
						c-0.04-0.01-0.06-0.01-0.09-0.01c0.03,0.01,0.05,0.01,0.07,0.02c-0.06,0.02-0.06,0.03,0.03,0.01c0.32,0.07,0.58,0.15,0.69,0.23
						c-0.67,0.35-2.81,0.34-3.53,0.52c-0.8-0.07,0.33-0.17-0.1-0.34l-1.08,0.27c-0.11-0.34-2.12-0.56-0.24-0.76l-1.69-0.02
						c-1-0.19-2.37-0.26-3.22-0.12c-0.8-0.07-2.02,0.37-1.32,0.11l-2.66,0.21l-0.02-0.08c-2.62-0.04-5.4,0.56-8.39-0.05
						C92.98,0.99,92.07,1.09,90.59,1L90.3,0.7c-1.13,0.1-3.4-0.29-3.89,0.01c-1.22-0.78-5.5-0.17-7.49-0.31l-0.08,0.38
						c-1.37-0.02-2.69,0.09-4.39,0.24l0.1,0.34c-1.47,0.28-3.77-0.24-6.1-0.2c0.16-0.13,0.75-0.09,1.16-0.02
						c-2.77-0.76-5.85,0.55-8.37,0c-0.63,0.12-1.08,0.08-1.52,0c0.06,0,0.11-0.01,0.16-0.02c-0.06,0-0.16,0-0.26,0
						C59.36,1.06,59.07,1,58.76,0.93c0.26,0.08,0.51,0.15,0.73,0.18c-0.48,0.01-1.22,0.05-1.94,0.13l-0.31-0.36
						c-0.06,0-0.11,0.01-0.17,0.01c-0.71-0.13-0.57,0.17-0.19,0.44c-0.36,0.06-0.69,0.13-0.95,0.22c-0.57-0.58-1.89,0.2-2.67-0.43
						c-0.48,0.3-3.61,0.23-4,0.87c-0.02-0.08-0.24-0.12,0.15-0.13c-0.8-0.07-1.6-0.15-2.32,0.03l-0.34-0.46l-1.75,0.62
						c-1.06-0.28-1.5-0.44-0.45-0.8c-2.55,0.54-2.07,0.2-4.24,0.74l0.11-0.3c-0.77,0.01-2.01,0.41-2.48,0.16
						c-1.73-0.56-8.58-0.08-13.03-0.6c0.86,0.87-2.07-0.39-2.24,0.29c-0.26-0.21-0.88-0.32-0.16-0.5c-2.27,0.2-3.41-0.33-4.98,0.24
						C17.3,1.09,18.04,1,17.81,0.87c-0.18,0.04-0.72,0.18-0.96,0.06c-0.23-0.12,0.33-0.17,0.69-0.26c-2.32,0.03-2.55,0.67-2.72,1.27
						c-1.18-0.28-1.76-0.24-2.61,0.15c-0.41-0.2-1.09-0.4,0.35-0.47c-0.81-0.03-4.95-0.29-5.04,0.19C7.27,1.69,6.39,1.77,6.18,1.83
						C5.15,1.81,4.59,1.8,4.03,1.79C3.37,1.78,2.7,1.78,1.52,1.8l0.72,0.08c-0.18,0.21-0.42,0.28-0.77,0.3
						c0.03,0.66-0.14,1.35-0.1,2.55L1.32,4.66c-0.05,0.5-0.08,0.91-0.11,1.24C1.18,6.17,1.17,6.38,1.17,6.55
						C1.16,6.89,1.18,7.06,1.2,7.24c0.04,0.35,0.08,0.7-0.16,2.33L1.4,9.39c0.77,0.3-0.46,2.89-0.16,4.78l0.21-0.68
						c0.26,1.03-1.05,2.89-1.15,3.92c-0.07,0.23-0.11-0.36-0.16-0.67c-0.46,2.72,0.47,0.35,0.58,2.38
						c-0.25,0.37-0.65-0.48-0.69,0.88c-0.21,0.68,0.83,3.95,0.34,5.81c0.2-0.41,0.39-0.82,0.54,0.12c0.07,1.44-0.74,3.89-0.12,5.2
						c-0.05,0.18-0.1,0.25-0.15,0.26c0.16,1.1,0.26,3.58,0.6,4.24c-0.62,0.51-0.47,2.22-0.31,3.8c0.04,0.33,0.08,0.93,0.11,1.41
						c0.03,0.48,0.05,0.92,0.05,1.3c-0.01,0.75-0.11,1.33-0.39,1.59l0.01,0.44l4.5-0.06L5.1,44.2c2.16,0.08,2.93-0.2,3.69-0.47
						c0.5,0.08,0.14,0.18,0.09,0.24c3.16,0.23,3.48,0.18,6.13-0.39l0.28,0.37c0.72-0.22,4.57,0.58,7.68,0.15
						c-0.03,0.04-0.09,0.11-0.34,0.17c3.49-0.44,8.36,1.03,9.64-0.32l2.3-0.33c-2.98-0.11,0.44-0.59-0.78-0.81
						c1.17-0.08,3.03,0.41,1.59,0.48l-0.23-0.07c-0.53,0.71,3.7,0.25,3.62,0.73c5.86-0.03,11.58,0.36,17.07,0.39l-0.63-0.55
						l1.92,0.03c0.5,0.13,0.67,0.43-0.69,0.41c0.72,0.31,2.29-0.26,2.33-0.38c2.68,0.22-1.05,0.64-0.22,0.65l1.11-0.04l-0.25-0.06
						c0.9-0.22,0.98-0.46,2.63-0.43c1.04,0.11,0.53,0.34,0.94,0.36c0,0.04,0.14,0.06,0.63,0.02l2.41,0.05l-0.97-0.43
						c1.07-0.21,2.27,0.02,1.16-0.47c1.64,0.76,9,0.27,10.01,0.51c1.5-0.32,2.98-0.31,4.81-0.27c-0.46-0.09-0.73-0.58,0.85-0.52
						c-0.58,1,2.89,0.44,4.17,1.16c-1.14-0.48,4.49-0.12,2.7-0.8c1.32,0.08,0.08,0.38,1.08,0.61c3.14-0.39,6.92,0.25,10.8,0.12
						c0.06-0.13-0.59-0.33,0.24-0.53l2.05,0.66c0.77-0.06,0.71-0.76,2.11-0.3c-0.2-0.11-0.49-0.28,0.02-0.32
						c7.6,0.64,15.53-0.53,23.25,0.68c-1.05-0.26-0.35-0.28,0.45-0.29c-0.52-0.06,0.01-0.33-0.09-0.5l3.23,0.5
						c0.59-0.5,3.46-0.03,3.8-0.51l-1.02,0.09c1.36-0.56-1.9-1.24-1.71-1.96c-1.52,0.64-4.02-0.94-6.52-0.03
						c-0.55-0.15,0.47-0.23,0.18-0.4c-0.63,0.31-1.4,0.37-2.82,0.23l0.16-0.08c-3.98,0.08-5.69-0.23-10.17-0.43l0.33,0.36
						c-0.96-0.05-1.16-0.16-1.61-0.25c-1.1,0.54,2.7,0.03,1.7,0.62c-1.28-0.72-6.78-0.01-7.65-0.83c-1.48,0,0.43,0.41-1.05,0.41
						l-0.39-0.22l-0.37,0.29c-0.97-0.05-1.46-0.33-1.5-0.51c0.24,0.02,0.67-0.05,0.92-0.07c-1.26-0.26-3.55,0.09-3.98,0l1.42,0.14
						c-4.04,0.21-8.97-0.08-12.87,0.37l0.3,0.17c-2.98,0.31-2.39-0.18-5.66-0.04l0.12-0.04c-0.65,0.17-1.53,0.25-2.42,0.23
						c0.83-0.2-1.55-0.38-0.47-0.6c-3.23,0.33-1.6,0.26-3.73,0.88l-0.49-0.28c-0.73,0.25-0.79,0.38-2.42,0.46
						c1.34-0.24-1.04-0.42,0.46-0.74c-3.43-0.61-5.09,0.61-6.66-0.28c-1.57,0.77,2.97,0.43,2.09,0.59c0.74,0.25-1.3,0.58-2.38,0.5
						c-1.1-0.02-1.86-0.98-4.62-0.97c0.27,0,0.29-0.05,0.57-0.05c-1.03-0.2-2.02,0.27-3.28-0.05c-0.71,0.47-1.64-0.03-1.85,0.57
						l2.53-0.14c-1.43,0.16-2.78,0.85-5.14,0.51c0.18-0.12,0.89-0.28,1.37-0.37c-0.69-0.18-1.33,0.12-2.04-0.06
						c0.2-0.59,3.07-0.13,4.61-0.58c-0.74-0.25-2.9,0.43-2.13-0.21c-1.11,0.82-2.71-0.1-4.58,0.52l0.12-0.36
						c-0.3,0.06-0.91,0.22-1.45,0.22l0.98-0.46c-1.51,0.39-2.91-0.34-4.36-0.13c3.03-0.01,0.68,0.43,1.96,0.69
						c-3.74,0.48-2.15-0.93-6.34-0.76c0.57-0.05,2.13,0.21,1.24,0.38c-0.8-0.07-1.85-0.21-2.34-0.4c-2.78,0.07,0.43,0.37-0.76,0.58
						c-0.94-0.43-1.36,0.18-2.58,0.32l-0.01-0.36c-3.16-0.23-0.84,0.75-3.69,0.47l1.2-0.5l-1.48,0.13l0.31-0.41
						c-1.61,0.31-2.12,0.23-3.7,0.11c0.37,0.25-0.21,0.66-1.61,0.67c-0.96-0.21,0.54-0.34-1.45-0.29c0.45-0.23,0.94-0.51,1.8-0.18
						c0.09-0.12,0.44-0.23,0.53-0.34c-1.03-0.25-2.59-0.06-3.3-0.05c0.28,0.01,0.61,0.03,0.78,0.08l-2.88,0.5
						c-0.45-0.14-0.09-0.24,0.26-0.35c-0.58,0.04-0.99,0.21-1.84,0.24c0.22-0.29,0.17-0.6,1.38-0.74l-2.74,0.33
						c-0.18-0.13-1.41-0.35-1.05-0.46c-1.52-0.17-3.73,0.57-5.75,0.34c-0.1,0.06-0.31,0.11-0.74,0.15
						c-1.89-0.07-3.57-0.43-5.82-0.02l-1.27-0.53c-1.76,0.12,1.72,0.66-1.2,0.86c-2.07,0.17-0.77-0.45-1.5-0.6
						c-0.18,0.05-0.48,0.11-0.64,0.18c-0.08,0.06-0.18,0.13-0.31,0.19c-0.25,0.11-0.62,0.19-0.9,0.17c0.01-0.18,0.06-0.4,0.16-0.61
						c0.07,0.12,0.05,0.26,0.05,0.41C4.02,40.87,4.08,40.87,4.15,40.86z M3.74,21.54c0.08,0.42,0.31,1.26,0.1,1.57
						C3.42,22.63,3.62,22.26,3.74,21.54z M16.33,3.57c-0.31,0.12-0.8,0.06-1.34-0.08C15.38,3.47,15.83,3.48,16.33,3.57z
						 M108.17,1.05c-0.02,0.01-0.03,0.01-0.04,0.02C107.18,0.93,107.52,0.99,108.17,1.05z M110.11,1.21c0.2-0.05,0.18-0.1,0.1-0.15
						c-0.14,0.09-0.57,0.1-1.07,0.07C109.28,1.23,109.53,1.29,110.11,1.21z M63.19,44.18l-0.38-0.09
						C63.67,43.98,63.43,44.08,63.19,44.18z"/>
					<path class="st1" d="M12.59,4.07c-0.12-0.06-0.15-0.13-0.18-0.2C12.25,3.93,12.24,4,12.59,4.07z"/>
					<path class="st1" d="M16.09,40.67l0.07,0c0.04-0.02,0.06-0.04,0.07-0.07L16.09,40.67z"/>
					<path class="st1" d="M79.96,4.28c-0.4-0.05-0.62-0.12-0.77-0.19C79.17,4.18,79.35,4.25,79.96,4.28z"/>
					<path class="st1" d="M120.43,0.6l-1.25,0.09c0.6-0.02,0.82,0.06,1.12,0.12C120.28,0.72,120.04,0.6,120.43,0.6z"/>
					<path class="st1" d="M131.25,2.83c0.18-0.04,0.39,0,0.57-0.05l-0.05-0.17C130.99,2.63,130.45,2.76,131.25,2.83z"/>
					<path class="st1" d="M121.58,1.8c0.1,0.3,0.88,0.2,1.75,0.14c-0.05,0-0.1,0-0.15,0C123.44,1.52,122.51,1.66,121.58,1.8z"/>
					<path class="st1" d="M123.54,1.93c0.27-0.01,0.54-0.02,0.81-0.01C124.45,1.75,124.02,1.89,123.54,1.93z"/>
					<path class="st1" d="M112.58,1.01c0.41,0.08,0.26-0.39,0.49-0.27C113.54,0.36,110.31,1.21,112.58,1.01z"/>
					<polygon class="st1" points="122.29,2.8 121.98,2.42 121.49,2.73 					"/>
					<path class="st1" d="M115.39,2.52l1.4,0.1c-0.02-0.06,0.16-0.1,0.37-0.13C116.3,2.49,115.36,2.41,115.39,2.52z"/>
					<path class="st1" d="M117.16,2.5c0.45,0.01,0.87,0,1.12-0.06C118.04,2.44,117.52,2.45,117.16,2.5z"/>
					<polygon class="st1" points="120.38,2.91 119.97,2.84 118.98,2.81 					"/>
					<path class="st1" d="M100.39,2.45l-1.52,0.11c-0.16,0.13,0.26,0.21,0.83,0.16C100.06,2.63,100.62,2.58,100.39,2.45z"/>
					<path class="st1" d="M105,3.48c-0.41-0.08-0.44-0.16-0.67-0.29l-0.05,0.47L105,3.48z"/>
					<path class="st1" d="M100.56,3.59c-0.15,0.13-2.21,0.37-0.28,0.34C100.43,3.8,101.96,3.7,100.56,3.59z"/>
					<polygon class="st1" points="77.61,3 77.99,3 77.94,2.23 					"/>
					<path class="st1" d="M57.38,4.83c1.8,0.18,0.43-0.47,2.06-0.24c0.42-0.18-1.33-0.19-0.9-0.34C57.45,4.43,56.88,4.33,57.38,4.83
						z"/>
					<path class="st1" d="M58.54,4.24c0.17-0.03,0.36-0.07,0.56-0.12C58.78,4.17,58.63,4.21,58.54,4.24z"/>
					<polygon class="st1" points="134.05,44.57 135.21,44.73 134.46,44.47 					"/>
					<path class="st1" d="M136.28,44l0.27,0.49l0.7-0.44C136.99,44.07,136.48,44.11,136.28,44z"/>
					<path class="st1" d="M4.72,18.32l-0.12-0.09c-0.13,0.18-0.14,0.45-0.16,1L4.72,18.32z"/>
					<polygon class="st1" points="4.36,34.06 4.37,33.79 3.93,34.29 					"/>
					<path class="st1" d="M6.64,39.91c-0.27-0.01-0.56,0.01-0.86,0.03c-0.15,0.01-0.29,0.02-0.44,0.03l-0.21,0.01
						c-0.07,0-0.16,0-0.14,0c-0.03-0.01,0.09-0.01,0.15-0.01c0.07,0,0.14,0,0.2,0c0.13,0.01,0.25,0.02,0.37,0.04
						c0.23,0.03,0.42,0.08,0.57,0.11C6.58,40.18,6.71,40.19,6.64,39.91z"/>
				</g>
			</g>
		</g>
	</g>
</g>
</svg>
