<?xml version="1.0" encoding="utf-8"?>
<!-- Generator: Adobe Illustrator 27.4.0, SVG Export Plug-In . SVG Version: 6.00 Build 0)  -->
<svg version="1.1" id="Layer_1" xmlns="http://www.w3.org/2000/svg" xmlns:xlink="http://www.w3.org/1999/xlink" x="0px" y="0px"
	 viewBox="0 0 247.67 86.12" style="enable-background:new 0 0 247.67 86.12;" xml:space="preserve">
<style type="text/css">
	.st0{opacity:0.26;}
	.st1{fill:#A92850;}
	.st2{fill:#EE3B6D;}
</style>
<g>
	<g class="st0">
		<path class="st1" d="M241.99,23.65c-0.07,0.24-0.04,0.57-0.22,0.7c-0.33,0.23-0.78,0.34-1.18,0.51c0.83-0.4,1.51,1.24,2.35,0.13
			c0.4-0.53,0.93-0.7,1.46-0.33c0.47,0.33,0.97,0.82,1.03,1.28c0.1,0.68-0.85,0.44-1.31,0.65c-0.72,0.33-2.2-0.01-1.99,1.11
			c0.12,0.62,1.25,0.65,1.99,0.65c0.91-0.01,1.37-1.31,2.36-0.81c0.7,0.35-0.99,0.18-0.7,1.27c0.35,1.31,2.58,2.03,1.53,3.73
			c-0.67,1.09-0.59,2.34,0.15,3.54c0.63,1.01-0.78,0.52-1.11,0.85c-0.12-0.11-0.24-0.23-0.36-0.34c-1.96-0.8-3.37,0.88-5.18,0.77
			c0.01,0.06-0.02,0.16,0.03,0.19c0.13,0.08,0.29,0.14,0.44,0.2c0.18,0.18,0.36,0.35,0.55,0.53c-1.49,0.48-2.67,1.76-4.6,1.21
			c-0.13-0.04-0.71,0.47-0.68,0.69c0.05,0.48,0.58,0.51,1.14,0.54c2.03,0.13,4.12-0.28,6.07,0.48c0.44,0.17,1.11,0.16,1.17,0.66
			c0.08,0.62-0.57,0.75-1.14,0.92c-0.79,0.24-1.55,0.54-2.35,0.78c-1.02,0.31-1.48,0.67-0.51,1.46c0.57,0.47,1.23,1,0.84,1.79
			c-0.51,1.04-1.68,0.25-2.85,0.72c3.62,0.13,3.28,3.1,5.32,4.23c0.73,0.4-1.43,0.75,0.12,0.78c0.14,0.12,0.27,0.24,0.41,0.36
			c-1.57,0.64-1.28,1.72-1.13,2.86c0.08,0.59,1.79,1.04,0.68,1.34c-1.16,0.31-1.96,1.66-3.42,1.03c-0.71-0.3-1.26-0.33-1.86,0.04
			c-0.09,0.06-0.14,0.29-0.08,0.35c0.48,0.44,1.13,0.26,1.68,0.19c2.19-0.28,2.33,0.84,2.79,2.18c0.27,0.79-0.08,2.59,2.37,2.29
			c1.21-0.15,2.39,2.24,1.63,3.08c-0.08,0.09-0.36,0.08-0.39,0.15c-0.93,2.27-0.92,2.27-2.55,2.19c0.78-0.2,1.45,1.33,3.04,1.15
			c-1.98,0.29-4.64,0.03-2.9,2.87c0.43,0.7-0.88,0.99-1.6,0.77c-0.97-0.29-1.64,0.01-2.36,0.4c1.37,0.22,0.43,2.04,2.21,2.08
			c0.89,0.02,2.04-0.26,2.61,0.71c-0.21,0.17-0.41,0.35-0.62,0.52c-2.1-0.16-4.19-0.35-6.29-0.47c-1.12-0.06-2,0.02-1.38,1.37
			c0.35,0.77-0.78,0.83-1.45,1.11c-0.68,0.28-1.77,0.5-1.61,1.38c0.18,1.01,1.25,0.39,1.89,0.49c1.05,0.15,2.99-0.11,2.91,0.56
			c-0.12,0.93-1.87,0.4-2.84,0.35c-2.53-0.14-4.99,0.66-7.53,0.23c-0.49-0.08-1.04,0.15-0.43,0.68c1.49,1.29-0.04,1.09-0.84,1.07
			c-7.89-0.2-15.75,0.2-23.63,0.4c-8.7,0.22-17.4-0.24-26.09-0.77c-9.64-0.59-19.31-0.55-28.94,0.03
			c-15.21,0.92-30.37-0.51-45.55-0.44c-9.87,0.04-19.78-0.23-29.62,0.85c-0.56,0.06-1.56,0.44-1.56-0.48c0-0.74,0.74-1.01,1.72-0.77
			c-0.96,0.91-2.41-0.25-3.34,0.58c-0.04,0.03-0.28-0.08-0.43-0.13c0.14-0.11,0.26-0.27,0.43-0.33c0.69-0.22,1.11,0.22,1.54,0.51
			c0.3,0.2,0.26,0.54-0.12,0.67c-0.46,0.16-0.95,0.27-1.44,0.32c-14.4,1.55-28.87,2.13-43.38,1.67c-1.98-0.06-4.07-0.17-5.58-1.56
			c-0.81-0.74-1.92-0.32-2.89-0.37c-1.97-0.1-3.46-0.53-2.75-2.51c0.47-1.3-0.38-1.52-1.55-1.31c-1.35,0.25-2.54,0.25-3.57-0.58
			c0.78,0.07,1.65,0.51,2.2-0.33c0.04-0.06-0.24-0.34-0.41-0.38c-0.87-0.21-1.71-0.31-1.71,0.78c-1.17-0.65-0.35-1.43-0.17-2.14
			c0.26-1.01,0.91-1.82-0.16-2.99c-0.94-1.03,0.77-2.1,1.58-2.71c1.14-0.86,0.89-1.41,0.27-2.22c-1.74-2.31-0.72-6.86,1.95-8.49
			c1.61-0.98,3.07-1.9,1.52-3.77c-0.41-0.5-0.49-1.37,0.12-1.78c2.72-1.84,0.91-3.72,0.03-5.47c-0.32-0.62-0.71-1.19-0.31-1.69
			c1.29-1.65-1.67-0.22-1.34-1.24c0.02-0.08-1.15-0.1-1.17,0.63c0,0.17,0.18,0.34,0.28,0.5c-0.13,0-0.26-0.02-0.38-0.01
			c-0.07,0.01-0.13,0.09-0.21,0.12c-0.36,0.12-0.55-0.11-0.37-0.26c0.31-0.26-0.37-0.64,0.33-0.87c0.49-0.16,1.28-0.47,0.72-1.24
			c-0.51-0.69-1.04-0.07-1.54-0.08c-0.78-0.01-0.68,0.04-0.75-0.74c-0.09-0.9-2.28-0.94-1.47-2.43c0.17-0.31,0.49-1.01,0.44-1.26
			c-0.16-0.73,4.62-2.03-0.29-2.21c-0.17-0.01-0.48-0.55-0.45-0.57c0.39-0.26,0.81-0.64,1.26-0.67c3.73-0.25,2.02-1.4,0.95-2.86
			c-0.97-1.33-1.33-2.73-0.32-4.57c1.07-1.96,2.36-3.75,3.68-5.57c1.18-1.62,3.19-2.26,4.97-3.19c0.1-0.05,0.32,0.04,0.47,0.08
			c0.01,0,0,0.14-0.03,0.15c-0.13,0.04-0.32,0.11-0.4,0.07c-1.16-0.69-2.71-1.14-3.2-2.31c-0.82-1.98,1.62-1.67,2.7-2.14
			c0.85-0.37,3.12,0.67,1.56-1.46c-0.27-0.37,0.33-0.63,0.74-0.66c1.96-0.14,3.38-2.51,5.88-0.9c0.37,0.24,2.1,0.35,2.93-0.81
			c0.95-1.33,2.52-1.75,4.18-0.51c0.2,0.15,0.64,0.28,0.83,0.2c6.05-2.62,12.91-1.7,19.2-3c4.3-0.89,8.7,0.28,12.81-1.12
			c1.59-0.54,2.81,0.71,4.32,0.6c5.13-0.37,10.26-0.77,15.4-1.07c4.75-0.28,9.56-0.81,14.25-0.47c1.77,0.13,3.1-0.47,4.62-0.41
			c3.92,0.17,7.77-0.53,11.76-0.29c2.31,0.13,5.06-0.37,7.61-0.61c1.46-0.14,3.03,0.22,2.94,1.08c-0.16,1.43-1.56-0.19-2.4,0.16
			c-0.26,0.11-0.58,0.09,0,0.01c0.95-0.57,3.39,1.5,4.94-0.66c0.09-0.12,0.88-0.34,0.97,0.17c0.03,0.2-0.64,0.42-0.76,0.7
			c-0.1,0.23,0.25,0.61,0.61,0.44c1.74-0.84,3.95,0.82,5.53-0.72c0.43-0.42,4.8-0.42,5.18,0.02c0.13,0.15,0.17,0.35,0.26,0.52
			c-0.55,0-1.1,0-1.65,0c0,0.06,0,0.13-0.01,0.2c2.43,0,4.86-0.01,7.28,0c2.55,0.01,5.1,0.05,7.65,0.07
			c1.27,0.01,2.53-0.14,3.77,0.28c1.21,0.41,1.32-0.11,0.96-0.9l0.14-0.13c0.68,0.17,0.23,1.11,1.34,1.11
			c4.89-0.01,9.77,0.42,14.66,0.07c0.14-0.01,0.3,0.09,0.43,0.16c0.06,0.03,0.08,0.11,0.12,0.17c-0.16-0.04-0.35-0.05-0.48-0.12
			c-0.6-0.3-0.45-1.16-0.36-1.17c1.15-0.14,2.32-0.2,3.49-0.21c0.53,0,1.25,0.37,0.98,0.72c-0.78,1.04-0.31,0.85,0.54,0.46
			c1.63-0.74,3.17-1.44,5.1-0.4c1.11,0.59,2.82-0.9,3.23-0.48c1.54,1.58,2.75-0.13,3.99,0.02c2.96,0.38,5.81-0.93,8.75-0.25
			c0.57,0.13,1.52-0.27,1.38,0.72c-0.07,0.48,0.04,1.24-1.09,0.81c-0.1-0.04-0.23-0.01-0.34-0.01c0.12,0.12,0.24,0.33,0.37,0.34
			c1.6,0.1,3.22,0.14,4.82,0.25c0.84,0.06,2.3-0.9,2.27,0.87c0,0.21,0.23,0.01,0.17-0.22c-0.24-0.87,0.77-0.91,1.27-0.95
			c0.92-0.06,1.13,0.41,0.59,1.05c0.07,0.04,0.15,0.07,0.22,0.11c-0.08-0.11-0.27-0.26-0.24-0.34c0.62-1.2,1.77-0.76,2.82-0.58
			c4.12,0.7,8.04,2.2,12.34,2.15c1.36-0.02,2.72-0.18,4.08-0.21c0.45-0.01,1.17-0.01,1.08,0.57c-0.03,0.17-0.77,0.34-1.2,0.37
			c-0.38,0.02-0.77-0.23-1.16-0.24c-0.56-0.02-1.12,0.08-1.4,0.57c0.48,0.06,0.96,0.16,1.44,0.16c0.84,0,1.69-0.16,2.52-0.09
			c1.01,0.08,1.93,0.6,1.91,1.43c-0.02,0.74-1.11,0.57-1.79,0.66c-0.58,0.08-1.38-0.04-1.45,0.57c-0.05,0.39,0.35,1.13,0.7,1.19
			c1.46,0.28,2.08,1.46,3.06,1.91c2.1,0.96,2.41,1.93,1.59,3.56c-0.26,0.52,0.41,0.5,0.78,0.52c1.57,0.11,3.14,0.57,4.7-0.04
			L241.99,23.65z M14.72,37.01c0.18-0.01,0.35-0.02,0.53-0.04c-0.19,0.03-0.38,0.05-0.57,0.08c0.03,0.06,0.07,0.11,0.1,0.17
			c-0.06,0.02-0.12,0.04-0.18,0.07C14.64,37.2,14.68,37.11,14.72,37.01z M241.55,42.23c-1.6-0.89-3.31-0.14-4.97-0.2
			c1.5,0.39,2.99,0.94,4.6,0.31C241.3,42.3,241.43,42.27,241.55,42.23z M15.47,43c-1.07,0.54-2.23,1.11-2.68,1.34
			C13.07,43.93,17.11,45.57,15.47,43z M231.25,77.96c-0.68-0.28-1.33-0.11-1.36,0.28c-0.06,0.76,0.8,0.34,1.09,0.27
			c0.91-0.22,1.59-0.11,2.2,0.5c0.4,0.4,0.75,0.02,1.04-0.18c0.14-0.1,0.26-0.45,0.19-0.49c-0.24-0.15-0.56-0.31-0.84-0.31
			C232.74,78.03,231.91,78.34,231.25,77.96z M211.96,82.65c-0.02-0.03-0.04-0.06-0.06-0.09c0.16,0.01,0.33,0.06,0.48,0.04
			c0.5-0.07,1.06-0.08,1.48-0.28c0.95-0.43,1.56,0.32,2.35,0.35c-1.34-0.08-2.67,0.59-4.01,0.01
			C212.14,82.65,212.04,82.66,211.96,82.65z M14.3,73.12c0.83-0.22,1.56-0.55,1.59-1.37c0.02-0.37-0.4-0.47-0.68-0.31
			c-0.63,0.36-1.64,0.48-1.59,1.37C13.65,73.14,13.89,73.27,14.3,73.12z M13.31,79.71c1.12,0,2.1,0.02,3.08-0.02
			c0.18-0.01,0.39-0.21,0.53-0.36c0.28-0.3-0.16-0.36-0.27-0.32C15.61,79.36,14.25,78.51,13.31,79.71z M226.19,82.51
			c-1.11-0.06-2.22-0.13-3.33-0.16c-0.34-0.01-0.95-0.12-0.84,0.41c0.03,0.14,0.82,0.37,0.97,0.27
			C224.01,82.36,225.05,82.32,226.19,82.51z M15.6,77.83c-1.01-0.06-1.94-0.24-2.81-0.67c-0.8-0.39-1.2,0.57-1.06,0.65
			C12.94,78.49,14.27,77.93,15.6,77.83z M15.8,76.15c-0.16-0.05-0.33-0.14-0.5-0.15c-0.55-0.06-0.95,0.18-1.15,0.56
			c-0.05,0.1,0.21,0.31,0.32,0.47C14.88,76.76,15.27,76.5,15.8,76.15z M208.55,82.9c-0.74,0-1.48,0-2.22,0
			C207.07,82.9,207.81,82.9,208.55,82.9z M92.67,82.23C92.63,82.16,92.65,82.19,92.67,82.23C92.68,82.22,92.69,82.21,92.67,82.23z
			 M219.66,82.38c-0.14,0.03-0.28,0.07-0.41,0.1c0.09,0.1,0.19,0.29,0.27,0.29c0.16-0.01,0.3-0.13,0.45-0.2
			C219.87,82.5,219.76,82.44,219.66,82.38z M142.54,82.34c-0.13,0.06-0.27,0.11-0.4,0.17c0.14,0.05,0.28,0.14,0.42,0.14
			c0.14,0,0.27-0.1,0.41-0.16C142.82,82.44,142.68,82.39,142.54,82.34z M76.18,82.29c0.14,0.08,0.25,0.15,0.37,0.22
			c-0.06,0.04-0.13,0.12-0.19,0.11c-0.15-0.01-0.3-0.06-0.44-0.1C76,82.45,76.09,82.37,76.18,82.29z M11.4,42.96
			c-0.53-0.18-0.69-0.28-0.86-0.28c-0.22,0-0.52,0.01-0.66,0.12c-0.33,0.27,0.12,0.29,0.24,0.3C10.42,43.1,10.72,43.04,11.4,42.96z
			 M221.26,82.97l0.09-0.12l-0.16-0.01L221.26,82.97z"/>
		<path class="st1" d="M160.92,9c-0.9-0.11-2.09,0.53-2.44-0.42c-0.17-0.46,0.53-0.53,1.03-0.32c1.2,0.5,3.14-0.79,3.69,0.46
			C163.44,9.25,161.66,8.83,160.92,9z"/>
		<path class="st1" d="M157.67,8.64c-0.04,0.49-0.56,0.49-0.86,0.41c-0.5-0.12-1.35,0.3-1.5-0.37c-0.08-0.34,0.23-0.5,0.74-0.41
			C156.59,8.39,157.14,8.52,157.67,8.64z"/>
		<path class="st1" d="M180.97,9.02c0.18-0.56,0.69-0.62,1.17-0.54c0.32,0.05,0.83,0.27,0.82,0.4c-0.03,0.55-0.72,0.53-1.28,0.46
			C181.41,9.31,181.16,9.11,180.97,9.02z"/>
		<path class="st1" d="M164.91,9.02c-0.21-0.25-0.34-0.4-0.47-0.55c0.2-0.06,0.4-0.16,0.61-0.17c0.1,0,0.32,0.19,0.29,0.26
			C165.31,8.7,165.12,8.81,164.91,9.02z"/>
		<path class="st1" d="M153.6,8.04c0.24,0.24,0.49,0.39,0.49,0.55c0,0.14-0.26,0.28-0.41,0.42c-0.16-0.16-0.4-0.31-0.45-0.48
			C153.19,8.41,153.42,8.26,153.6,8.04z"/>
		<path class="st1" d="M186.19,9.21c0.07-0.09,0.15-0.18,0.22-0.27c0.07,0.05,0.21,0.1,0.2,0.14c-0.03,0.1-0.13,0.19-0.2,0.28
			C186.34,9.31,186.27,9.26,186.19,9.21z"/>
		<path class="st1" d="M167.77,8.62c-0.07-0.13-0.14-0.26-0.21-0.39c0.12,0.09,0.25,0.17,0.37,0.26
			C167.93,8.5,167.77,8.62,167.77,8.62z"/>
	</g>
	<g>
		<g>
			<path class="st2" d="M232.76,16.43c-0.07,0.24-0.04,0.57-0.22,0.7c-0.33,0.23-0.78,0.34-1.18,0.51c0.83-0.4,1.51,1.24,2.35,0.13
				c0.4-0.53,0.93-0.7,1.46-0.33c0.47,0.33,0.97,0.82,1.03,1.28c0.1,0.68-0.85,0.44-1.31,0.65c-0.72,0.33-2.2-0.01-1.99,1.11
				c0.12,0.62,1.25,0.65,1.99,0.65c0.91-0.01,1.37-1.31,2.36-0.81c0.7,0.35-0.99,0.18-0.7,1.27c0.35,1.31,2.58,2.03,1.53,3.73
				c-0.67,1.09-0.59,2.34,0.15,3.54c0.63,1.01-0.78,0.52-1.11,0.85c-0.12-0.11-0.24-0.23-0.36-0.34c-1.96-0.8-3.37,0.88-5.18,0.77
				c0.01,0.06-0.02,0.16,0.03,0.19c0.13,0.08,0.29,0.14,0.44,0.2c0.18,0.18,0.36,0.35,0.55,0.53c-1.49,0.48-2.67,1.76-4.6,1.21
				c-0.13-0.04-0.71,0.47-0.68,0.69c0.05,0.48,0.58,0.51,1.14,0.54c2.03,0.13,4.12-0.28,6.07,0.48c0.44,0.17,1.11,0.16,1.17,0.66
				c0.08,0.62-0.57,0.75-1.14,0.92c-0.79,0.24-1.55,0.54-2.35,0.78c-1.02,0.31-1.48,0.67-0.51,1.46c0.57,0.47,1.23,1,0.84,1.79
				c-0.51,1.04-1.68,0.25-2.85,0.72c3.62,0.13,3.28,3.1,5.32,4.23c0.73,0.4-1.43,0.75,0.12,0.78c0.14,0.12,0.27,0.24,0.41,0.36
				c-1.57,0.64-1.28,1.72-1.13,2.86c0.08,0.59,1.79,1.04,0.68,1.34c-1.16,0.31-1.96,1.66-3.42,1.03c-0.71-0.3-1.26-0.33-1.86,0.04
				c-0.09,0.06-0.14,0.29-0.08,0.35c0.48,0.44,1.13,0.26,1.68,0.19c2.19-0.28,2.33,0.84,2.79,2.18c0.27,0.79-0.08,2.59,2.37,2.29
				c1.21-0.15,2.39,2.24,1.63,3.08c-0.08,0.09-0.36,0.08-0.39,0.15c-0.93,2.27-0.92,2.27-2.55,2.19c0.78-0.2,1.45,1.33,3.04,1.15
				c-1.98,0.29-4.64,0.03-2.9,2.87c0.43,0.7-0.88,0.99-1.6,0.77c-0.97-0.29-1.64,0.01-2.36,0.4c1.37,0.22,0.43,2.04,2.21,2.08
				c0.89,0.02,2.04-0.26,2.61,0.71c-0.21,0.17-0.41,0.35-0.62,0.52c-2.1-0.16-4.19-0.35-6.29-0.47c-1.12-0.06-2,0.02-1.38,1.37
				c0.35,0.77-0.78,0.83-1.45,1.11c-0.68,0.28-1.77,0.5-1.61,1.38c0.18,1.01,1.25,0.39,1.89,0.49c1.05,0.15,2.99-0.11,2.91,0.56
				c-0.12,0.93-1.87,0.4-2.84,0.35c-2.53-0.14-4.99,0.66-7.53,0.23c-0.49-0.08-1.04,0.15-0.43,0.68c1.49,1.29-0.04,1.09-0.84,1.07
				c-7.89-0.2-15.75,0.2-23.63,0.4c-8.7,0.22-17.4-0.24-26.09-0.77c-9.64-0.59-19.31-0.55-28.94,0.03
				c-15.21,0.92-30.37-0.51-45.55-0.44c-9.87,0.04-19.78-0.23-29.62,0.85c-0.56,0.06-1.56,0.44-1.56-0.48
				c0-0.74,0.74-1.01,1.72-0.77c-0.96,0.91-2.41-0.25-3.34,0.58c-0.04,0.03-0.28-0.08-0.43-0.13c0.14-0.11,0.26-0.27,0.43-0.33
				c0.69-0.22,1.11,0.22,1.54,0.51c0.3,0.2,0.26,0.54-0.12,0.67c-0.46,0.16-0.95,0.27-1.44,0.32c-14.4,1.55-28.87,2.13-43.38,1.67
				c-1.98-0.06-4.07-0.17-5.58-1.56c-0.81-0.74-1.92-0.32-2.89-0.37c-1.97-0.1-3.46-0.53-2.75-2.51c0.47-1.3-0.38-1.52-1.55-1.31
				c-1.35,0.25-2.54,0.25-3.57-0.58c0.78,0.07,1.65,0.51,2.2-0.33c0.04-0.06-0.24-0.34-0.41-0.38c-0.87-0.21-1.71-0.31-1.71,0.78
				c-1.17-0.65-0.35-1.43-0.17-2.14c0.26-1.01,0.91-1.82-0.16-2.99c-0.94-1.03,0.77-2.1,1.58-2.71c1.14-0.86,0.89-1.41,0.27-2.22
				c-1.74-2.31-0.72-6.86,1.95-8.49c1.61-0.98,3.07-1.9,1.52-3.77c-0.41-0.5-0.49-1.37,0.12-1.78c2.72-1.84,0.91-3.72,0.03-5.47
				c-0.32-0.62-0.71-1.19-0.31-1.69c1.29-1.65-1.67-0.22-1.34-1.24c0.02-0.08-1.15-0.1-1.17,0.63c0,0.17,0.18,0.34,0.28,0.5
				c-0.13,0-0.26-0.02-0.38-0.01c-0.07,0.01-0.13,0.09-0.21,0.12c-0.36,0.12-0.55-0.11-0.37-0.26c0.31-0.26-0.37-0.64,0.33-0.87
				c0.49-0.16,1.28-0.47,0.72-1.24c-0.51-0.69-1.04-0.07-1.54-0.08c-0.78-0.01-0.68,0.04-0.75-0.74c-0.09-0.9-2.28-0.94-1.47-2.43
				c0.17-0.31,0.49-1.01,0.44-1.26c-0.16-0.73,4.62-2.03-0.29-2.21C0.29,32.12-0.03,31.57,0,31.56c0.39-0.26,0.81-0.64,1.26-0.67
				c3.73-0.25,2.02-1.4,0.95-2.86c-0.97-1.33-1.33-2.73-0.32-4.57c1.07-1.96,2.36-3.75,3.68-5.57c1.18-1.62,3.19-2.26,4.97-3.19
				c0.1-0.05,0.32,0.04,0.47,0.08c0.01,0,0,0.14-0.03,0.15c-0.13,0.04-0.32,0.11-0.4,0.07c-1.16-0.69-2.71-1.14-3.2-2.31
				c-0.82-1.98,1.62-1.67,2.7-2.14c0.85-0.37,3.12,0.67,1.56-1.46c-0.27-0.37,0.33-0.63,0.74-0.66c1.96-0.14,3.38-2.51,5.88-0.9
				c0.37,0.24,2.1,0.35,2.93-0.81c0.95-1.33,2.52-1.75,4.18-0.51c0.2,0.15,0.64,0.28,0.83,0.2c6.05-2.62,12.91-1.7,19.2-3
				c4.3-0.89,8.7,0.28,12.81-1.12c1.59-0.54,2.81,0.71,4.32,0.6c5.13-0.37,10.26-0.77,15.4-1.07c4.75-0.28,9.56-0.81,14.25-0.47
				c1.77,0.13,3.1-0.47,4.62-0.41c3.92,0.17,7.77-0.53,11.76-0.29c2.31,0.13,5.06-0.37,7.61-0.61c1.46-0.14,3.03,0.22,2.94,1.08
				c-0.16,1.43-1.56-0.19-2.4,0.16c-0.26,0.11-0.58,0.09,0,0.01c0.95-0.57,3.39,1.5,4.94-0.66c0.09-0.12,0.88-0.34,0.97,0.17
				c0.03,0.2-0.64,0.42-0.76,0.7c-0.1,0.23,0.25,0.61,0.61,0.44c1.74-0.84,3.95,0.82,5.53-0.72c0.43-0.42,4.8-0.42,5.18,0.02
				c0.13,0.15,0.17,0.35,0.26,0.52c-0.55,0-1.1,0-1.65,0c0,0.06,0,0.13-0.01,0.2c2.43,0,4.86-0.01,7.28,0
				c2.55,0.01,5.1,0.05,7.65,0.07c1.27,0.01,2.53-0.14,3.77,0.28c1.21,0.41,1.32-0.11,0.96-0.9l0.14-0.13
				c0.68,0.17,0.23,1.11,1.34,1.11c4.89-0.01,9.77,0.42,14.66,0.07c0.14-0.01,0.3,0.09,0.43,0.16c0.06,0.03,0.08,0.11,0.12,0.17
				c-0.16-0.04-0.35-0.05-0.48-0.12c-0.6-0.3-0.45-1.16-0.36-1.17c1.15-0.14,2.32-0.2,3.49-0.21c0.53,0,1.25,0.37,0.98,0.72
				c-0.78,1.04-0.31,0.85,0.54,0.46c1.63-0.74,3.17-1.44,5.1-0.4c1.11,0.59,2.82-0.9,3.23-0.48c1.54,1.58,2.75-0.13,3.99,0.02
				c2.96,0.38,5.81-0.93,8.75-0.25c0.57,0.13,1.52-0.27,1.38,0.72c-0.07,0.48,0.04,1.24-1.09,0.81c-0.1-0.04-0.23-0.01-0.34-0.01
				c0.12,0.12,0.24,0.33,0.37,0.34c1.6,0.1,3.22,0.14,4.82,0.25c0.84,0.06,2.3-0.9,2.27,0.87c0,0.21,0.23,0.01,0.17-0.22
				c-0.24-0.87,0.77-0.91,1.27-0.95c0.92-0.06,1.13,0.41,0.59,1.05c0.07,0.04,0.15,0.07,0.22,0.11c-0.08-0.11-0.27-0.26-0.24-0.34
				c0.62-1.2,1.77-0.76,2.82-0.58c4.12,0.7,8.04,2.2,12.34,2.15c1.36-0.02,2.72-0.18,4.08-0.21c0.45-0.01,1.17-0.01,1.08,0.57
				c-0.03,0.17-0.77,0.34-1.2,0.37c-0.38,0.02-0.77-0.23-1.16-0.24c-0.56-0.02-1.12,0.08-1.4,0.57c0.48,0.06,0.96,0.16,1.44,0.16
				c0.84,0,1.69-0.16,2.52-0.09c1.01,0.08,1.93,0.6,1.91,1.43c-0.02,0.74-1.11,0.57-1.79,0.66c-0.58,0.08-1.38-0.04-1.45,0.57
				c-0.05,0.39,0.35,1.13,0.7,1.19c1.46,0.28,2.08,1.46,3.06,1.91c2.1,0.96,2.41,1.93,1.59,3.56c-0.26,0.52,0.41,0.5,0.78,0.52
				c1.57,0.11,3.14,0.57,4.7-0.04L232.76,16.43z M5.5,29.8c0.18-0.01,0.35-0.02,0.53-0.04c-0.19,0.03-0.38,0.05-0.57,0.08
				c0.03,0.06,0.07,0.11,0.1,0.17c-0.06,0.02-0.12,0.04-0.18,0.07C5.42,29.98,5.46,29.89,5.5,29.8z M232.33,35.01
				c-1.6-0.89-3.31-0.14-4.97-0.2c1.5,0.39,2.99,0.94,4.6,0.31C232.08,35.08,232.2,35.05,232.33,35.01z M6.24,35.78
				c-1.07,0.54-2.23,1.11-2.68,1.34C3.85,36.71,7.89,38.35,6.24,35.78z M222.02,70.75c-0.68-0.28-1.33-0.11-1.36,0.28
				c-0.06,0.76,0.8,0.34,1.09,0.27c0.91-0.22,1.59-0.11,2.2,0.5c0.4,0.4,0.75,0.02,1.04-0.18c0.14-0.1,0.26-0.45,0.19-0.49
				c-0.24-0.15-0.56-0.31-0.84-0.31C223.52,70.82,222.69,71.13,222.02,70.75z M202.74,75.43c-0.02-0.03-0.04-0.06-0.06-0.09
				c0.16,0.01,0.33,0.06,0.48,0.04c0.5-0.07,1.06-0.08,1.48-0.28c0.95-0.43,1.56,0.32,2.35,0.35c-1.34-0.08-2.67,0.59-4.01,0.01
				C202.91,75.44,202.82,75.44,202.74,75.43z M5.07,65.9c0.83-0.22,1.56-0.55,1.59-1.37c0.02-0.37-0.4-0.47-0.68-0.31
				c-0.63,0.36-1.64,0.48-1.59,1.37C4.42,65.93,4.67,66.06,5.07,65.9z M4.08,72.5c1.12,0,2.1,0.02,3.08-0.02
				c0.18-0.01,0.39-0.21,0.53-0.36c0.28-0.3-0.16-0.36-0.27-0.32C6.39,72.15,5.03,71.29,4.08,72.5z M216.97,75.3
				c-1.11-0.06-2.22-0.13-3.33-0.16c-0.34-0.01-0.95-0.12-0.84,0.41c0.03,0.14,0.82,0.37,0.97,0.27
				C214.79,75.14,215.83,75.11,216.97,75.3z M6.38,70.61c-1.01-0.06-1.94-0.24-2.81-0.67c-0.8-0.39-1.2,0.57-1.06,0.65
				C3.71,71.27,5.04,70.71,6.38,70.61z M6.58,68.93c-0.16-0.05-0.33-0.14-0.5-0.15c-0.55-0.06-0.95,0.18-1.15,0.56
				c-0.05,0.1,0.21,0.31,0.32,0.47C5.65,69.55,6.05,69.28,6.58,68.93z M199.33,75.69c-0.74,0-1.48,0-2.22,0
				C197.85,75.69,198.59,75.69,199.33,75.69z M83.44,75.01C83.4,74.95,83.42,74.98,83.44,75.01C83.45,75,83.46,75,83.44,75.01z
				 M210.43,75.16c-0.14,0.03-0.28,0.07-0.41,0.1c0.09,0.1,0.19,0.29,0.27,0.29c0.16-0.01,0.3-0.13,0.45-0.2
				C210.64,75.28,210.54,75.22,210.43,75.16z M133.31,75.13c-0.13,0.06-0.27,0.11-0.4,0.17c0.14,0.05,0.28,0.14,0.42,0.14
				c0.14,0,0.27-0.1,0.41-0.16C133.6,75.22,133.46,75.18,133.31,75.13z M66.95,75.07c0.14,0.08,0.25,0.15,0.37,0.22
				c-0.06,0.04-0.13,0.12-0.19,0.11c-0.15-0.01-0.3-0.06-0.44-0.1C66.77,75.23,66.86,75.15,66.95,75.07z M2.18,35.74
				c-0.53-0.18-0.69-0.28-0.86-0.28c-0.22,0-0.52,0.01-0.66,0.12c-0.33,0.27,0.12,0.29,0.24,0.3C1.19,35.89,1.49,35.82,2.18,35.74z
				 M212.03,75.75l0.09-0.12l-0.16-0.01L212.03,75.75z"/>
			<path class="st2" d="M151.7,1.78c-0.9-0.11-2.09,0.53-2.44-0.42c-0.17-0.46,0.53-0.53,1.03-0.32c1.2,0.5,3.14-0.79,3.69,0.46
				C154.21,2.04,152.43,1.61,151.7,1.78z"/>
			<path class="st2" d="M148.44,1.43c-0.04,0.49-0.56,0.49-0.86,0.41c-0.5-0.12-1.35,0.3-1.5-0.37c-0.08-0.34,0.23-0.5,0.74-0.41
				C147.37,1.17,147.91,1.31,148.44,1.43z"/>
			<path class="st2" d="M171.75,1.8c0.18-0.56,0.69-0.62,1.17-0.54c0.32,0.05,0.83,0.27,0.82,0.4c-0.03,0.55-0.72,0.53-1.28,0.46
				C172.18,2.1,171.93,1.89,171.75,1.8z"/>
			<path class="st2" d="M155.69,1.8c-0.21-0.25-0.34-0.4-0.47-0.55c0.2-0.06,0.4-0.16,0.61-0.17c0.1,0,0.32,0.19,0.29,0.26
				C156.08,1.48,155.9,1.6,155.69,1.8z"/>
			<path class="st2" d="M144.38,0.82c0.24,0.24,0.49,0.39,0.49,0.55c0,0.14-0.26,0.28-0.41,0.42c-0.16-0.16-0.4-0.31-0.45-0.48
				C143.97,1.19,144.2,1.04,144.38,0.82z"/>
			<path class="st2" d="M176.96,1.99c0.07-0.09,0.15-0.18,0.22-0.27c0.07,0.05,0.21,0.1,0.2,0.14c-0.03,0.1-0.13,0.19-0.2,0.28
				C177.12,2.09,177.05,2.05,176.96,1.99z"/>
			<path class="st2" d="M158.54,1.41c-0.07-0.13-0.14-0.26-0.21-0.39c0.12,0.09,0.25,0.17,0.37,0.26
				C158.71,1.28,158.54,1.41,158.54,1.41z"/>
		</g>
	</g>
</g>
</svg>
