<?xml version="1.0" encoding="utf-8"?>
<!-- Generator: Adobe Illustrator 27.4.0, SVG Export Plug-In . SVG Version: 6.00 Build 0)  -->
<svg version="1.1" id="Layer_1" xmlns="http://www.w3.org/2000/svg" xmlns:xlink="http://www.w3.org/1999/xlink" x="0px" y="0px"
	 viewBox="0 0 9.66 356.27" style="enable-background:new 0 0 9.66 356.27;" xml:space="preserve">
<style type="text/css">
	.st0{fill:#2A4E9F;}
</style>
<g>
	<path class="st0" d="M8.18,62.7l0.11,1.25C8.26,63.36,8.22,62.98,8.18,62.7z"/>
	<path class="st0" d="M8.01,53.42c0.11,0.42,0.19,0.59,0.19,0.22L8.01,53.42z"/>
	<path class="st0" d="M1.36,17.92c-0.09,0.54-0.19,1.31-0.28,2.4L1.36,17.92z"/>
	<path class="st0" d="M8.64,112.18l0.44,1.46C9.08,111.35,8.85,112.36,8.64,112.18z"/>
	<path class="st0" d="M8.28,291.62c-0.02,0.13-0.03,0.29-0.05,0.41C8.28,292.06,8.29,291.88,8.28,291.62z"/>
	<path class="st0" d="M7.08,195.72c0.18,1.19,0.15,0.67,0.04-0.25C7.11,195.55,7.09,195.64,7.08,195.72z"/>
	<path class="st0" d="M0.96,84.14c0.01,0.05,0.01,0.08,0.02,0.13C0.99,84.22,1,84.15,1,84.1L0.96,84.14z"/>
	<path class="st0" d="M1,84.11l1.25-1.39l-1.61-2.79C1.18,81.73,1.11,82.75,1,84.11z"/>
	<path class="st0" d="M8.26,283.73l0.01-0.23C8.26,283.56,8.26,283.64,8.26,283.73z"/>
	<path class="st0" d="M8.62,168.47c0,0.13,0.01,0.25,0.01,0.38C8.63,168.71,8.63,168.58,8.62,168.47z"/>
	<path class="st0" d="M8.06,58.73l0.01,0.44C8.07,59,8.07,58.86,8.06,58.73z"/>
	<path class="st0" d="M8.53,112.05c-0.08-0.21-0.15-0.64-0.21-1.52c0.09-3.86,0.57-7.29,0.03-11.87l0.7-2.6
		c-0.16-3.59-0.89,3.52-1.15-2.46c-0.22-4.23,0.6-1.58,0.8-3.06c-0.35-2.1-1.08-5.76-0.5-9.64c0.15,1.28,0.05,2.29,0.1,3.49
		l0.39-2.96c0.64,3.57,0.42,6.16,0.97,3.38C8.3,84.39,9.52,73.3,8.16,72.89l0.29-1.95c-0.01,0.56,0.07,0.65,0.05,1.2
		c0.65-3.8-0.98-2.82-0.79-7.71c0.1-1.7,0.3-2.89,0.46-1.73l-0.34-3.8c0.03-0.93,0.19-0.87,0.23-0.17l-0.1-5.35L8,53.42
		c-0.21-0.83-0.54-2.7-0.68-3.61c0.19-1.47,0.14,0.74,0.31,0.36L7.3,46.96c0.35-1.31,0.69,1.35,0.64,3.57
		c1.36-3-0.34-2.66,0.45-9.12l0.17,3.03c0.77-1.95,0.49-4.32,0.97-7.74C9.3,37.5,8.34,43.55,8,40.07c0.1-0.98,0.15-2.27-0.12-4.15
		c0.48-0.02,0.36-1.85,0.34-4.15l0.64,0.16c-0.18-2.48-0.51-2.28-0.8-3.74c0.06-2.76,0.56-3.34,0.98-3.99
		c0.1-4.43-0.79,3.06-0.91-2.18c0.24-3.68-0.02-6.27-0.4-10.67c0.22-2.58,0.39,0.45,0.57-0.47l-0.52-2.3
		C7.79,8.02,7.95,8.2,8.03,8.29c-0.2-1.92-0.64-0.16-0.81-3.18c-0.31-0.36-0.15-1.6,0.06-3.19l0.17-1.26L5.8,0.44
		C4.94,0.33,3.97,0.2,2.98,0.13L1.33,0L1.19,1.92c-0.1,1.35-0.11,2.73,0.15,3.94C1.15,6.79,0.94,5.42,0.7,5.7
		c0.52,5.14,0.38,4.41,1.09,8.62l-0.42,3.59c0.48-2.64,1.05,0.73,1.52,3.69c0.03-0.13,0.06-0.25,0.09-0.37v1
		c-0.03-0.21-0.07-0.41-0.1-0.62c-0.04,0.17-0.09,0.35-0.13,0.53c0.08,0.24,0.16,0.46,0.23,0.68v2.34c-0.19,0-0.41-0.61-0.62-1.33
		c0.13-0.57,0.27-1.14,0.39-1.7c-0.39-1.16-0.82-2.25-1.19-2.01c0.07,0.31,0.14,0.9,0.17,1.55c-0.11-0.3-0.2-0.5-0.26-0.36
		c-0.07,0.16,0.07,0.65,0.24,1.42L1,23.8l0.28,0.26l-0.45,6.17c0.72,4.42,1.77,8.26,2.07,15.26c-0.52-1.74-0.85-0.37-1.47-0.47
		c0.66-1.91-0.28-5.43-0.15-9.06c-0.07,1.9-0.36,1.48-0.47,1l0.6,6.48c-0.51-0.15-0.38,1.38-0.59,3.07c1-1.28,0.67,4.83,0.97,7.46
		c-0.34,0.16-0.68-0.47-0.6-3.68c-0.75,3.55,1.18,4.58,0.54,8.07c-0.01-0.79,0.04-1.21-0.13-1.52c0.3,1.83,0.06,6.32-0.23,5.26
		l-0.01-0.78C1.24,66.54,1.35,77.19,2.2,77.97c-0.11,0.05-1.03-0.68-1.2-1l1.98,6.44v2.89c-0.79,0.37-1.71,0.98-2-2.03
		c-0.1,1.24-0.23,2.78,0.03,5.39c0.1-0.85,1.06-2.11,1.12-0.95C1.32,91.89,1.7,90.91,1,94.83c0.16-1.27,1.3,0.14,1.27,2.15
		c-0.17-0.31-1.13,0.17-1.25-0.57l1.12,4.99c-0.2-1.25-0.95-0.22-1.27,0.9c0.22-0.52-0.02,4.32,0.09,5.65l0.26-2.12
		c-0.17,5.64,1.58,5.57,1.52,11.16c-0.23-0.68-1.43-1.67-1.57,1.17c0.31,0.7,1.09,2.32,1.81,4.44v6.32
		c-0.76-2.7-1.54-5.81-1.95-7.91c-0.26,2.11-0.39,0.59-0.36,3.75c-0.31,1.12-0.47-1.72-0.49-2.65L0,129.46
		c0.67-0.33,0.67,5.62,1.23,5.34l-0.7-7.99c0.67-0.32,1.91,4.62,1.79,9.83c-0.27,1.33-1.2-0.99-1.42-0.88
		c0.23,0.68,0.44,4.95,0.28,5.42l-0.36-2.21c-0.25,2.9,0.89,4.73,0.25,8.22c-0.04,1.2-0.87,3.59-0.47,3.8
		c0.46-1.18,1.5-1.77,2.38-1.79v4.11l-0.27-0.18l0.01,0.79l0.26-0.03v4.19c-0.57,0.43-1.26-3.2-1.72-1.73
		c0.18,0.07,0.41,1.17,0.48,1.62c-0.16,1.26-0.57-0.52-0.49,2.22c0.68,0.46-0.06,5.58,0.58,1.3c0.19,2.69-0.14,2.85-0.11,6.01
		c0.29-0.66,0.86,0.81,1.26,2.65v3.41c-0.03,0.07-0.05,0.14-0.07,0.19c0-0.03,0-0.05,0-0.09c-0.08,0.35-0.06,0.29,0,0.1
		c-0.06,5.5-0.37,8.45-0.38,13.58c-0.16,0.47-0.36,2.95-0.66,1.9c0.12,0.74,0.35,1.42,0.37,3c-0.59,3.06-0.09-3.53-0.8-1.19
		c0.4,0.2,0.55,4.09,0.79,6.35c0.61-0.69,0.12-5.21-0.13-7.47c0.3,0,0.6,0.49,0.88,1.35v16.19c-0.29,3.52-0.02,13.19-0.42,18.74
		c0.13,0.81,0.27,2.06,0.42,2.29v21.03c-0.07-0.06-0.14-0.07-0.22,0.02l0.22,2.57v0.45c-0.12-0.12-0.28-0.94-0.37-0.17
		c0.14,0.07,0.27,0.48,0.37,1.09v4.48c-0.01,0.07-0.02,0.14-0.03,0.21c0.01,0.07,0.02,0.13,0.03,0.19v3.68
		c-0.01,0.13-0.03,0.29-0.04,0.51c0.03,0.21,0.04,0.44,0.04,0.66v93.04H5.8v-0.04c0.03,0,0.06,0.01,0.07,0.04
		c-0.01-0.28-0.04-0.49-0.07-0.65v-3.03c0.4-1.18,0.83-2.44,1.26-2.26c-0.85-3.11,1.26-8.2,0.04-13.3c0.2-1.13,0.31,0.96,0.53,0.36
		c-0.41-1.29-0.5-2.85-0.31-5.75l0.1,0.33c-0.1-8.13,0.3-11.61,0.57-20.75l-0.47,0.68c0.06-1.96,0.21-2.38,0.33-3.29
		c-0.72-2.25-0.04,5.51-0.83,3.46c0.96-2.6,0.01-13.84,1.11-15.6c0.01-3.02-0.55,0.88-0.54-2.13l0.3-0.8l-0.38-0.76
		c0.06-1.98,0.43-2.98,0.68-3.05c-0.03,0.48,0.07,1.36,0.09,1.88c0.33-2.4-0.06-6.61-0.02-7.89l-0.17,2.67
		c-0.28-8.24,0.11-18.3-0.49-26.26l-0.22,0.6c-0.41-6.08,0.25-4.87,0.05-11.54l0.05,0.24c-0.22-1.34-0.33-3.12-0.31-4.95
		c0.26,1.69,0.51-3.17,0.8-0.96c-0.44-6.59-0.35-3.26-1.18-7.61l0.37-1c-0.34-1.48-0.51-1.61-0.61-4.94
		c0.32,2.73,0.57-2.13,0.99,0.93c0.81-6.99-0.82-10.38,0.37-13.59c-1.03-3.21-0.57,6.05-0.79,4.25c-0.34,1.51-0.77-2.65-0.66-4.85
		c0.02-2.23,1.31-3.8,1.29-9.42c0,0.56,0.07,0.6,0.07,1.15c0.26-2.1-0.35-4.12,0.07-6.7c-0.62-1.45,0.04-3.35-0.76-3.77l0.18,5.16
		c-0.21-2.92-1.13-5.66-0.68-10.48c0.16,0.38,0.37,1.81,0.49,2.79c0.23-1.41-0.15-2.71,0.08-4.17c0.79,0.42,0.17,6.27,0.78,9.4
		c0.33-1.51-0.57-5.92,0.28-4.35c-1.09-2.26,0.14-5.54-0.7-9.34l0.47,0.25c-0.07-0.6-0.3-1.85-0.29-2.96l0.62,2.01
		c-0.52-3.08,0.46-5.94,0.17-8.9c0.01,6.19-0.57,1.39-0.92,4.01c-0.63-7.51,1.18-4.5,1.02-12.55c-0.01,1.34-0.32,3.79-0.51,2.15
		c0.1-1.63,0.28-3.77,0.53-4.77c-0.1-5.66-0.49,0.87-0.78-1.54c0.58-1.93-0.24-2.78-0.42-5.26l0.48-0.02
		c0.31-6.45-1.01-1.71-0.63-7.52l0.67,2.46l-0.17-3.03l0.55,0.62c-0.41-3.29-0.3-4.32-0.15-7.55c-0.34,0.75-0.88-0.42-0.89-3.28
		c0.29-1.95,0.46,1.09,0.39-2.96c0.3,0.91,0.68,1.92,0.24,3.68c0.16,0.18,0.3,0.9,0.46,1.09c0.33-2.1,0.08-5.27,0.07-6.74
		c-0.02,0.56-0.04,1.24-0.11,1.59l-0.67-5.87c0.18-0.92,0.33-0.19,0.47,0.54c-0.05-1.19-0.27-2.01-0.32-3.76
		c0.39,0.45,0.8,0.34,0.98,2.82l-0.44-5.59c0.17-0.37,0.47-2.87,0.61-2.14C9.22,120.67,8.23,116.16,8.53,112.05z M7.99,40.15
		c0.1,0.86,0.41,2.57,0.13,3.19C7.57,42.37,7.83,41.61,7.99,40.15z M1.95,28.12c-0.16-0.64-0.08-1.62,0.1-2.74
		C2.09,26.19,2.08,27.11,1.95,28.12z"/>
	<path class="st0" d="M1.55,20.12c-0.08-0.33-0.17-0.34-0.26,0.37C1.37,20.25,1.46,20.18,1.55,20.12z"/>
	<path class="st0" d="M8.55,112.04c0.03,0.07,0.06,0.11,0.09,0.14l-0.08-0.27L8.55,112.04z"/>
	<path class="st0" d="M1.01,157.93c0.07-0.82,0.16-1.27,0.25-1.58C1.14,156.31,1.04,156.68,1.01,157.93z"/>
	<polygon class="st0" points="2.97,237.54 2.83,240.39 2.94,239.55 	"/>
	<path class="st0" d="M2.07,209.01c0.1-0.84,0.22-0.9,0.38-1.37l-0.62-0.09L2.07,209.01z"/>
	<path class="st0" d="M1.47,199.38c0.17,0.31,0.32,3.42,0.46,0.57C1.76,199.64,1.44,195.44,1.47,199.38z"/>
	<path class="st0" d="M0.6,116.07c0.24,0.86,0.25-2.72,0.46-1.83c-0.26-2.23-0.11-3.4-0.78-2.37C0.04,115.55,0.91,112.74,0.6,116.07
		z"/>
	<path class="st0" d="M1.06,114.23c0.04,0.36,0.09,0.73,0.15,1.13C1.15,114.72,1.1,114.42,1.06,114.23z"/>
	<path class="st0" d="M9.3,33.57l-0.16-0.18c-0.17,0.37-0.18,0.92-0.21,2.03L9.3,33.57z"/>
	<polygon class="st0" points="8.83,65.13 8.24,66.16 8.81,65.68 	"/>
	<path class="st0" d="M9.48,89.14c-0.01,0.28,0,0.58,0,0.88C9.49,89.74,9.49,89.45,9.48,89.14z"/>
	<path class="st0" d="M9.56,92.64c0.01-0.82-0.05-1.74-0.08-2.62C9.42,91.87,8.92,92.89,9.56,92.64z"/>
</g>
</svg>
