<?xml version="1.0" encoding="utf-8"?>
<!-- Generator: Adobe Illustrator 27.4.0, SVG Export Plug-In . SVG Version: 6.00 Build 0)  -->
<svg version="1.1" id="Layer_1" xmlns="http://www.w3.org/2000/svg" xmlns:xlink="http://www.w3.org/1999/xlink" x="0px" y="0px"
	 viewBox="0 0 775.26 9.66" style="enable-background:new 0 0 775.26 9.66;" xml:space="preserve">
<style type="text/css">
	.st0{fill:#2A4E9F;}
</style>
<g>
	<path class="st0" d="M641.41,8.18l-2.72,0.11C639.98,8.26,640.81,8.22,641.41,8.18z"/>
	<path class="st0" d="M661.11,8.2l0.48-0.19C660.68,8.12,660.3,8.2,661.11,8.2z"/>
	<path class="st0" d="M730.22,1.08l5.22,0.28C734.27,1.27,732.59,1.17,730.22,1.08z"/>
	<path class="st0" d="M533.87,8.64l-3.17,0.44C535.66,9.08,533.48,8.85,533.87,8.64z"/>
	<path class="st0" d="M591.49,0.96c-0.12,0.01-0.18,0.01-0.29,0.02c0.12,0,0.27,0.01,0.38,0.02L591.49,0.96z"/>
	<path class="st0" d="M594.61,2.25l6.05-1.61c-3.9,0.54-6.12,0.47-9.08,0.36L594.61,2.25z"/>
	<path class="st0" d="M411.47,8.62c-0.31,0-0.6,0.01-0.9,0.01C410.91,8.63,411.21,8.63,411.47,8.62z"/>
	<path class="st0" d="M773.53,1.34c-3.87-0.21-8.24-0.36-11.89,0c-2.01-0.18,0.97-0.39,0.36-0.64c-11.17,0.52-9.58,0.38-18.75,1.09
		l-7.81-0.42c5.74,0.48-1.59,1.05-8.02,1.52c0.28,0.03,0.53,0.06,0.8,0.09h-2.15c0.45-0.03,0.89-0.07,1.36-0.1
		c-0.38-0.04-0.77-0.09-1.16-0.13c-0.51,0.08-1.01,0.16-1.49,0.23h-5.1c0-0.19,1.31-0.41,2.89-0.62c1.25,0.13,2.49,0.27,3.69,0.39
		c2.53-0.39,4.9-0.82,4.37-1.19c-0.67,0.07-1.95,0.14-3.36,0.17c0.66-0.11,1.09-0.2,0.78-0.26c-0.35-0.07-1.42,0.07-3.09,0.24
		L722.62,1l-0.57,0.28l-13.41-0.45c-9.6,0.72-17.94,1.77-33.18,2.07c3.78-0.52,0.81-0.85,1.02-1.47c4.16,0.66,11.8-0.28,19.69-0.15
		c-4.12-0.07-3.21-0.36-2.17-0.47l-14.08,0.6c0.32-0.51-2.99-0.38-6.67-0.59c2.78,1-10.49,0.67-16.22,0.97
		c-0.36-0.34,1.02-0.68,8.01-0.6c-7.71-0.75-9.96,1.18-17.53,0.54c1.71-0.01,2.63,0.04,3.3-0.13c-3.99,0.3-13.73,0.06-11.44-0.23
		l1.7-0.01c-11.33-0.12-34.49-0.01-36.18,0.84c-0.11-0.11,1.48-1.03,2.17-1.2l-14,1.98h-6.29c-0.81-0.79-2.13-1.71,4.41-2
		c-2.7-0.1-6.03-0.23-11.72,0.03c1.84,0.1,4.59,1.06,2.07,1.12c-6.9-0.81-4.79-0.43-13.3-1.13c2.76,0.16-0.31,1.3-4.66,1.27
		c0.68-0.17-0.36-1.13,1.23-1.25l-10.35,1.07c1.88-0.25-0.2-0.92-2.45-1.22c1.13,0.22-9.38-0.02-12.27,0.09l4.6,0.26
		c-12.25-0.17-12.1,1.58-24.25,1.52c1.47-0.23,3.63-1.43-2.55-1.57c-1.51,0.32-5,1.09-9.56,1.81h-13.63
		c5.84-0.75,12.51-1.52,17.03-1.93c-4.58-0.26-1.28-0.39-8.14-0.36c-2.42-0.31,3.74-0.47,5.76-0.49L493,0
		c0.71,0.67-12.22,0.67-11.61,1.23l17.36-0.7c0.7,0.67-10.04,1.91-21.36,1.79c-2.88-0.27,2.15-1.2,1.92-1.42
		c-1.47,0.23-10.75,0.44-11.79,0.28l4.8-0.36c-6.3-0.25-10.29,0.89-17.87,0.25c-2.61-0.04-7.81-0.87-8.26-0.47
		c2.56,0.46,3.87,1.5,3.91,2.38h-8.94l0.39-0.27l-1.72,0.01l0.06,0.26h-9.12c-0.93-0.57,6.97-1.26,3.76-1.72
		c-0.16,0.18-2.54,0.41-3.53,0.48c-2.75-0.16,1.14-0.57-4.83-0.49c-1,0.68-12.14-0.06-2.82,0.58c-5.84,0.19-6.2-0.14-13.06-0.11
		c1.45,0.29-1.74,0.86-5.76,1.26h-7.43c-0.15-0.03-0.3-0.05-0.41-0.07c0.07,0,0.12,0,0.21,0c-0.75-0.08-0.62-0.06-0.22,0
		c-11.96-0.06-18.38-0.37-29.54-0.38c-1.03-0.16-6.41-0.36-4.12-0.66c-1.6,0.12-3.08,0.35-6.52,0.37c-6.66-0.59,7.67-0.09,2.6-0.8
		c-0.43,0.4-8.9,0.55-13.8,0.79c1.51,0.61,11.33,0.12,16.23-0.13c0.01,0.3-1.06,0.6-2.93,0.88h-35.13
		c-7.63-0.29-28.73-0.02-40.81-0.42c-1.77,0.13-4.48,0.27-4.98,0.42H232c0.13-0.07,0.13-0.14-0.06-0.22l-5.59,0.22h-0.98
		c0.27-0.12,2.05-0.28,0.4-0.37c-0.15,0.14-1.05,0.27-2.37,0.37h-9.74c-0.15-0.01-0.31-0.02-0.46-0.03
		c-0.15,0.01-0.27,0.02-0.41,0.03h-8c-0.27-0.01-0.63-0.03-1.11-0.04c-0.53,0.04-1.11,0.04-1.67,0.04H0V5.8h0.1
		C0.09,5.83,0.06,5.86,0,5.87C0.62,5.86,1.06,5.83,1.41,5.8h9.88c2.56,0.4,5.3,0.83,4.9,1.26c6.76-0.85,17.82,1.26,28.9,0.04
		c2.45,0.2-2.09,0.31-0.78,0.53c2.81-0.41,6.2-0.5,12.49-0.31l-0.71,0.1c17.67-0.1,25.24,0.3,45.09,0.57l-1.47-0.47
		c4.26,0.06,5.16,0.21,7.16,0.33c4.89-0.72-11.98-0.04-7.52-0.83c5.66,0.96,30.08,0.01,33.9,1.11c6.56,0.01-1.92-0.55,4.64-0.54
		l1.74,0.3l1.66-0.38c4.3,0.06,6.47,0.43,6.63,0.68c-1.04-0.03-2.96,0.07-4.08,0.09c-0.28-0.02-0.62-0.04-0.88-0.05
		c-0.09,0.05,0.31,0.06,0.87,0.05c5.2,0.33,14.37-0.06,17.15-0.02l-5.8-0.17c17.91-0.28,39.77,0.11,57.07-0.49l-1.31-0.22
		c13.21-0.41,10.58,0.25,25.09,0.05l-0.53,0.05c2.9-0.22,6.78-0.34,10.75-0.31c-3.66,0.26,6.89,0.51,2.09,0.8
		c14.33-0.44,7.09-0.35,16.55-1.18l2.18,0.37c3.22-0.34,3.49-0.51,10.74-0.61c-5.94,0.32,4.62,0.57-2.03,0.99
		c15.2,0.81,22.57-0.82,29.55,0.37c6.98-1.03-13.15-0.57-9.25-0.79c-3.27-0.34,5.76-0.77,10.53-0.66c4.86,0.02,8.26,1.31,20.47,1.29
		c-1.22,0-1.3,0.07-2.51,0.07c4.57,0.26,8.96-0.35,14.56,0.07c3.14-0.62,7.28,0.04,8.19-0.76l-11.21,0.18
		c6.35-0.21,12.31-1.13,22.77-0.68c-0.82,0.16-3.92,0.37-6.06,0.49c-0.17-0.01-0.36-0.03-0.55-0.04c-2.57,0.18-1.44,0.15,0.55,0.04
		c3.06,0.23,5.89-0.15,9.05,0.08c-0.9,0.79-13.62,0.17-20.42,0.78c3.28,0.33,12.87-0.57,9.45,0.28c4.92-1.09,12.04,0.14,20.31-0.7
		l-0.55,0.47c1.31-0.07,4.02-0.3,6.43-0.29l-4.36,0.62c6.7-0.52,12.91,0.46,19.34,0.17c-13.45,0.01-3.02-0.57-8.71-0.92
		c16.31-0.63,9.79,1.18,27.21,1.02c-2.92-0.01-8.14-0.32-4.61-0.51c3.54,0.1,8.21,0.28,10.38,0.53c12.31-0.1-1.89-0.49,3.35-0.78
		c4.19,0.58,6.04-0.24,11.44-0.42l0.04,0.48c14.02,0.31,3.72-1.01,16.34-0.63l-5.34,0.67l6.58-0.17l-1.36,0.55
		c7.16-0.41,9.39-0.3,16.41-0.15c-1.63-0.34,0.92-0.88,7.13-0.89c4.24,0.29-2.37,0.46,6.43,0.39c-1.99,0.3-4.17,0.68-8,0.24
		c-0.39,0.16-1.96,0.3-2.36,0.46c4.56,0.33,11.46,0.08,14.65,0.07c-1.23-0.02-2.69-0.04-3.45-0.11l12.76-0.67
		c2.01,0.18,0.42,0.33-1.16,0.47c2.59-0.05,4.37-0.27,8.17-0.32c-0.98,0.39-0.75,0.8-6.13,0.98L504,8.38
		c0.81,0.17,6.24,0.47,4.66,0.61c6.74,0.23,16.54-0.76,25.47-0.46c0.46-0.08,1.4-0.15,3.3-0.2c8.4,0.09,15.84,0.57,25.8,0.03
		l5.65,0.7c7.8-0.16-7.65-0.89,5.34-1.15c9.19-0.22,3.43,0.6,6.66,0.8c4.57-0.35,12.52-1.08,20.96-0.5
		c-2.77,0.14-4.96,0.04-7.57,0.09l6.43,0.39c-7.77,0.64-13.39,0.42-7.35,0.97c0.91-1.36,25.01-0.14,25.91-1.5l4.24,0.29
		c-1.22-0.01-1.41,0.07-2.61,0.05c8.25,0.65,6.13-0.98,16.76-0.79c3.7,0.1,6.29,0.3,3.76,0.46l8.25-0.34c2,0.03,1.92,0.19,0.44,0.23
		l11.57-0.1L661.58,8c1.8-0.21,5.87-0.54,7.85-0.68c3.2,0.19-1.6,0.14-0.79,0.31l6.97-0.33c2.84,0.35-2.94,0.69-7.75,0.64
		c6.51,1.36,5.78-0.34,19.83,0.45l-6.58,0.17c4.24,0.77,9.38,0.49,16.82,0.97c-1.66-0.23-13.32-1.09-8.51-1.48
		c-1.97,0.12-4.79,0.31-5.93,0.07c2.12-0.55,3.76-0.29,6.93-0.13c0.06,0,0.12-0.01,0.18-0.01c2.13,0.1,4.94,0.15,9.02-0.12
		c0.04,0.48,4.02,0.36,9.01,0.34l-0.34,0.64c5.39-0.18,4.97-0.51,8.14-0.8c6.01,0.06,7.25,0.56,8.67,0.98
		c9.62,0.1-6.64-0.79,4.74-0.91c8,0.24,13.62-0.02,23.2-0.4c5.6,0.22-0.98,0.39,1.03,0.57l4.97-0.51c1.22,0.01,0.82,0.17,0.62,0.25
		c4.18-0.2,0.34-0.64,6.92-0.81c0.78-0.31,3.47-0.15,6.93,0.06l1.38,0.08L775,5.8c0.05-0.9,0.11-1.84,0.17-2.82l0.09-1.55
		L773.53,1.34z M719.21,2.05c-1.75,0.04-3.74,0.03-5.95-0.1C714.65,1.79,716.79,1.87,719.21,2.05z M772.32,2.98h-0.04l0-0.04
		L772.32,2.98z M773.53,4.21V4.19l0.02,0.02L773.53,4.21z"/>
	<path class="st0" d="M650.1,8.06l-1.02,0.01C649.47,8.07,649.81,8.07,650.1,8.06z"/>
	<path class="st0" d="M690.43,7.99c0,0-0.01,0-0.01,0c-0.38,0.02-0.72,0.04-0.99,0.06C689.79,8.03,690.14,8.01,690.43,7.99z"/>
	<path class="st0" d="M160.98,8.26l0.5,0.01C161.35,8.26,161.18,8.26,160.98,8.26z"/>
	<path class="st0" d="M729.84,1.29c0.53,0.08,0.67,0.17,0.8,0.26C731.37,1.47,731.38,1.38,729.84,1.29z"/>
	<path class="st0" d="M533.88,8.64l0.58-0.08l-0.29-0.01C534.01,8.58,533.92,8.61,533.88,8.64z"/>
	<path class="st0" d="M431.1,1.01c1.78,0.07,2.77,0.16,3.43,0.25C434.63,1.14,433.82,1.04,431.1,1.01z"/>
	<polygon class="st0" points="258.07,2.97 251.87,2.83 253.7,2.94 	"/>
	<path class="st0" d="M323.28,1.83l-3.19,0.24c1.83,0.1,1.95,0.22,2.98,0.38L323.28,1.83z"/>
	<path class="st0" d="M341.02,1.47c-0.68,0.17-7.45,0.32-1.24,0.46C340.45,1.76,349.58,1.44,341.02,1.47z"/>
	<path class="st0" d="M526.09,1.06c4.83-0.26,7.37-0.11,5.15-0.78c-8-0.24-1.9,0.63-9.13,0.32C520.23,0.84,528.02,0.85,526.09,1.06z
		"/>
	<path class="st0" d="M526.09,1.06c-0.77,0.05-1.59,0.1-2.47,0.15C525.02,1.15,525.68,1.1,526.09,1.06z"/>
	<path class="st0" d="M704.73,9.3l0.39-0.16c-0.8-0.17-2-0.18-4.42-0.21L704.73,9.3z"/>
	<polygon class="st0" points="634.93,8.81 636.13,8.83 633.89,8.24 	"/>
	<path class="st0" d="M583.95,9.48c-0.62-0.01-1.26,0-1.92,0C582.63,9.49,583.27,9.49,583.95,9.48z"/>
	<path class="st0" d="M576.35,9.56c1.78,0.01,3.78-0.05,5.68-0.08C578.01,9.42,575.78,8.92,576.35,9.56z"/>
</g>
</svg>
