<svg xmlns="http://www.w3.org/2000/svg" viewBox="0 0 221 221">
  <path fill="#ee3b6d" d="M180.619 110.277c0 38.564-31.262 69.826-69.826 69.826-38.564 0-69.826-31.262-69.826-69.826 0-38.564 31.262-69.826 69.826-69.826 38.564 0 69.826 31.262 69.826 69.826z"/>
  <path fill="#fff" d="M79.093 87.935v-1.428c.306-.954.938-1.674 1.644-2.356 1.168-1.128 2.302-2.29 3.45-3.438 1.842-1.84 3.616-1.84 5.458.002 7.472 7.47 14.942 14.94 22.414 22.408.16.16.334.31.596.554.182-.234.308-.442.474-.608 7.36-7.366 14.724-14.728 22.09-22.088 1.594-1.594 3.494-1.608 5.096-.038a473.8 473.8 0 0 1 4.15 4.116c.272.274.53.58.718.914.79 1.412.49 2.898-.834 4.222-7.364 7.362-14.728 14.724-22.096 22.082-.168.168-.372.298-.752.598.338.224.588.336.77.516a32849.25 32849.25 0 0 1 22.118 22.058c1.652 1.65 1.65 3.53.004 5.182-1.146 1.15-2.312 2.282-3.44 3.45-.485.5-.983.973-1.562 1.334a4.92 4.92 0 0 1-.389.42c.053-.09.106-.184.155-.283-.22.12-.451.225-.698.309h-1.428c-1-.366-1.726-1.09-2.458-1.824-7.142-7.152-14.294-14.294-21.436-21.446-.18-.18-.284-.436-.508-.79-.33.418-.474.64-.656.822-7.114 7.118-14.236 14.23-21.344 21.354-.764.766-1.528 1.51-2.572 1.884h-1.43c-.984-.346-1.718-1.028-2.428-1.758-1.132-1.164-2.294-2.296-3.44-3.446-1.668-1.676-1.668-3.556 0-5.232l12.567-12.626c-.239-.543 1.047-2.155.32-2.047.699-.404.74.04 1.72-1.232.46-.972-1.333.422-1.787.57.684-1.018.57-1.13.472-1.276 1.204-.21 2.621.132 2.15 1.096l6.584-6.615c.164-.164.32-.336.596-.63-.24-.174-.474-.302-.656-.484-7.212-7.202-14.416-14.41-21.628-21.61-.79-.79-1.602-1.556-2.004-2.636zm-2.703 1.012c.123.064.39-.303.661.396zm-.007-.004.007.004a.064.064 0 0 1-.007-.004zm8.138 6.796-1.13-.538.222-.02zm.742 1.488.832.018.04.27c.762 1.122 2.764 1.95 2.76 2.954-.666-.946-2.422-2.162-3.632-3.242zm4.835 6.602c-.022-.052-.028-.084-.07-.168 1.374 1.158.618.348.596.718-.254-.282-.41-.438-.526-.55zm-.001 0c.2.53-.572-.541 0 0zm2.112 2.69c.328.157-.3-.52-.336-.79l.908.557c.238.618.276.888-.572.232zm.755-.525c.554-.05.402.124.426.312l-.962-.648c.448.236.752.252.536.336zm-.916-.869c-.302-.52-.764-1.122.146-.56zm-3.41-5.912.647.306.402.698c-.124.192-.726-.85-1.048-1.004zm7.91 10.757.663.418c-.082.194.032.664-.122.726.122-.196-.338-.792-.542-1.144zm-1.75-3.536-1.98-1.194 1.717.942zm4.081 6.235a2.62 2.62 0 0 0-.74.016c.136-.028.286-.044.45-.046zm-.642.473a.763.763 0 0 0-.305-.339c.17.057.42.07.681.167-.372.034-.4.018-.376.172zm-.376-.368a.22.22 0 0 1 .07.029.542.542 0 0 1-.07-.029zm.375.368a6.13 6.13 0 0 1-.47.938zm.98-1.002a1.81 1.81 0 0 1-.33.272c-.007-.15.163-.32.22-.392a4.8 4.8 0 0 1 .11.12zm.225.258-.224-.258.01-.01.214.268zm-1.938-3.919c.704 1.218-.47.408-1.116.1zm1.366 2.755-.568-.356c.32.152.282-.12.344-.216l.396.464c.148.17.264.31.298.368-.086-.016-.27-.128-.47-.26zm.6.443-.13-.182.33.138zm-.038 1.807c-.254.258-.294.232-.98.804.548-.594.574-.642.55-.882.154-.176.334-.014.43.078zm.324-.674.004.032zm-5.741 5.935.036.07-.128.018zm5.417-5.26a1.57 1.57 0 0 0 .28-.389c.078.11.082.254-.166.386-.032.062-.068.042-.114.002zm-1.977 1.526c-.28.182-.554.348-.81.48zm2.304-2.17c.024.07.004.16-.048.257-.052-.08-.13-.15-.152-.22.066-.008.144-.02.2-.036zm-5.46 8.94-.092.134.111-.112a.047.047 0 0 0-.018-.023zm.305-.264 1.463-1.47c-.706.364-1.235.986-1.463 1.47zm1.176-4.465-1.764 1.694c-.054-.132-.04-.356.406-1.078.748-.312 1.146-.488 1.596-.84l-.316.386zm.237-.224 1.494-1.836.01-.002c.014.016.016.044.026.064-.116.188-.504.61.04.19a.42.42 0 0 0-.04-.19l.028-.04c.102-.06.056-.058-.054-.024l-.004-.008-.006.01-.056.02c.326-.218.66-.462.996-.724-.264.29-.54.6-.814.98 1.372-1.032-.516 1.356 1.066-.384-.482.748.06.672-.946 1.724-.846.19-.136-.784-.168-1.362-.746.82-1.178 1.27-1.572 1.582zm3.028-8.12c.024.079 0 .099-.018.125zm.585 2.273c-.076-.331-.473-1.208-.898-1.791l-.158-.076c-.594-.89.136-.436.452-.28-.082.118-.478-.17-.23.262.362.424.584.402.748.48.15.635.171 1.02.086 1.405zm-.032.125c.012-.042.022-.084.032-.125.023.102.016.152-.032.125zm1.668 2.458.288.03c-.338.162-.654.302-.946.42.266-.37.514-.708.724-1.034.16.082.654-.012-.066.584zm-8.137 6.029.34-1.252.142.502zm-1.8 1.397.305-.644.218.342zm20.212 5.68.488.124c.388.244-.678.5-1.532.83a3.725 3.725 0 0 0 1.044-.954zm-30.16 18.34a9.768 9.768 0 0 1-1.1-1.475zm47.01-28.29c.062-.077.232-.033.538.161zm-47.01 28.29c.455.496.837.792 1.325 1.184.09.134.17.252.262.392-.866-.412-1.244-.978-1.586-1.576zm-.101-64.083c.148-.186.418-.456.67-.714zm3.197 46.904c.026-.094.36-.402 0 0zm3.1-.386c-.062-.078-.046-.184 0-.298zm-2.964.346c.204-.16.4-.294.582-.402zm.356-.465.364-.306zm-.492.505c-.01.03.04.016.136-.04a6.723 6.723 0 0 0-.65.59l.514-.55z"/>
  <path fill="#ee3b6d" d="M220.713 110.278c0 60.706-49.214 109.918-109.92 109.918S.873 170.984.873 110.278C.873 49.57 50.087.358 110.793.358s109.92 49.212 109.92 109.92zm-16.484 0c0-51.604-41.832-93.438-93.436-93.438-51.604 0-93.436 41.834-93.436 93.438 0 51.602 41.832 93.436 93.436 93.436 51.604 0 93.436-41.834 93.436-93.436z"/>
</svg>
