<?xml version="1.0" encoding="utf-8"?>
<!-- Generator: Adobe Illustrator 27.4.0, SVG Export Plug-In . SVG Version: 6.00 Build 0)  -->
<svg version="1.1" id="Layer_1" xmlns="http://www.w3.org/2000/svg" xmlns:xlink="http://www.w3.org/1999/xlink" x="0px" y="0px"
	 viewBox="0 0 110.92 110.92" style="enable-background:new 0 0 110.92 110.92;" xml:space="preserve">
<style type="text/css">
	.st0{fill:#EE3C6E;}
	.st1{fill:none;}
	.st2{fill:#FFFFFF;}
</style>
<g>
	<g>
		<circle class="st0" cx="56.12" cy="55.46" r="33.4"/>
		<g>
			<g>
				<g>
					<g>
						<path class="st0" d="M91.95,55.2c-0.02,0.33,0.39,0.21,0.47,0.26C92.3,54.9,91.84,55.21,91.95,55.2z"/>
						<polygon class="st0" points="90.53,49.89 90.71,49.96 90.18,49.25 						"/>
						<path class="st0" d="M89.43,45.02c-0.55,0.66,0.57,1.71,0.54,2.64l-0.12,0.18l0.66,0.27C90.15,47.07,89.44,45.81,89.43,45.02z
							"/>
						<path class="st0" d="M89.95,41.95c-0.2,0.26-0.43-0.47,0.14,0.64c0.01-0.07,0.02-0.09,0.03-0.14
							C90.07,42.35,90.02,42.2,89.95,41.95z"/>
						<path class="st0" d="M90.11,42.45C90.32,42.96,90.21,42.03,90.11,42.45L90.11,42.45z"/>
						<path class="st0" d="M88.98,40.19l0.54,0.55c0.09-0.2-0.16-0.8,0.05-0.64C89.12,39.48,89.04,39.69,88.98,40.19z"/>
						<path class="st0" d="M88.22,39.8l0.25,0.29C88.5,40,88.48,39.9,88.22,39.8z"/>
						<path class="st0" d="M89.01,40.7l-0.54-0.61c-0.06,0.14-0.26,0.25,0.23,0.29C88.48,40.41,88.73,40.46,89.01,40.7z"/>
						<path class="st0" d="M89.1,41.15c0.04,0.42,0.12,0.94-0.37,0.38C89.3,42.74,89.73,42.37,89.1,41.15z"/>
						<path class="st0" d="M88.64,45.01c-0.01,0.18-0.01,0.36-0.04,0.54l0.34,0.36C88.78,45.73,88.86,44.91,88.64,45.01z"/>
						<path class="st0" d="M87.15,36.05c-0.15,0.04-0.22,0.42-0.35,0.57l0.42,0.36C87.17,36.7,86.98,36.2,87.15,36.05z"/>
						<path class="st0" d="M86.8,36.62l-0.63-0.53C86.51,36.7,86.68,36.75,86.8,36.62z"/>
						<polygon class="st0" points="87.45,40.04 88.5,40.95 87.34,39.82 						"/>
						<polygon class="st0" points="85.43,33.51 85.99,33.67 85.08,33.34 						"/>
						<path class="st0" d="M84.14,31.94c0.45,0.07,0.06-0.66,0.44-0.51c-0.42-0.38-0.93-0.57-1.38-0.74
							C83.6,30.94,83.9,31.33,84.14,31.94z"/>
						<path class="st0" d="M82.48,30.39c0.2,0.12,0.45,0.2,0.72,0.3C82.99,30.56,82.76,30.45,82.48,30.39z"/>
						<path class="st0" d="M85.49,34.93c0.04-0.1,0.17-0.33-0.02-0.75l-0.16,0.5C85.36,34.76,85.43,34.84,85.49,34.93z"/>
						<path class="st0" d="M85.3,34.7l0-0.02c-0.19-0.28-0.32-0.47-0.38-0.55C84.98,34.2,85.09,34.37,85.3,34.7z"/>
						<path class="st0" d="M85.53,35c-0.02-0.02-0.03-0.04-0.05-0.06C85.47,34.98,85.47,35,85.53,35z"/>
						<path class="st0" d="M86.86,38.06c-0.45-0.28-1.15-0.94-0.99,0.02C86.29,38.21,86.19,37.66,86.86,38.06z"/>
						<path class="st0" d="M85.32,35.61c0.14,0.24,0.24,0.5,0.36,0.75c0.09-0.07,0.15-0.29,0.36-0.16
							C85.8,35.99,85.58,35.79,85.32,35.61z"/>
						<polygon class="st0" points="84.97,35.36 85.32,35.61 85.17,35.34 						"/>
						<path class="st0" d="M83.16,31.73c-0.38-0.15-0.66-0.43-0.98-0.73c0.26,0.41,0.56,0.8,0.87,1.15
							C83.19,32.1,83.52,32.1,83.16,31.73z"/>
						<path class="st0" d="M84.22,33.16c-0.02-0.02-0.05-0.03-0.07-0.05C84.15,33.18,84.17,33.21,84.22,33.16z"/>
						<polygon class="st0" points="79.01,27.97 79.02,28.08 79.08,28.03 						"/>
						<path class="st0" d="M83.04,32.25c0.18,0.32,0.4,0.41,0.64,0.47c-0.21-0.17-0.42-0.36-0.63-0.59
							C82.98,32.16,82.95,32.18,83.04,32.25z"/>
						<path class="st0" d="M81.48,29.63c0.09,0.19,0.18,0.39,0.28,0.61C81.74,30,81.61,29.6,81.48,29.63z"/>
						<path class="st0" d="M84.17,32.94c0.02,0.01,0.03,0.02,0.05,0.03C84.22,32.82,84.19,32.86,84.17,32.94z"/>
						<path class="st0" d="M84.17,32.94c-0.16-0.11-0.33-0.16-0.49-0.22c0.16,0.15,0.31,0.29,0.47,0.39
							C84.15,33.06,84.16,33,84.17,32.94z"/>
						<path class="st0" d="M76.28,29.33c0.27-0.27,1.26-0.07,1.53,0.8c0.75,0.28,1.26-1.02,1.2-2.05c-0.13,0.12-0.22,0.21-1.02-0.08
							c0.12,0.31,1.03,1.54,0.3,1.36c-0.91-0.54-0.58-0.64-0.85-1.13c0.04,0.64-1.5-0.23-1.75,0.5l0.87,0.33
							C76.52,29.15,76.15,29.1,76.28,29.33z"/>
						<path class="st0" d="M80.15,29.16l0.28,0.19c-0.24-0.31-0.34-0.61-0.51-1.19c-0.55-0.24-0.73-0.2-0.84-0.13l1.2,1.16
							L80.15,29.16z"/>
						<path class="st0" d="M81.54,30.39c-0.47,0.09-1.21-0.29-1.17,0.36c0.71,0.65,0.72,0.23,1.26,0.53
							c-1.14-1.09,0.48,0.17-0.12-0.85c0.26,0.18,0.47,0.38,0.67,0.56c-0.16-0.25-0.3-0.5-0.42-0.75c0,0.02,0,0.03,0.01,0.05l0.01,0
							l-0.01,0c0.01,0.09,0,0.13-0.03,0.05c-0.01,0-0.02-0.01-0.03-0.02C81.66,30.36,81.6,30.38,81.54,30.39
							c-0.25-0.41,0.03-0.13,0.17-0.06c0.02-0.01,0.04-0.02,0.06-0.03l0-0.01c-0.41-0.35-0.89-0.63-1.33-0.94
							C80.64,29.63,80.98,29.88,81.54,30.39z"/>
						<path class="st0" d="M84.65,37.86c0.01-0.06,0.04-0.07,0.06-0.09C84.61,37.71,84.56,37.7,84.65,37.86z"/>
						<path class="st0" d="M84.54,37.19c0.11,0.06,0.3,0.05,0.45,0.38c0.05,0.34-0.18,0.11-0.29,0.2c0.21,0.12,0.66,0.49,0.48-0.21
							l-0.11-0.06c-0.19-0.6-0.16-1.59-0.06-1.53C84.8,36.34,84.65,36.64,84.54,37.19z"/>
						<path class="st0" d="M83.14,33.78c-0.3-0.31-0.66-0.58-1-0.85l0.15,0.73l0.15-0.17C82.84,34.11,82.94,33.82,83.14,33.78z"/>
						<path class="st0" d="M79.04,27.7l0.42-0.23c-0.33-0.02-0.68,0.01-1.02,0.01L79.04,27.7z"/>
						<polygon class="st0" points="77.6,26.69 77.89,26.41 77.38,26.33 						"/>
						<path class="st0" d="M29.45,71.25l0.27,0.23C29.61,71.36,29.52,71.3,29.45,71.25z"/>
						<path class="st0" d="M28.3,69.07l-0.2,0.03C28.24,69.15,28.34,69.16,28.3,69.07z"/>
						<path class="st0" d="M37.25,24.96c-0.68-0.02-1.56-0.15-1.26,0.18l0.39,0.27C36.69,25.14,36.98,25.02,37.25,24.96z"/>
						<path class="st0" d="M23.47,48.91l0.15-0.13c-0.11-0.16-0.22-0.3-0.32-0.44C23.36,48.52,23.39,48.7,23.47,48.91z"/>
						<path class="st0" d="M25.18,49.61l-0.38,0.61C24.92,50.09,25.04,49.89,25.18,49.61z"/>
						<path class="st0" d="M38.84,80.67c0.19-0.04,0.37-0.08,0.57-0.14C38.91,80.19,39.01,80.51,38.84,80.67z"/>
						<path class="st0" d="M61.21,20.08c-0.47-0.24-0.85-0.37-1.19-0.44C60.58,19.97,61,20.41,61.21,20.08z"/>
						<path class="st0" d="M24.91,72.64c0.19,0.17,0.32,0.21,0.4,0.16C25.12,72.63,24.98,72.55,24.91,72.64z"/>
						<path class="st0" d="M58.58,19.54c0.08,0.05,0.17,0.07,0.26,0.12c0.37-0.04,0.74-0.11,1.18-0.02
							C59.6,19.39,59.09,19.27,58.58,19.54z"/>
						<path class="st0" d="M81.77,72.76c0.04-0.02,0.06-0.05,0.1-0.07C81.82,72.65,81.8,72.69,81.77,72.76z"/>
						<path class="st0" d="M91.08,60.16c0,0.16-0.04,0.42-0.07,0.66C91.06,60.71,91.09,60.51,91.08,60.16z"/>
						<path class="st0" d="M71.68,22.89C72.03,23.02,71.75,22.87,71.68,22.89L71.68,22.89z"/>
						<path class="st0" d="M72.49,25.19c-0.09,0.01-0.17,0.04-0.23,0.12C72.34,25.23,72.42,25.19,72.49,25.19z"/>
						<path class="st0" d="M54.98,22.18h-0.03C55.05,22.26,55.03,22.24,54.98,22.18z"/>
						<path class="st0" d="M72.1,23.31c-0.1-0.11-0.23-0.22-0.37-0.32C71.78,23.05,71.89,23.15,72.1,23.31z"/>
						<path class="st0" d="M72.12,23.09c0.11,0.07,0.19,0.13,0.27,0.18C72.47,23.23,72.45,23.17,72.12,23.09z"/>
						<path class="st0" d="M71.2,22.68c0.2,0.09,0.37,0.19,0.52,0.3c-0.05-0.06-0.07-0.09-0.05-0.1
							C71.58,22.84,71.44,22.78,71.2,22.68z"/>
						<path class="st0" d="M60.33,87.24c0.02,0.01,0.05,0.02,0.08,0.03C60.71,87.04,60.57,87.09,60.33,87.24z"/>
						<path class="st0" d="M33.14,34.13c0.01-0.01,0-0.03,0.01-0.04c-0.01,0.01-0.03,0.02-0.04,0.03L33.14,34.13z"/>
						<path class="st0" d="M32.6,35.2c-0.08-0.72,0.17-0.89,0.5-1.09l-1.19-0.55C32.14,34.12,32.36,34.67,32.6,35.2z"/>
						<path class="st0" d="M33.02,75.94l-0.24-0.85c1.13,0.29,1.41,0.93,1.33,0.02c-0.53,0.4-1.12-0.11-1.6-0.7
							c-0.48-0.59-0.97-1.18-1.56-0.83l-0.09-0.59c0.08,0.13,0.16,0.1,0.24,0.23c-0.08-1.18-1.26-0.06-1.81-1.33
							c-0.16-0.46-0.16-0.83,0.15-0.65l-0.83-0.72c-0.13-0.28,0.11-0.32,0.24-0.05c-0.3-0.44-0.53-0.91-0.8-1.37l0.04-0.01
							c-0.29-0.11-0.81-0.44-1.05-0.61c0-0.45,0.22,0.13,0.33-0.04c-0.22-0.22-0.47-0.44-0.68-0.68c0.1-0.24,0.29-0.22,0.48-0.06
							c0.21,0.15,0.42,0.42,0.53,0.7c0.44-0.65,0.28-0.77,0.01-0.98c-0.24-0.22-0.6-0.54-0.53-1.5l0.44,0.71
							c0.54-0.77,0.07-1.26,0.21-2.25c-0.17,0.25-0.51,2.1-1.16,1.33c0.01-0.29-0.08-0.63-0.5-1.04c0.46-0.15,0.23-0.59,0.04-1.19
							l0.63-0.13c-0.34-0.59-0.65-0.47-1.03-0.78c-0.13-0.75,0.31-1,0.71-1.25c-0.07-1.19-0.66,0.97-0.99-0.41
							c0.05-0.52-0.02-0.94-0.17-1.37c-0.15-0.44-0.41-0.89-0.6-1.48c0.18-0.73,0.4,0.09,0.57-0.18l-0.54-0.59
							c0-0.16,0.16-0.11,0.24-0.09c-0.22-0.52-0.64-0.01-0.86-0.85c-0.35-0.1-0.14-0.56,0.11-1.09c0.27-0.54,0.54-1.15,0.17-1.7
							c0.19-0.25,0.39,0.15,0.64,0.08c-0.45-1.45-0.35-1.23-0.86-2.49l0.57-0.94c-0.59,0.66-1.01-0.36-1.33-1.32
							c-0.27,0.23-0.5,0.42-0.62,0.56c-0.05-0.48-0.09-0.97-0.07-1.45c0.15-0.14,0.32,0.04,0.53,0.32c-0.03-0.1-0.06-0.2-0.09-0.28
							c0.35-0.43,0.65-0.09,0.91,0.32l-0.51,0.4c0.33,0.41,0.71,0.8,1.08,0.8c-0.06-0.1-0.1-0.28-0.1-0.46
							c0.09,0.11,0.17,0.18,0.24,0.15c0.08-0.03-0.06-0.2-0.16-0.44l0.77-0.14l-0.26-0.13l0.86-1.54c-0.1-0.34-0.22-0.69-0.33-1.04
							c-0.09-0.35-0.18-0.71-0.25-1.09c-0.12-0.76-0.21-1.64,0.06-2.64c0.26,0.66,0.74,0.43,1.3,0.7c-0.82,0.25-0.27,1.53-0.75,2.42
							c0.25-0.47,0.49-0.27,0.54-0.11l0.06-1.9c0.45,0.23,0.47-0.22,0.88-0.55c-1.07-0.08-0.02-1.49,0.03-2.3
							c0.32,0.12,0.55,0.43,0.09,1.2c1.11-0.53-0.53-1.72,0.57-2.25c-0.11,0.19-0.22,0.27-0.11,0.43c0.01-0.59,0.87-1.56,0.97-1.14
							l-0.11,0.19c0.21-0.3,0.46-0.68,0.71-1.1c0.26-0.41,0.56-0.83,0.8-1.25c0.48-0.83,0.76-1.64,0.52-1.99
							c0.09,0.06,0.66,0.8,0.74,0.98c-0.18-1.25-0.28-2.54-0.34-3.9c0.37,0.67,2.21,1.24,1.71,2.41c0.32-0.17,0.65-0.43,1-1.1
							c-0.25,0.08-1.18-0.34-0.99-0.62c1.24-0.02,0.77-0.11,2.05-0.34c-0.37,0.12-0.84-0.99-0.39-1.36c0.05,0.19,0.77,0.83,0.7,1.05
							c0.09-0.6,0.2-1.2,0.36-1.77c-0.16,0.37,0.55,0.78,0.99,0.85c-0.25-0.09,0.97-0.7,1.19-1.01l-0.62,0.14
							c1.33-0.81,0.38-2.2,1.81-3.02c-0.05,0.31,0.33,1.47,1.08,1.18c0.02-0.33,0-1.18,0.18-2.02c0.18-0.84,0.53-1.74,1.12-2.27
							l0.4,0.17c0.3-0.28,0.59-0.57,0.91-0.81c-0.19,0.5-0.53,1.44-0.88,2.33c-0.35,0.9-0.71,1.77-0.99,2.3
							c0.64-0.03,0.33,0.27,1.09-0.13c0.41,0.15-0.21,0.62-0.43,0.74l1.87-0.68c-0.18-0.29,0.09-0.61,0.38-0.92
							c0.3-0.28,0.62-0.54,0.48-0.79c-0.62,0.44-1.17,1.02-1.73,1.53c-0.19-0.28-0.11-0.85,0.21-1.42c0.3-0.6,0.89-1.11,1.62-1.3
							c0.45,0.12,0.16,1.22,0.27,1.41c0.09-0.28,1.14-0.89,1.31-0.78l-0.46,0.55c0.42-0.02,0.65-0.34,0.92-0.63
							c0.28-0.28,0.61-0.47,1.16-0.29c0.34-0.04,1.17,0.59,1.13,0.19c-0.69-0.61-1.42-2.88-1.17-3.54c0.07,0.01,0.58,0.07,1.12,0.16
							c0.54,0.07,1.13,0.3,1.36,0.44c0.67,0.51-0.59,1.54-0.01,1.97c-0.01-0.18,0.25-0.45,0.36-0.54c0.38,0.1-0.05,0.58,0.7,0.39
							c0.02-0.69,1.56-0.18,0.28-0.63c0.73-0.29,0.81-0.03,1.7-0.11c-0.33-0.42,0.69-1.53,1.49-1.77c-0.04,0.18,0.15,0.39,0.24,0.49
							c0.4-0.01,0.76,0.01,1.09,0.03c0.33,0.04,0.63,0.11,0.93,0.17c0.6,0.12,1.18,0.22,1.92,0.26c0.13,0.17,0.81,0.41,0.48,0.68
							c0.22-0.09,0.44-0.29,0.89-0.24c0.79,0.72-1.01-0.06-0.43,0.74c0.1-0.38,1.21-0.37,1.9-0.51c-0.09-0.63-1.48-0.34-2.13-0.2
							c0.08-0.84,1.32-1.55,3.02-1.68c1.32,0.03,0.44,0.65,0.68,0.57c1.15,0.37,1.74,0.14,2.28-0.04c0.54-0.18,1.04-0.34,1.9,0.33
							c0.58,0.79-0.32,1.02-0.28,1.45c-0.52-0.08-0.85-0.3-1.16-0.51c-0.31-0.19-0.58-0.4-0.92-0.47l0.76,0.46
							c-0.37,0.09-1.06,0.05-1.39-0.19c0.51,0.56,3.81,1.21,5.25,2.42c0.36-0.03,0.94,0.05,0.8-0.26L70.03,25
							c-0.3-0.63,1.24-0.07,0.66-0.57c0.42,0.03,0.89,0.04,1.37,0.13c0.24,0.05,0.48,0.11,0.72,0.21c0.23,0.12,0.45,0.27,0.66,0.47
							l-0.13,0.64c0.07-0.17-0.44-0.7-0.8-0.69c0.54,0.01,1.04,1.6,1.89,1.17l-0.45-0.77c0.83,0.17,2.1,0.09,2.79,0.9
							c-0.03-0.77-0.22-0.09-0.42-1.1c0.05,1.06-2.24-1.41-1.86-0.09c-0.23-1.08-0.9-1.01-1.46-2.06c-0.07,0.19,0.14,0.5-0.6,0.03
							c-0.06,0.04-0.18,0.06-0.25,0.08c-0.02-0.02-0.03-0.02-0.05-0.04l0.03,0.04c-0.05,0.01-0.05,0.01,0.01,0.02
							c0.15,0.17,0.25,0.34,0.26,0.47c-0.6,0.23-1.8-0.37-2.31-0.35c-0.41-0.31,0.28-0.12,0.12-0.44c-0.25,0.01-0.51,0.02-0.77,0.06
							c0.11-0.44-1-1.16,0.24-0.99l-1.02-0.4c-0.52-0.45-1.33-0.87-1.91-0.86c-0.48-0.23-1.4,0.15-0.87-0.08l-1.73-0.16l0.01-0.11
							c-0.81-0.27-1.71-0.18-2.6-0.23c-0.9-0.03-1.79-0.22-2.73-0.64c-0.58,0.08-1.16,0.19-2.11,0.02l-0.18-0.4
							c-0.73,0.09-2.22-0.31-2.52,0.1c-0.42-0.48-1.35-0.57-2.3-0.35c-0.95,0.19-1.94,0.51-2.61,0.52l0.05,0.51
							c-0.88,0.13-1.67,0.52-2.68,0.98l0.18,0.42c-0.81,0.53-2.37,0.42-3.76,0.97c0.03-0.19,0.4-0.28,0.69-0.28
							c-0.51-0.08-0.97,0-1.4,0.17c-0.42,0.19-0.8,0.5-1.16,0.79c-0.73,0.61-1.43,1.17-2.29,1.27c-0.26,0.35-0.54,0.45-0.83,0.5
							c0.03-0.02,0.06-0.04,0.07-0.07c-0.04,0.02-0.09,0.05-0.14,0.08c-0.19,0.03-0.39,0.04-0.6,0.09c0.2,0,0.39,0,0.53-0.04
							c-0.26,0.17-0.63,0.46-0.96,0.79l-0.43-0.3c-0.03,0.02-0.05,0.04-0.08,0.07c-0.49,0.09-0.18,0.38,0.22,0.56
							c-0.16,0.18-0.26,0.39-0.33,0.58c-0.74-0.42-0.8,0.92-1.69,0.55c0,0.25-0.41,0.66-0.78,1.1c-0.34,0.48-0.62,0.99-0.42,1.39
							c-0.08-0.07-0.22-0.02-0.04-0.19c-0.43,0.26-0.87,0.53-1.04,1l-0.58-0.3c-0.09,0.44-0.15,0.89-0.19,1.35
							c-0.71,0.22-1.06,0.29-0.95-0.53c-0.55,1.69-0.69,1.15-1.04,2.63l-0.27-0.3c-0.28,0.4-0.32,1.34-0.76,1.37
							c-1.35,0.37-3.1,4.35-4.82,6.64c0.66-0.01,0.38,0.22,0.07,0.54c-0.29,0.32-0.65,0.71-0.24,0.93c-0.31,0.05-0.6,0.37-0.66-0.15
							c-0.23,1.45-1.22,1.92-0.7,3.11c-0.31,0.09-0.31-0.41-0.51-0.31c0.03,0.13,0.11,0.51-0.08,0.62c-0.2,0.1-0.17-0.27-0.23-0.53
							c-0.33,1.48,0.46,1.82,1.21,2.1c-0.27,0.31-0.42,0.56-0.45,0.81c-0.01,0.25,0.1,0.5,0.32,0.81c-0.29,0.2-0.63,0.58-0.58-0.33
							c-0.11,0.49-0.87,3.04-0.2,3.15c-0.17,0.14-0.08,0.7-0.02,0.84c-0.1,1.13-0.16,1.23-0.15,2.34l0.12-0.31
							c0.73,0.44,0.17,0.91,0.3,1.8l-0.08-0.02c-0.23,1.03-0.15,1.26-0.08,1.47c0.09,0.21,0.07,0.42-0.07,1.46l0.46-0.17
							c1.05,0.05-0.34,1.84,0.24,2.95l0.2-0.47c0.43,0.54-0.95,2.04-0.92,2.74c-0.05,0.16-0.2-0.19-0.31-0.37
							c-0.15,1.86,0.66,0.06,1.13,1.26c-0.25,0.33-0.92-0.05-0.72,0.81c-0.09,0.52,1.86,2.03,1.75,3.34
							c0.13-0.34,0.26-0.67,0.69-0.22c0.48,0.75,0.16,2.68,1.31,3c0,0.13-0.04,0.2-0.09,0.24c0.55,0.49,1.48,1.75,2.06,1.86
							c-0.52,0.73,0.31,1.48,1.07,2.15c0.74,0.68,1.53,1.18,0.95,1.67l1.5,1.53l-0.15,0.07c0.88,1.07,1.54,1.08,2.12,1.14
							c0.16,0.29-0.1,0.24-0.18,0.28c1.25,1.59,1.55,1.61,3.3,2l-0.15,0.51c0.26,0.02,0.71,0.62,1.42,1.2
							c0.7,0.58,1.56,1.34,2.59,1.49c-0.04,0.04-0.12,0.11-0.3,0.1c1.14,0.2,2.15,1.15,3.17,1.74c1.02,0.58,1.95,0.96,2.61,0.24
							c0.49,0.05,1.01-0.02,1.51-0.03c-1.74-0.59,0.48-0.68-0.17-1.16c0.7,0.07,1.64,0.98,0.76,0.85l-0.11-0.12
							c-0.56,0.82,2.13,0.91,1.96,1.48c3.61,0.66,7.22,1.24,10.73,0.97c-0.16-0.22-0.32-0.44-0.47-0.68
							c0.4-0.02,0.79-0.08,1.19-0.12c0.33,0.12,0.5,0.5-0.36,0.6c0.51,0.34,1.39-0.56,1.38-0.72c1.72,0.04-0.51,0.94,0,0.88
							l0.7-0.16l-0.17-0.06c0.51-0.41,0.52-0.65,1.52-0.88c0.67-0.02,0.43,0.36,0.69,0.32c0.01,0.05,0.1,0.05,0.39-0.08l1.51-0.33
							l-0.75-0.4c0.58-0.43,1.38-0.34,0.52-0.78c0.63,0.35,1.99-0.08,3.27-0.54c1.26-0.53,2.38-1.21,2.75-1.2
							c0.67-0.75,1.41-1.29,2.43-1.81c-0.31,0.05-0.79-0.42,0.08-0.85c0.21,0.64,0.69,0.57,1.23,0.29c0.54-0.28,1.16-0.68,1.78-0.54
							c-0.48-0.04,0.06-0.5,0.54-0.95c0.48-0.46,0.83-0.97,0.13-0.93c0.68-0.47,0.36,0.35,1.03,0.16c0.54-0.88,1.47-1.48,2.3-2.28
							c0.85-0.77,1.86-1.52,2.5-2.6c-0.12-0.14-0.57,0.02-0.47-0.55l1.48-0.51c0.21-0.46-0.53-0.91,0.42-1.33
							c-0.19,0.03-0.47,0.06-0.35-0.25c1.64-1.77,2.66-4.05,3.45-6.36c0.38-1.17,0.83-2.3,1.18-3.48c0.2-0.58,0.42-1.16,0.68-1.73
							c0.27-0.57,0.47-1.16,0.77-1.73c-0.44,0.6-0.4,0.16-0.34-0.34c-0.13,0.31-0.43-0.07-0.67-0.05c0.31-0.63,0.66-1.27,0.94-1.93
							c-0.64-0.43,0.07-2.19-0.55-2.42l0.08,0.64c-0.7-0.86-1.72,1.08-2.66,0.86c0.2,0.24,0.22,0.5,0.14,0.77
							c-0.09,0.27-0.29,0.56-0.47,0.87c-0.37,0.61-0.69,1.25-0.2,2.08c-0.24,0.27-0.26-0.33-0.51-0.2c0.37,0.44,0.32,0.88-0.06,1.63
							l-0.08-0.11c-0.25,1.11-0.46,1.9-0.91,2.63c-0.21,0.37-0.42,0.75-0.65,1.18c-0.24,0.42-0.47,0.9-0.82,1.43l0.51,0.02
							c-0.3,0.47-0.48,0.51-0.7,0.68c0.38,0.87,0.7-1.36,1.18-0.52c-0.6,0.14-1.02,1-1.44,1.83c-0.44,0.82-0.99,1.56-1.57,1.48
							c-0.43,0.71,0.59,0.08,0.15,0.79l-0.36,0.03l0.21,0.39c-0.33,0.44-0.84,0.43-1.05,0.31c0.1-0.09,0.17-0.34,0.23-0.46
							c-0.71,0.36-1.08,1.64-1.32,1.77L81.06,74c-0.29,0.49-0.6,1-0.99,1.47c-0.41,0.46-0.83,0.92-1.24,1.39l-0.61,0.7
							C78,77.78,77.79,78,77.58,78.22c-0.41,0.44-0.78,0.9-1.1,1.39l0.27,0.06c-1.04,1.42-1.23,0.64-2.59,1.93l0.02-0.08
							c-0.16,0.42-0.54,0.76-0.99,1.01c0.26-0.46-1.02,0.03-0.65-0.54c-1.33,1.32-0.57,0.79-1.25,2.1l-0.43-0.2
							c-0.22,0.48-0.18,0.65-1,1.16c0.56-0.63-0.78-0.25-0.18-1.01c-0.53,0.03-0.92,0.16-1.25,0.35c-0.34,0.16-0.61,0.35-0.86,0.53
							c-0.5,0.35-0.9,0.62-1.51,0.21c-0.52,1.28,1.78-0.04,1.38,0.34c0.53,0.17-0.44,0.98-1.08,1.1c-0.61,0.23-1.43-0.95-2.91-0.53
							c0.15-0.03,0.14-0.11,0.29-0.15c-0.62-0.13-1.02,0.68-1.81,0.34c-0.29,0.67-0.92,0.1-0.91,0.9l1.4-0.4
							c-0.76,0.32-1.4,1.36-2.83,1.12c0.09-0.18,0.47-0.45,0.73-0.6c-0.42-0.18-0.74,0.3-1.17,0.07c0.04-0.76,1.72-0.43,2.48-1.14
							c-0.46-0.27-1.53,0.81-1.22-0.1c-0.23,0.59-0.62,0.61-1.06,0.61c-0.44-0.04-0.93-0.12-1.43,0.32l0.04-0.48
							c-0.16,0.08-0.49,0.32-0.8,0.33l0.52-0.64c-0.82,0.56-1.62-0.34-2.41-0.14c0.83,0.04,0.93,0.18,0.9,0.36
							c-0.03,0.19-0.18,0.43,0.19,0.58c-2.14,0.57-1.19-1.28-3.48-1.17c0.31-0.03,1.15,0.35,0.64,0.55c-0.44-0.1-1-0.37-1.23-0.66
							c-1.52-0.13,0.17,0.52-0.52,0.71c-0.44-0.65-0.79,0.12-1.51,0.2l0.08-0.48c-1.67-0.64-0.67,0.9-2.17,0.15l0.82-0.48
							l-0.85-0.04l0.3-0.49c-0.96,0.15-1.24,0.05-2.01-0.41c0.09,0.39-0.38,0.79-1.14,0.53c-0.41-0.46,0.44-0.33-0.64-0.65
							c0.35-0.19,0.73-0.46,1.04,0.13c0.1-0.13,0.33-0.2,0.43-0.33c-0.42-0.51-1.31-0.56-1.69-0.69c0.14,0.07,0.3,0.15,0.36,0.25
							c-0.29,0.01-0.59,0.03-0.88,0.03l-0.86-0.05c-0.15-0.28,0.09-0.32,0.33-0.36c-0.31-0.09-0.61,0.01-1.06-0.16
							c0.28-0.3,0.44-0.67,1.11-0.55l-1.55-0.26c-0.02-0.19-0.47-0.75-0.23-0.79c-0.57-0.64-2.14-0.38-2.9-1.26
							c-0.09,0.03-0.22,0.02-0.45-0.08c-0.39-0.35-0.7-0.76-1.08-1.12c-0.18-0.18-0.39-0.34-0.63-0.49c-0.22-0.16-0.48-0.3-0.8-0.41
							l-0.05-0.99c-0.82-0.53,0.11,1.3-1.28,0.39c-1.02-0.63,0.1-0.71-0.05-1.14c-0.62-0.16-1.84-0.43-2.13-1.59
							C32.66,75.46,32.76,75.73,33.02,75.94z M26.68,65.75c0.18,0.19,0.63,0.52,0.42,0.78C26.49,66.47,26.67,66.18,26.68,65.75z
							 M24.83,47.29c0.11,0.22-0.04,0.46-0.29,0.73C24.55,47.79,24.63,47.54,24.83,47.29z M67.77,21.7c-0.01,0-0.02,0.01-0.03,0.01
							C67.23,21.33,67.41,21.47,67.77,21.7z M68.87,22.33c0.14-0.02,0.16-0.08,0.13-0.17c-0.13,0.08-0.39,0-0.68-0.15
							C68.37,22.16,68.48,22.3,68.87,22.33z M64.58,89.74l-0.26-0.06C64.81,89.41,64.69,89.56,64.58,89.74z"/>
						<path class="st0" d="M24.98,49.53c-0.09,0.05-0.18,0.05-0.27,0.05C24.77,49.69,24.86,49.7,24.98,49.53z"/>
						<path class="st0" d="M38.74,80.69l0.03,0.03c0.03-0.01,0.06-0.03,0.08-0.05L38.74,80.69z"/>
						<path class="st0" d="M50.69,24.53c-0.24-0.03-0.38-0.1-0.48-0.18C50.22,24.46,50.34,24.55,50.69,24.53z"/>
						<path class="st0" d="M75.18,24.55l-0.76-0.31c0.35,0.18,0.41,0.35,0.54,0.51C75.01,24.64,74.96,24.42,75.18,24.55z"/>
						<path class="st0" d="M78.75,31c0.12,0.03,0.18,0.15,0.3,0.18L79.18,31C78.82,30.69,78.46,30.61,78.75,31z"/>
						<path class="st0" d="M74.95,26.29c-0.18,0.39,0.34,0.48,0.8,0.76c-0.03-0.02-0.05-0.03-0.08-0.06
							C76.13,26.61,75.56,26.41,74.95,26.29z"/>
						<path class="st0" d="M75.86,27.11c0.14,0.08,0.29,0.18,0.41,0.29C76.45,27.25,76.13,27.24,75.86,27.11z"/>
						<path class="st0" d="M70.44,22.66c0.2,0.21,0.36-0.4,0.43-0.19C71.35,22.12,69.01,22.3,70.44,22.66z"/>
						<polygon class="st0" points="74.59,27.63 74.7,27.11 74.23,27.3 						"/>
						<path class="st0" d="M71.17,25.25l0.7,0.49c0.03-0.08,0.15-0.08,0.28-0.05C71.69,25.45,71.21,25.11,71.17,25.25z"/>
						<path class="st0" d="M72.15,25.69c0.24,0.13,0.46,0.27,0.63,0.27C72.64,25.89,72.37,25.73,72.15,25.69z"/>
						<polygon class="st0" points="73.53,27.16 73.38,26.95 72.89,26.61 						"/>
						<path class="st0" d="M62.61,22.23l-0.94,0c-0.12,0.16,0.11,0.3,0.46,0.28C62.37,22.42,62.72,22.41,62.61,22.23z"/>
						<path class="st0" d="M64.96,24.21c-0.2-0.16-0.19-0.27-0.28-0.47l-0.19,0.59L64.96,24.21z"/>
						<path class="st0" d="M62.42,23.73c-0.12,0.16-1.35,0.3-0.25,0.42C62.29,23.98,63.19,24.01,62.42,23.73z"/>
						<polygon class="st0" points="49.02,23.1 49.24,23.04 49,22.05 						"/>
						<path class="st0" d="M39.33,29.77c0.98-0.31-0.13-0.65,0.8-0.86c0.08-0.33-0.77,0.18-0.67-0.13
							C39.08,29.31,38.73,29.35,39.33,29.77z"/>
						<path class="st0" d="M39.47,28.78c0.06-0.09,0.13-0.18,0.19-0.29C39.53,28.63,39.49,28.72,39.47,28.78z"/>
						<polygon class="st0" points="91.87,57.51 92.12,56.78 91.76,57.24 						"/>
						<path class="st0" d="M91.19,56.07l0.66-0.16l-0.57-0.45C91.3,55.62,91.34,55.95,91.19,56.07z"/>
						<path class="st0" d="M27.39,63.68l-0.16,0c-0.14,0.14-0.11,0.29-0.07,0.58L27.39,63.68z"/>
						<polygon class="st0" points="30.41,71.61 30.34,71.48 29.99,72.03 						"/>
						<path class="st0" d="M35.43,76.67c-0.21-0.2-0.52-0.36-0.7-0.59C35.22,76.48,34.99,77.24,35.43,76.67z"/>
					</g>
				</g>
			</g>
		</g>
	</g>
	<g>
		<g>
			<path class="st0" d="M56.12,2.87c-29.04,0-52.59,23.54-52.59,52.59c0,29.04,23.54,52.59,52.59,52.59
				c29.04,0,52.59-23.54,52.59-52.59C108.71,26.42,85.16,2.87,56.12,2.87z M56.12,100.16c-24.69,0-44.7-20.01-44.7-44.7
				c0-24.69,20.01-44.7,44.7-44.7s44.7,20.01,44.7,44.7C100.82,80.15,80.81,100.16,56.12,100.16z"/>
		</g>
		<g>
			<path class="st1" d="M56.12,2.87c-29.04,0-52.59,23.54-52.59,52.59c0,29.04,23.54,52.59,52.59,52.59
				c29.04,0,52.59-23.54,52.59-52.59C108.71,26.42,85.16,2.87,56.12,2.87z M56.12,100.16c-24.69,0-44.7-20.01-44.7-44.7
				c0-24.69,20.01-44.7,44.7-44.7s44.7,20.01,44.7,44.7C100.82,80.15,80.81,100.16,56.12,100.16z"/>
			<g>
				<g>
					<g>
						<path class="st0" d="M56.47,102.58c-0.44-0.02-0.28,0.4-0.35,0.47C56.86,102.92,56.45,102.47,56.47,102.58z"/>
						<polygon class="st0" points="63.49,101 63.4,101.19 64.36,100.62 						"/>
						<path class="st0" d="M69.94,99.55c-0.8-0.51-2.28,0.71-3.49,0.76l-0.22-0.11l-0.39,0.69C67.21,100.44,68.91,99.62,69.94,99.55
							z"/>
						<path class="st0" d="M73.82,99.77c-0.31-0.18,0.65-0.49-0.83,0.21c0.09,0,0.12,0.01,0.17,0.01
							C73.3,99.94,73.49,99.87,73.82,99.77z"/>
						<path class="st0" d="M73.16,99.99C72.49,100.26,73.69,100.05,73.16,99.99L73.16,99.99z"/>
						<path class="st0" d="M76.15,98.55l-0.75,0.64c0.24,0.06,1.03-0.27,0.79-0.02C77.02,98.62,76.76,98.56,76.15,98.55z"/>
						<path class="st0" d="M76.73,97.7L76.34,98C76.45,98.03,76.57,97.99,76.73,97.7z"/>
						<path class="st0" d="M75.5,98.65L76.34,98c-0.17-0.05-0.28-0.25-0.39,0.28C75.93,98.05,75.84,98.32,75.5,98.65z"/>
						<path class="st0" d="M74.93,98.8c-0.53,0.1-1.21,0.23-0.44-0.35c-0.8,0.39-1.11,0.63-1,0.73
							C73.59,99.27,74.14,99.24,74.93,98.8z"/>
						<path class="st0" d="M70.03,98.73c-0.23,0.01-0.46,0.03-0.7,0.01l-0.5,0.38c0.13-0.09,0.45-0.13,0.74-0.17
							C69.85,98.9,70.08,98.82,70.03,98.73z"/>
						<path class="st0" d="M81.51,96.06c-0.03-0.16-0.49-0.18-0.65-0.31l-0.5,0.51C80.72,96.17,81.35,95.9,81.51,96.06z"/>
						<path class="st0" d="M80.87,95.75l0.75-0.76C80.81,95.45,80.73,95.64,80.87,95.75z"/>
						<polygon class="st0" points="76.53,96.91 75.25,98.14 76.82,96.77 						"/>
						<polygon class="st0" points="84.83,93.8 84.56,94.44 85.09,93.38 						"/>
						<path class="st0" d="M86.9,92.13c-0.14,0.52,0.77-0.03,0.54,0.42c0.51-0.53,0.81-1.14,1.07-1.68
							C88.15,91.36,87.66,91.76,86.9,92.13z"/>
						<path class="st0" d="M88.97,90c-0.17,0.25-0.31,0.55-0.47,0.87C88.69,90.6,88.85,90.33,88.97,90z"/>
						<path class="st0" d="M83.12,94.08c0.12,0.03,0.38,0.13,0.91-0.14l-0.58-0.1C83.34,93.91,83.23,94,83.12,94.08z"/>
						<path class="st0" d="M83.43,93.84l0.02,0c0.36-0.25,0.61-0.43,0.72-0.51C84.07,93.4,83.85,93.55,83.43,93.84z"/>
						<path class="st0" d="M83.03,94.14c0.03-0.02,0.05-0.04,0.08-0.06C83.06,94.07,83.03,94.07,83.03,94.14z"/>
						<path class="st0" d="M79.08,96.02c0.4-0.52,1.32-1.38,0.11-1.07C78.98,95.42,79.67,95.24,79.08,96.02z"/>
						<path class="st0" d="M82.33,94c-0.31,0.19-0.65,0.33-0.97,0.5c0.08,0.08,0.34,0.12,0.15,0.37
							C81.78,94.58,82.07,94.31,82.33,94z"/>
						<polygon class="st0" points="82.67,93.57 82.33,94 82.67,93.79 						"/>
						<path class="st0" d="M87.3,90.98c0.23-0.46,0.6-0.82,1.01-1.24c-0.52,0.36-1.03,0.76-1.48,1.18
							C86.85,91.08,86.81,91.44,87.3,90.98z"/>
						<path class="st0" d="M85.43,92.4c0.02-0.03,0.05-0.06,0.07-0.08C85.43,92.32,85.38,92.35,85.43,92.4z"/>
						<polygon class="st0" points="92.29,85.58 92.17,85.6 92.21,85.66 						"/>
						<path class="st0" d="M86.7,90.93c-0.4,0.25-0.54,0.52-0.66,0.8c0.23-0.27,0.49-0.54,0.79-0.81
							C86.82,90.85,86.8,90.81,86.7,90.93z"/>
						<path class="st0" d="M90,88.73c-0.23,0.12-0.47,0.27-0.75,0.42C89.54,89.09,90.03,88.88,90,88.73z"/>
						<path class="st0" d="M85.71,92.31l-0.04,0.06C85.84,92.35,85.8,92.32,85.71,92.31z"/>
						<path class="st0" d="M85.71,92.31c0.16-0.19,0.24-0.39,0.34-0.58c-0.21,0.2-0.39,0.39-0.54,0.58
							C85.57,92.3,85.65,92.3,85.71,92.31z"/>
						<path class="st0" d="M91.18,82.52c0.25,0.28-0.11,1.53-1.16,1.98c-0.45,0.93,0.96,1.32,2.14,1.1
							c-0.12-0.14-0.2-0.22,0.25-1.23c-0.36,0.2-1.92,1.47-1.59,0.58c0.4-0.57,0.58-0.79,0.77-0.89c0.18-0.1,0.36-0.1,0.64-0.31
							c-0.73,0.15,0.49-1.85-0.28-2.04l-0.51,1.11C91.35,82.77,91.46,82.32,91.18,82.52z"/>
						<path class="st0" d="M90.75,87.1l-0.26,0.36c0.39-0.33,0.75-0.49,1.44-0.79c0.36-0.68,0.35-0.89,0.28-1.01l-1.52,1.59
							L90.75,87.1z"/>
						<path class="st0" d="M89.12,88.92c-0.02-0.52,0.52-1.46-0.24-1.3c-0.87,0.94-0.39,0.87-0.82,1.54
							c1.47-1.48-0.28,0.58,1.01-0.27c-0.25,0.33-0.52,0.6-0.76,0.85c0.32-0.22,0.63-0.42,0.95-0.6c-0.02,0.01-0.04,0.01-0.05,0.01
							l-0.01,0.01l0-0.01c-0.11,0.02-0.15,0.02-0.05-0.03c0-0.01,0.02-0.03,0.03-0.04C89.14,89.05,89.13,88.98,89.12,88.92
							c0.52-0.35,0.15,0.02,0.05,0.18c0.01,0.02,0.01,0.05,0.03,0.06l0.01,0c0.48-0.52,0.86-1.14,1.29-1.7
							C90.13,87.74,89.8,88.19,89.12,88.92z"/>
						<path class="st0" d="M79.64,93.59c0.07,0,0.09,0.03,0.11,0.05C79.84,93.53,79.86,93.47,79.64,93.59z"/>
						<path class="st0" d="M80.49,93.38c-0.09,0.13-0.11,0.34-0.54,0.55c-0.42,0.11-0.11-0.18-0.2-0.29
							c-0.18,0.25-0.71,0.79,0.18,0.5l0.09-0.12c0.78-0.3,1.99-0.41,1.9-0.28C81.5,93.53,81.17,93.41,80.49,93.38z"/>
						<path class="st0" d="M84.86,91.28c0.43-0.38,0.79-0.84,1.17-1.27l-0.88,0.3l0.18,0.14C84.53,91,84.84,91.06,84.86,91.28z"/>
						<path class="st0" d="M92.59,85.57l0.19,0.47c0.08-0.38,0.09-0.81,0.14-1.21L92.59,85.57z"/>
						<polygon class="st0" points="93.93,83.69 94.19,84 94.37,83.37 						"/>
						<path class="st0" d="M34.58,19.08l-0.34,0.34C34.41,19.27,34.51,19.16,34.58,19.08z"/>
						<path class="st0" d="M37.56,17.5l-0.01-0.21C37.45,17.45,37.43,17.55,37.56,17.5z"/>
						<path class="st0" d="M96.21,30.65c-0.08-0.84-0.05-1.89-0.37-1.57l-0.24,0.44C95.94,29.94,96.11,30.31,96.21,30.65z"/>
						<path class="st0" d="M64.9,11.73c0.06,0.05,0.12,0.11,0.18,0.16c0.2-0.1,0.38-0.2,0.55-0.29
							C65.41,11.65,65.16,11.66,64.9,11.73z"/>
						<path class="st0" d="M64.07,13.42l-0.85-0.41C63.4,13.14,63.68,13.27,64.07,13.42z"/>
						<path class="st0" d="M21.6,31.8c0.01,0.23,0.03,0.45,0.06,0.69C22.12,31.79,21.75,31.98,21.6,31.8z"/>
						<path class="st0" d="M102.67,62.15c0.27-0.62,0.41-1.13,0.5-1.58C102.81,61.33,102.34,61.9,102.67,62.15z"/>
						<path class="st0" d="M33.49,14.35c-0.23,0.23-0.3,0.38-0.25,0.46C33.48,14.58,33.6,14.41,33.49,14.35z"/>
						<path class="st0" d="M103.3,58.69c-0.05,0.11-0.08,0.22-0.12,0.34c0.04,0.48,0.11,0.97,0,1.55
							C103.44,60.02,103.55,59.35,103.3,58.69z"/>
						<path class="st0" d="M32.51,90.47c0.03,0.04,0.08,0.08,0.1,0.12C32.65,90.55,32.6,90.51,32.51,90.47z"/>
						<path class="st0" d="M49.92,101.6c-0.21-0.01-0.55-0.06-0.87-0.1C49.19,101.56,49.46,101.59,49.92,101.6z"/>
						<path class="st0" d="M98.88,75.88C98.69,76.33,98.89,75.97,98.88,75.88L98.88,75.88z"/>
						<path class="st0" d="M96.33,77.21c0-0.11-0.02-0.21-0.1-0.27C96.3,77.02,96.33,77.11,96.33,77.21z"/>
						<path class="st0" d="M100.68,53.93c0-0.01,0-0.02,0-0.04C100.6,54.02,100.62,54,100.68,53.93z"/>
						<path class="st0" d="M98.38,76.46c0.13-0.14,0.26-0.31,0.39-0.51C98.69,76.03,98.57,76.18,98.38,76.46z"/>
						<path class="st0" d="M98.61,76.46c-0.09,0.14-0.16,0.26-0.22,0.37C98.42,76.91,98.49,76.88,98.61,76.46z"/>
						<path class="st0" d="M99.15,75.26c-0.11,0.26-0.25,0.48-0.38,0.69c0.07-0.07,0.11-0.1,0.11-0.07
							C98.94,75.75,99.02,75.56,99.15,75.26z"/>
						<path class="st0" d="M13.15,61.15c-0.01,0.03-0.01,0.07-0.03,0.1C13.37,61.67,13.31,61.48,13.15,61.15z"/>
						<path class="st0" d="M85.12,24.21c0.02,0.01,0.03,0.01,0.05,0.02c-0.01-0.02-0.03-0.04-0.04-0.05L85.12,24.21z"/>
						<path class="st0" d="M83.74,23.39c0.85,0.04,1.1,0.36,1.4,0.78l0.45-1.28C84.96,23.05,84.35,23.21,83.74,23.39z"/>
						<path class="st0" d="M28.16,23.92l1.06-0.44c-0.55,1.37-1.38,1.82-0.27,1.56c-0.38-0.54,0.32-1.33,1.15-1.99
							c0.82-0.65,1.64-1.31,1.31-1.91l0.74-0.2c-0.17,0.11-0.15,0.2-0.32,0.31c1.48-0.31,0.29-1.42,1.97-2.23
							c0.6-0.24,1.08-0.3,0.79,0.06l1.05-1.03c0.37-0.18,0.39,0.07,0.03,0.26c0.6-0.39,1.26-0.7,1.89-1.06l0,0.04
							c0.18-0.32,0.68-0.93,0.94-1.21c0.58-0.06-0.19,0.25,0.01,0.35c0.32-0.27,0.63-0.57,0.97-0.82c0.3,0.08,0.24,0.28,0.02,0.5
							c-0.22,0.24-0.6,0.51-0.98,0.66c0.78,0.38,0.96,0.19,1.27-0.13c0.32-0.28,0.78-0.69,2.04-0.73l-0.99,0.54
							c0.95,0.47,1.66-0.08,2.97-0.06c-0.33-0.14-2.74-0.28-1.65-1.04c0.38-0.02,0.84-0.16,1.42-0.64c0.15,0.46,0.77,0.18,1.59-0.06
							l0.11,0.63c0.83-0.4,0.69-0.7,1.14-1.12c1.01-0.2,1.32,0.23,1.64,0.61c1.63-0.14-1.27-0.61,0.63-1.02
							c0.7,0.02,1.27-0.07,1.87-0.25c0.6-0.17,1.22-0.47,2.04-0.67c0.98,0.17-0.14,0.4,0.22,0.56l0.82-0.55
							c0.21,0,0.15,0.16,0.12,0.24c0.71-0.23,0.02-0.64,1.17-0.87c0.15-0.35,0.75-0.16,1.47,0.1c0.73,0.28,1.57,0.56,2.3,0.2
							c0.34,0.2-0.19,0.38-0.1,0.64c1.96-0.43,1.67-0.34,3.34-0.78l1.29,0.62c-0.92-0.63,0.43-0.99,1.68-1.28
							c-0.32-0.28-0.59-0.53-0.79-0.66c0.64-0.02,1.28-0.05,1.91,0.02c0.2,0.16-0.04,0.33-0.39,0.51c0.13-0.02,0.26-0.04,0.36-0.06
							c0.59,0.4,0.17,0.67-0.36,0.9c-0.19-0.18-0.37-0.37-0.56-0.55c-0.53,0.31-1.02,0.67-1,1.05c0.13-0.05,0.36-0.08,0.62-0.08
							c-0.14,0.09-0.23,0.17-0.19,0.24c0.05,0.08,0.26-0.05,0.58-0.13l0.24,0.8l0.16-0.25l2.14,1.01c0.45-0.07,0.9-0.17,1.36-0.25
							c0.45-0.05,0.91-0.1,1.41-0.13c0.98-0.04,2.12-0.04,3.44,0.37c-0.82,0.19-0.47,0.72-0.75,1.27c-0.42-0.89-2.04-0.46-3.27-1.06
							c0.65,0.31,0.4,0.54,0.2,0.57l2.5,0.28c-0.24,0.44,0.35,0.52,0.82,1.01c-0.03-1.13,1.92,0.19,2.97,0.35
							c-0.1,0.32-0.48,0.53-1.53-0.07c0.84,1.26,2.14-0.34,2.96,0.95c-0.26-0.15-0.37-0.28-0.56-0.19c0.75,0.1,2.09,1.2,1.59,1.24
							l-0.26-0.15c0.41,0.28,0.93,0.62,1.5,0.95c0.55,0.36,1.11,0.78,1.67,1.11c1.1,0.68,2.14,1.13,2.52,0.92
							c-0.06,0.1-0.85,0.61-1.06,0.68c1.49,0.02,3,0.13,4.58,0.28c-0.73,0.32-1.06,2.37-2.56,1.57c0.26,0.41,0.65,0.83,1.49,1.37
							c-0.13-0.31,0.2-1.33,0.56-1.06c0.24,1.47,0.26,0.94,0.75,2.5c-0.21-0.46,1-0.83,1.5-0.23c-0.21,0.02-0.82,0.78-1.09,0.66
							c0.71,0.21,1.43,0.44,2.08,0.74c-0.45-0.26-0.79,0.53-0.79,1.06c0.06-0.29,0.95,1.31,1.34,1.64l-0.27-0.79
							c1.15,1.77,2.52,0.84,3.63,2.74c-0.34-0.11-1.56,0.19-1.12,1.18c0.36,0.07,1.29,0.17,2.21,0.52c0.92,0.35,1.92,0.91,2.56,1.73
							l-0.13,0.48c0.33,0.41,0.69,0.81,0.96,1.26c-0.54-0.3-1.58-0.84-2.57-1.41c-1-0.57-1.98-1.16-2.6-1.6
							c0.13,0.83-0.24,0.38,0.3,1.43c-0.1,0.51-0.69-0.36-0.86-0.66l0.99,2.52c0.28-0.19,0.66,0.2,1.03,0.62
							c0.33,0.43,0.64,0.88,0.88,0.73c-0.52-0.88-1.23-1.66-1.85-2.45c0.28-0.2,0.89-0.02,1.54,0.46c0.32,0.24,0.68,0.54,0.94,0.94
							c0.26,0.39,0.48,0.84,0.63,1.32c-0.08,0.57-1.25,0.07-1.44,0.19c0.3,0.15,1.06,1.6,0.96,1.82l-0.63-0.66
							c0.07,0.55,0.43,0.89,0.76,1.28c0.32,0.39,0.54,0.86,0.4,1.58c0.07,0.46-0.5,1.51-0.1,1.49c0.57-0.88,2.82-1.65,3.51-1.27
							c0,0.09-0.02,0.75-0.07,1.46c-0.02,0.7-0.24,1.48-0.37,1.78c-0.48,0.86-1.58-0.88-1.99-0.14c0.18-0.01,0.47,0.36,0.57,0.52
							c-0.08,0.5-0.59-0.1-0.35,0.91c0.7,0.07,0.26,2.11,0.64,0.4c0.32,1,0.08,1.09,0.18,2.29c0.42-0.43,1.55,0.97,1.8,2.04
							c-0.18-0.06-0.39,0.19-0.49,0.31c0.01,0.54,0.01,1.02-0.01,1.46c-0.05,0.44-0.12,0.85-0.18,1.25
							c-0.13,0.81-0.25,1.59-0.3,2.58c-0.17,0.17-0.43,1.11-0.69,0.67c0.08,0.29,0.27,0.58,0.19,1.18
							c-0.76,1.09,0.11-1.35-0.72-0.55c0.38,0.12,0.31,1.61,0.42,2.52c0.64-0.16,0.42-1.99,0.31-2.87c0.84,0.08,1.49,1.71,1.54,3.93
							c-0.1,1.74-0.69,0.62-0.62,0.94c-0.47,1.53-0.28,2.28-0.14,2.97c0.15,0.69,0.27,1.32-0.51,2.49
							c-0.88,0.83-1.03-0.31-1.47-0.21c0.14-0.68,0.41-1.14,0.66-1.56c0.22-0.43,0.45-0.8,0.56-1.25l-0.53,1.04
							c-0.06-0.48,0.03-1.39,0.31-1.84c-0.6,0.73-1.58,5.1-3.07,7.09c-0.02,0.46-0.18,1.21,0.17,0.99l0.27-0.73
							c0.71-0.47-0.09,1.57,0.52,0.77c-0.09,0.54-0.16,1.13-0.31,1.75c-0.08,0.31-0.18,0.62-0.31,0.93
							c-0.16,0.3-0.36,0.59-0.61,0.88l-0.68-0.07c0.17,0.06,0.82-0.65,0.87-1.1c-0.08,0.68-1.89,1.52-1.55,2.51l0.9-0.67
							c-0.31,1.05-0.38,2.61-1.4,3.56c0.86-0.15,0.13-0.28,1.28-0.67c-1.17,0.23,1.84-2.95,0.36-2.29c0.61-0.2,0.9-0.53,1.21-0.89
							c0.3-0.36,0.63-0.76,1.21-1.19c-0.2-0.06-0.54,0.23,0.04-0.75c-0.03-0.07-0.04-0.22-0.05-0.31c0.02-0.03,0.03-0.04,0.05-0.06
							l-0.05,0.05c-0.01-0.06-0.01-0.06-0.02,0.02c-0.2,0.21-0.39,0.35-0.53,0.38c-0.17-0.72,0.62-2.32,0.66-2.96
							c0.38-0.56,0.09,0.34,0.45,0.1c0.03-0.32,0.04-0.64,0.02-0.97c0.44,0.09,1.31-1.4,1,0.19l0.51-1.34
							c0.52-0.71,1.04-1.78,1.08-2.52c0.27-0.63-0.05-1.8,0.14-1.13l0.29-2.25l0.11,0.01c0.35-1.06,0.28-2.24,0.38-3.41
							c0.07-1.18,0.32-2.36,0.74-3.6c-0.07-0.76-0.17-1.53,0.01-2.77l0.4-0.24c-0.07-0.96,0.28-2.91-0.12-3.31
							c0.25-0.27,0.37-0.71,0.42-1.23c0.02-0.26,0.03-0.55,0.02-0.84c-0.02-0.3-0.09-0.6-0.14-0.92c-0.24-1.25-0.6-2.55-0.64-3.41
							l-0.51,0.03c-0.18-1.15-0.65-2.2-1.19-3.54l-0.41,0.21c-0.59-1.1-0.65-3.1-1.36-4.93c0.2,0.06,0.34,0.55,0.36,0.91
							c0.04-0.64-0.1-1.24-0.32-1.8c-0.25-0.55-0.62-1.06-0.98-1.56c-0.74-0.99-1.4-1.95-1.64-3.03c-0.42-0.37-0.56-0.72-0.66-1.1
							c0.03,0.04,0.06,0.07,0.09,0.1c-0.02-0.05-0.06-0.12-0.11-0.19c-0.05-0.24-0.1-0.49-0.18-0.75c0.02,0.25,0.06,0.48,0.12,0.65
							c-0.22-0.34-0.59-0.84-1-1.3l0.27-0.48c-0.03-0.04-0.05-0.07-0.08-0.11c-0.16-0.61-0.44-0.28-0.58,0.19
							c-0.21-0.22-0.47-0.38-0.69-0.49c0.35-0.83-1.15-1.1-0.88-2.12c-0.28-0.04-0.8-0.6-1.34-1.11c-0.6-0.47-1.23-0.88-1.65-0.72
							c0.07-0.09-0.01-0.25,0.21-0.02c-0.37-0.55-0.75-1.11-1.32-1.38l0.25-0.63l-0.78-0.25l-0.82-0.19
							c-0.38-0.85-0.52-1.27,0.46-1.01c-2.07-0.89-1.46-0.98-3.27-1.61l0.32-0.25c-0.53-0.38-1.67-0.57-1.77-1.06
							c-0.63-1.59-5.78-4.08-8.91-6.15c0.09,0.7-0.24,0.37-0.67,0.01c-0.44-0.34-0.98-0.74-1.22-0.35c-0.1-0.33-0.54-0.66,0.12-0.67
							c-1.89-0.38-2.56-1.47-4.07-1.02c-0.14-0.32,0.51-0.29,0.36-0.49c-0.17,0.02-0.66,0.08-0.81-0.13
							c-0.15-0.21,0.33-0.15,0.66-0.19c-1.94-0.45-2.32,0.33-2.63,1.07c-0.43-0.3-0.76-0.47-1.09-0.52
							c-0.33-0.02-0.65,0.08-1.05,0.28c-0.28-0.31-0.8-0.66,0.4-0.57c-0.65-0.13-4.03-1.02-4.16-0.35c-0.19-0.17-0.93-0.1-1.11-0.03
							c-1.5-0.11-1.63-0.18-3.1-0.19l0.41,0.12c-0.59,0.71-1.21,0.17-2.4,0.32l0.03-0.08c-1.37-0.21-1.66-0.13-1.94-0.06
							c-0.14,0.04-0.28,0.07-0.56,0.06c-0.27-0.02-0.68-0.05-1.37-0.09l0.2,0.45c-0.11,1.06-2.42-0.25-3.91,0.39l0.61,0.18
							c-0.75,0.45-2.6-0.81-3.51-0.73c-0.21-0.04,0.26-0.21,0.5-0.35c-2.39-0.01-0.13,0.68-1.73,1.25c-0.4-0.23,0.14-0.96-0.98-0.67
							c-0.31-0.03-1.02,0.52-1.84,1.06c-0.81,0.57-1.78,1.03-2.6,1.11c0.42,0.09,0.82,0.18,0.2,0.7c-1.01,0.61-3.4,0.49-3.94,1.77
							c-0.17,0.02-0.25-0.01-0.29-0.07c-0.69,0.66-2.37,1.85-2.59,2.51c-0.82-0.47-1.85,0.58-2.77,1.53
							c-0.45,0.49-0.9,0.92-1.25,1.23c-0.35,0.3-0.65,0.4-0.9,0.11l-2.04,1.96l-0.05-0.16c-0.73,0.55-1.05,1.1-1.28,1.52
							c-0.22,0.43-0.3,0.79-0.38,1.14c-0.36,0.24-0.26-0.08-0.29-0.16c-2.03,1.71-2.06,2.09-2.78,4.26l-0.54-0.11
							c-0.06,0.32-0.81,0.95-1.54,1.92c-0.38,0.47-0.79,1-1.15,1.58c-0.37,0.57-0.7,1.18-0.83,1.84c-0.04-0.05-0.1-0.14-0.07-0.36
							c-0.19,0.73-0.55,1.44-0.97,2.14c-0.4,0.7-0.93,1.37-1.25,2.06c-0.7,1.36-1.19,2.59-0.51,3.37c-0.11,0.64-0.07,1.31-0.1,1.96
							c0.74-2.33,0.66,0.57,1.2-0.32c-0.13,0.93-1.14,2.23-0.93,1.08l0.13-0.15c-0.79-0.66-1.11,2.85-1.66,2.67
							c-0.89,4.78-1.49,9.56-1.11,14.17c0.22-0.2,0.42-0.4,0.67-0.6c0.03,0.53,0.12,1.05,0.18,1.57c-0.11,0.43-0.48,0.64-0.62-0.5
							c-0.32,0.65,0.63,1.85,0.79,1.85c0.05,2.25-0.97-0.72-0.89-0.05l0.2,0.92l0.05-0.22c0.2,0.35,0.39,0.52,0.54,0.78
							c0.14,0.26,0.28,0.6,0.44,1.26c0.07,0.87-0.33,0.53-0.27,0.87c-0.05,0.01-0.05,0.13,0.11,0.52l0.45,1.98l0.35-0.94
							c0.48,0.79,0.46,1.82,0.84,0.75c-0.3,0.79,0.29,2.57,0.9,4.27c0.7,1.66,1.58,3.17,1.61,3.62c0.23,0.23,0.43,0.47,0.62,0.73
							c0.21,0.24,0.41,0.49,0.59,0.76c0.38,0.53,0.72,1.12,1.09,1.78c-0.09-0.39,0.34-0.91,0.94,0.22
							c-0.67,0.15-0.53,0.77-0.13,1.46c0.39,0.69,0.94,1.51,0.88,2.23c-0.03-0.58,0.56,0.15,1.14,0.8c0.58,0.65,1.24,1.13,1.07,0.3
							c0.65,0.87-0.34,0.37-0.02,1.2c0.54,0.4,1.03,0.88,1.51,1.41c0.23,0.27,0.47,0.55,0.71,0.82c0.25,0.27,0.51,0.54,0.77,0.82
							c1.05,1.1,2.07,2.39,3.47,3.24c0.15-0.11-0.12-0.64,0.59-0.44l0.85,1.73c0.59,0.3,1.01-0.43,1.68,0.67
							c-0.06-0.21-0.15-0.52,0.25-0.35c2.42,2.05,5.4,3.45,8.45,4.51c1.54,0.51,3.04,1.11,4.6,1.54c0.77,0.25,1.54,0.52,2.3,0.83
							c0.76,0.32,1.55,0.53,2.31,0.87c-0.81-0.47-0.23-0.41,0.43-0.33c-0.42-0.15,0.08-0.43,0.03-0.68c0.85,0.34,1.7,0.73,2.57,1.03
							c0.55-0.63,2.89,0.1,3.19-0.52l-0.85,0.07c1.13-0.69-1.46-1.74-1.21-2.68c-0.31,0.2-0.66,0.21-1.04,0.13
							c-0.37-0.1-0.77-0.32-1.18-0.52c-0.83-0.4-1.73-0.76-2.8-0.31c-0.39-0.26,0.42-0.25,0.24-0.5c-0.56,0.36-1.16,0.26-2.18-0.19
							l0.14-0.07c-1.5-0.36-2.57-0.62-3.59-1.18c-0.51-0.26-1.04-0.52-1.63-0.82c-0.59-0.3-1.25-0.58-1.98-1.05l0.04,0.54
							c-0.64-0.38-0.72-0.58-0.98-0.84c-1.07,0.28,1.85,0.94,0.83,1.33c-0.25-0.66-1.42-1.23-2.56-1.79
							c-1.12-0.59-2.12-1.32-2.12-1.94c-0.96-0.59,0,0.64-0.97,0.04l-0.1-0.4l-0.46,0.17c-0.61-0.43-0.67-1.01-0.55-1.22
							c0.13,0.13,0.45,0.25,0.61,0.34c-0.56-0.86-2.22-1.51-2.42-1.8l0.75,0.79c-0.65-0.41-1.34-0.85-1.98-1.38
							c-0.62-0.56-1.25-1.13-1.88-1.69c-0.32-0.28-0.64-0.56-0.95-0.84c-0.29-0.3-0.58-0.6-0.88-0.89c-0.59-0.57-1.19-1.1-1.81-1.56
							l-0.02,0.31c-0.48-0.35-0.75-0.65-0.94-0.91c-0.19-0.26-0.31-0.47-0.42-0.7c-0.22-0.45-0.44-0.93-1.27-1.89l0.1,0.04
							c-0.51-0.26-0.93-0.8-1.28-1.4c0.55,0.4-0.19-1.29,0.49-0.73c-1.65-1.9-0.96-0.84-2.49-1.9l0.16-0.52
							c-0.54-0.36-0.72-0.32-1.37-1.44c0.74,0.81,0.16-0.97,1.05-0.1c-0.1-0.68-0.31-1.21-0.55-1.66c-0.22-0.46-0.43-0.85-0.65-1.19
							c-0.42-0.69-0.74-1.25-0.39-2.01c-1.39-0.82,0.25,2.34-0.19,1.77c-0.11,0.67-1.07-0.69-1.27-1.53
							c-0.31-0.82,0.84-1.79,0.28-3.81c0.05,0.2,0.13,0.2,0.17,0.4c0.03-0.41-0.15-0.76-0.32-1.15c-0.08-0.19-0.17-0.39-0.21-0.6
							c-0.03-0.22-0.02-0.45,0.05-0.71c-0.69-0.43-0.15-1.25-0.96-1.28l0.47,1.91c-0.37-1.04-1.44-1.96-1.28-3.86
							c0.18,0.13,0.47,0.65,0.65,1c0.17-0.56-0.34-1-0.12-1.58c0.75,0.08,0.52,2.34,1.27,3.4c0.25-0.61-0.9-2.11,0.04-1.65
							c-0.6-0.34-0.65-0.87-0.67-1.46c0.03-0.6,0.1-1.26-0.35-1.95l0.48,0.07c-0.09-0.22-0.33-0.68-0.34-1.09l0.65,0.72
							c-0.58-1.13,0.3-2.21,0.12-3.29c-0.06,1.14-0.2,1.27-0.38,1.23c-0.19-0.04-0.43-0.24-0.58,0.25c-0.55-2.9,1.3-1.62,1.23-4.77
							c0.02,0.43-0.37,1.58-0.56,0.89c0.1-0.6,0.4-1.37,0.71-1.7c0.22-2.08-0.53,0.25-0.69-0.67c0.68-0.63-0.08-1.06-0.12-2.03
							l0.48,0.08c0.15-0.58,0.2-0.92,0.19-1.14c-0.02-0.22-0.12-0.31-0.23-0.4c-0.21-0.18-0.41-0.33,0.05-1.36l0.42,1.05l0.12-1.14
							L15.34,45c-0.05-0.64-0.02-1.05,0.08-1.44c0.09-0.39,0.24-0.76,0.54-1.29c-0.42,0.16-0.78-0.42-0.42-1.45
							c0.52-0.59,0.29,0.54,0.75-0.91c0.16,0.44,0.39,0.91-0.25,1.38c0.12,0.12,0.17,0.42,0.29,0.53c0.58-0.62,0.74-1.8,0.92-2.32
							c-0.09,0.19-0.2,0.41-0.31,0.51c0.02-0.38,0.03-0.77,0.07-1.15l0.17-1.13c0.32-0.24,0.33,0.07,0.34,0.37
							c0.14-0.42,0.08-0.79,0.33-1.4c0.28,0.32,0.66,0.47,0.43,1.36l0.5-2.05c0.2-0.05,0.88-0.73,0.89-0.42
							c0.8-0.83,0.77-2.79,1.87-3.89c-0.02-0.11,0.02-0.27,0.17-0.57c0.47-0.55,0.98-1,1.46-1.53c0.24-0.26,0.45-0.55,0.67-0.86
							c0.23-0.3,0.45-0.64,0.63-1.04l1.17-0.24c0.77-1.09-1.53,0.37-0.23-1.46c0.91-1.33,0.82-0.02,1.35-0.27
							c0.32-0.76,0.86-2.23,2.3-2.77C28.8,23.41,28.45,23.58,28.16,23.92z M42.11,15.36c-0.27,0.21-0.75,0.72-1.07,0.53
							C41.18,15.25,41.54,15.4,42.11,15.36z M67.14,13.24c-0.28,0.09-0.62-0.08-0.99-0.36C66.46,12.92,66.79,13.03,67.14,13.24z
							 M100.55,70.8c0-0.02,0-0.03-0.01-0.04C100.99,70.07,100.82,70.31,100.55,70.8z M99.79,72.26c0.01,0.18,0.07,0.19,0.16,0.15
							c-0.07-0.15,0.04-0.5,0.22-0.88C100.01,71.6,99.85,71.77,99.79,72.26z M10.89,66.62l0.04-0.34
							C11.24,66.94,11.07,66.78,10.89,66.62z"/>
						<path class="st0" d="M64.17,13.23c-0.08-0.09-0.08-0.19-0.09-0.28C63.94,13.01,63.92,13.1,64.17,13.23z"/>
						<path class="st0" d="M21.59,31.67l-0.03,0.04c0.01,0.04,0.02,0.07,0.04,0.09L21.59,31.67z"/>
						<path class="st0" d="M98.17,48.08c0.02-0.32,0.08-0.5,0.16-0.63C98.21,47.45,98.13,47.61,98.17,48.08z"/>
						<path class="st0" d="M96.64,80.44l0.44-0.97c-0.25,0.45-0.43,0.55-0.63,0.74C96.56,80.24,96.8,80.15,96.64,80.44z"/>
						<path class="st0" d="M88.86,85.76c-0.05,0.15-0.2,0.23-0.26,0.38l0.19,0.12C89.21,85.79,89.37,85.34,88.86,85.76z"/>
						<path class="st0" d="M94.78,80.41c-0.4-0.16-0.56,0.5-0.95,1.1c0.02-0.04,0.05-0.07,0.08-0.1
							C94.25,81.91,94.56,81.18,94.78,80.41z"/>
						<path class="st0" d="M93.74,81.65c-0.12,0.19-0.24,0.38-0.39,0.54C93.48,82.39,93.55,82,93.74,81.65z"/>
						<path class="st0" d="M99.27,74.3c-0.25,0.27,0.38,0.41,0.14,0.52C99.73,75.38,99.83,72.45,99.27,74.3z"/>
						<polygon class="st0" points="93.36,80.17 93.91,80.23 93.78,79.67 						"/>
						<path class="st0" d="M96.43,75.54l-0.61,0.95c0.08,0.02,0.06,0.18,0.02,0.35C96.15,76.22,96.57,75.58,96.43,75.54z"/>
						<path class="st0" d="M95.84,76.84c-0.17,0.32-0.36,0.61-0.39,0.82C95.54,77.49,95.76,77.13,95.84,76.84z"/>
						<polygon class="st0" points="94.03,78.78 94.29,78.55 94.73,77.9 						"/>
						<path class="st0" d="M100.44,64.12l0.04-1.24c-0.15-0.15-0.3,0.16-0.31,0.62C100.25,63.81,100.25,64.27,100.44,64.12z"/>
						<path class="st0" d="M98.23,67.37c0.18-0.29,0.29-0.28,0.5-0.41l-0.59-0.2L98.23,67.37z"/>
						<path class="st0" d="M98.93,63.95c-0.15-0.16-0.23-1.79-0.41-0.3C98.68,63.8,98.59,65,98.93,63.95z"/>
						<polygon class="st0" points="99.51,45.94 99.59,46.24 100.58,45.98 						"/>
						<path class="st0" d="M91.26,32.5c0.5,1.29,0.7-0.06,1.08,1.16c0.37,0.15-0.32-1,0.03-0.83C91.73,32.25,91.62,31.8,91.26,32.5z
							"/>
						<path class="st0" d="M92.38,32.83c0.1,0.09,0.22,0.19,0.35,0.28C92.55,32.94,92.45,32.87,92.38,32.83z"/>
						<polygon class="st0" points="53.42,102.48 54.39,102.74 53.77,102.36 						"/>
						<path class="st0" d="M55.32,101.81l0.22,0.66l0.59-0.56C55.9,101.93,55.48,101.97,55.32,101.81z"/>
						<path class="st0" d="M44.8,15.87l0.02-0.17c-0.18-0.13-0.38-0.09-0.78-0.02L44.8,15.87z"/>
						<polygon class="st0" points="33.97,20.19 34.15,20.1 33.51,19.8 						"/>
						<path class="st0" d="M26.83,26.89c0.27-0.29,0.52-0.69,0.84-0.94C27.09,26.58,26.24,26.47,26.83,26.89z"/>
					</g>
				</g>
			</g>
			<g>
				<g>
					<g>
						<path class="st0" d="M56.49,5.33c-0.46-0.06-0.3,0.37-0.37,0.44C56.89,5.71,56.47,5.22,56.49,5.33z"/>
						<polygon class="st0" points="64.28,5.07 64.12,5.22 65.33,4.98 						"/>
						<path class="st0" d="M71.4,6.69c-0.46-0.87-2.6-0.55-3.79-1.13l-0.17-0.21l-0.69,0.41C68.28,6.08,70.38,6.21,71.4,6.69z"/>
						<path class="st0" d="M74.49,9.47c-0.12-0.34,0.86,0.06-0.8-0.38c0.07,0.06,0.09,0.08,0.13,0.12
							C73.96,9.25,74.16,9.33,74.49,9.47z"/>
						<path class="st0" d="M73.82,9.21C73.11,8.97,74.19,9.59,73.82,9.21L73.82,9.21z"/>
						<path class="st0" d="M77.06,10.41l-0.99-0.2c0.12,0.24,0.89,0.65,0.55,0.62C77.57,11.14,77.46,10.9,77.06,10.41z"/>
						<path class="st0" d="M78.13,10.34l-0.51-0.13C77.67,10.32,77.78,10.4,78.13,10.34z"/>
						<path class="st0" d="M76.54,9.94l1.08,0.27c-0.08-0.17,0-0.38-0.49-0.15C77.3,9.92,77.02,10.01,76.54,9.94z"/>
						<path class="st0" d="M76.03,9.57c-0.43-0.4-1.09-0.73-0.06-0.58c-0.91-0.32-1.35-0.29-1.33-0.16
							C74.66,8.99,75.16,9.2,76.03,9.57z"/>
						<path class="st0" d="M71.98,6.12c-0.22-0.16-0.44-0.32-0.67-0.44l-0.72,0.06c0.18-0.02,0.52,0.12,0.83,0.24
							C71.72,6.11,71.97,6.24,71.98,6.12z"/>
						<path class="st0" d="M82.26,13.65c0.13-0.1-0.07-0.51-0.03-0.72l-0.72-0.23C81.78,12.99,82.34,13.44,82.26,13.65z"/>
						<path class="st0" d="M82.23,12.93l1.08,0.35C82.48,12.75,82.27,12.76,82.23,12.93z"/>
						<polygon class="st0" points="78.64,9.71 76.76,9.41 78.96,9.86 						"/>
						<polygon class="st0" points="85.65,16.01 84.96,15.93 86.15,16.15 						"/>
						<path class="st0" d="M87.87,17.64c-0.52-0.08,0.14,0.79-0.33,0.61c0.58,0.46,1.21,0.69,1.78,0.91
							C88.79,18.84,88.33,18.38,87.87,17.64z"/>
						<path class="st0" d="M90.26,19.57c-0.27-0.15-0.59-0.28-0.94-0.41C89.61,19.32,89.91,19.47,90.26,19.57z"/>
						<path class="st0" d="M84.83,14.38c0.02,0.13,0.01,0.42,0.44,0.87l-0.1-0.61C85.06,14.57,84.95,14.48,84.83,14.38z"/>
						<path class="st0" d="M85.16,14.63l0,0.02c0.37,0.29,0.62,0.49,0.73,0.58C85.81,15.15,85.59,14.97,85.16,14.63z"/>
						<path class="st0" d="M84.74,14.32c0.03,0.02,0.06,0.04,0.09,0.07C84.82,14.33,84.8,14.3,84.74,14.32z"/>
						<path class="st0" d="M81.05,11.4c0.67,0.13,1.99,0.63,1.03-0.38C81.53,11.03,82.07,11.6,81.05,11.4z"/>
						<path class="st0" d="M84.61,13.55c-0.3-0.26-0.63-0.47-0.95-0.71c-0.04,0.11,0.05,0.35-0.29,0.29
							C83.78,13.27,84.21,13.38,84.61,13.55z"/>
						<polygon class="st0" points="85.15,13.79 84.61,13.55 84.94,13.85 						"/>
						<path class="st0" d="M89.06,17.93c0.5,0.2,0.92,0.56,1.4,0.96c-0.44-0.51-0.92-1.01-1.41-1.46
							C88.89,17.47,88.52,17.46,89.06,17.93z"/>
						<path class="st0" d="M87.24,16.24c0.03,0.02,0.07,0.03,0.11,0.05C87.31,16.22,87.28,16.18,87.24,16.24z"/>
						<polygon class="st0" points="94.7,23.34 94.69,23.22 94.62,23.25 						"/>
						<path class="st0" d="M89.01,17.3c-0.32-0.4-0.61-0.53-0.91-0.62c0.31,0.22,0.62,0.47,0.94,0.76
							C89.12,17.42,89.15,17.39,89.01,17.3z"/>
						<path class="st0" d="M91.63,20.59c-0.11-0.26-0.26-0.53-0.44-0.78C91.29,20.07,91.49,20.6,91.63,20.59z"/>
						<path class="st0" d="M87.41,16.48c-0.02-0.01-0.05-0.02-0.07-0.03C87.41,16.62,87.42,16.58,87.41,16.48z"/>
						<path class="st0" d="M87.41,16.48c0.24,0.11,0.48,0.14,0.7,0.2c-0.27-0.16-0.52-0.29-0.76-0.39
							C87.38,16.35,87.4,16.42,87.41,16.48z"/>
						<path class="st0" d="M98,23.14c-0.18,0.08-0.56-0.1-0.93-0.45c-0.19-0.17-0.37-0.4-0.54-0.64c-0.19-0.23-0.35-0.5-0.47-0.79
							c-1.02-0.68-1.47,0.77-1.37,1.95C94.84,23.14,95,23,95.87,23.8c-0.02-0.5-1.31-2.31-0.36-1.8c0.62,0.51,0.78,0.8,0.84,1.03
							c0.07,0.23,0.03,0.42,0.17,0.79c-0.01-0.83,1.77,1.17,2.15,0.47l-1.05-0.98C97.71,23.22,98.16,23.52,98,23.14z"/>
						<path class="st0" d="M93.24,21.56l-0.36-0.32c0.31,0.45,0.46,0.85,0.7,1.57c0.67,0.45,0.9,0.48,1.04,0.44l-1.54-1.77
							L93.24,21.56z"/>
						<path class="st0" d="M91.42,19.68c0.6-0.08,1.48,0.69,1.34-0.18c-1.01-1-0.98-0.43-1.72-0.88c1.76,1.45-0.65-0.26,0.4,1.01
							c-0.38-0.25-0.69-0.5-0.98-0.74c0.26,0.31,0.51,0.62,0.73,0.92c-0.01-0.02-0.01-0.04-0.02-0.05l-0.01-0.01l0.01,0
							c-0.03-0.1-0.04-0.15,0.02-0.05c0.01,0,0.03,0.02,0.04,0.03C91.28,19.69,91.35,19.68,91.42,19.68c0.42,0.5,0,0.15-0.19,0.05
							c-0.02,0.01-0.05,0.01-0.07,0.03l0,0.01c0.62,0.43,1.14,0.98,1.72,1.47C92.59,20.85,92.21,20.38,91.42,19.68z"/>
						<path class="st0" d="M83.63,10.87c0.04,0.07,0.02,0.09,0.01,0.12C83.8,11.03,83.86,11.03,83.63,10.87z"/>
						<path class="st0" d="M84.31,11.6c-0.18-0.04-0.39,0.03-0.84-0.29c-0.34-0.36,0.11-0.17,0.16-0.31
							c-0.35-0.08-1.16-0.34-0.38,0.38l0.17,0.04c0.73,0.62,1.45,1.68,1.28,1.65C84.7,12.6,84.64,12.24,84.31,11.6z"/>
						<path class="st0" d="M88.23,15.44c0.57,0.31,1.08,0.71,1.6,1.08l-0.49-0.95l-0.11,0.21C88.45,15,88.44,15.4,88.23,15.44z"/>
						<path class="st0" d="M94.68,23.63l-0.52,0.11c0.42,0.12,0.77,0.29,1.16,0.44L94.68,23.63z"/>
						<polygon class="st0" points="96.18,25.55 95.81,25.72 96.38,26.09 						"/>
						<path class="st0" d="M28.14,102.71l-0.58-0.22C27.83,102.61,28.01,102.67,28.14,102.71z"/>
						<path class="st0" d="M31.98,104.81l0.18-0.13C31.93,104.69,31.82,104.72,31.98,104.81z"/>
						<path class="st0" d="M98.68,81.79c-0.73,0.49-1.66,0.93-1.24,1.1l0.49,0.03C98.15,82.39,98.41,82.05,98.68,81.79z"/>
						<path class="st0" d="M66.49,107.11c0.09,0.03,0.18,0.06,0.27,0.09c0.17-0.2,0.32-0.38,0.47-0.55
							C67,106.8,66.76,106.98,66.49,107.11z"/>
						<path class="st0" d="M66.23,108.97l-1.18-0.1C65.32,108.92,65.7,108.96,66.23,108.97z"/>
						<path class="st0" d="M10.42,86.79c-0.26-0.11-0.53-0.21-0.77-0.34C10.28,87.38,10.2,86.84,10.42,86.79z"/>
						<path class="st0" d="M105.76,48.32c-0.06,0.71-0.05,1.26,0,1.74C105.89,49.21,106.15,48.48,105.76,48.32z"/>
						<path class="st0" d="M31.84,99.57c-0.33-0.11-0.5-0.11-0.53-0.02C31.64,99.67,31.85,99.7,31.84,99.57z"/>
						<path class="st0" d="M105.9,52.05c0.04-0.12,0.05-0.25,0.08-0.37c-0.11-0.5-0.15-1.01-0.21-1.62
							C105.67,50.68,105.55,51.39,105.9,52.05z"/>
						<path class="st0" d="M25.32,9.81c0.06-0.02,0.13-0.05,0.2-0.06C25.5,9.69,25.43,9.73,25.32,9.81z"/>
						<path class="st0" d="M49.37,5.28c-0.22,0.06-0.59,0.12-0.94,0.18C48.6,5.46,48.89,5.41,49.37,5.28z"/>
						<path class="st0" d="M101.07,34C100.82,33.54,100.99,33.94,101.07,34L101.07,34z"/>
						<path class="st0" d="M101.5,30.92c0.09,0.08,0.18,0.13,0.28,0.09C101.66,31.02,101.57,30.99,101.5,30.92z"/>
						<path class="st0" d="M108.68,57.27c0,0.02,0,0.03,0,0.05C108.77,57.16,108.75,57.19,108.68,57.27z"/>
						<path class="st0" d="M100.91,33.21c0.04,0.2,0.09,0.42,0.17,0.65C101.07,33.75,101.02,33.55,100.91,33.21z"/>
						<path class="st0" d="M100.77,33.39c-0.06-0.17-0.11-0.3-0.16-0.42C100.52,32.95,100.51,33.02,100.77,33.39z"/>
						<path class="st0" d="M101.4,34.63c-0.13-0.26-0.23-0.52-0.32-0.77c0.02,0.1,0.01,0.15-0.01,0.13
							C101.14,34.13,101.24,34.32,101.4,34.63z"/>
						<path class="st0" d="M2.74,48.39c0.02-0.03,0.03-0.08,0.06-0.11C2.7,47.7,2.69,47.95,2.74,48.39z"/>
						<path class="st0" d="M93.22,95.44c0.02-0.02,0.02-0.04,0.03-0.06c-0.02,0.01-0.05,0.03-0.07,0.04L93.22,95.44z"/>
						<path class="st0" d="M91.94,97.05c0.29-0.99,0.69-1.26,1.25-1.62l-1.33-0.48C91.89,95.64,91.92,96.34,91.94,97.05z"/>
						<path class="st0" d="M19.61,96.63l0.81,1.26c-1.71-0.68-2.52-1.72-1.87-0.38c0.27-0.22,0.67-0.1,1.13,0.19
							c0.47,0.29,0.98,0.77,1.57,1.16c1.15,0.82,2.3,1.63,2.77,1.14l0.59,0.8c-0.21-0.17-0.29-0.13-0.5-0.31
							c1.11,1.65,1.66-0.01,3.54,1.38c0.64,0.51,1.03,0.98,0.47,0.83l1.73,0.66c0.45,0.29,0.22,0.44-0.22,0.14
							c0.82,0.44,1.7,0.76,2.55,1.15l-0.04,0.03c0.45-0.02,1.4,0.07,1.85,0.13c0.55,0.48-0.38-0.02-0.28,0.21
							c0.51,0.11,1,0.26,1.52,0.34c0.22,0.27,0.01,0.38-0.39,0.36c-0.38-0.05-0.94-0.24-1.41-0.49c0.37,0.93,0.7,1,1.25,1.08
							c0.56,0.04,1.33,0.08,2.67,0.99l-1.44-0.35c0.62,1.05,1.81,1.19,3.25,2.22c-0.32-0.38-2.76-2.3-1.06-2.03
							c0.41,0.25,0.98,0.53,1.92,0.55c-0.13,0.46,0.76,0.57,1.84,0.82l-0.24,0.6c1.22,0.12,1.21-0.22,1.96-0.32
							c1.28,0.39,1.44,0.95,1.68,1.4c2.12,0.43-1.32-1.01,1.22-0.74c0.86,0.26,1.61,0.37,2.41,0.4c0.8,0.03,1.65,0.04,2.72-0.13
							c1.22,0.28-0.25,0.38,0.18,0.58l1.13-0.45c0.27,0.03,0.17,0.18,0.12,0.25c0.93-0.15,0.11-0.63,1.55-0.74
							c0.2-0.36,0.93-0.02,1.84,0.21c0.91,0.2,2.02,0.38,2.89-0.07c0.45,0.16-0.19,0.4-0.04,0.64c2.43-0.65,2.1-0.45,3.99-1.46
							l1.75,0.16c-1.32-0.28,0.19-1.09,1.44-1.75c-0.47-0.16-0.87-0.31-1.14-0.36c0.69-0.22,1.38-0.43,2.05-0.75
							c0.27,0.04,0.11,0.31-0.17,0.66c0.13-0.09,0.26-0.17,0.35-0.25c0.8,0.04,0.5,0.5,0.03,0.99c-0.29-0.06-0.57-0.12-0.85-0.19
							c-0.46,0.46-0.89,0.96-0.71,1.31c0.13-0.09,0.4-0.2,0.69-0.28c-0.12,0.13-0.2,0.23-0.12,0.28c0.09,0.05,0.3-0.1,0.62-0.36
							l0.65,0.57l0.06-0.31l2.97-0.3c0.47-0.31,0.91-0.62,1.35-0.96c0.43-0.37,0.86-0.75,1.32-1.13c0.92-0.77,2.01-1.46,3.44-2.24
							c-0.52,0.83,0.18,0.86,0.38,1.45c-1.08-0.25-2.31,1.16-4,1.64c0.87-0.25,0.78,0.1,0.6,0.28l2.7-1.63
							c0.13,0.5,0.77,0.14,1.58-0.05c-0.95-0.65,1.8-1.61,2.78-2.42c0.23,0.26,0.12,0.7-1.31,1.3c1.87-0.09,1.46-1.93,3.15-2.25
							c-0.31,0.2-0.51,0.26-0.55,0.48c0.6-0.71,2.53-1.61,2.26-1.1l-0.32,0.2c0.55-0.3,1.22-0.69,1.93-1.13
							c0.69-0.46,1.36-1.04,1.98-1.57c1.23-1.08,2.18-2.05,2.02-2.52c0.09,0.07,0.42,1.01,0.4,1.22c0.53-1.7,0.94-3.42,1.33-5.04
							c0.22,0.79,2.54,1.03,1.29,2.72c0.49-0.34,1.19-0.7,1.85-1.81c-0.35,0.24-1.43-0.01-1.1-0.45c1.59-0.54,1.01-0.46,2.78-1.37
							c-0.52,0.34-0.92-0.92-0.27-1.59c0.03,0.22,0.91,0.68,0.77,1.02c0.26-0.83,0.5-1.66,0.65-2.53c-0.19,0.6,0.68,0.68,1.25,0.45
							c-0.32,0.06,1.26-1.65,1.55-2.23l-0.82,0.66c1.79-2.05,0.21-3.06,1.63-5.22c0.04,0.38,0.81,1.41,1.64,0.32
							c-0.1-0.42-0.3-1.32-0.51-2.43c-0.21-1.11-0.34-2.37-0.06-3.46l0.49-0.25c0.13-0.57,0.29-1.12,0.34-1.71
							c0.26,0.68,0.4,1.84,0.51,3.14c0.1,1.28,0.15,2.68,0.06,3.62c0.69-0.78,0.47-0.07,1.11-1.45c0.51-0.35,0.05,0.96-0.13,1.38
							l1.74-3.14c-0.34-0.07-0.2-0.75-0.05-1.43c0.1-0.7,0.2-1.39-0.08-1.43c-0.17,1.3-0.58,2.52-0.92,3.79
							c-0.34-0.08-0.52-0.78-0.49-1.73c0.01-0.48,0.12-0.99,0.2-1.56c0.09-0.57,0.25-1.15,0.48-1.71c0.47-0.49,0.96,0.86,1.18,0.9
							c-0.1-0.39,0.4-2.37,0.63-2.54l-0.02,1.11c0.36-0.61,0.34-1.22,0.38-1.84c0.03-0.62,0.03-1.28,0.56-2
							c0.18-0.54,1.27-1.46,0.91-1.66c-0.98,0.75-3.32,0.3-3.73-0.41c0.05-0.09,0.42-0.73,0.82-1.43c0.44-0.69,0.75-1.48,1.01-1.76
							c0.73-0.81,1.2,1.63,1.83,0.95c-0.17-0.07-0.32-0.62-0.36-0.85c0.25-0.57,0.52,0.34,0.64-0.97c-0.64-0.32,0.46-2.62-0.48-0.69
							c0-0.64,0.08-0.97,0.19-1.32c0.11-0.35,0.27-0.73,0.27-1.48c-0.46,0.42-1.43-1.45-1.56-2.68c0.17,0.08,0.41-0.19,0.52-0.32
							c0.05-0.64,0.11-1.2,0.17-1.72c0.02-0.52,0.04-1.01,0.06-1.49c0.04-0.96,0.07-1.91,0.01-3.1c0.16-0.23,0.28-1.41,0.61-0.95
							c-0.17-0.33-0.45-0.62-0.57-1.35c0.37-1.5,0.34,1.63,0.88,0.46c-0.41-0.05-0.83-1.85-1.24-2.85
							c-0.55,0.42,0.25,2.42,0.66,3.45c-0.84,0.09-1.99-1.61-2.74-3.92c-0.23-0.93-0.21-1.15-0.05-1.19
							c0.14-0.04,0.34,0.11,0.24-0.04c-0.38-1.78-0.93-2.45-1.4-3.03c-0.47-0.59-0.83-1.1-1.08-2.58c0.1-1.29,0.99-0.4,1.27-0.78
							c0.37,0.72,0.51,1.32,0.58,1.87c0.03,0.56,0.03,1.07,0.17,1.58l-0.09-1.36c0.3,0.44,0.7,1.44,0.69,2.05
							c0.31-1.15-1.66-6.03-2.52-8.78c-0.39-0.39-0.93-1.1-0.95-0.63l0.46,0.78c-0.04,0.92-1.27-1.26-0.97-0.16
							c-0.4-0.47-0.85-0.95-1.26-1.51c-0.21-0.28-0.4-0.58-0.58-0.91c-0.21-0.31-0.4-0.66-0.56-1.04l0.37-0.58
							c-0.14,0.12,0.25,1.11,0.66,1.43c-0.59-0.46-0.62-2.62-1.7-2.86l0.24,1.22c-0.91-0.84-2.1-1.78-2.87-3.01
							c-0.1,0.88,0.27,0.23,0.28,1.45c0.27-1.25,1.88,3.17,1.92,1.46c-0.08,0.67,0.08,1.1,0.28,1.56c0.19,0.46,0.44,0.93,0.41,1.72
							c0.16-0.13,0.13-0.62,0.57,0.52c0.08,0.02,0.2,0.1,0.27,0.16c0.01,0.04,0.01,0.05,0.02,0.08c0-0.03,0-0.05-0.01-0.07
							c0.05,0.03,0.06,0.04,0-0.03c-0.05-0.3-0.05-0.56,0.01-0.7c0.67,0.33,1.51,2.1,2.02,2.6c0.23,0.7-0.35-0.18-0.37,0.26
							c0.26,0.24,0.5,0.5,0.72,0.77c-0.38,0.27-0.04,2.08-0.86,0.59l0.5,1.43c0.06,0.93,0.41,2.09,0.82,2.76
							c0.08,0.72,0.93,1.61,0.43,1.1l0.86,2.24l-0.1,0.05c0.32,1.13,0.62,2.31,0.91,3.54c0.27,1.23,0.54,2.53,0.14,3.91
							c0.15,0.78,0.33,1.6,0.27,2.93l-0.38,0.26c0.13,0.51-0.04,1.27-0.13,1.95c-0.1,0.68-0.16,1.29,0.03,1.52
							c-0.27,0.26-0.44,0.69-0.54,1.22c-0.05,0.26-0.08,0.55-0.1,0.86c-0.04,0.3-0.08,0.62-0.12,0.94c-0.15,1.29-0.2,2.69-0.42,3.55
							l0.49,0.16c-0.24,1.2-0.46,2.35-0.63,3.9L104.9,69c0.1,1.43-1.35,3.17-2.01,5.15c-0.11-0.2,0.11-0.68,0.34-1
							c-0.45,0.5-0.74,1.07-0.96,1.68c-0.25,0.59-0.46,1.21-0.63,1.84c-0.18,0.63-0.35,1.26-0.58,1.84c-0.23,0.58-0.5,1.12-0.98,1.5
							c-0.15,0.56-0.42,0.89-0.72,1.17c0.03-0.05,0.04-0.09,0.05-0.13c-0.03,0.05-0.08,0.12-0.13,0.2c-0.2,0.17-0.41,0.35-0.61,0.55
							c0.21-0.14,0.41-0.29,0.55-0.44c-0.22,0.38-0.51,0.97-0.76,1.59l-0.55-0.03c-0.02,0.05-0.04,0.09-0.07,0.14
							c-0.47,0.44-0.08,0.57,0.4,0.47c-0.09,0.33-0.22,0.61-0.26,0.87c-0.95-0.03-0.82,1.53-1.91,1.61c0.03,0.3-0.4,1-0.78,1.74
							c-0.44,0.69-0.84,1.4-0.64,1.81c-0.1-0.06-0.27,0.05-0.03-0.22c-0.57,0.48-1.13,0.96-1.4,1.61l-0.65-0.19l-0.24,0.88
							l-0.31,0.84c-0.99,0.39-1.43,0.5-1.04-0.49c-1.23,2.09-1.19,1.47-2.22,3.34l-0.17-0.36c-0.56,0.43-1.15,1.54-1.69,1.54
							c-0.43,0.09-1.04,0.42-1.78,0.9c-0.71,0.51-1.67,0.97-2.63,1.57c-1.9,1.25-4.29,2.27-6.24,2.85c0.58,0.36,0.12,0.46-0.49,0.54
							c-0.62,0.05-1.35,0.11-1.26,0.56c-0.32-0.18-0.9-0.13-0.38-0.58c-1.85,0.94-2.99,0.71-4.16,1.74c-0.3-0.21,0.31-0.5,0.07-0.6
							c-0.14,0.1-0.56,0.39-0.81,0.29c-0.24-0.11,0.23-0.3,0.51-0.49c-1.99,0.56-2,1.44-1.97,2.25c-0.57-0.05-0.97-0.03-1.32,0.09
							c-0.36,0.09-0.65,0.28-1,0.59c-0.42-0.2-1.08-0.38,0.2-0.67c-0.75,0.06-4.51,0.33-4.53,0.93c-0.25-0.15-1.04,0-1.24,0.09
							c-1.68,0.05-1.82,0-3.46,0.14l0.46,0.08c-0.64,0.84-1.37,0.18-2.7,0.2l0.04-0.08c-1.51-0.36-1.84-0.3-2.17-0.26
							c-0.16,0.02-0.33,0.04-0.63,0c-0.31-0.02-0.75-0.13-1.47-0.42l0.1,0.5c-0.42,0.98-2.56-1-4.33-0.88
							c0.19,0.13,0.38,0.24,0.57,0.37c-0.51,0.13-1.09-0.4-1.64-0.97c-0.55-0.57-1.06-1.19-1.5-1.36c-0.17-0.14,0.35-0.06,0.64-0.05
							c-2.2-1.19-0.46,0.53-2.28,0.21c-0.22-0.42,0.65-0.69-0.49-1.11c-0.24-0.24-1.15-0.28-2.19-0.41
							c-0.52-0.07-1.07-0.16-1.57-0.31c-0.25-0.07-0.49-0.16-0.71-0.27c-0.21-0.12-0.4-0.27-0.55-0.44c0.23,0.4,0.46,0.8-0.39,0.61
							c-0.61-0.24-1.31-0.86-2.02-1.37c-0.71-0.53-1.46-0.9-2.15-0.88c-0.11-0.15-0.13-0.24-0.1-0.3c-0.96-0.34-2.96-1.39-3.74-1.33
							c0.06-0.93-1.27-1.72-2.57-2.41c-0.64-0.36-1.29-0.66-1.66-1.01c-0.37-0.35-0.53-0.68-0.28-0.96l-2.34-2.01l0.17-0.06
							c-0.72-0.67-1.15-1.17-1.6-1.45c-0.43-0.29-0.8-0.42-1.17-0.56c-0.23-0.41,0.1-0.26,0.18-0.28c-1.76-2.31-1.83-2.57-3.94-4.05
							l0.25-0.49c-0.16-0.09-0.35-0.37-0.59-0.77c-0.24-0.4-0.44-0.97-0.73-1.57c-0.27-0.6-0.59-1.26-0.96-1.89
							c-0.37-0.63-0.81-1.24-1.21-1.83c0.06,0,0.17,0.01,0.33,0.18c-0.47-0.65-0.84-1.44-1.15-2.26c-0.3-0.83-0.62-1.65-0.77-2.47
							c-0.38-1.61-0.82-2.9-1.88-3.17c-0.42-0.6-0.67-1.26-1.01-1.9c0.55,2.71-0.86-0.18-0.86,1C5.4,69.2,5.6,67.36,6.03,68.64
							l-0.04,0.23c1.05,0.23-0.56-3.39,0.15-3.46c-1.08-5.29-0.63-10.56-0.15-15.48c-0.27,0.16-0.55,0.33-0.8,0.5
							c0.06-0.58,0.2-1.16,0.29-1.74c0.24-0.43,0.66-0.53,0.44,0.69c0.51-0.59-0.03-2.1-0.18-2.17c0.66-2.36,0.7,1.08,0.83,0.34
							l0.1-1l-0.12,0.21c-0.09-0.43-0.2-0.68-0.27-1c-0.08-0.33-0.07-0.73,0.15-1.45C6.81,43.4,7,43.92,7.12,43.57
							c0.05,0.01,0.1-0.1,0.16-0.54l0.6-2.1l-0.77,0.69c-0.04-1.03,0.57-2-0.33-1.21c0.69-0.58,1.52-2.47,2.19-4.34
							c0.78-1.82,1.6-3.56,1.92-3.91c0.05-0.36,0.13-0.7,0.23-1.04c0.12-0.33,0.28-0.64,0.45-0.96c0.34-0.64,0.75-1.28,1.2-1.99
							c-0.32,0.29-1,0.17-0.17-1.05c0.44,0.61,0.85,0.08,1.46-0.56c0.61-0.64,1.3-1.49,2.03-1.66c-0.56,0.22,0.02-0.62,0.53-1.43
							c0.52-0.8,1.08-1.49,0.16-1.18c0.9-0.83,0.43,0.27,1.29-0.2c0.38-0.61,0.86-1.2,1.39-1.78c0.27-0.28,0.53-0.58,0.84-0.85
							c0.32-0.25,0.64-0.51,0.97-0.77c1.34-1,2.65-2.13,4.05-3.19c-0.06-0.17-0.7-0.03-0.25-0.69l2.02-0.41
							c0.25-0.24,0.23-0.55,0.33-0.82c0.09-0.29,0.3-0.53,1.02-0.59c-0.23-0.03-0.59-0.08-0.22-0.37c3.17-1.51,6.19-3.33,9.5-4.67
							c1.66-0.64,3.32-1.35,5.09-1.63c0.87-0.18,1.75-0.33,2.63-0.44c0.88-0.12,1.79-0.03,2.68,0.01c-0.99-0.19-0.37-0.32,0.34-0.44
							c-0.48-0.01-0.06-0.43-0.18-0.65c1.02,0.08,2.01,0.11,3.01,0.24c0.48-0.68,3.15-0.2,3.43-0.85l-0.94,0.16
							c1.24-0.81-1.85-1.57-1.76-2.53c-0.35,0.23-0.77,0.28-1.25,0.24c-0.47-0.01-0.99-0.06-1.55-0.12
							c-1.11-0.1-2.37-0.14-3.45,0.64c-0.57-0.11,0.39-0.37,0.07-0.55c-0.54,0.47-1.23,0.77-2.6,0.92l0.13-0.14
							c-1.86,0.55-3.24,0.73-4.62,1.17C38,4.2,37.29,4.39,36.48,4.6c-0.81,0.22-1.72,0.44-2.73,0.89l0.48,0.29
							c-0.87,0.35-1.11,0.3-1.56,0.38c-0.66,1.12,2.39-1.11,1.83,0.04c-0.75-0.17-2.24,0.54-3.7,1.22c-1.44,0.71-2.74,1.55-3.4,1.28
							c-1.25,0.75,0.65,0.25-0.59,0.99l-0.49-0.05l-0.1,0.51c-0.85,0.43-1.4,0.47-1.59,0.27c0.2-0.11,0.49-0.45,0.68-0.62
							c-1.2,0.46-2.74,2.19-3.15,2.36l1.23-0.69c-0.74,0.66-1.6,1.27-2.4,1.98c-0.79,0.72-1.6,1.46-2.4,2.2
							c-0.4,0.37-0.8,0.75-1.19,1.11c-0.35,0.41-0.7,0.82-1.04,1.22c-0.67,0.81-1.29,1.63-1.81,2.43l0.36-0.07
							c-0.42,0.59-0.7,1.01-0.93,1.34c-0.24,0.32-0.45,0.54-0.67,0.75c-0.44,0.44-0.92,0.89-1.8,2.22l0.03-0.12
							c-0.23,0.62-0.55,1.42-1.02,2.14c0.2-0.83-1.22,1.02-0.92-0.03c-1.24,2.94-0.56,1.5-0.82,3.71l-0.53,0.26
							c-0.01,0.79,0.13,0.92-0.47,2.37c0.27-1.3-0.95,0.67-0.7-0.82c-0.55,0.67-0.91,1.31-1.17,1.9c-0.23,0.6-0.32,1.18-0.43,1.68
							c-0.2,1.01-0.36,1.78-1.19,2.31c0.45,1.76,1.53-2.52,1.44-1.64c0.56-0.54,0.29,1.44-0.16,2.37c-0.42,0.95-1.76,1.32-2.44,3.94
							c0.07-0.26,0-0.29,0.07-0.55c-0.25,0.46-0.29,0.96-0.35,1.48c-0.03,0.26-0.07,0.53-0.14,0.8c-0.05,0.28-0.13,0.56-0.29,0.84
							c0.51,0.8-0.28,1.59,0.47,1.9l0.19-2.45c-0.01,1.43,0.71,2.83-0.07,5c-0.13-0.19-0.24-0.88-0.29-1.36
							c-0.31,0.63-0.08,1.28-0.34,1.95c-0.84-0.28,0.25-2.97-0.13-4.55c-0.44,0.67,0.14,2.9-0.6,2.03c0.46,0.62,0.33,1.26,0.15,2
							c-0.12,0.75-0.25,1.6,0.12,2.53l-0.47-0.15c0.06,0.3,0.25,0.9,0.21,1.43l-0.57-0.99c0.46,1.5-0.65,2.87-0.24,4.31
							c-0.09-1.5,0.06-1.67,0.26-1.62c0.19,0.05,0.41,0.31,0.61-0.32c0.32,1.82,0.1,2.34-0.25,2.94c-0.32,0.6-0.73,1.27-0.47,3.34
							c-0.13-0.56,0.16-2.13,0.42-1.27c-0.09,0.79-0.12,1.84-0.28,2.35c0.51,2.71,0.42-0.48,0.88,0.64c-0.43,1,0.44,1.29,0.8,2.42
							l-0.47,0.1c0.02,0.39,0.05,0.69,0.1,0.93c0.06,0.23,0.13,0.4,0.2,0.52c0.14,0.24,0.28,0.31,0.42,0.36
							c0.28,0.11,0.54,0.18,0.7,1.56l-0.94-0.98l0.53,1.37l-0.61-0.15c0.4,0.72,0.6,1.21,0.73,1.7c0.13,0.5,0.19,1.02,0.4,1.77
							c0.2-0.44,0.9-0.08,1.38,1.19c0.05,0.97-0.61-0.33,0.12,1.46c-0.43-0.3-0.96-0.63-0.83-1.58c-0.18-0.03-0.44-0.31-0.61-0.34
							c0.04,1.07,0.81,2.44,1.06,3.1c-0.08-0.26-0.17-0.58-0.16-0.76c0.27,0.4,0.52,0.81,0.81,1.2l0.92,1.14
							c0.03,0.47-0.26,0.22-0.54-0.04c0.3,0.5,0.67,0.76,1.07,1.5c-0.45-0.02-0.79,0.2-1.48-0.81l1.57,2.26
							c-0.08,0.25,0.21,1.47-0.07,1.22c0.61,1.42,2.54,2.82,3.4,4.63c0.12,0.04,0.31,0.17,0.61,0.47c0.52,0.78,0.94,1.57,1.45,2.35
							c0.26,0.39,0.52,0.79,0.86,1.16c0.36,0.35,0.76,0.69,1.24,1.02l0.33,1.41c1.29,1.18-0.49-1.86,1.64,0.09
							c1.54,1.34,0.08,0.99,0.45,1.63c1.02,0.45,2.79,1.09,3.81,2.78C20.37,97.39,20.08,96.99,19.61,96.63z M38.06,107.13
							c-0.42-0.05-1.31-0.04-1.49-0.41C37.21,106.36,37.45,106.73,38.06,107.13z M69.65,107.28c-0.25,0.23-0.72,0.27-1.27,0.22
							C68.73,107.37,69.15,107.28,69.65,107.28z M103.59,39.07c0.01,0.01,0.02,0.02,0.04,0.03
							C103.74,39.96,103.7,39.65,103.59,39.07z M103.18,37.35c-0.12-0.14-0.18-0.11-0.22-0.01c0.16,0.07,0.3,0.44,0.42,0.87
							C103.46,38.05,103.46,37.81,103.18,37.35z M6.99,43.34l-0.21,0.3C6.84,42.85,6.91,43.09,6.99,43.34z"/>
						<path class="st0" d="M66.27,108.75c-0.13-0.06-0.18-0.15-0.22-0.23C65.91,108.62,65.92,108.72,66.27,108.75z"/>
						<path class="st0" d="M10.57,86.85l-0.03-0.06c-0.05-0.01-0.08-0.01-0.11,0L10.57,86.85z"/>
						<path class="st0" d="M109.81,64.88c-0.13,0.38-0.25,0.58-0.36,0.7C109.56,65.62,109.69,65.47,109.81,64.88z"/>
						<path class="st0" d="M98.34,29.44l0.68,0.89c-0.3-0.45-0.31-0.67-0.39-0.94C98.55,29.47,98.52,29.73,98.34,29.44z"/>
						<path class="st0" d="M94.71,19.76c-0.16-0.09-0.25-0.27-0.41-0.35l-0.13,0.19C94.67,20.12,95.15,20.38,94.71,19.76z"/>
						<path class="st0" d="M99.15,27.69c0.27-0.28-0.15-0.87-0.72-1.46c0.03,0.04,0.06,0.07,0.09,0.11
							C97.91,26.48,98.58,27.05,99.15,27.69z"/>
						<path class="st0" d="M98.3,26.09c-0.16-0.19-0.32-0.38-0.45-0.59C97.61,25.56,97.99,25.77,98.3,26.09z"/>
						<path class="st0" d="M102.11,35.38c-0.07-0.38-0.58,0-0.52-0.26C100.96,34.95,103.22,37.12,102.11,35.38z"/>
						<polygon class="st0" points="99.93,26.39 99.66,26.92 100.24,27.09 						"/>
						<path class="st0" d="M102.82,32.2l-0.44-1.24c-0.07,0.06-0.18-0.07-0.3-0.24C102.41,31.46,102.7,32.3,102.82,32.2z"/>
						<path class="st0" d="M102.07,30.72c-0.18-0.38-0.42-0.7-0.61-0.86C101.58,30.05,101.87,30.45,102.07,30.72z"/>
						<polygon class="st0" points="100.99,27.85 101.1,28.24 101.55,29.05 						"/>
						<path class="st0" d="M107.26,45.47l0.36,1.38c0.19,0.12,0.24-0.29,0.09-0.8C107.53,45.73,107.39,45.22,107.26,45.47z"/>
						<path class="st0" d="M107.56,40.92c0,0.41-0.1,0.47-0.21,0.72l0.61-0.12L107.56,40.92z"/>
						<path class="st0" d="M108.72,45.02c0.19,0.11,0.81,2.02,0.49,0.18C109.04,45.08,108.62,43.67,108.72,45.02z"/>
						<polygon class="st0" points="107.73,66.78 107.81,66.42 106.8,66.26 						"/>
						<path class="st0" d="M102.38,85.7c1.14-1.4-0.31-0.7,0.78-1.91c0.01-0.48-0.89,0.99-0.85,0.52
							C101.98,85.34,101.56,85.75,102.38,85.7z"/>
						<path class="st0" d="M102.31,84.3c0.05-0.17,0.11-0.35,0.15-0.55C102.36,84.05,102.33,84.2,102.31,84.3z"/>
						<polygon class="st0" points="53.25,5.47 54.3,5.63 53.61,5.32 						"/>
						<path class="st0" d="M55.24,4.61l0.26,0.64l0.63-0.62C55.88,4.67,55.42,4.75,55.24,4.61z"/>
						<path class="st0" d="M40.72,109.35l0.13-0.13c-0.13-0.21-0.39-0.29-0.91-0.45L40.72,109.35z"/>
						<polygon class="st0" points="26.57,102.5 26.8,102.65 26.68,101.89 						"/>
						<path class="st0" d="M15.8,94.78c0.34,0.43,0.9,0.77,1.29,1.15C16.12,95.23,16.24,94.15,15.8,94.78z"/>
					</g>
				</g>
			</g>
		</g>
	</g>
	<g>
		<path class="st2" d="M40.96,44.77c0-0.23,0-0.46,0-0.68c0.15-0.46,0.45-0.8,0.79-1.13c0.56-0.54,1.1-1.1,1.65-1.64
			c0.88-0.88,1.73-0.88,2.61,0c3.57,3.57,7.15,7.15,10.72,10.72c0.08,0.08,0.16,0.15,0.29,0.27c0.09-0.11,0.15-0.21,0.23-0.29
			c3.52-3.52,7.04-7.05,10.57-10.57c0.76-0.76,1.67-0.77,2.44-0.02c0.67,0.65,1.33,1.31,1.99,1.97c0.13,0.13,0.25,0.28,0.34,0.44
			c0.38,0.68,0.23,1.39-0.4,2.02c-3.52,3.52-7.05,7.04-10.57,10.56c-0.08,0.08-0.18,0.14-0.36,0.29c0.16,0.11,0.28,0.16,0.37,0.25
			c3.53,3.52,7.06,7.03,10.58,10.55c0.79,0.79,0.79,1.69,0,2.48c-0.55,0.55-1.11,1.09-1.65,1.65c-0.35,0.36-0.71,0.69-1.19,0.85
			c-0.23,0-0.46,0-0.68,0c-0.48-0.17-0.83-0.52-1.18-0.87c-3.42-3.42-6.84-6.84-10.25-10.26c-0.09-0.09-0.14-0.21-0.24-0.38
			c-0.16,0.2-0.23,0.31-0.31,0.39c-3.4,3.41-6.81,6.81-10.21,10.22c-0.37,0.37-0.73,0.72-1.23,0.9c-0.23,0-0.46,0-0.68,0
			c-0.47-0.16-0.82-0.49-1.16-0.84c-0.54-0.56-1.1-1.1-1.65-1.65c-0.8-0.8-0.8-1.7,0-2.5c3.51-3.53,7.02-7.06,10.54-10.59
			c0.08-0.08,0.15-0.16,0.28-0.3c-0.11-0.08-0.23-0.15-0.31-0.23c-3.45-3.45-6.9-6.89-10.35-10.34
			C41.54,45.65,41.15,45.29,40.96,44.77z"/>
		<g>
			<g>
				<g>
					<g>
						<path class="st2" d="M39.93,45.47c-0.13-0.35-0.27-0.15-0.33-0.19C39.91,45.87,39.98,45.42,39.93,45.47z"/>
						<polygon class="st2" points="43.1,48.26 42.99,48.27 43.53,48.52 						"/>
						<path class="st2" d="M45.62,50.79c0.01-0.49-0.96-0.88-1.32-1.42l-0.02-0.13l-0.41,0C44.46,49.76,45.31,50.33,45.62,50.79z"/>
						<path class="st2" d="M46.43,52.68c0.01-0.18,0.38,0.21-0.28-0.35c0.02,0.04,0.02,0.06,0.03,0.08
							C46.23,52.47,46.31,52.55,46.43,52.68z"/>
						<path class="st2" d="M46.17,52.42C45.9,52.16,46.27,52.68,46.17,52.42L46.17,52.42z"/>
						<path class="st2" d="M47.46,53.59l-0.44-0.26c0.02,0.13,0.31,0.46,0.16,0.38C47.59,54.03,47.57,53.89,47.46,53.59z"/>
						<path class="st2" d="M47.98,53.74l-0.22-0.14C47.77,53.65,47.81,53.71,47.98,53.74z"/>
						<path class="st2" d="M47.29,53.29l0.46,0.31c-0.01-0.09,0.07-0.18-0.21-0.15C47.66,53.41,47.51,53.4,47.29,53.29z"/>
						<path class="st2" d="M47.12,53.03c-0.14-0.25-0.36-0.54,0.08-0.28C46.49,52.12,46.41,52.4,47.12,53.03z"/>
						<path class="st2" d="M46.01,50.66l-0.19-0.34l-0.31-0.14C45.67,50.25,45.95,50.75,46.01,50.66z"/>
						<path class="st2" d="M49.52,55.91c0.08-0.03,0.03-0.26,0.07-0.36l-0.32-0.2C49.36,55.53,49.58,55.81,49.52,55.91z"/>
						<path class="st2" d="M49.58,55.55l0.48,0.3C49.73,55.49,49.62,55.47,49.58,55.55z"/>
						<polygon class="st2" points="48.32,53.52 47.49,53.08 48.45,53.64 						"/>
						<path class="st2" d="M50.18,56.59c-0.08,0-0.16,0.01-0.23,0.02c0.1-0.02,0.21-0.02,0.33-0.01l0.04,0l-0.03,0L50.18,56.59z"/>
						<path class="st2" d="M50.2,56.75c-0.15-0.05-0.29-0.05-0.38-0.09c0.03,0,0.14,0.07,0.2,0.18C50,56.76,50.01,56.76,50.2,56.75z
							"/>
						<path class="st2" d="M49.84,57.23c0.04-0.07,0.08-0.14,0.12-0.22c0.04-0.08,0.09-0.18,0.05-0.19c0.02,0-0.03,0.08-0.07,0.16
							C49.91,57.07,49.87,57.15,49.84,57.23z"/>
						<path class="st2" d="M50.46,56.29c-0.03,0.03-0.12,0.12-0.12,0.19c0.06-0.04,0.12-0.08,0.17-0.13L50.46,56.29z"/>
						<path class="st2" d="M50.51,56.35L50.51,56.35c0.05,0.07,0.09,0.11,0.1,0.13C50.6,56.46,50.57,56.42,50.51,56.35z"/>
						<path class="st2" d="M50.44,56.28l0.01,0.01C50.47,56.28,50.47,56.27,50.44,56.28z"/>
						<path class="st2" d="M49.2,54.68c0.31,0.14,0.88,0.53,0.55-0.06C49.48,54.56,49.67,54.89,49.2,54.68z"/>
						<path class="st2" d="M50.58,56.04c-0.03-0.05-0.18-0.22-0.3-0.37c-0.03,0.05-0.02,0.18-0.17,0.11
							C50.29,55.89,50.5,56.03,50.58,56.04z"/>
						<polygon class="st2" points="50.75,56.11 50.58,56.04 50.65,56.13 						"/>
						<path class="st2" d="M50.4,56.96c0.01,0.05,0,0.1-0.02,0.15c-0.01,0.02-0.03,0.04-0.05,0.07l-0.15,0.17l0.19-0.15l0.09-0.06
							c0.06-0.04,0.11-0.09,0.16-0.14C50.57,56.95,50.47,56.87,50.4,56.96z"/>
						<path class="st2" d="M50.77,56.67l0,0.02C50.8,56.68,50.82,56.67,50.77,56.67z"/>
						<polygon class="st2" points="48.01,59.53 48.07,59.52 48.05,59.48 						"/>
						<path class="st2" d="M50.67,56.99c0.12-0.06,0.12-0.13,0.07-0.18c-0.03,0.06-0.07,0.12-0.13,0.18
							C50.64,57.01,50.66,57.02,50.67,56.99z"/>
						<path class="st2" d="M49.31,57.91c0.12-0.06,0.26-0.14,0.39-0.23C49.56,57.73,49.3,57.84,49.31,57.91z"/>
						<path class="st2" d="M50.67,56.7L50.67,56.7C50.58,56.71,50.62,56.71,50.67,56.7z"/>
						<path class="st2" d="M50.67,56.7c0.01,0.03,0.05,0.07,0.08,0.1c0.02-0.05,0.03-0.09,0.02-0.12
							C50.74,56.69,50.7,56.7,50.67,56.7z"/>
						<path class="st2" d="M48.34,61.13c-0.11-0.17,0.22-0.76,0.77-1.02c0.29-0.5-0.44-0.69-1.05-0.6c0.05,0.07,0.11,0.13-0.22,0.62
							c0.22-0.07,1.09-0.73,0.87-0.26c-0.47,0.61-0.49,0.4-0.83,0.59c0.4-0.05-0.42,0.94-0.04,1.07l0.38-0.56
							C48.28,60.99,48.18,61.23,48.34,61.13z"/>
						<path class="st2" d="M48.86,58.75l0.15-0.19c-0.22,0.17-0.41,0.25-0.78,0.4c-0.21,0.35-0.22,0.46-0.19,0.52l0.85-0.81
							L48.86,58.75z"/>
						<path class="st2" d="M49.77,57.8c0.02,0.28-0.32,0.75,0.1,0.67c0.48-0.5,0.22-0.47,0.44-0.83c-0.76,0.84,0.14-0.31-0.52,0.18
							c0.13-0.18,0.26-0.33,0.39-0.47c-0.16,0.13-0.32,0.24-0.48,0.34l0.03-0.01l0,0l0,0c0.05-0.02,0.08-0.02,0.03,0.01
							c0,0-0.01,0.01-0.01,0.02C49.76,57.74,49.76,57.77,49.77,57.8c-0.26,0.2-0.08,0-0.02-0.09c0-0.01-0.01-0.02-0.01-0.03l0,0
							l-0.71,0.88C49.2,58.41,49.41,58.2,49.77,57.8z"/>
						<path class="st2" d="M50.5,54.71c0.01,0.04,0,0.05-0.01,0.06C50.56,54.81,50.59,54.81,50.5,54.71z"/>
						<path class="st2" d="M50.73,55.13c-0.08-0.04-0.19-0.02-0.36-0.23c-0.12-0.21,0.07-0.07,0.12-0.13
							c-0.15-0.07-0.51-0.29-0.22,0.14l0.08,0.04c0.28,0.38,0.48,0.97,0.38,0.91C50.82,55.68,50.8,55.47,50.73,55.13z"/>
						<path class="st2" d="M51.56,56.75c-0.1,0.16-0.21,0.32-0.34,0.49c0.14-0.06,0.3-0.12,0.46-0.2l-0.14-0.01
							C51.88,56.75,51.64,56.79,51.56,56.75z"/>
						<polygon class="st2" points="47.85,59.53 47.78,59.28 47.62,59.89 						"/>
						<polygon class="st2" points="47.01,60.41 46.9,60.25 46.75,60.56 						"/>
						<path class="st2" d="M62.64,59.65l-0.23-0.15C62.51,59.58,62.58,59.62,62.64,59.65z"/>
						<path class="st2" d="M64.03,61.05l0.1-0.03C64.03,60.99,63.97,60.99,64.03,61.05z"/>
						<path class="st2" d="M56.02,63.8c0.41-0.15,0.93-0.27,0.74-0.39l-0.24-0.07C56.35,63.57,56.18,63.7,56.02,63.8z"/>
						<path class="st2" d="M69.89,72.15l-0.13,0.01c-0.04,0.12-0.09,0.22-0.15,0.32C69.71,72.38,69.81,72.27,69.89,72.15z"/>
						<path class="st2" d="M69.53,71.3c0.13-0.05,0.27-0.12,0.42-0.2C69.84,71.14,69.7,71.21,69.53,71.3z"/>
						<path class="st2" d="M65.78,50.24l0.07-0.38C65.5,50.21,65.73,50.13,65.78,50.24z"/>
						<path class="st2" d="M41.46,71.38c0.19,0.31,0.36,0.54,0.53,0.72C41.78,71.71,41.68,71.34,41.46,71.38z"/>
						<path class="st2" d="M64.84,58.59c-0.15-0.09-0.23-0.11-0.26-0.07C64.72,58.61,64.82,58.65,64.84,58.59z"/>
						<path class="st2" d="M42.77,72.87c-0.04-0.07-0.08-0.12-0.12-0.19c-0.23-0.19-0.43-0.33-0.65-0.58
							C42.16,72.4,42.35,72.68,42.77,72.87z"/>
						<path class="st2" d="M50.39,47.45c-0.01-0.03-0.03-0.05-0.04-0.08C50.32,47.39,50.35,47.42,50.39,47.45z"/>
						<path class="st2" d="M41.99,41.37c0.07-0.09,0.2-0.22,0.33-0.35C42.24,41.07,42.14,41.18,41.99,41.37z"/>
						<path class="st2" d="M43.46,63.85C43.63,63.65,43.47,63.8,43.46,63.85L43.46,63.85z"/>
						<path class="st2" d="M44.99,63.52c-0.02,0.06-0.03,0.11,0.01,0.14C44.97,63.62,44.97,63.57,44.99,63.52z"/>
						<path class="st2" d="M45.92,72.05l0.02-0.01C45.86,72.05,45.87,72.05,45.92,72.05z"/>
						<path class="st2" d="M43.81,63.63c-0.09,0.05-0.18,0.12-0.28,0.19C43.58,63.8,43.67,63.74,43.81,63.63z"/>
						<path class="st2" d="M43.7,63.6c0.07-0.06,0.12-0.1,0.18-0.15C43.87,63.41,43.83,63.41,43.7,63.6z"/>
						<path class="st2" d="M43.21,64.11c0.1-0.11,0.21-0.2,0.31-0.28c-0.05,0.03-0.07,0.03-0.07,0.02
							C43.41,63.9,43.34,63.98,43.21,64.11z"/>
						<path class="st2" d="M66.59,43.6c-0.02,0.01-0.03,0.01-0.05,0.02C66.41,43.87,66.48,43.78,66.59,43.6z"/>
						<polygon class="st2" points="60.48,63.16 60.45,63.15 60.47,63.18 						"/>
						<path class="st2" d="M61.25,63.7c-0.47-0.09-0.6-0.27-0.78-0.52l-0.23,0.66L61.25,63.7z"/>
						<path class="st2" d="M61.43,54.83c-0.32,0.22-0.59,0.45-1.04,0.68c0.25-0.26,0.41-0.51,0.58-0.74
							c0.17-0.23,0.31-0.4,0.41-0.53c0.18-0.25,0.15-0.28-0.38,0.06c0.1,0.14-0.05,0.42-0.32,0.76c-0.27,0.32-0.86,0.72-1.36,1.11
							c-0.25,0.19-0.51,0.38-0.75,0.56c-0.24,0.22-0.44,0.42-0.58,0.58c-0.1,0.05,0.11,0.07,0.21,0.09l0.33,0.07
							c0.2,0.04,0.39,0.07,0.58,0.11c0.35,0.06,0.61,0.08,0.79,0.06l0.54,0.23l0.29,0.12c0.05,0.02,0.11,0.04,0.14,0.05l0.05,0.07
							c-0.03-0.08-0.21-0.09-0.33-0.13c-0.12-0.03-0.25-0.06-0.45-0.12c0.16,0.06,0.3,0.12,0.42,0.16c0.07,0.02,0.14,0.05,0.2,0.06
							l0.06,0.08c0.08,0.1,0.17,0.17,0.25,0.24c0.17,0.12,0.33,0.19,0.49,0.25c0.37,0.16,0.61,0.14,0.96,0.56
							c0.23,0.3,0.34,0.55,0.1,0.43l0.71,0.47c0.16,0.18,0.04,0.22-0.13,0.04l0.93,0.85l-0.02,0.01c0.2,0.05,0.61,0.23,0.81,0.32
							c0.16,0.29-0.17-0.06-0.17,0.05l0.62,0.38c0.07,0.32-0.46,0.03-0.78-0.33c-0.03,0.93,0.54,0.29,1.24,1.56l-0.53-0.41
							c0.02,0.56,0.48,0.83,0.83,1.52c-0.03-0.21-0.61-1.46,0.05-1.04c0.11,0.19,0.29,0.4,0.69,0.6c-0.18,0.17,0.15,0.41,0.51,0.75
							l-0.26,0.19c0.45,0.32,0.54,0.18,0.87,0.31c0.4,0.45,0.31,0.7,0.25,0.94c0.64,0.71-0.17-0.73,0.68,0.03
							c0.48,0.65,0.97,0.96,1.8,1.51c0.31,0.47-0.22,0.06-0.15,0.26l0.55,0.19c0.08,0.09-0.01,0.11-0.05,0.12
							c0.19,0.12,0.25,0.07,0.34,0.05c0.09-0.01,0.2-0.03,0.36,0.1c0.19-0.05,0.24,0.23,0.14,0.5c-0.1,0.28-0.3,0.44-0.26,0.71
							c-0.15,0.04-0.14-0.15-0.27-0.18c-0.01,0.07,0,0.1-0.05,0.19c-0.05,0.09-0.1,0.16-0.14,0.23c-0.08,0.13-0.14,0.23-0.19,0.32
							c-0.1,0.19-0.18,0.37-0.37,0.81l-0.7,0.4c0.55-0.24,0.3,0.5-0.05,1.06c0.23-0.02,0.44-0.07,0.56-0.12
							c-0.21,0.28-0.53,0.59-0.89,0.79c-0.16,0-0.05-0.15,0.06-0.35c-0.06,0.05-0.12,0.11-0.16,0.15c-0.22-0.01-0.27-0.12-0.24-0.19
							c0.03-0.08,0.1-0.16,0.18-0.31c0.12,0.02,0.24,0.03,0.37,0.03c0.11-0.3,0.09-0.59-0.06-0.7c-0.02,0.07-0.06,0.14-0.13,0.21
							c0.01-0.07,0-0.13-0.03-0.14c-0.04-0.02-0.04,0.08-0.11,0.21c-0.1-0.08-0.18-0.18-0.25-0.28l0.02,0.15
							c-0.33-0.04-0.28-0.12-0.47-0.33c-0.07,0.01-0.13,0.01-0.22,0c-0.1-0.03-0.21-0.06-0.33-0.1c-0.23-0.09-0.49-0.19-0.74-0.31
							c-0.51-0.23-1.05-0.53-1.65-1.03c0.45,0.09,0.36-0.24,0.59-0.45c0.06,0.53,0.94,0.74,1.46,1.36c-0.27-0.32-0.1-0.36,0.01-0.32
							l-1.22-0.8c0.2-0.16-0.08-0.35-0.27-0.68c-0.16,0.55-0.99-0.51-1.5-0.82c0.09-0.14,0.31-0.17,0.78,0.36
							c-0.28-0.82-1.13-0.3-1.44-1.06c0.12,0.12,0.17,0.2,0.28,0.19c-0.39-0.18-1-0.96-0.74-0.9l0.12,0.12
							c-0.77-0.85-2.46-2.47-2.88-2.29c0.03-0.05,0.47-0.26,0.58-0.27l-2.46-0.43c0.39-0.13,0.51-1.23,1.33-0.71
							c-0.16-0.23-0.35-0.51-0.85-0.83c0.09,0.17-0.05,0.7-0.25,0.54c-0.21-0.78-0.19-0.5-0.55-1.35c0.14,0.25-0.48,0.44-0.78,0.11
							c0.11-0.01,0.37-0.43,0.53-0.35c-0.27-0.08-0.57-0.2-0.81-0.25c-0.1-0.01-0.19-0.04-0.27-0.09c0.1,0.07,0.2-0.01,0.28-0.11
							c0.07-0.13,0.2-0.17,0.16-0.39c0,0.03-0.02,0.02-0.05-0.01l-1.09-1.24l-0.56,1.15c-0.03,0.07-0.13,0.2-0.29,0.36
							c-0.18,0.17-0.38,0.35-0.45,0.46l0.42-0.24c-0.94,0.82-0.31,1.42-1.19,2.27c0.02-0.19-0.25-0.76-0.74-0.37
							c0,0.41,0.08,1.88-0.53,2.8l-0.26,0.03l-0.46,0.72c0.06-0.67,0.45-2.35,0.76-3.16c-0.42,0.24-0.23-0.05-0.71,0.46
							c-0.28,0.06,0.1-0.43,0.24-0.58l-1.21,1.07c0.29,0.19-0.63,1.11-0.39,1.27l0.99-1.49c0.29,0.19-0.04,1.39-0.89,2.16
							c-0.3,0.11-0.27-0.58-0.37-0.64c-0.02,0.19-0.61,0.92-0.74,0.94l0.22-0.47c-0.54,0.36-0.42,1.05-1.19,1.37
							c-0.2,0.17-0.86,0.25-0.76,0.43c0.58-0.03,1.48,0.74,1.48,1.15c-0.08,0.05-1.24,0.72-1.59,0.8c-0.52,0.1-0.05-0.97-0.49-0.89
							c0.05,0.08-0.04,0.33-0.08,0.42c-0.25,0.14-0.12-0.28-0.52,0.17c0.17,0.31-0.89,0.85,0,0.41c-0.35,0.49-0.49,0.39-0.97,0.89
							c0.3,0,0.11,0.97-0.28,1.46c-0.03-0.09-0.21-0.08-0.29-0.09c-0.24,0.18-0.47,0.3-0.7,0.36c-0.21-0.02-0.48-0.03-0.65-0.07
							c-0.39-0.19-0.65-0.47-1.04-0.88c-0.01-0.13-0.32-0.58-0.05-0.52c-0.16-0.07-0.34-0.1-0.59-0.33
							c-0.25-0.67,0.57,0.51,0.48-0.09c-0.18,0.1-0.83-0.44-1.27-0.71c-0.13,0.31,0.76,0.84,1.19,1.1
							c-0.15,0.15-0.46,0.14-0.86,0.01c-0.2-0.07-0.42-0.16-0.65-0.29c-0.23-0.13-0.47-0.25-0.77-0.56
							c-0.4-0.49-0.33-0.67-0.27-0.68c0.07-0.02,0.19,0.06,0.12-0.02c-0.16-0.5-0.13-0.89-0.11-1.19c0.03-0.3,0.08-0.54,0.14-0.76
							c0.05-0.21,0.2-0.48,0.3-0.62c0.12-0.17,0.31-0.35,0.63-0.56c0.61-0.24,0.42,0.33,0.66,0.37c-0.45,0.63-0.98,0.66-1.31,1.19
							c0.16-0.19,0.36-0.35,0.54-0.47c-0.12,0.23-0.38,0.66-0.54,0.92c0.1-0.1,0.24-0.32,0.46-0.55c0.23-0.23,0.52-0.5,0.82-0.8
							c0.61-0.6,1.29-1.27,1.85-1.68c0.1-0.23,0.33-0.59,0.11-0.52l-0.27,0.33c-0.44,0.14,0.35-0.77-0.11-0.45
							c0.29-0.51,0.57-1.13,1.24-1.63l0.33,0.1c-0.08-0.05-0.51,0.25-0.6,0.48c0.14-0.33,1.19-0.6,1.15-1.14l-0.56,0.26
							c0.3-0.52,0.56-1.25,1.15-1.69c-0.45,0.03-0.09,0.14-0.71,0.27c0.64-0.02-1.32,1.3-0.47,1.11c-0.68,0.1-0.77,0.53-1.52,0.78
							c0.09,0.05,0.32-0.04-0.15,0.35c0,0.04-0.02,0.11-0.03,0.15c-0.02,0.01-0.02,0.01-0.03,0.02l0.03-0.02
							c-0.01,0.03-0.01,0.03,0.01-0.01c0.14-0.07,0.26-0.12,0.33-0.12c-0.04,0.37-0.73,1.05-0.86,1.36
							c-0.29,0.22,0.02-0.18-0.2-0.12l-0.21,0.46c-0.2-0.11-0.96,0.43-0.46-0.26l-0.55,0.54c-0.41,0.24-0.89,0.64-1.09,0.98
							c-0.11,0.06-0.37,0.45-0.45,0.66c-0.09,0.22-0.1,0.32-0.05,0.06c-0.32,0.57-0.45,1.23-0.33,1.84l-0.05,0.02
							c0.05,0.47,0.25,0.92,0.55,1.3c0.08,0.1,0.15,0.19,0.24,0.28l0.13,0.13l0.09,0.08l0.37,0.31c0.5,0.43,0.95,0.88,1.32,1.55
							c0.1,0.07,0.2,0.15,0.3,0.22c0.12,0.09,0.28,0.2,0.43,0.3c0.16,0.1,0.34,0.2,0.54,0.29c0.1,0.04,0.21,0.09,0.32,0.13
							c0.1,0.03,0.44,0.04,0.49,0.06c-0.02,0.02-0.06,0.03-0.07,0.05l0.08,0.05l0.17,0.1c1.13,0.11,2.53-1.02,2.45-1.23
							c0.77-0.03,1.83-1.67,2.53-2.23l-0.16-0.2c0.44-0.42,0.81-0.89,1.28-1.5l-0.19-0.13c0.33-0.6,1.31-1.08,2.03-1.84
							c0.01,0.11-0.19,0.28-0.36,0.38c1.24-0.52,1.59-2.12,2.65-2.65c0.14-0.26,0.3-0.38,0.48-0.48c-0.02,0.02-0.03,0.04-0.04,0.06
							c0.02-0.02,0.05-0.05,0.08-0.08c0.11-0.06,0.24-0.13,0.36-0.19c-0.12,0.04-0.23,0.09-0.32,0.15c0.15-0.16,0.36-0.41,0.55-0.68
							l0.27,0.07c0.02-0.02,0.03-0.04,0.05-0.06c0.29-0.16,0.1-0.26-0.15-0.27c0.09-0.14,0.16-0.28,0.2-0.4
							c0.23,0.05,0.35-0.13,0.49-0.3c0.14-0.17,0.28-0.36,0.58-0.41c0-0.07,0.05-0.17,0.11-0.29l-1.66-0.09
							c0.02,0.01,0.04,0.03,0.06,0.06c0.04,0.05,0.08,0.1,0.12,0.15c0.08,0.11,0.18,0.22,0.3,0.31c0.42,0.32,0.78,0.56,1.03,0.47
							c-0.03,0.05,0.02,0.13-0.11,0.01c0.22,0.29,0.44,0.58,0.75,0.72l-0.11,0.32l0.85,0.26c0.2,0.47,0.27,0.68-0.23,0.52
							c1.06,0.55,0.75,0.56,1.69,0.99l-0.17,0.11c0.25,0.24,0.83,0.45,0.86,0.71c0.28,0.82,2.68,2.75,3.84,4.41
							c0.14-0.69,0.47,0.84,0.85,0.58c-0.02,0.18,0.13,0.43-0.19,0.29c0.41,0.31,0.64,0.62,0.86,0.88c0.24,0.26,0.41,0.47,1,0.68
							c0.07,0.23-0.39-0.04-0.31,0.12c0.13,0.07,0.49,0.21,0.61,0.36c0.12,0.15-0.27,0-0.53-0.12c0.37,0.26,0.7,0.37,0.96,0.41
							c0.13,0.02,0.37-0.02,0.49-0.04l0.1-0.02c0.04-0.01-0.06-0.02-0.08-0.03c-0.02-0.02,0.1-0.03,0.13-0.05
							c0.19-0.07,0.38-0.18,0.27-0.27c-0.03-0.05,0.01-0.1,0.03-0.15c0.02-0.05,0.04-0.1,0.05-0.15c0.27,0.06,0.38,0.01,0.53-0.02
							c0.14-0.04,0.25-0.09,0.35-0.17c0.2-0.14,0.34-0.35,0.4-0.58c0.23-0.04,0.6-0.19,0.07,0.36c0.39-0.31,1.79-1.51,1.6-1.76
							c0.14-0.03,0.38-0.35,0.42-0.45c0.36-0.36,0.53-0.64,0.65-0.9c0.1-0.27,0.21-0.56,0.13-1.09c0,0.1-0.02,0.2-0.03,0.29
							c-0.2-0.2-0.24-0.38-0.31-0.63c-0.06-0.24-0.15-0.54-0.44-0.83l0.05-0.01c-0.87-1.28-0.56-0.38-1.37-1.64l-0.13,0.21
							c-0.49,0.24-0.69-1.12-1.44-1.59l0.11,0.31c-0.46-0.21-0.39-1.38-0.68-1.76c-0.04-0.1,0.17,0.07,0.29,0.14
							c-0.64-1.07-0.35,0.1-1.05-0.5c0.01-0.23,0.47-0.14,0.06-0.59c-0.12-0.31-1.67-0.89-2.02-1.7c0.04,0.22,0.07,0.44-0.3,0.21
							c-0.49-0.42-0.89-1.58-1.6-1.71c-0.03-0.08-0.03-0.13-0.01-0.15c-0.21-0.14-0.53-0.39-0.84-0.62
							c-0.15-0.11-0.31-0.22-0.45-0.3c-0.15-0.09-0.2-0.08-0.29-0.09c0.2-0.35-0.05-0.56-0.58-0.8c0.12-0.23,0.36-0.67,0.71-0.47
							l0.28-0.31l0.52-0.55l0.03,0.08c0.72-0.65,0.84-1.02,0.95-1.39c0.2-0.12,0.13,0.04,0.15,0.09c1.11-0.89,1.19-1.02,1.76-2.13
							l0.26,0.09c0.13-0.33,1.72-1.17,2.5-2.36c0.01,0.03,0.02,0.08-0.03,0.19c0.9-1.31,3.13-2.16,2.9-3.2l0.14-0.22l0.2-0.29
							c0.13-0.2,0.23-0.4,0.3-0.61c-0.51,0.71-0.6,0.53-0.55,0.35c0.03-0.2,0.08-0.46-0.16-0.27c0.16-0.21,0.36-0.48,0.51-0.69
							c0.12-0.19,0.24-0.24,0.16,0.13c-0.03,0.03-0.05,0.07-0.08,0.1c0.13,0.17,0.36-0.12,0.41-0.58c0.06-0.45-0.15-0.99-0.26-1.23
							c-0.05-0.1-0.06-0.18-0.01-0.2c-0.15-0.18-0.28-0.37-0.44-0.53l-0.37-0.37l-0.7-0.73l-0.69-0.74
							c-0.09-0.1-0.28-0.29-0.46-0.42c-0.19-0.14-0.39-0.26-0.6-0.34c-0.87-0.38-1.9-0.14-2.61,0.49c-0.52,0.47-0.94,0.86-1.39,1.31
							l0.44,0.08l-0.62,0.59c-0.22,0.1-0.4,0,0.05-0.43c-0.36,0.07-0.62,0.86-0.58,0.94c-0.95,0.74,0.06-0.66-0.21-0.4l-0.34,0.38
							L64.69,43c-0.19,0.4-0.11,0.55-0.65,1.06c-0.38,0.28-0.32,0-0.46,0.12c-0.02-0.02-0.07,0.01-0.21,0.19l-0.79,0.75l0.5-0.09
							c-0.25,0.45-0.73,0.71-0.16,0.6c-0.86,0.15-2.99,2.73-3.42,2.94c-0.33,0.63-0.8,1.1-1.41,1.66c0.19-0.11,0.5,0.05-0.02,0.51
							c-0.29-0.53-0.71,0.17-1,0.14c-0.04-0.01-0.07-0.03-0.09-0.11c0.2,0.65-0.75-0.62-0.61,0.15c-0.26-0.34,0.09-0.26,0-0.57
							c-0.04-0.02-0.08-0.04-0.12-0.07l-0.21-0.18c-0.14-0.12-0.28-0.25-0.41-0.39c-0.27-0.27-0.53-0.57-0.8-0.89
							c-0.53-0.62-1.08-1.29-1.73-1.88c-0.08,0.04,0.03,0.35-0.32,0.18l-0.35-0.97c-0.27-0.21-0.58,0.14-0.81-0.52
							c0.01,0.12,0.03,0.29-0.15,0.15c-1.06-1.36-2.35-2.53-3.62-3.74l-0.94-0.92c-0.17-0.17-0.27-0.28-0.5-0.5
							c-0.23-0.21-0.47-0.4-0.74-0.54c-0.54-0.29-1.19-0.37-1.79-0.18c-0.3,0.09-0.59,0.23-0.87,0.4c-0.13,0.08-0.3,0.21-0.39,0.26
							l-0.28,0.18c0.45-0.21,0.24,0.03-0.01,0.29c0.19-0.14,0.14,0.16,0.26,0.22l-1.26,0.79c0.02,0.22-0.25,0.46-0.58,0.86
							c-0.34,0.41-0.51,0.9-0.38,1.03c0.04-0.2,0.11-0.39,0.2-0.58c-0.02,0.44,0.3,0.23,0.65,0.12c0.35-0.11,0.74-0.15,0.88,0.04
							c0.08-0.37,0.51-0.59,0.96-0.84c0.22-0.13,0.45-0.27,0.65-0.45c0.1-0.09,0.19-0.2,0.26-0.31c0.04-0.08,0.07-0.17,0.1-0.3
							c0.17,0-0.02,0.21,0.1,0.26c0-0.26,0.22-0.51,0.62-0.38l-0.04,0.05c0.55,0.03,0.69,0.4,1.2,0.96
							c0.43,0.51,0.86,1.06,1.52,1.82l0.06-0.28c0.28,0.33,0.3,0.45,0.4,0.63c0.59,0.09-0.84-0.87-0.25-0.84
							c0.07,0.75,2.14,2.15,2.03,2.82c0.47,0.47,0.05-0.34,0.52,0.13l0.02,0.23l0.25-0.02c0.28,0.33,0.31,0.62,0.24,0.72
							c-0.06-0.09-0.24-0.19-0.32-0.26c0.28,0.52,1.16,1.08,1.26,1.25l-0.39-0.51c0.69,0.59,1.38,1.31,2.09,2
							c0.35,0.35,0.71,0.69,1.07,1.01c0.19,0.17,0.38,0.33,0.57,0.49c0.26,0.23,0.52,0.44,0.76,0.63l-0.08-0.24
							c0.51,0.4,0.76,0.62,0.97,0.86c0.22,0.22,0.39,0.51,0.65,0.51c0.19-0.25,0.48-0.65,0.88-1.23c-0.01,0.03-0.03,0.05-0.04,0.08
							c0.12-0.21,0.27-0.41,0.43-0.62l0.26-0.3c0.07-0.07,0.13-0.14,0.21-0.21c-0.17,0.35,0.67-0.31,0.43,0.13
							c0.86-1.17,0.38-0.63,0.76-1.6l0.28-0.02c0.11-0.35,0.07-0.43,0.55-0.98c-0.31,0.54,0.52-0.12,0.2,0.5
							c1.36-0.78,1.32-1.9,2.22-1.96c0.15-0.88-1.13,0.72-0.92,0.37c-0.35,0.11,0.15-0.69,0.53-0.99c0.35-0.34,1.03-0.1,1.89-0.97
							c-0.09,0.08-0.07,0.12-0.16,0.2c0.41-0.23,0.52-0.77,1.06-1.01c0.02-0.46,0.53-0.5,0.33-0.87l-0.74,0.87
							c0.38-0.53,0.51-1.31,1.4-1.88c-0.01,0.12-0.16,0.42-0.27,0.62c0.29-0.13,0.37-0.48,0.67-0.61c0.19,0.37-0.91,1.03-1.2,1.75
							c0.34-0.11,0.73-1.13,0.76-0.56c-0.01-0.77,0.9-0.8,1.22-1.71l0.11,0.22c0.03-0.06,0.09-0.16,0.14-0.27
							c0.06-0.1,0.15-0.24,0.18-0.26c0.04,0.1-0.05,0.33-0.07,0.5c0.21-0.4,0.25-0.36,0.4-0.36c0.13,0.02,0.21,0.1,0.3,0.04
							c-0.19-0.01-0.23-0.04-0.25-0.15c-0.02-0.09,0.02-0.25-0.15-0.28c0.41-0.33,0.61-0.02,0.62,0.19
							c0.02,0.11,0.02,0.24,0.03,0.33c0.01,0.03,0,0.04,0.02,0.08c0.04,0.05,0.08,0.11,0.13,0.17c0.1,0.12,0.23,0.25,0.39,0.39
							c-0.19-0.14-0.55-0.74-0.21-0.56c0.21,0.28,0.47,0.66,0.53,0.9c0.86,0.79,0.04-0.31,0.49-0.06c0.04,0.25,0.17,0.33,0.33,0.38
							c0.16,0.05,0.41,0.12,0.53,0.18l-0.19,0.15c0.03,0.07,0.06,0.12,0.09,0.15c0.1,0.14,0.22,0.13,0.34,0.14
							c0.11,0.01,0.27,0.09,0.12,0.43c-0.09-0.12-0.21-0.22-0.34-0.29c0.04,0.09,0.07,0.2,0.06,0.31c-0.09-0.04-0.18-0.08-0.27-0.11
							c0.08,0.14,0.05,0.25-0.01,0.33c-0.03,0.04-0.07,0.07-0.12,0.1c-0.05,0.03-0.2,0.16-0.33,0.26c0.24,0,0.24,0.38-0.19,0.82
							c-0.4,0.2,0.01-0.33-0.6,0.32c0.04-0.25,0.06-0.54,0.49-0.65c-0.03-0.08,0.03-0.25,0.01-0.33c-0.44,0.21-0.85,0.79-1.07,1.02
							c0.09-0.08,0.21-0.18,0.29-0.21l-0.68,1.15c-0.21,0.08-0.15-0.09-0.08-0.25c-0.17,0.2-0.22,0.41-0.47,0.7
							c-0.07-0.21-0.23-0.34,0.09-0.78L68,48.19c-0.12,0-0.61,0.28-0.55,0.12c-0.56,0.4-0.91,1.45-1.66,1.98
							c-0.01,0.06-0.05,0.15-0.16,0.31c-0.63,0.57-1.33,0.93-1.86,1.83l-0.65,0.15c-0.5,0.61,0.86-0.23,0.03,0.79
							c-0.58,0.74-0.46,0.03-0.76,0.19c-0.1,0.23-0.23,0.54-0.43,0.86c-0.1,0.15-0.35,0.44-0.57,0.65
							c-0.12,0.11-0.23,0.22-0.37,0.33c-0.15,0.1-0.34,0.21-0.54,0.32C60.86,55.38,61.14,55.15,61.43,54.83z M66.19,63.06
							c-0.17-0.1-0.55-0.25-0.54-0.45C66,62.57,66.02,62.78,66.19,63.06z M68.73,71.94c0.07-0.01,0.11-0.01,0.13-0.01
							c0.02,0-0.02,0.01,0.06,0.01c0.11,0.01,0.07,0.01,0.09,0.02l0.03,0.03c0,0.01,0.02,0.02,0.1,0.03
							c-0.2,0.01-0.03,0.01-0.26,0.01C68.84,72.01,68.81,72.01,68.73,71.94z M41.6,65.99l-0.01,0.02
							C41.23,66.25,41.36,66.17,41.6,65.99z M42.3,65.44c0.04-0.08,0.01-0.1-0.04-0.1c0,0.08-0.13,0.23-0.3,0.37
							C42.04,65.71,42.16,65.66,42.3,65.44z M63.57,44.31l0.16-0.07C63.51,44.57,63.54,44.44,63.57,44.31z"/>
						<path class="st2" d="M69.58,71.39c0.05,0.01,0.1,0.03,0.13,0.06C69.73,71.38,69.69,71.35,69.58,71.39z"/>
						<path class="st2" d="M65.77,50.31l0.02-0.02c0-0.02,0-0.04-0.01-0.05L65.77,50.31z"/>
						<path class="st2" d="M47.73,68.94c0.15-0.1,0.25-0.14,0.33-0.16C48.02,68.73,47.93,68.76,47.73,68.94z"/>
						<path class="st2" d="M45.28,61.86l-0.35,0.44c0.18-0.2,0.29-0.23,0.42-0.31C45.29,61.97,45.16,61.99,45.28,61.86z"/>
						<path class="st2" d="M49.8,59.44c0.04-0.08,0.12-0.12,0.16-0.2l-0.1-0.06C49.62,59.42,49.51,59.66,49.8,59.44z"/>
						<path class="st2" d="M46.24,62.04c0.18,0.11,0.38-0.19,0.63-0.49l-0.05,0.05C46.69,61.32,46.46,61.68,46.24,62.04z"/>
						<path class="st2" d="M46.92,61.48c0.08-0.09,0.16-0.18,0.25-0.26C47.12,61.1,47.05,61.3,46.92,61.48z"/>
						<path class="st2" d="M42.98,64.56c0.17-0.1-0.11-0.25,0.02-0.28C42.96,63.97,42.36,65.38,42.98,64.56z"/>
						<polygon class="st2" points="46.95,62.27 46.67,62.2 46.66,62.49 						"/>
						<path class="st2" d="M44.63,64.34l0.49-0.4c-0.04-0.02,0-0.09,0.05-0.18C44.9,64.03,44.57,64.3,44.63,64.34z"/>
						<path class="st2" d="M45.18,63.76c0.15-0.14,0.28-0.28,0.32-0.39C45.43,63.46,45.27,63.63,45.18,63.76z"/>
						<polygon class="st2" points="46.4,62.92 46.23,63.02 45.91,63.32 						"/>
						<path class="st2" d="M41.29,69.8c0.17,0.2,0.37,0.36,0.54,0.5c0.11-0.01,0.02-0.17-0.18-0.34
							C41.48,69.88,41.3,69.67,41.29,69.8z"/>
						<path class="st2" d="M41.91,68c-0.13,0.09-0.19,0.08-0.31,0.12l0.3,0.13C41.89,68.17,41.9,68.09,41.91,68z"/>
						<path class="st2" d="M41.94,69.39c0.11,0.03,0.63,0.35,0.25-0.04C42.09,69.37,41.78,68.97,41.94,69.39z"/>
						<polygon class="st2" points="49.07,68.79 48.95,68.92 49.33,69.26 						"/>
						<path class="st2" d="M54.62,61.52c-0.66,0.49,0.09,0.36-0.54,0.77c-0.05,0.22,0.51-0.33,0.45-0.12
							C54.78,61.73,55.02,61.6,54.62,61.52z"/>
						<path class="st2" d="M54.53,62.17c-0.04,0.07-0.08,0.15-0.12,0.23C54.48,62.27,54.51,62.21,54.53,62.17z"/>
						<path class="st2" d="M40.31,42.72c-0.2,0.21-0.38,0.44-0.52,0.69c0.13-0.15,0.26-0.29,0.41-0.41
							C40.23,42.91,40.27,42.81,40.31,42.72z"/>
						<path class="st2" d="M40.11,44.24c-0.11,0.05-0.22,0.1-0.32,0.16c0.1,0.2,0.2,0.25,0.29,0.37c-0.01-0.06-0.02-0.14-0.02-0.23
							C40.06,44.42,40.07,44.3,40.11,44.24z"/>
						<path class="st2" d="M66.72,64.51l0.09-0.02c0.01-0.11-0.07-0.2-0.24-0.38L66.72,64.51z"/>
						<polygon class="st2" points="61.95,59.42 62.04,59.51 62.08,59.14 						"/>
						<path class="st2" d="M62.42,52.95c-0.18,0.16-0.33,0.41-0.51,0.57C62.24,53.11,62.72,53.16,62.42,52.95z"/>
					</g>
				</g>
			</g>
		</g>
	</g>
</g>
</svg>
