<?xml version="1.0" encoding="utf-8"?>
<!-- Generator: Adobe Illustrator 27.4.0, SVG Export Plug-In . SVG Version: 6.00 Build 0)  -->
<svg version="1.1" id="Layer_1" xmlns="http://www.w3.org/2000/svg" xmlns:xlink="http://www.w3.org/1999/xlink" x="0px" y="0px"
	 viewBox="0 0 165.88 146.09" style="enable-background:new 0 0 165.88 146.09;" xml:space="preserve">
<style type="text/css">
	.st0{fill:#FFFFFF;}
	.st1{fill:#D1D1D1;}
	.st2{fill:#2F2F2F;}
	.st3{fill:#EE3C6E;}
	.st4{fill:#CC2D5E;}
</style>
<g>
	<g>
		<path class="st0" d="M162.99,68.66c0.5-10.92-11.42-10.68-11.42-10.68h-41.46l4.47-27.06c-0.74-12.66-9.19-26.07-9.19-26.07
			C90-1.11,86.52,8.32,86.52,8.32v21.35L62.44,68.9l-10.18,6.7v58.09h7.29l10.35,4.53h70.87c6.84,0,10.72-5.58,11.84-8.94
			c2.56-7.67-2.66-11.88-2.66-11.88c11.64-11,3.49-18.75,3.49-18.75c11.9-11.25,3.35-19.31,3.35-19.31
			C162.74,76.85,162.99,68.66,162.99,68.66z"/>
		<polygon class="st1" points="59.94,134.93 59.94,68.96 59.93,68.96 52.26,75.61 52.26,133.7 57.8,133.7 		"/>
		<path class="st1" d="M162.99,68.66c0.5-10.92-11.42-10.68-11.42-10.68h-11.73c-0.09,0-0.14,0-0.14,0h-2.32h-11.86
			c1.32,0.01,11.75,0.45,11.28,10.68c0,0-0.25,8.19-6.21,10.68c0,0,8.55,8.06-3.35,19.31c0,0,8.15,7.76-3.49,18.75
			c0,0,5.21,4.21,2.66,11.88c-1.12,3.36-5,8.94-11.84,8.94h11.87h2.46h11.87c6.84,0,10.72-5.58,11.84-8.94
			c2.56-7.67-2.66-11.88-2.66-11.88c11.64-11,3.49-18.75,3.49-18.75c11.9-11.25,3.35-19.31,3.35-19.31
			C162.74,76.85,162.99,68.66,162.99,68.66z"/>
		<path class="st1" d="M91.07,4.85c0,0,8.44,13.41,9.19,26.07l-4.47,29.93h14.32l4.47-29.93c-0.74-12.66-9.19-26.07-9.19-26.07
			C97.52,1.8,92.78,2.78,90.01,4.46C90.36,4.58,90.71,4.71,91.07,4.85z"/>
		<path class="st2" d="M140.76,141.1H69.29l-10.35-4.53h-9.56V74.06l10.94-7.2l23.32-37.99V7.81l0.18-0.48
			C83.93,7.03,86.63,0,96.25,0c3.04,0,6.47,0.73,10.18,2.17l0.89,0.34l0.51,0.81c0.36,0.57,8.84,14.19,9.62,27.43l0.02,0.32
			l-3.97,24.04h38.07c0,0,0,0,0,0c1.23,0,7.21,0.21,11.1,4.28c2.29,2.4,3.37,5.56,3.19,9.4c-0.01,0.31-0.28,7.29-4.97,11.34
			c0.9,1.62,1.73,3.86,1.74,6.6c0.01,4.12-1.82,8.2-5.41,12.17c0.93,1.57,1.87,3.87,1.87,6.8c-0.01,3.99-1.77,7.96-5.25,11.83
			c1.68,2.45,3.46,6.76,1.49,12.66C153.58,135.44,148.27,141.1,140.76,141.1z M70.49,135.35h70.27c5.37,0,8.31-4.56,9.11-6.98
			c1.83-5.49-1.39-8.44-1.76-8.76l-2.56-2.07l2.42-2.24c3.52-3.32,5.32-6.53,5.36-9.53c0.04-3.09-1.82-4.99-1.9-5.07l-2.19-2.09
			l2.23-2.06c3.6-3.4,5.42-6.71,5.42-9.82c0-3.22-2.05-5.29-2.07-5.31l-3.23-3.04l4.09-1.71c4.13-1.72,4.44-8.05,4.44-8.11
			c0.1-2.28-0.42-3.97-1.6-5.21c-2.37-2.48-6.7-2.51-6.88-2.51h-44.92l4.97-30.08c-0.7-9.99-6.51-20.61-8.24-23.58
			c-2.68-0.96-5.1-1.44-7.19-1.44c-4.51,0-6.3,2.27-6.85,3.23v21.51L64.55,70.95l-9.42,6.2v53.66h5.01L70.49,135.35z"/>
	</g>
	<g>
		<rect x="2.87" y="68.96" class="st3" width="49.38" height="74.25"/>
		<rect x="10.52" y="82.73" class="st4" width="34.09" height="60.49"/>
		<path class="st2" d="M55.13,146.09H0v-80h55.13V146.09z M5.75,140.34h43.63v-68.5H5.75V140.34z"/>
	</g>
	<path class="st0" d="M40.58,126.98c0,2.23-1.81,4.04-4.04,4.04c-2.23,0-4.04-1.81-4.04-4.04c0-2.23,1.81-4.04,4.04-4.04
		C38.78,122.94,40.58,124.75,40.58,126.98z"/>
</g>
</svg>
