<?xml version="1.0" encoding="utf-8"?>
<!-- Generator: Adobe Illustrator 27.4.0, SVG Export Plug-In . SVG Version: 6.00 Build 0)  -->
<svg version="1.1" id="Layer_1" xmlns="http://www.w3.org/2000/svg" xmlns:xlink="http://www.w3.org/1999/xlink" x="0px" y="0px"
	 viewBox="0 0 87.01 87.01" enable-background="new 0 0 87.01 87.01" xml:space="preserve">
<g>
	<circle fill="#FFFFFF" stroke="#D1D3D4" stroke-width="2" stroke-miterlimit="10" cx="43.28" cy="43.5" r="37.99"/>
	<g>
		<g>
			<path fill="#C6C6C5" d="M43.28,82.67C21.69,82.67,4.12,65.1,4.12,43.5S21.69,4.34,43.28,4.34S82.44,21.91,82.44,43.5
				S64.87,82.67,43.28,82.67z M43.28,6.68C22.97,6.68,6.45,23.2,6.45,43.5s16.52,36.83,36.83,36.83S80.1,63.81,80.1,43.5
				S63.58,6.68,43.28,6.68z"/>
		</g>
		<g>
			<path fill="none" d="M43.28,82.67C21.69,82.67,4.12,65.1,4.12,43.5S21.69,4.34,43.28,4.34S82.44,21.91,82.44,43.5
				S64.87,82.67,43.28,82.67z M43.28,6.68C22.97,6.68,6.45,23.2,6.45,43.5s16.52,36.83,36.83,36.83S80.1,63.81,80.1,43.5
				S63.58,6.68,43.28,6.68z"/>
			<g>
				<g>
					<g>
						<path fill="#C6C6C5" d="M43.53,9.13c-0.32-0.05-0.2,0.37-0.25,0.44C43.81,9.51,43.52,9.02,43.53,9.13z"/>
						<polygon fill="#C6C6C5" points="48.92,8.66 48.8,8.81 49.66,8.52 						"/>
						<path fill="#C6C6C5" d="M53.84,9.79c-0.26-0.82-1.81-0.35-2.61-0.82l-0.11-0.2L50.6,9.23C51.67,9.41,53.15,9.39,53.84,9.79z"
							/>
						<path fill="#C6C6C5" d="M55.8,12.15c-0.05-0.31,0.61-0.03-0.53-0.29c0.04,0.05,0.05,0.07,0.08,0.1
							C55.44,12,55.58,12.05,55.8,12.15z"/>
						<path fill="#C6C6C5" d="M55.34,11.96C54.86,11.81,55.57,12.3,55.34,11.96L55.34,11.96z"/>
						<path fill="#C6C6C5" d="M57.57,12.74l-0.71-0.07c0.06,0.21,0.58,0.5,0.33,0.52C57.86,13.36,57.81,13.15,57.57,12.74z"/>
						<path fill="#C6C6C5" d="M58.38,12.55l-0.36-0.06C58.04,12.58,58.11,12.64,58.38,12.55z"/>
						<path fill="#C6C6C5" d="M57.25,12.36l0.77,0.12c-0.04-0.15,0.05-0.36-0.34-0.08C57.81,12.25,57.59,12.37,57.25,12.36z"/>
						<path fill="#C6C6C5" d="M56.91,12.08c-0.28-0.32-0.71-0.57,0.02-0.54C55.66,11.16,55.68,11.67,56.91,12.08z"/>
						<path fill="#C6C6C5" d="M54.31,9.17c-0.15-0.13-0.29-0.26-0.45-0.37l-0.52,0.11C53.61,8.85,54.28,9.38,54.31,9.17z"/>
						<path fill="#C6C6C5" d="M61.06,15.06c0.12-0.11,0.02-0.46,0.08-0.65l-0.52-0.11C60.79,14.52,61.15,14.85,61.06,15.06z"/>
						<path fill="#C6C6C5" d="M61.14,14.4l0.78,0.17C61.36,14.2,61.19,14.24,61.14,14.4z"/>
						<polygon fill="#C6C6C5" points="58.84,11.89 57.47,11.84 59.06,11.99 						"/>
						<polygon fill="#C6C6C5" points="63.37,16.67 62.82,16.7 63.74,16.72 						"/>
						<path fill="#C6C6C5" d="M64.88,17.76c-0.41,0.02-0.01,0.66-0.36,0.58c0.4,0.3,0.88,0.4,1.32,0.49
							C65.45,18.64,65.15,18.33,64.88,17.76z"/>
						<path fill="#C6C6C5" d="M66.55,19.03c-0.2-0.09-0.45-0.14-0.71-0.2C66.05,18.93,66.28,19,66.55,19.03z"/>
						<path fill="#C6C6C5" d="M62.95,15.35c-0.01,0.11-0.05,0.37,0.22,0.71l0.01-0.52C63.11,15.48,63.03,15.42,62.95,15.35z"/>
						<path fill="#C6C6C5" d="M63.18,15.52l0,0.02c0.25,0.2,0.42,0.34,0.5,0.4C63.62,15.89,63.47,15.76,63.18,15.52z"/>
						<path fill="#C6C6C5" d="M62.89,15.3c0.02,0.02,0.04,0.03,0.06,0.05C62.95,15.3,62.95,15.28,62.89,15.3z"/>
						<path fill="#C6C6C5" d="M60.44,13.16c0.5,0.02,1.45,0.3,0.84-0.49C60.86,12.75,61.2,13.21,60.44,13.16z"/>
						<path fill="#C6C6C5" d="M62.9,14.64c-0.2-0.19-0.42-0.34-0.64-0.52c-0.05,0.1-0.01,0.32-0.27,0.3
							C62.29,14.5,62.61,14.55,62.9,14.64z"/>
						<polygon fill="#C6C6C5" points="63.29,14.77 62.9,14.64 63.12,14.85 						"/>
						<path fill="#C6C6C5" d="M65.82,17.82c0.38,0.09,0.67,0.34,1.01,0.6c-0.28-0.37-0.61-0.73-0.94-1.03
							C65.75,17.45,65.45,17.5,65.82,17.82z"/>
						<path fill="#C6C6C5" d="M64.6,16.64c0.02,0.01,0.05,0.02,0.08,0.03C64.66,16.61,64.64,16.57,64.6,16.64z"/>
						<polygon fill="#C6C6C5" points="69.74,21.48 69.75,21.38 69.68,21.41 						"/>
						<path fill="#C6C6C5" d="M65.88,17.28c-0.2-0.3-0.42-0.36-0.65-0.39c0.22,0.14,0.44,0.31,0.66,0.5
							C65.94,17.37,65.97,17.34,65.88,17.28z"/>
						<path fill="#C6C6C5" d="M67.53,19.69c-0.05-0.2-0.14-0.4-0.25-0.59C67.32,19.31,67.41,19.72,67.53,19.69z"/>
						<path fill="#C6C6C5" d="M64.69,16.82c-0.02,0-0.04-0.01-0.05-0.02C64.67,16.95,64.69,16.9,64.69,16.82z"/>
						<path fill="#C6C6C5" d="M64.69,16.82c0.18,0.06,0.36,0.06,0.53,0.07c-0.19-0.1-0.38-0.18-0.55-0.23
							C64.69,16.71,64.69,16.77,64.69,16.82z"/>
						<path fill="#C6C6C5" d="M72.68,20.81c-0.37,0.2-1.17-0.39-1.44-1.25c-0.78-0.42-1.38,0.86-1.49,1.82
							c0.14-0.09,0.29-0.22,0.95,0.29c0.04-0.39-0.78-1.7-0.05-1.42c0.89,0.68,0.45,0.79,0.62,1.33c0.11-0.67,1.41,0.68,1.85,0.06
							L72.33,21C72.41,20.92,72.77,21.1,72.68,20.81z"/>
						<path fill="#C6C6C5" d="M68.76,20.23l-0.26-0.21c0.2,0.32,0.26,0.63,0.36,1.19c0.51,0.27,0.7,0.26,0.82,0.2l-1.04-1.23
							L68.76,20.23z"/>
						<path fill="#C6C6C5" d="M67.5,18.95c0.51-0.15,1.15,0.34,1.16-0.36c-0.71-0.69-0.75-0.22-1.31-0.49
							c1.24,0.98-0.5-0.13,0.17,0.81c-0.28-0.15-0.5-0.32-0.7-0.48c0.17,0.23,0.32,0.45,0.46,0.68c0-0.02,0-0.03-0.01-0.04l-0.01,0
							l0.01,0c-0.01-0.08-0.01-0.12,0.03-0.05c0.01,0,0.02,0.01,0.03,0.02C67.38,18.98,67.44,18.97,67.5,18.95
							c0.27,0.37-0.03,0.13-0.17,0.07c-0.02,0.01-0.04,0.02-0.06,0.03l0,0.01c0.45,0.28,0.81,0.64,1.23,0.96
							C68.32,19.74,68.06,19.42,67.5,18.95z"/>
						<path fill="#C6C6C5" d="M62.51,12.33c0.02,0.06,0.01,0.08-0.01,0.11C62.62,12.45,62.67,12.44,62.51,12.33z"/>
						<path fill="#C6C6C5" d="M62.95,12.9c-0.13-0.01-0.31,0.08-0.62-0.15c-0.22-0.28,0.11-0.17,0.17-0.3
							c-0.26-0.03-0.86-0.16-0.35,0.4l0.13,0.01c0.48,0.47,0.89,1.34,0.76,1.33C63.1,13.76,63.12,13.45,62.95,12.9z"/>
						<path fill="#C6C6C5" d="M65.52,15.78c0.41,0.2,0.77,0.46,1.15,0.7l-0.27-0.75l-0.12,0.2C65.76,15.37,65.7,15.71,65.52,15.78z"
							/>
						<path fill="#C6C6C5" d="M69.67,21.72l-0.46,0.17c0.34,0.03,0.63,0.11,0.95,0.17L69.67,21.72z"/>
						<polygon fill="#C6C6C5" points="70.71,23.02 70.36,23.21 70.81,23.42 						"/>
						<path fill="#C6C6C5" d="M23.33,77.19l-0.43-0.13C23.1,77.14,23.23,77.18,23.33,77.19z"/>
						<path fill="#C6C6C5" d="M26.06,78.7l0.15-0.14C26.04,78.59,25.95,78.64,26.06,78.7z"/>
						<path fill="#C6C6C5" d="M72.44,61.54c-0.6,0.28-1.39,0.47-0.98,0.66l0.45,0.1C72.04,61.93,72.23,61.7,72.44,61.54z"/>
						<path fill="#C6C6C5" d="M50.54,79.7c0.06,0.03,0.13,0.07,0.2,0.1c0.11-0.18,0.21-0.35,0.3-0.51
							C50.89,79.43,50.73,79.58,50.54,79.7z"/>
						<path fill="#C6C6C5" d="M50.46,81.53l-0.85-0.15C49.8,81.45,50.08,81.5,50.46,81.53z"/>
						<path fill="#C6C6C5" d="M10.59,65.92c-0.22-0.05-0.45-0.1-0.66-0.17C10.39,66.41,10.38,65.99,10.59,65.92z"/>
						<path fill="#C6C6C5" d="M77.34,38.6c-0.1,0.49-0.11,0.87-0.08,1.2C77.42,39.22,77.72,38.7,77.34,38.6z"/>
						<path fill="#C6C6C5" d="M26.61,73.8c-0.24-0.05-0.37-0.03-0.41,0.06C26.44,73.92,26.6,73.92,26.61,73.8z"/>
						<path fill="#C6C6C5" d="M77.35,41.17c0.04-0.09,0.06-0.17,0.09-0.26c-0.1-0.34-0.14-0.68-0.18-1.1
							C77.14,40.24,77.01,40.73,77.35,41.17z"/>
						<path fill="#C6C6C5" d="M21.31,10.94c0.05-0.01,0.1-0.03,0.15-0.03C21.43,10.85,21.38,10.88,21.31,10.94z"/>
						<path fill="#C6C6C5" d="M38.63,8.93c-0.15,0.05-0.41,0.09-0.65,0.13C38.1,9.07,38.3,9.04,38.63,8.93z"/>
						<path fill="#C6C6C5" d="M74.01,28.83C73.83,28.53,73.94,28.8,74.01,28.83L74.01,28.83z"/>
						<path fill="#C6C6C5" d="M74.78,26.47c0.08,0.05,0.16,0.07,0.25,0.03C74.92,26.53,74.84,26.51,74.78,26.47z"/>
						<path fill="#C6C6C5" d="M80.1,44.77c0,0.01,0,0.02,0,0.03C80.19,44.7,80.18,44.71,80.1,44.77z"/>
						<path fill="#C6C6C5" d="M73.96,28.27c0.01,0.14,0.04,0.3,0.08,0.46C74.04,28.65,74.02,28.51,73.96,28.27z"/>
						<path fill="#C6C6C5" d="M73.81,28.42c-0.04-0.12-0.07-0.21-0.1-0.3C73.63,28.12,73.6,28.18,73.81,28.42z"/>
						<path fill="#C6C6C5" d="M74.25,29.27c-0.09-0.18-0.16-0.36-0.21-0.53c0,0.08-0.01,0.11-0.03,0.1
							C74.06,28.92,74.13,29.05,74.25,29.27z"/>
						<path fill="#C6C6C5" d="M5.51,38.5c0.02-0.02,0.03-0.05,0.05-0.08C5.44,38.01,5.44,38.19,5.51,38.5z"/>
						<path fill="#C6C6C5" d="M69.66,71.93c0.01-0.02,0.01-0.03,0.02-0.05c-0.02,0.01-0.04,0.02-0.05,0.03L69.66,71.93z"/>
						<path fill="#C6C6C5" d="M68.81,73.15c0.1-0.82,0.4-1,0.82-1.23l-1.19-0.61C68.57,71.91,68.69,72.52,68.81,73.15z"/>
						<path fill="#C6C6C5" d="M17.23,72.89l0.51,0.98c-1.34-0.35-1.89-1.14-1.52-0.07c0.52-0.47,1.25,0.23,2.08,0.81
							c0.83,0.58,1.66,1.16,2.11,0.65l0.38,0.64c-0.15-0.13-0.22-0.08-0.37-0.21c0.69,1.33,1.35-0.23,2.65,0.8
							c0.44,0.39,0.69,0.77,0.27,0.7l1.28,0.38c0.31,0.21,0.12,0.38-0.19,0.16c0.59,0.3,1.22,0.53,1.83,0.79l-0.03,0.03
							c0.35-0.07,1.06-0.09,1.4-0.08c0.37,0.39-0.28,0.02-0.24,0.23c0.37,0.05,0.74,0.12,1.11,0.16c0.14,0.24-0.03,0.36-0.33,0.38
							c-0.29,0-0.69-0.12-1.03-0.3c0.18,0.84,0.43,0.87,0.84,0.88c0.42-0.01,0.99-0.04,1.9,0.72l-1.05-0.2
							c0.36,0.95,1.24,0.98,2.24,1.85c-0.22-0.34-1.87-1.97-0.62-1.87c0.28,0.21,0.69,0.42,1.38,0.36
							c-0.14,0.46,0.51,0.51,1.29,0.68l-0.22,0.6c0.89,0.04,0.9-0.29,1.45-0.45c0.9,0.3,1,0.84,1.14,1.27
							c1.51,0.34-0.9-0.94,0.92-0.78c0.6,0.22,1.14,0.3,1.72,0.3c0.58,0,1.19-0.04,1.95-0.22c0.86,0.27-0.18,0.38,0.12,0.58
							l0.82-0.47c0.19,0.02,0.12,0.18,0.08,0.25c0.67-0.16,0.09-0.64,1.11-0.76c0.15-0.36,0.65-0.04,1.3,0.19
							c0.65,0.21,1.44,0.41,2.05-0.02c0.32,0.17-0.13,0.4-0.02,0.64c1.72-0.61,1.49-0.43,2.8-1.35l1.26,0.23
							c-0.96-0.34,0.09-1.07,0.93-1.68c-0.35-0.18-0.64-0.34-0.82-0.41c0.48-0.18,0.95-0.37,1.4-0.62c0.2,0.06,0.1,0.31-0.08,0.63
							c0.09-0.08,0.17-0.15,0.24-0.22c0.58,0.1,0.39,0.52,0.08,0.97c-0.21-0.08-0.42-0.16-0.62-0.25c-0.3,0.44-0.58,0.92-0.43,1.27
							c0.09-0.09,0.27-0.18,0.48-0.25c-0.08,0.12-0.13,0.22-0.07,0.28c0.07,0.05,0.21-0.09,0.42-0.32l0.5,0.61l0.02-0.3L53.82,81
							c0.32-0.27,0.61-0.55,0.91-0.84c0.28-0.32,0.57-0.65,0.88-0.97c0.61-0.66,1.34-1.23,2.32-1.82c-0.3,0.73,0.22,0.84,0.44,1.42
							c-0.84-0.35-1.61,0.9-2.82,1.21c0.62-0.16,0.59,0.17,0.47,0.33l1.86-1.32c0.15,0.49,0.59,0.2,1.19,0.12
							c-0.79-0.73,1.2-1.32,1.85-1.97c0.21,0.27,0.17,0.67-0.85,1.07c1.43,0.13,0.87-1.68,2.15-1.74c-0.22,0.14-0.37,0.17-0.37,0.38
							c0.38-0.58,1.78-1.15,1.63-0.72l-0.22,0.14c0.39-0.2,0.88-0.48,1.37-0.79c0.49-0.33,0.96-0.75,1.39-1.14
							c0.85-0.79,1.48-1.54,1.29-1.96c0.09,0.07,0.49,0.94,0.5,1.14c0.2-1.42,0.3-2.84,0.37-4.18c0.3,0.71,2.3,1.25,1.5,2.53
							c0.37-0.22,0.89-0.45,1.31-1.29c-0.27,0.15-1.23-0.23-1.02-0.55c1.3-0.21,0.8-0.23,2.2-0.75c-0.41,0.21-0.93-0.91-0.47-1.37
							c0.06,0.19,0.9,0.7,0.82,0.96c0.1-0.66,0.19-1.32,0.21-2c-0.09,0.46,0.7,0.66,1.18,0.55c-0.28,0.01,0.9-1.17,1.08-1.6
							l-0.64,0.42c1.31-1.43-0.23-2.43,0.78-3.93c0.09,0.3,0.93,1.22,1.56,0.46c-0.15-0.34-0.46-1.08-0.79-1.95
							c-0.33-0.88-0.6-1.83-0.47-2.62l0.43-0.13c0.06-0.41,0.13-0.81,0.13-1.23c0.3,0.52,0.58,1.41,0.84,2.4
							c0.25,0.98,0.44,2.06,0.47,2.78c0.56-0.52,0.43,0.01,0.88-0.98c0.44-0.21,0.16,0.75,0.03,1.05l1.3-2.22
							c-0.33-0.09-0.27-0.6-0.21-1.1c0.04-0.51,0.07-1.02-0.21-1.08c-0.06,0.95-0.29,1.84-0.47,2.78c-0.33-0.1-0.58-0.66-0.66-1.37
							c-0.05-0.7-0.02-1.59,0.33-2.38c0.4-0.32,1.01,0.73,1.22,0.79c-0.13-0.3,0.16-1.73,0.37-1.83l0.08,0.83
							c0.29-0.43,0.22-0.88,0.2-1.33c-0.03-0.46-0.06-0.93,0.41-1.42c0.14-0.38,1.15-0.98,0.78-1.14c-0.92,0.48-3.24-0.02-3.7-0.55
							c0.04-0.06,0.35-0.49,0.7-0.96c0.38-0.47,0.67-1,0.91-1.19c0.69-0.54,1.26,1.22,1.85,0.77c-0.18-0.06-0.34-0.46-0.39-0.63
							c0.22-0.39,0.53,0.27,0.59-0.66c-0.65-0.26,0.34-1.85-0.5-0.52c-0.08-0.91,0.33-0.92,0.36-1.98c-0.46,0.29-1.45-1.06-1.6-1.91
							c0.17,0.06,0.41-0.13,0.51-0.22c0.04-0.45,0.09-0.84,0.15-1.21c0.03-0.37,0.05-0.71,0.08-1.05c0.05-0.68,0.1-1.34,0.06-2.18
							c0.16-0.17,0.3-1,0.62-0.69c-0.15-0.23-0.42-0.43-0.51-0.94c0.43-1.08,0.27,1.15,0.85,0.3c-0.4-0.02-0.75-1.29-1.11-1.98
							c-0.57,0.33,0.14,1.7,0.5,2.42c-0.84,0.08-1.91-1.07-2.55-2.64c-0.45-1.27,0.41-0.68,0.26-0.88
							c-0.25-1.25-0.74-1.68-1.16-2.06c-0.42-0.38-0.74-0.71-0.83-1.76c0.22-0.95,1-0.39,1.3-0.69c0.29,0.49,0.36,0.92,0.38,1.32
							c-0.01,0.4-0.05,0.76,0.05,1.12l0.01-0.97c0.26,0.29,0.58,0.98,0.53,1.42c0.35-0.84-1.13-4.22-1.62-6.21
							c-0.32-0.25-0.75-0.72-0.82-0.37l0.34,0.54c-0.15,0.7-1.05-0.8-0.89-0.01c-0.32-0.31-0.68-0.61-1-0.98
							c-0.16-0.18-0.31-0.39-0.43-0.61c-0.15-0.21-0.28-0.45-0.37-0.73l0.42-0.49c-0.14,0.11,0.08,0.83,0.41,1.02
							c-0.48-0.27-0.22-1.95-1.18-1.99l0.06,0.91c-0.71-0.54-1.7-1.07-2.18-1.94c-0.23,0.71,0.2,0.15,0.03,1.11
							c0.42-1.01,1.27,2.18,1.55,0.85c-0.35,1.05,0.4,1.23,0.19,2.41c0.17-0.12,0.2-0.48,0.47,0.31c0.07,0.01,0.17,0.05,0.24,0.08
							c0,0.03,0.01,0.03,0.01,0.06l0-0.05c0.04,0.02,0.05,0.02,0-0.02c-0.01-0.22,0.02-0.41,0.09-0.52c0.59,0.16,1.17,1.38,1.59,1.7
							c0.13,0.49-0.3-0.1-0.38,0.24c0.21,0.15,0.42,0.31,0.6,0.48c-0.39,0.24-0.24,1.52-0.88,0.52l0.34,0.98
							c-0.03,0.66,0.18,1.47,0.51,1.9c0.03,0.5,0.78,1.06,0.34,0.74l0.68,1.51l-0.11,0.04c0.23,0.78,0.46,1.58,0.7,2.42
							c0.21,0.84,0.4,1.74,0,2.69c0.14,0.53,0.31,1.09,0.23,2.01l-0.38,0.18c0.18,0.7-0.48,2.06-0.07,2.37
							c-0.27,0.17-0.43,0.46-0.52,0.82c-0.08,0.36-0.11,0.78-0.17,1.22c-0.09,0.88-0.07,1.84-0.25,2.42l0.49,0.14
							c-0.18,0.82-0.28,1.62-0.33,2.69l0.45,0.06c0.18,1.02-1.03,2.15-1.46,3.51c-0.13-0.16,0.04-0.48,0.23-0.69
							c-0.38,0.31-0.61,0.69-0.75,1.11c-0.17,0.41-0.28,0.84-0.37,1.29c-0.2,0.88-0.31,1.82-1.05,2.31c-0.06,0.41-0.26,0.63-0.5,0.8
							c0.02-0.03,0.03-0.06,0.03-0.09c-0.03,0.03-0.06,0.08-0.09,0.13c-0.16,0.11-0.32,0.21-0.48,0.34
							c0.18-0.08,0.33-0.17,0.44-0.26c-0.15,0.26-0.34,0.68-0.47,1.12l-0.5-0.1c-0.01,0.03-0.03,0.06-0.04,0.1
							c-0.37,0.27,0.01,0.43,0.43,0.43c-0.04,0.24-0.1,0.45-0.1,0.65c-0.85-0.16-0.5,1.11-1.46,1c0.07,0.24-0.21,0.74-0.44,1.27
							c-0.27,0.5-0.51,1.03-0.27,1.4c-0.09-0.06-0.22,0-0.06-0.18c-0.42,0.31-0.83,0.62-0.96,1.13l-0.59-0.26
							c-0.04,0.47-0.11,0.93-0.2,1.37c-0.77,0.19-1.11,0.21-0.95-0.57c-0.7,1.6-0.76,1.08-1.33,2.54l-0.2-0.35
							c-0.38,0.3-0.69,1.2-1.13,1.12c-1.25,0.14-4.59,3-7.47,3.46c0.48,0.41,0.14,0.45-0.3,0.46c-0.45-0.01-0.97-0.03-0.86,0.41
							c-0.25-0.2-0.67-0.21-0.34-0.59c-1.24,0.72-2.09,0.36-2.83,1.29c-0.23-0.23,0.18-0.46,0-0.58c-0.09,0.08-0.37,0.34-0.55,0.22
							c-0.18-0.12,0.14-0.27,0.32-0.44c-1.35,0.39-1.3,1.26-1.22,2.06c-0.41-0.09-0.69-0.1-0.93,0c-0.24,0.07-0.44,0.24-0.66,0.54
							c-0.31-0.22-0.78-0.42,0.11-0.65c-0.52,0.03-3.13,0.11-3.12,0.72c-0.18-0.15-0.72-0.01-0.85,0.07
							c-1.16,0.02-1.26-0.03-2.4,0.09l0.32,0.09c-0.44,0.82-0.95,0.17-1.88,0.22l0.03-0.08c-1.04-0.33-1.27-0.28-1.5-0.23
							c-0.22,0.02-0.47,0.14-1.45-0.36l0.06,0.49c-0.33,0.99-1.76-0.88-3-0.68c0.12,0.12,0.25,0.23,0.38,0.34
							c-0.75,0.25-1.49-1.81-2.06-2.07c-0.11-0.12,0.25-0.08,0.45-0.1c-1.45-1-0.37,0.55-1.63,0.38c-0.12-0.39,0.53-0.73-0.25-1.04
							c-0.15-0.2-0.8-0.15-1.54-0.18c-0.73-0.05-1.58-0.09-1.96-0.67c0.12,0.35,0.25,0.7-0.36,0.62c-0.87-0.34-1.77-1.91-2.86-1.6
							c-0.06-0.12-0.07-0.2-0.04-0.26c-0.69-0.17-2.1-0.86-2.71-0.71c0.18-0.86-0.76-1.35-1.7-1.77c-0.96-0.4-1.79-0.86-1.28-1.44
							l-1.63-1.37l0.15-0.07c-0.91-1-1.44-1.15-2.06-1.25c-0.14-0.31,0.13-0.23,0.2-0.26c-1.14-1.66-1.2-1.81-2.85-2.7l0.3-0.43
							c-0.26-0.1-0.55-0.78-0.86-1.65c-0.31-0.87-0.84-1.81-1.5-2.56c0.06-0.01,0.16-0.02,0.29,0.09c-0.71-0.86-1.04-2.17-1.26-3.28
							c-0.21-1.13-0.49-2.01-1.49-2.11c-0.33-0.4-0.55-0.84-0.83-1.28c0.34,1.89-0.82-0.06-0.91,0.79c-0.3-0.73,0.03-2.06,0.35-1.18
							l-0.05,0.16c1,0.08-0.29-2.38,0.39-2.47C8,46.71,8.47,43.07,8.81,39.69c-0.26,0.1-0.53,0.21-0.78,0.32
							c0.05-0.4,0.14-0.8,0.21-1.2c0.22-0.29,0.63-0.34,0.47,0.5c0.48-0.39-0.13-1.46-0.28-1.52c0.55-1.61,0.74,0.79,0.84,0.28
							l0.05-0.69l-0.11,0.14c-0.19-0.6-0.57-0.73-0.26-1.73c0.31-0.6,0.52-0.22,0.61-0.46c0.05,0.01,0.1-0.06,0.12-0.37l0.43-1.44
							l-0.7,0.42c-0.12-0.74,0.4-1.38-0.42-0.89c0.63-0.36,1.23-1.65,1.69-2.94c0.54-1.26,1.09-2.47,1.35-2.69
							c0.01-0.26,0.04-0.51,0.1-0.76c0.07-0.23,0.17-0.46,0.28-0.68c0.22-0.45,0.51-0.89,0.83-1.38c-0.25,0.18-0.9,0-0.3-0.84
							c0.48,0.53,0.8,0.19,1.25-0.24c0.44-0.43,0.94-1,1.56-1.03c-0.47,0.09-0.08-0.49,0.26-1.07c0.34-0.57,0.7-1.06-0.04-0.94
							c0.65-0.55,0.42,0.29,1.08,0.03c0.92-1.85,3.23-2.91,5.02-4.49c-0.08-0.16-0.57-0.13-0.31-0.65l1.55-0.06
							c0.34-0.34-0.25-1.14,0.85-1.08c-0.19-0.06-0.47-0.15-0.22-0.36c2.26-0.93,4.31-2.23,6.59-3.19c1.14-0.45,2.28-0.95,3.52-1.12
							c0.61-0.11,1.22-0.19,1.83-0.23c0.61-0.05,1.25,0.06,1.87,0.15c-0.7-0.24-0.28-0.34,0.22-0.42c-0.33-0.03-0.06-0.43-0.16-0.66
							c0.71,0.12,1.41,0.21,2.1,0.37c0.31-0.68,2.17-0.15,2.36-0.8l-0.65,0.15c0.86-0.79-1.32-1.59-1.28-2.56
							c-0.24,0.22-0.54,0.27-0.88,0.23c-0.33-0.02-0.71-0.1-1.11-0.18c-0.79-0.15-1.7-0.24-2.44,0.49
							c-0.41-0.13,0.26-0.35,0.02-0.54c-0.36,0.45-0.84,0.69-1.83,0.74l0.08-0.13c-1.31,0.41-2.3,0.51-3.29,0.79
							c-0.51,0.12-1.02,0.23-1.6,0.37c-0.58,0.14-1.24,0.27-1.96,0.58l0.4,0.33c-0.62,0.23-0.81,0.16-1.15,0.19
							c-0.38,0.98,1.71-0.78,1.4,0.25c-0.59-0.25-1.65,0.25-2.68,0.73c-1.02,0.5-1.95,1.09-2.5,0.76c-0.89,0.53,0.55,0.31-0.33,0.84
							l-0.39-0.11l-0.01,0.45c-0.61,0.29-1.07,0.23-1.24,0.03c0.15-0.07,0.34-0.34,0.47-0.46c-0.91,0.24-1.94,1.59-2.24,1.68
							l0.91-0.45c-2.15,1.82-4.86,4.03-6.2,6.47l0.31-0.01c-1,1.82-1.2,1.14-2.42,3.05l0.01-0.1c-0.11,0.48-0.31,1.06-0.65,1.57
							c0.08-0.63-0.99,0.65-0.85-0.15c-0.77,2.16-0.31,1.12-0.28,2.8l-0.47,0.13c0.08,0.6,0.22,0.72-0.17,1.75
							c0.11-0.96-0.82,0.4-0.76-0.7c-0.44,0.45-0.71,0.9-0.89,1.32c-0.16,0.43-0.2,0.85-0.26,1.21c-0.1,0.74-0.19,1.29-0.94,1.61
							c0.6,1.34,1.24-1.73,1.24-1.09c0.48-0.35,0.42,1.09,0.07,1.73c-0.3,0.67-1.62,0.81-2.09,2.68c0.05-0.18-0.02-0.21,0.03-0.4
							c-0.41,0.65-0.06,1.43-0.58,2.22c0.54,0.6-0.21,1.13,0.55,1.39l0.08-1.75c0.05,1.03,0.83,2.05,0.15,3.56
							c-0.14-0.14-0.28-0.63-0.34-0.98c-0.29,0.44-0.01,0.91-0.27,1.38c-0.82-0.23,0.13-2.11-0.32-3.26
							c-0.41,0.46,0.26,2.09-0.51,1.44c0.48,0.46,0.38,0.92,0.23,1.44c-0.1,0.53-0.23,1.13,0.15,1.8l-0.47-0.11
							c0.06,0.21,0.27,0.65,0.24,1.02L3.98,41.5c0.48,1.08-0.6,2.05-0.22,3.08c-0.06-1.08,0.08-1.19,0.28-1.16
							c0.19,0.04,0.41,0.22,0.61-0.22c0.71,2.57-1.2,1.52-0.8,4.49c-0.12-0.4,0.2-1.53,0.44-0.92c-0.09,0.57-0.16,1.32-0.35,1.7
							c0.39,1.93,0.44-0.36,0.85,0.42c-0.47,0.74,0.38,0.91,0.69,1.7L5,50.68c0,0.56,0.09,0.87,0.22,1.03
							c0.12,0.17,0.26,0.21,0.39,0.24c0.27,0.06,0.52,0.09,0.58,1.09l-0.86-0.65l0.43,0.96l-0.58-0.07c0.7,0.99,0.61,1.37,0.85,2.47
							c0.24-0.35,0.88-0.14,1.23,0.76c-0.04,0.72-0.56-0.19-0.02,1.08c-0.39-0.18-0.86-0.38-0.65-1.1c-0.17-0.01-0.39-0.19-0.56-0.2
							c-0.06,0.79,0.56,1.75,0.74,2.22c-0.05-0.19-0.11-0.42-0.09-0.56c0.22,0.28,0.43,0.55,0.67,0.82l0.74,0.77
							c-0.03,0.36-0.27,0.2-0.51,0.03c0.23,0.35,0.55,0.51,0.85,1.03C8,60.63,7.65,60.84,7.11,60.14l1.24,1.56
							c-0.1,0.2,0.04,1.12-0.2,0.96c0.38,1.05,2.01,1.91,2.55,3.25c0.11,0.02,0.26,0.09,0.48,0.3c0.36,0.56,0.63,1.15,0.98,1.72
							c0.18,0.28,0.36,0.57,0.61,0.83c0.26,0.25,0.57,0.48,0.93,0.68l0.09,1.14c0.96,0.81-0.17-1.5,1.41-0.16
							c1.14,0.91-0.07,0.83,0.16,1.33c0.8,0.25,2.2,0.55,2.81,1.88C17.76,73.44,17.57,73.13,17.23,72.89z M30.42,80.3
							c-0.31,0-0.97,0.08-1.07-0.26C29.86,79.64,30,79.97,30.42,80.3z M52.83,80.09c-0.17,0.21-0.51,0.21-0.91,0.13
							C52.17,80.11,52.47,80.06,52.83,80.09z M75.85,32.26c0.01,0.01,0.02,0.01,0.03,0.02C75.91,32.89,75.91,32.67,75.85,32.26z
							 M75.63,31.06c-0.1-0.09-0.16-0.06-0.21,0.01c0.14,0.03,0.24,0.29,0.32,0.59C75.83,31.54,75.86,31.36,75.63,31.06z
							 M9.44,35.16l-0.18,0.2C9.26,34.8,9.34,34.98,9.44,35.16z"/>
						<path fill="#C6C6C5" d="M50.48,81.32c-0.1-0.07-0.14-0.15-0.17-0.24C50.21,81.18,50.23,81.27,50.48,81.32z"/>
						<path fill="#C6C6C5" d="M10.71,65.95l-0.02-0.04c-0.04,0-0.07,0-0.1,0.01L10.71,65.95z"/>
						<path fill="#C6C6C5" d="M81.45,50.2c-0.11,0.26-0.22,0.4-0.33,0.49C81.24,50.72,81.36,50.62,81.45,50.2z"/>
						<path fill="#C6C6C5" d="M72.08,25.76l0.5,0.58c-0.21-0.3-0.19-0.47-0.22-0.67C72.28,25.75,72.21,25.96,72.08,25.76z"/>
						<path fill="#C6C6C5" d="M70.3,18.5c-0.12-0.05-0.18-0.18-0.3-0.23l-0.14,0.18C70.21,18.82,70.59,18.96,70.3,18.5z"/>
						<path fill="#C6C6C5" d="M73.06,24.29c0.29-0.26-0.04-0.65-0.45-1.04c0.02,0.03,0.04,0.05,0.06,0.08
							C72.11,23.51,72.62,23.87,73.06,24.29z"/>
						<path fill="#C6C6C5" d="M72.52,23.15c-0.12-0.13-0.23-0.26-0.32-0.41C71.98,22.82,72.29,22.93,72.52,23.15z"/>
						<path fill="#C6C6C5" d="M74.82,29.74c-0.02-0.27-0.54,0.07-0.46-0.13C73.78,29.56,75.66,30.89,74.82,29.74z"/>
						<polygon fill="#C6C6C5" points="73.94,23.16 73.63,23.61 74.14,23.67 						"/>
						<path fill="#C6C6C5" d="M75.87,27.27l-0.27-0.89c-0.07,0.05-0.16-0.03-0.26-0.14C75.57,26.76,75.75,27.36,75.87,27.27z"/>
						<path fill="#C6C6C5" d="M75.34,26.25c-0.13-0.26-0.29-0.49-0.45-0.59C74.98,25.79,75.18,26.07,75.34,26.25z"/>
						<polygon fill="#C6C6C5" points="74.73,24.16 74.78,24.45 75.09,25.02 						"/>
						<path fill="#C6C6C5" d="M78.95,36.54l0.29,0.96c0.18,0.07,0.25-0.21,0.12-0.57C79.21,36.71,79.09,36.35,78.95,36.54z"/>
						<path fill="#C6C6C5" d="M79.56,33.25c-0.03,0.3-0.13,0.35-0.25,0.54l0.61-0.13L79.56,33.25z"/>
						<path fill="#C6C6C5" d="M80.42,36.14c0.18,0.06,0.72,1.41,0.48,0.1C80.73,36.16,80.39,35.17,80.42,36.14z"/>
						<polygon fill="#C6C6C5" points="79.49,51.45 79.55,51.2 78.54,51.02 						"/>
						<path fill="#C6C6C5" d="M76.34,65.11c0.87-0.96-0.37-0.6,0.48-1.41c-0.05-0.38-0.7,0.67-0.72,0.3
							C75.93,64.78,75.59,65.05,76.34,65.11z"/>
						<path fill="#C6C6C5" d="M76.1,64c0.03-0.12,0.05-0.26,0.07-0.41C76.11,63.81,76.1,63.92,76.1,64z"/>
						<polygon fill="#C6C6C5" points="41.31,9.23 42.03,9.41 41.56,9.09 						"/>
						<path fill="#C6C6C5" d="M42.67,8.4l0.18,0.64l0.43-0.61C43.11,8.47,42.8,8.54,42.67,8.4z"/>
						<path fill="#C6C6C5" d="M32.21,82.25l0.1-0.13c-0.08-0.2-0.26-0.26-0.63-0.38L32.21,82.25z"/>
						<polygon fill="#C6C6C5" points="22.11,77.2 22.27,77.31 22.28,76.62 						"/>
						<path fill="#C6C6C5" d="M14.25,71.82c0.24,0.32,0.67,0.53,0.94,0.81C14.47,72.14,14.71,71.22,14.25,71.82z"/>
					</g>
				</g>
			</g>
			<g>
				<g>
					<g>
						<path fill="#C6C6C5" d="M43.58,85.09c-0.38-0.02-0.25,0.39-0.3,0.47C43.93,85.44,43.57,84.98,43.58,85.09z"/>
						<polygon fill="#C6C6C5" points="49.77,83.59 49.68,83.77 50.52,83.22 						"/>
						<path fill="#C6C6C5" d="M55.44,82.3c-0.73-0.53-2,0.64-3.07,0.66l-0.2-0.12l-0.33,0.68C53.05,83.11,54.53,82.35,55.44,82.3z"
							/>
						<path fill="#C6C6C5" d="M58.92,82.67c-0.29-0.19,0.56-0.46-0.74,0.18c0.08,0,0.1,0.01,0.15,0.02
							C58.46,82.81,58.63,82.75,58.92,82.67z"/>
						<path fill="#C6C6C5" d="M58.34,82.86C57.75,83.1,58.82,82.94,58.34,82.86L58.34,82.86z"/>
						<path fill="#C6C6C5" d="M60.97,81.57l-0.65,0.59c0.22,0.07,0.92-0.22,0.72,0.01C61.76,81.67,61.53,81.6,60.97,81.57z"/>
						<path fill="#C6C6C5" d="M61.46,80.76l-0.34,0.28C61.21,81.07,61.33,81.04,61.46,80.76z"/>
						<path fill="#C6C6C5" d="M60.39,81.64l0.73-0.6c-0.16-0.05-0.27-0.26-0.34,0.25C60.75,81.07,60.68,81.33,60.39,81.64z"/>
						<path fill="#C6C6C5" d="M59.88,81.76c-0.48,0.07-1.07,0.18-0.41-0.36C58.05,82.05,58.46,82.47,59.88,81.76z"/>
						<path fill="#C6C6C5" d="M55.49,81.49c-0.21,0-0.41,0.01-0.63-0.02l-0.43,0.36c0.11-0.09,0.4-0.11,0.65-0.14
							C55.33,81.65,55.54,81.59,55.49,81.49z"/>
						<path fill="#C6C6C5" d="M65.73,79.4c-0.04-0.16-0.46-0.2-0.61-0.33l-0.43,0.47C65.01,79.47,65.57,79.23,65.73,79.4z"/>
						<path fill="#C6C6C5" d="M65.12,79.07l0.64-0.7C65.05,78.77,64.99,78.96,65.12,79.07z"/>
						<polygon fill="#C6C6C5" points="61.24,79.99 60.14,81.12 61.49,79.86 						"/>
						<polygon fill="#C6C6C5" points="68.66,77.41 68.45,78.01 68.88,77.02 						"/>
						<path fill="#C6C6C5" d="M70.49,75.92c-0.1,0.49,0.72,0.02,0.52,0.43c0.45-0.48,0.69-1.03,0.91-1.53
							C71.61,75.26,71.17,75.62,70.49,75.92z"/>
						<path fill="#C6C6C5" d="M72.3,74.02c-0.14,0.23-0.26,0.5-0.39,0.79C72.08,74.58,72.21,74.32,72.3,74.02z"/>
						<path fill="#C6C6C5" d="M67.09,77.58c0.11,0.03,0.36,0.15,0.83-0.08l-0.54-0.13C67.3,77.43,67.2,77.5,67.09,77.58z"/>
						<path fill="#C6C6C5" d="M67.37,77.36l0.02,0c0.32-0.22,0.54-0.38,0.64-0.45C67.94,76.98,67.74,77.11,67.37,77.36z"/>
						<path fill="#C6C6C5" d="M67.02,77.63c0.03-0.02,0.05-0.03,0.07-0.05C67.04,77.56,67.02,77.56,67.02,77.63z"/>
						<path fill="#C6C6C5" d="M63.5,79.24c0.34-0.48,1.13-1.27,0.05-1.03C63.38,78.65,64,78.52,63.5,79.24z"/>
						<path fill="#C6C6C5" d="M66.36,77.45c-0.27,0.16-0.58,0.29-0.86,0.43c0.08,0.09,0.32,0.13,0.15,0.37
							C65.89,77.98,66.14,77.74,66.36,77.45z"/>
						<polygon fill="#C6C6C5" points="66.66,77.06 66.36,77.45 66.67,77.27 						"/>
						<path fill="#C6C6C5" d="M70.79,74.85c0.19-0.42,0.52-0.74,0.88-1.11c-0.47,0.31-0.92,0.66-1.32,1.03
							C70.38,74.92,70.36,75.27,70.79,74.85z"/>
						<path fill="#C6C6C5" d="M69.14,76.09c0.02-0.02,0.04-0.05,0.06-0.08C69.13,76.03,69.09,76.04,69.14,76.09z"/>
						<polygon fill="#C6C6C5" points="75.18,70.07 75.07,70.08 75.11,70.14 						"/>
						<path fill="#C6C6C5" d="M70.23,74.77c-0.36,0.22-0.48,0.46-0.57,0.72c0.2-0.24,0.43-0.48,0.69-0.72
							C70.34,74.7,70.32,74.67,70.23,74.77z"/>
						<path fill="#C6C6C5" d="M73.2,72.89c-0.21,0.11-0.44,0.23-0.68,0.35C72.78,73.2,73.23,73.02,73.2,72.89z"/>
						<path fill="#C6C6C5" d="M69.39,76.03l-0.04,0.05C69.52,76.07,69.48,76.04,69.39,76.03z"/>
						<path fill="#C6C6C5" d="M69.39,76.03c0.13-0.18,0.2-0.36,0.28-0.54c-0.18,0.18-0.34,0.36-0.46,0.53
							C69.26,76.01,69.33,76.02,69.39,76.03z"/>
						<path fill="#C6C6C5" d="M73.95,67.17c0.26,0.28-0.02,1.4-0.98,1.76c-0.36,0.84,0.99,1.29,2.1,1.15
							c-0.12-0.14-0.21-0.22,0.17-1.12c-0.33,0.16-1.73,1.25-1.48,0.44c0.66-1.04,0.73-0.69,1.27-1.02
							c-0.69,0.09,0.36-1.68-0.39-1.89l-0.42,0.99C74.12,67.42,74.2,67,73.95,67.17z"/>
						<path fill="#C6C6C5" d="M73.81,71.4l-0.23,0.32c0.35-0.28,0.68-0.41,1.32-0.65c0.3-0.62,0.28-0.81,0.21-0.93l-1.34,1.4
							L73.81,71.4z"/>
						<path fill="#C6C6C5" d="M72.38,73.01c-0.06-0.5,0.41-1.34-0.3-1.24c-0.76,0.83-0.31,0.8-0.68,1.4
							c1.28-1.32-0.23,0.53,0.93-0.19c-0.22,0.3-0.45,0.54-0.66,0.76c0.28-0.19,0.57-0.36,0.85-0.51c-0.02,0-0.03,0.01-0.05,0.01
							l-0.01,0.01l0-0.01c-0.1,0.02-0.14,0.01-0.05-0.03c0-0.01,0.02-0.02,0.02-0.03C72.4,73.13,72.39,73.07,72.38,73.01
							c0.46-0.3,0.14,0.02,0.05,0.17c0.01,0.02,0.01,0.04,0.03,0.06l0.01,0c0.42-0.47,0.74-1.02,1.11-1.52
							C73.27,71.97,72.97,72.36,72.38,73.01z"/>
						<path fill="#C6C6C5" d="M63.89,76.92c0.07,0,0.08,0.03,0.1,0.06C64.06,76.87,64.08,76.81,63.89,76.92z"/>
						<path fill="#C6C6C5" d="M64.65,76.76c-0.08,0.12-0.08,0.32-0.46,0.5c-0.38,0.08-0.11-0.18-0.2-0.29
							c-0.15,0.23-0.6,0.73,0.19,0.49l0.08-0.12c0.69-0.25,1.79-0.29,1.72-0.18C65.58,76.96,65.26,76.83,64.65,76.76z"/>
						<path fill="#C6C6C5" d="M68.55,74.99c0.37-0.34,0.69-0.75,1.01-1.14l-0.81,0.23l0.17,0.15
							C68.22,74.71,68.52,74.79,68.55,74.99z"/>
						<path fill="#C6C6C5" d="M75.46,70.07l0.21,0.45c0.05-0.35,0.04-0.75,0.06-1.12L75.46,70.07z"/>
						<polygon fill="#C6C6C5" points="76.64,68.42 76.91,68.72 77.04,68.14 						"/>
						<path fill="#C6C6C5" d="M24.57,11.89l-0.29,0.31C24.43,12.07,24.51,11.97,24.57,11.89z"/>
						<path fill="#C6C6C5" d="M27.15,10.52l-0.02-0.21C27.06,10.47,27.04,10.57,27.15,10.52z"/>
						<path fill="#C6C6C5" d="M78.66,21.62c-0.03-0.76,0.05-1.73-0.28-1.41l-0.25,0.42C78.43,20.97,78.58,21.31,78.66,21.62z"/>
						<path fill="#C6C6C5" d="M50.96,5.21l0.15,0.16c0.18-0.11,0.34-0.21,0.5-0.3C51.41,5.11,51.2,5.13,50.96,5.21z"/>
						<path fill="#C6C6C5" d="M50.19,6.91l-0.73-0.39C49.62,6.63,49.86,6.77,50.19,6.91z"/>
						<path fill="#C6C6C5" d="M13.33,22.98c0.03,0.21,0.05,0.41,0.1,0.63C13.84,23.01,13.49,23.16,13.33,22.98z"/>
						<path fill="#C6C6C5" d="M84.35,49.41c0.25-0.54,0.39-0.99,0.47-1.39C84.47,48.69,84.02,49.18,84.35,49.41z"/>
						<path fill="#C6C6C5" d="M23.32,7.26c-0.2,0.21-0.26,0.35-0.2,0.43C23.33,7.48,23.43,7.32,23.32,7.26z"/>
						<path fill="#C6C6C5" d="M84.94,46.36c-0.05,0.1-0.08,0.2-0.12,0.3c0.04,0.43,0.11,0.86,0.01,1.37
							C85.09,47.53,85.2,46.94,84.94,46.36z"/>
						<path fill="#C6C6C5" d="M22.77,73.91c0.02,0.04,0.06,0.07,0.08,0.11C22.9,73.98,22.85,73.95,22.77,73.91z"/>
						<path fill="#C6C6C5" d="M37.81,84.17c-0.19,0-0.49-0.05-0.77-0.08C37.18,84.13,37.41,84.16,37.81,84.17z"/>
						<path fill="#C6C6C5" d="M81.03,61.54C80.87,61.94,81.05,61.62,81.03,61.54L81.03,61.54z"/>
						<path fill="#C6C6C5" d="M78.61,62.61c0-0.1-0.03-0.19-0.11-0.25C78.57,62.44,78.61,62.52,78.61,62.61z"/>
						<path fill="#C6C6C5" d="M82.31,42.16c0-0.01,0-0.02,0-0.03C82.23,42.25,82.25,42.23,82.31,42.16z"/>
						<path fill="#C6C6C5" d="M80.57,62.03c0.12-0.12,0.24-0.27,0.36-0.44C80.86,61.66,80.75,61.79,80.57,62.03z"/>
						<path fill="#C6C6C5" d="M80.8,62.05c-0.08,0.13-0.14,0.23-0.2,0.32C80.63,62.45,80.7,62.43,80.8,62.05z"/>
						<path fill="#C6C6C5" d="M81.27,60.98c-0.1,0.23-0.22,0.42-0.34,0.61c0.06-0.06,0.1-0.09,0.1-0.06
							C81.08,61.42,81.15,61.26,81.27,60.98z"/>
						<path fill="#C6C6C5" d="M5.8,48.47c-0.01,0.03-0.01,0.06-0.03,0.09C6.01,48.92,5.95,48.75,5.8,48.47z"/>
						<path fill="#C6C6C5" d="M68.51,16.32c0.02,0.01,0.03,0.01,0.05,0.01c-0.01-0.02-0.02-0.04-0.03-0.05L68.51,16.32z"/>
						<path fill="#C6C6C5" d="M67.28,15.64c0.78-0.02,0.99,0.27,1.24,0.65l0.5-1.23C68.43,15.24,67.85,15.43,67.28,15.64z"/>
						<path fill="#C6C6C5" d="M19,16.12l0.96-0.35c-0.42,1.26-1.16,1.62-0.15,1.45c-0.39-0.53,0.22-1.23,0.93-1.8
							c0.71-0.57,1.42-1.14,1.08-1.74l0.67-0.14c-0.15,0.1-0.13,0.18-0.28,0.28c1.33-0.2,0.17-1.34,1.65-2.03
							c0.53-0.2,0.96-0.23,0.72,0.1l0.89-0.93c0.32-0.16,0.36,0.09,0.04,0.25c0.52-0.35,1.09-0.62,1.63-0.93l0,0.04
							c0.15-0.31,0.56-0.87,0.78-1.13c0.52-0.03-0.16,0.24,0.02,0.34C28.2,9.27,28.47,9,28.76,8.77c0.27,0.09,0.23,0.28,0.04,0.49
							c-0.18,0.22-0.51,0.46-0.84,0.6c0.72,0.41,0.87,0.24,1.13-0.06c0.27-0.26,0.66-0.65,1.77-0.63l-0.85,0.49
							c0.86,0.51,1.46-0.01,2.62,0.07c-0.29-0.16-2.43-0.39-1.5-1.1c0.34-0.01,0.73-0.12,1.23-0.57c0.15,0.46,0.69,0.2,1.4-0.01
							l0.12,0.63c0.72-0.37,0.58-0.68,0.97-1.07c0.88-0.16,1.16,0.27,1.45,0.66c1.41-0.11-1.12-0.63,0.52-1
							c0.61,0.03,1.11-0.05,1.63-0.21c0.52-0.16,1.06-0.44,1.77-0.64c0.86,0.18-0.12,0.4,0.2,0.56l0.71-0.55
							c0.18,0,0.13,0.16,0.11,0.24c0.62-0.23,0.02-0.64,1.01-0.87c0.13-0.35,0.65-0.15,1.29,0.11c0.63,0.28,1.36,0.55,2,0.18
							c0.29,0.2-0.17,0.38-0.09,0.64c1.71-0.44,1.46-0.34,2.93-0.82l1.12,0.6c-0.79-0.61,0.4-1,1.5-1.3
							c-0.27-0.28-0.51-0.52-0.68-0.64c0.56-0.03,1.13-0.07,1.68-0.02c0.17,0.15-0.04,0.32-0.36,0.52c0.12-0.02,0.23-0.05,0.32-0.07
							c0.51,0.38,0.13,0.66-0.34,0.91l-0.48-0.53c-0.47,0.32-0.91,0.69-0.9,1.07c0.11-0.06,0.32-0.09,0.54-0.09
							c-0.12,0.09-0.2,0.17-0.17,0.24c0.04,0.08,0.23-0.06,0.51-0.14l0.19,0.79l0.14-0.26l1.85,0.94c0.4-0.08,0.79-0.19,1.2-0.29
							c0.4-0.07,0.81-0.14,1.25-0.19c0.87-0.08,1.88-0.12,3.05,0.22c-0.74,0.22-0.45,0.73-0.73,1.28c-0.33-0.86-1.79-0.37-2.85-0.91
							c0.56,0.28,0.33,0.51,0.15,0.55l2.2,0.17c-0.24,0.45,0.28,0.5,0.69,0.95c0.03-1.1,1.71,0.09,2.64,0.19
							c-0.11,0.32-0.46,0.54-1.37,0c0.69,1.19,1.93-0.43,2.61,0.77c-0.23-0.13-0.32-0.25-0.49-0.15c0.67,0.06,1.83,1.04,1.37,1.11
							l-0.22-0.13c0.35,0.25,0.81,0.54,1.3,0.83c0.48,0.31,0.97,0.67,1.46,0.96c0.97,0.58,1.9,0.95,2.26,0.73
							c-0.06,0.09-0.82,0.63-1.02,0.71c1.37-0.08,2.77-0.07,4.25-0.03c-0.71,0.35-1.15,2.29-2.48,1.64c0.22,0.36,0.54,0.74,1.3,1.19
							c-0.1-0.28,0.27-1.26,0.59-1.02c0.13,1.35,0.19,0.86,0.54,2.28c-0.16-0.41,1-0.84,1.43-0.31c-0.2,0.03-0.82,0.78-1.07,0.68
							c0.65,0.15,1.32,0.32,1.93,0.55c-0.41-0.21-0.79,0.54-0.82,1.03c0.07-0.27,0.83,1.14,1.18,1.42l-0.2-0.71
							c0.99,1.56,2.37,0.61,3.33,2.28c-0.32-0.08-1.51,0.26-1.15,1.13c0.35,0.04,1.24,0.09,2.12,0.35c0.88,0.27,1.83,0.72,2.42,1.43
							l-0.15,0.44c0.31,0.35,0.63,0.7,0.89,1.09c-0.52-0.25-1.51-0.68-2.45-1.15c-0.95-0.46-1.87-0.94-2.45-1.3
							c0.08,0.74-0.26,0.35,0.22,1.26c-0.12,0.46-0.66-0.29-0.8-0.55l0.84,2.2c0.28-0.19,0.63,0.15,0.98,0.5
							c0.31,0.36,0.59,0.75,0.84,0.6c-0.48-0.75-1.12-1.42-1.69-2.09c0.28-0.19,0.87-0.06,1.48,0.34c0.3,0.2,0.64,0.46,0.88,0.79
							c0.24,0.33,0.44,0.72,0.56,1.15c-0.1,0.51-1.23,0.11-1.43,0.23c0.29,0.12,0.97,1.37,0.87,1.57l-0.59-0.56
							c0.04,0.48,0.39,0.77,0.7,1.11c0.3,0.33,0.51,0.74,0.35,1.37c0.06,0.4-0.55,1.34-0.14,1.31c0.59-0.79,2.85-1.54,3.52-1.22
							c-0.01,0.08-0.04,0.67-0.11,1.3c-0.05,0.62-0.27,1.31-0.4,1.57c-0.49,0.77-1.56-0.74-1.98-0.08c0.18-0.01,0.46,0.31,0.56,0.45
							c-0.09,0.44-0.59-0.07-0.37,0.81c0.7,0.05,0.22,1.84,0.64,0.34c0.31,0.87,0.06,0.96,0.15,2c0.42-0.38,1.54,0.83,1.78,1.77
							c-0.18-0.05-0.39,0.17-0.49,0.27c0.01,0.47,0,0.89-0.02,1.28c-0.04,0.39-0.12,0.74-0.17,1.1c-0.12,0.7-0.24,1.39-0.28,2.26
							c-0.17,0.15-0.43,0.96-0.69,0.58c0.09,0.26,0.28,0.51,0.21,1.04c-0.74,0.94,0.09-1.18-0.73-0.49
							c0.38,0.11,0.33,1.42,0.46,2.21c0.64-0.13,0.38-1.74,0.25-2.51c0.84,0.08,1.52,1.52,1.61,3.49c-0.07,1.53-0.67,0.53-0.59,0.81
							c-0.42,1.34-0.21,2.02-0.05,2.63c0.16,0.61,0.3,1.18-0.42,2.2c-0.83,0.71-1.02-0.31-1.46-0.25c0.11-0.6,0.36-1,0.59-1.36
							c0.21-0.37,0.42-0.69,0.52-1.09l-0.5,0.91c-0.07-0.42-0.01-1.23,0.25-1.61c-0.58,0.62-1.4,4.46-2.75,6.18
							c0,0.41-0.11,1.08,0.22,0.9l0.23-0.64c0.67-0.39-0.01,1.41,0.54,0.72c-0.06,0.48-0.1,1.01-0.23,1.56
							c-0.06,0.27-0.14,0.55-0.26,0.83c-0.14,0.26-0.32,0.52-0.54,0.77l-0.66-0.1c0.17,0.07,0.76-0.55,0.78-0.95
							c-0.05,0.61-1.75,1.28-1.37,2.2l0.84-0.56c-0.24,0.94-0.24,2.36-1.16,3.18c0.82-0.09,0.11-0.25,1.19-0.54
							c-1.12,0.14,1.63-2.6,0.23-2.08c1.13-0.33,1.12-1.07,2.24-1.78c-0.19-0.06-0.52,0.19,0.01-0.68c-0.03-0.07-0.05-0.2-0.06-0.28
							c0.02-0.02,0.03-0.03,0.04-0.05l-0.05,0.04c-0.01-0.05-0.01-0.06-0.02,0.01c-0.18,0.18-0.36,0.3-0.5,0.32
							c-0.2-0.66,0.5-2.06,0.51-2.64c0.34-0.49,0.11,0.31,0.44,0.11c0.01-0.29,0.01-0.57-0.02-0.87c0.44,0.1,1.24-1.2,1,0.22
							l0.46-1.18c0.49-0.61,0.96-1.56,0.97-2.22c0.25-0.56-0.1-1.6,0.11-1l0.23-1.99l0.11,0.01c0.31-0.94,0.23-1.98,0.31-3.01
							c0.05-1.04,0.27-2.08,0.69-3.17c-0.08-0.67-0.18-1.35,0-2.44l0.4-0.21c-0.08-0.84,0.29-2.57-0.11-2.92
							c0.25-0.24,0.37-0.63,0.42-1.1c0.06-0.47,0.02-1.01-0.11-1.56c-0.22-1.1-0.55-2.25-0.58-3.02l-0.51,0.04
							c-0.16-1.02-0.59-1.94-1.09-3.11l-0.41,0.2c-0.56-0.96-0.54-2.74-1.17-4.36c0.2,0.05,0.31,0.48,0.32,0.8
							c0.06-0.57-0.05-1.11-0.25-1.61c-0.23-0.49-0.56-0.93-0.89-1.36c-0.68-0.86-1.29-1.69-1.46-2.66
							c-0.38-0.32-0.51-0.63-0.58-0.97c0.02,0.04,0.05,0.07,0.08,0.09c-0.02-0.04-0.06-0.1-0.09-0.17
							c-0.04-0.22-0.07-0.44-0.13-0.68c0.01,0.23,0.03,0.43,0.08,0.59c-0.19-0.3-0.53-0.74-0.9-1.13l0.28-0.46
							c-0.03-0.03-0.05-0.06-0.08-0.1c-0.13-0.55-0.41-0.23-0.57,0.21c-0.2-0.19-0.44-0.32-0.64-0.41c0.38-0.79-1.04-0.95-0.72-1.91
							c-0.27-0.02-0.73-0.51-1.22-0.95c-0.54-0.4-1.11-0.75-1.52-0.57c0.07-0.09,0.01-0.24,0.2-0.03c-0.32-0.49-0.64-0.99-1.16-1.21
							l0.27-0.61c-0.48-0.13-0.97-0.24-1.48-0.32c-0.31-0.78-0.41-1.17,0.49-0.98c-1.88-0.72-1.31-0.84-2.95-1.33l0.31-0.26
							c-0.46-0.33-1.51-0.45-1.58-0.91c-0.51-1.47-5.08-3.6-7.8-5.5c0.05,0.68-0.23,0.38-0.6,0.04c-0.38-0.31-0.85-0.7-1.07-0.3
							c-0.08-0.32-0.46-0.63,0.13-0.67c-1.67-0.31-2.24-1.35-3.6-0.87c-0.11-0.31,0.46-0.3,0.34-0.5c-0.15,0.02-0.59,0.1-0.71-0.11
							c-0.12-0.2,0.3-0.16,0.6-0.21c-1.71-0.4-2.07,0.39-2.37,1.14c-0.37-0.29-0.66-0.45-0.95-0.49c-0.29-0.01-0.58,0.09-0.93,0.3
							c-0.24-0.3-0.69-0.65,0.37-0.58c-0.57-0.12-3.54-0.95-3.66-0.28c-0.17-0.17-0.82-0.09-0.98-0.02
							c-1.32-0.11-1.43-0.17-2.73-0.17l0.36,0.12c-0.52,0.72-1.07,0.17-2.11,0.31l0.03-0.08c-1.2-0.22-1.46-0.14-1.71-0.07
							c-0.25,0.1-0.49,0.06-1.7-0.05l0.18,0.46c-0.08,1.06-2.13-0.29-3.44,0.32c0.18,0.06,0.36,0.13,0.54,0.19
							c-0.65,0.44-2.33-0.88-3.13-0.82c-0.19-0.04,0.22-0.21,0.43-0.33c-2.13-0.08-0.1,0.67-1.5,1.19c-0.36-0.24,0.09-0.94-0.9-0.69
							c-0.28-0.04-0.9,0.47-1.61,0.98c-0.71,0.53-1.55,0.95-2.29,0.99c0.38,0.11,0.75,0.22,0.21,0.7c-0.88,0.55-3.05,0.33-3.48,1.55
							c-0.15,0.01-0.23-0.03-0.26-0.08c-0.59,0.61-2.07,1.67-2.23,2.29c-0.77-0.5-1.67,0.45-2.46,1.31
							c-0.82,0.84-1.42,1.73-1.92,1.15l-1.79,1.74l-0.06-0.16c-1.23,1.03-1.29,1.76-1.4,2.4c-0.32,0.2-0.25-0.09-0.29-0.17
							c-1.81,1.48-1.84,1.82-2.4,3.79l-0.52-0.13c-0.04,0.29-0.72,0.84-1.37,1.67c-0.34,0.41-0.71,0.88-1.03,1.38
							c-0.32,0.5-0.61,1.04-0.71,1.63c-0.04-0.05-0.1-0.13-0.09-0.33c-0.28,1.3-1.33,2.5-1.99,3.69c-0.64,1.19-1.08,2.28-0.38,2.99
							c-0.08,0.57-0.03,1.16-0.04,1.74c0.67-2.04,0.67,0.52,1.18-0.24c-0.1,0.82-1.06,1.94-0.9,0.92l0.13-0.13
							c-0.8-0.61-1.01,2.5-1.58,2.32c-0.78,4.21-1.37,8.41-1.04,12.48c0.22-0.18,0.43-0.36,0.67-0.54c0.03,0.46,0.1,0.92,0.15,1.39
							c-0.11,0.38-0.49,0.57-0.61-0.43c-0.33,0.58,0.6,1.63,0.76,1.62c0.01,1.99-0.96-0.62-0.88-0.02l0.18,0.81l0.06-0.2
							c0.42,0.6,0.65,0.62,0.94,1.78c0.05,0.77-0.34,0.48-0.29,0.78c-0.05,0.01-0.05,0.12,0.1,0.46l0.39,1.75l0.38-0.85
							c0.46,0.68,0.41,1.6,0.81,0.64C4.55,55.93,5.06,57.5,5.6,59c0.62,1.46,1.41,2.78,1.41,3.19c0.21,0.2,0.4,0.41,0.57,0.63
							c0.19,0.21,0.37,0.43,0.53,0.66c0.33,0.47,0.63,0.99,0.96,1.57c-0.07-0.35,0.38-0.85,0.9,0.15c-0.66,0.18-0.55,0.73-0.21,1.35
							c0.34,0.62,0.81,1.34,0.71,2.01c0-0.53,0.53,0.11,1.04,0.67c0.52,0.56,1.11,0.98,1,0.21c0.56,0.78-0.34,0.37-0.09,1.12
							c0.49,0.34,0.92,0.76,1.34,1.23c0.2,0.24,0.41,0.48,0.62,0.73c0.22,0.24,0.45,0.48,0.67,0.73c0.92,0.98,1.8,2.13,3.04,2.88
							c0.14-0.11-0.07-0.61,0.57-0.45l0.68,1.61c0.52,0.25,0.96-0.48,1.51,0.55c-0.04-0.2-0.1-0.5,0.25-0.35
							c2.1,1.85,4.74,3.07,7.42,4c1.36,0.44,2.68,0.98,4.05,1.37c0.68,0.22,1.35,0.47,2.02,0.76c0.67,0.3,1.35,0.5,2.03,0.83
							c-0.71-0.45-0.19-0.41,0.39-0.33c-0.37-0.14,0.08-0.43,0.04-0.67c0.74,0.33,1.49,0.7,2.26,0.99c0.49-0.64,2.55,0.09,2.82-0.53
							l-0.75,0.08c1-0.7-1.27-1.73-1.04-2.67c-0.27,0.2-0.58,0.21-0.91,0.14c-0.32-0.1-0.67-0.31-1.03-0.49
							c-0.72-0.38-1.5-0.73-2.45-0.26c-0.33-0.25,0.37-0.26,0.22-0.5c-0.5,0.36-1.02,0.29-1.91-0.13l0.13-0.07
							c-1.31-0.3-2.24-0.55-3.12-1.05c-0.44-0.23-0.9-0.47-1.41-0.74c-0.51-0.27-1.08-0.53-1.71-0.94l0.01,0.53
							c-0.56-0.34-0.61-0.53-0.83-0.77c-0.98,0.33,1.61,0.82,0.68,1.25c-0.2-0.63-1.21-1.13-2.2-1.62
							c-0.97-0.52-1.84-1.16-1.81-1.76c-0.84-0.51-0.04,0.62-0.88,0.1l-0.06-0.38l-0.42,0.19c-0.53-0.38-0.55-0.93-0.43-1.13
							c0.11,0.12,0.39,0.21,0.54,0.29c-0.46-0.78-1.94-1.3-2.1-1.57l0.64,0.71c-0.57-0.35-1.18-0.73-1.73-1.19
							c-0.54-0.48-1.09-0.98-1.64-1.47c-0.28-0.24-0.56-0.49-0.83-0.73c-0.25-0.26-0.51-0.52-0.77-0.77
							c-0.52-0.49-1.05-0.95-1.61-1.33l-0.04,0.29c-0.43-0.3-0.67-0.55-0.83-0.78c-0.17-0.23-0.26-0.42-0.35-0.61
							c-0.19-0.4-0.36-0.83-1.1-1.65l0.09,0.03c-0.47-0.21-0.85-0.67-1.15-1.2c0.51,0.33-0.11-1.16,0.51-0.69
							c-1.49-1.62-0.88-0.7-2.3-1.58l0.18-0.47c-0.51-0.29-0.69-0.25-1.26-1.22c0.69,0.69,0.2-0.88,1.03-0.14
							c-0.07-0.6-0.24-1.07-0.45-1.46c-0.19-0.4-0.39-0.73-0.59-1.03c-0.39-0.6-0.68-1.08-0.3-1.76c-1.34-0.67,0.15,2.06-0.26,1.58
							c-0.14,0.6-1.03-0.57-1.19-1.3c-0.27-0.72,0.89-1.62,0.4-3.37c0.04,0.18,0.12,0.17,0.16,0.35c0.04-0.36-0.13-0.67-0.28-1
							c-0.17-0.33-0.3-0.69-0.14-1.15c-0.68-0.36-0.13-1.09-0.93-1.1l0.44,1.66c-0.35-0.9-1.4-1.69-1.2-3.36
							c0.18,0.11,0.46,0.56,0.63,0.87c0.17-0.49-0.32-0.87-0.1-1.38c0.75,0.06,0.47,2.03,1.21,2.95c0.26-0.53-0.86-1.82,0.07-1.44
							c-0.6-0.29-0.63-0.74-0.64-1.26c0.03-0.52,0.11-1.1-0.34-1.7l0.48,0.05c-0.08-0.19-0.33-0.59-0.34-0.95l0.65,0.62
							c-0.57-0.98,0.32-1.92,0.13-2.85c-0.05,0.99-0.19,1.1-0.37,1.07c-0.19-0.03-0.43-0.21-0.58,0.22
							c-0.56-2.52,1.29-1.41,1.21-4.13c0.02,0.37-0.36,1.37-0.56,0.77c0.1-0.52,0.39-1.19,0.69-1.47c0.18-1.8-0.53,0.21-0.7-0.59
							c0.67-0.54-0.1-0.92-0.15-1.77l0.48,0.08c0.14-0.51,0.18-0.8,0.17-0.99c-0.03-0.19-0.13-0.28-0.24-0.36
							c-0.21-0.16-0.42-0.3,0.01-1.19l0.45,0.94l0.08-1l0.48,0.33c-0.06-0.56-0.05-0.93,0.03-1.26c0.08-0.34,0.22-0.66,0.49-1.12
							c-0.41,0.12-0.78-0.4-0.47-1.3c0.49-0.5,0.31,0.49,0.7-0.78c0.18,0.39,0.42,0.82-0.19,1.21c0.13,0.11,0.18,0.37,0.31,0.48
							c0.54-0.52,0.65-1.56,0.81-2.01c-0.08,0.16-0.18,0.36-0.28,0.44c0.01-0.34,0-0.68,0.02-1.02l0.11-1
							c0.3-0.2,0.32,0.08,0.35,0.35c0.12-0.37,0.04-0.7,0.25-1.23c0.29,0.3,0.67,0.45,0.49,1.24l0.39-1.8
							c0.2-0.04,0.82-0.6,0.84-0.32c0.72-0.7,0.58-2.47,1.58-3.41c-0.02-0.1,0-0.25,0.12-0.51c0.41-0.47,0.88-0.86,1.29-1.31
							c0.21-0.22,0.4-0.47,0.58-0.74c0.2-0.26,0.38-0.56,0.52-0.92l1.08-0.14c0.65-0.96-1.42,0.24-0.31-1.37
							c0.77-1.17,0.77,0.04,1.24-0.16c0.24-0.69,0.65-2.04,1.95-2.45C19.56,15.67,19.25,15.81,19,16.12z M31.1,8.64
							c-0.23,0.19-0.64,0.67-0.93,0.48C30.27,8.49,30.6,8.65,31.1,8.64z M52.9,6.65c-0.25,0.1-0.54-0.06-0.86-0.33
							C52.3,6.35,52.6,6.44,52.9,6.65z M82.47,57.03c0-0.02-0.01-0.03-0.01-0.04C82.87,56.4,82.72,56.61,82.47,57.03z M81.77,58.32
							c0.01,0.16,0.08,0.18,0.16,0.14c-0.08-0.14,0.03-0.45,0.18-0.78C81.97,57.73,81.82,57.87,81.77,58.32z M3.42,53.34l0.05-0.3
							C3.77,53.61,3.6,53.47,3.42,53.34z"/>
						<path fill="#C6C6C5" d="M50.29,6.71c-0.06-0.09-0.07-0.18-0.07-0.28C50.09,6.5,50.07,6.59,50.29,6.71z"/>
						<path fill="#C6C6C5" d="M13.32,22.87l-0.03,0.03c0.01,0.04,0.03,0.06,0.05,0.08L13.32,22.87z"/>
						<path fill="#C6C6C5" d="M79.88,37.08c0.03-0.28,0.09-0.44,0.17-0.56C79.93,36.53,79.85,36.67,79.88,37.08z"/>
						<path fill="#C6C6C5" d="M79.07,65.57l0.38-0.87c-0.22,0.4-0.39,0.48-0.57,0.64C78.99,65.39,79.22,65.32,79.07,65.57z"/>
						<path fill="#C6C6C5" d="M71.95,70.03c-0.04,0.13-0.18,0.2-0.22,0.34l0.19,0.13C72.28,70.08,72.4,69.68,71.95,70.03z"/>
						<path fill="#C6C6C5" d="M77.28,65.45c-0.39-0.17-0.52,0.42-0.86,0.95c0.02-0.03,0.04-0.06,0.07-0.09
							C76.84,66.79,77.1,66.13,77.28,65.45z"/>
						<path fill="#C6C6C5" d="M76.34,66.52c-0.1,0.17-0.21,0.33-0.34,0.47C76.14,67.19,76.18,66.84,76.34,66.52z"/>
						<path fill="#C6C6C5" d="M81.34,60.12c-0.23,0.24,0.39,0.39,0.16,0.48C81.84,61.12,81.81,58.48,81.34,60.12z"/>
						<polygon fill="#C6C6C5" points="75.9,65.14 76.43,65.23 76.27,64.71 						"/>
						<path fill="#C6C6C5" d="M78.63,61.11l-0.55,0.83c0.08,0.03,0.07,0.16,0.04,0.32C78.39,61.71,78.77,61.15,78.63,61.11z"/>
						<path fill="#C6C6C5" d="M78.11,62.25c-0.16,0.28-0.32,0.53-0.33,0.73C77.86,62.83,78.05,62.51,78.11,62.25z"/>
						<polygon fill="#C6C6C5" points="76.46,63.92 76.7,63.73 77.09,63.15 						"/>
						<path fill="#C6C6C5" d="M82.16,51.1L82.18,50c-0.15-0.14-0.3,0.14-0.29,0.54C81.97,50.82,81.97,51.23,82.16,51.1z"/>
						<path fill="#C6C6C5" d="M80.06,53.9c0.17-0.25,0.28-0.23,0.48-0.35l-0.59-0.19L80.06,53.9z"/>
						<path fill="#C6C6C5" d="M80.66,50.92c-0.15-0.14-0.26-1.57-0.42-0.28C80.4,50.78,80.34,51.83,80.66,50.92z"/>
						<polygon fill="#C6C6C5" points="81.26,35.17 81.33,35.43 82.32,35.18 						"/>
						<path fill="#C6C6C5" d="M73.77,23.58c0.41,1.14,0.68-0.1,0.98,0.98c0.35,0.12-0.25-0.88,0.08-0.75
							C74.24,23.33,74.16,22.93,73.77,23.58z"/>
						<path fill="#C6C6C5" d="M74.83,23.81c0.09,0.08,0.2,0.16,0.32,0.24C74.99,23.9,74.9,23.84,74.83,23.81z"/>
						<polygon fill="#C6C6C5" points="40.9,85 41.75,85.26 41.21,84.89 						"/>
						<path fill="#C6C6C5" d="M42.57,84.33l0.19,0.66l0.52-0.56C43.09,84.44,42.71,84.48,42.57,84.33z"/>
						<path fill="#C6C6C5" d="M33.49,9.24l0.01-0.16c-0.16-0.13-0.33-0.1-0.68-0.04L33.49,9.24z"/>
						<polygon fill="#C6C6C5" points="24.08,12.93 24.24,12.85 23.64,12.52 						"/>
						<path fill="#C6C6C5" d="M17.96,18.81c0.24-0.25,0.44-0.61,0.72-0.82C18.19,18.55,17.38,18.38,17.96,18.81z"/>
					</g>
				</g>
			</g>
		</g>
	</g>
</g>
</svg>
