<svg xmlns="http://www.w3.org/2000/svg" xmlns:xlink="http://www.w3.org/1999/xlink" viewBox="0 0 221 221">
  <defs>
    <path id="reuse-0" fill="#fff" d="M97.627 118.594c2.022-2.436 3.95-4.842 5.964-7.174 8.056-9.326 16.802-17.914 26.89-25.072 1.5-1.064 2.996-1.684 4.87-1.522 1.584.136 3.192.026 4.788.032.766.002 1.372.278 1.672 1.038.3.764.026 1.37-.54 1.886-9.292 8.482-16.918 18.374-24.166 28.58a351.355 351.355 0 0 0-3.799 5.458l-.026.366-.067-.23a362.345 362.345 0 0 0-13.542 21.468c-.994 1.706-2.298 1.726-3.32.062-5.448-8.882-11.58-17.296-17.654-25.752-.264-.367-.53-.73-.798-1.095-.59.108-1.583-.926-1.803-.508-.07-.522.276-.358-.27-1.39-.226-.358-.378-.15-.442.222-.06.364.038.874.018 1.038-.674-.82-.744-.88-.95-.88.264-.466.772-.808 1.238-.892.44-.081.767.022.974.31-.058-.495.172-.946.705-1.48a697.332 697.332 0 0 1 3.87-3.821c.948-.932 1.538-.986 2.642-.218 4.328 3.014 8.65 6.034 12.974 9.052.242.168.49.33.772.522zm-20.502-3.026c-.229-.326-.375-.615-.436-.889-.138.459.202.866.566 1.072l-.13-.183zm22.118.631c-.08.052-.23.437-.436.254zm.004-.002-.004.002a.046.046 0 0 1 .004-.002zm-5.663-1.899.802.05-.156.098zm-.557-1.024-.566.298-.038-.222c-.574-.7-1.928-.646-1.996-1.55.498.584 1.724.978 2.6 1.474zm-3.633-3.928c-.996-.506-.426-.066-.458-.42.191.156.307.238.395.292-.186-.406.423.267.002.001l.061.127zm-1.726-1.76c-.22-.01.26.364.32.602l-.626-.138c-.234-.48-.302-.722.306-.464zm-.371.817c-.32.286-.254.056-.298-.11l.666.196c-.302-.03-.482.086-.368-.086zm.67.424c.253.36.607.72-.015.584zm2.713 3.996-.433-.014-.304-.462c.064-.224.52.468.737.476zm0 0zm-6.104-6.629a6.44 6.44 0 0 0-.704-.104c-.034-.222-.394-.584-.324-.718.038.226.714.532 1.028.822zm-1.734-.06a4.551 4.551 0 0 1 1.03-.044zm3.325 2.655 1.324.26-1.136-.138zm-6.85-1.822c.152-.364.273-.748.472-1.126-.108.215-.16.44-.242.652zm.514-1.206zm-3.53 3.852c.209-.512.475-1.118.965-1.676-.214.456.642-.124.516.398-.698.372-1.172.8-1.48 1.278zm0 0c-.126.306-.232.58-.37.812zm4.454-3.053a4.548 4.548 0 0 0-.51-.192c.568-.238.778-.038.872.012-.126.06-.254.118-.362.18zm-.605.394c.117-.098.32-.241.606-.394l.016.006c-.32.163-.514.298-.622.388zm-.074.066zm.074-.066zm4.186 1.116c-.67-.85.214-.608.588-.608zm-1.47-1.77c-.287.096-.09.276-.071.39a2.64 2.64 0 0 0-1.018.012 2.901 2.901 0 0 1 1.09-.402zm-1.45.496c.12-.036.236-.072.36-.094-.15.092-.292.198-.426.314zm-3.499 2.684a11.95 11.95 0 0 1-1.28 1.098c.346-.384.66-.716.836-1.144.424-.444.408-.098.444.046zm-3.545 5.625.08.016-.058.094zm3.546-5.624c.245-.25.461-.502.657-.756.064-.191.126-.395.248-.6.05.008.114.008.166-.006a5.13 5.13 0 0 1-.414.607c-.092.27-.196.515-.54.745-.08.108-.101.076-.117.01zm-2.14 1.687c-.25.154-.5.3-.744.422zm1.596 4.787.065.051a58.249 58.249 0 0 1-.041-.056.094.094 0 0 0-.024.005zm-2.724-2.97a3.274 3.274 0 0 0-.278 2.12c-.128-.046-.374-.162-.55-.97.37-.694.676-.982.962-1.404-.05.134-.096.268-.134.404zm.135-.252c.242-.682.678-1.074 1.046-1.582l.008-.002c.02.012.026.032.04.048-.08.146-.382.478.082.138a.326.326 0 0 0-.082-.138l.02-.032c.094-.05.046-.048-.06-.016l-.002-.006-.006.008-.054.018c.29-.182.578-.38.86-.59a6.796 6.796 0 0 0-.622.772c1.14-.8-.2 1 .968-.304-.306.556.2.5-.5 1.234-.808.172-.372-.508-.52-.944-.58.62-.932.99-1.178 1.396zm8.668-4.141c-.036-.06-.03-.09-.03-.122zm-1.392-1.412c.218.13.956.41 1.389.808l.112-.014c.6.546.048.468-.138.494-.002-.15.3-.096.026-.36-.34-.19-.444-.03-.55.008-.382-.426-.602-.634-.839-.936zm-.053-.07.053.07c-.055-.033-.077-.056-.053-.07zm-2.728 2.86.162.143-.714.202.838-1.118c.026.208.296.314-.286.772zm-4.575 6.157a5.275 5.275 0 0 1-.998-.89l.522.192c.134.246.298.484.476.698zm.77 1.642-.542-.386.416-.076zm26.082 27.144.388.196c.318.316-.6.566-1.19.782.244-.182.522-.474.802-.978zm-16.308-13.45a3.56 3.56 0 0 1-.402-1.03zm42.812-26.472c.078.056.092.18.024.392zm-42.813 26.47c.198.33.426.557.664.775.014.084.038.158.046.244-.486-.174-.642-.598-.71-1.018zm13.597-17.308c.07-.126.218-.306.354-.478zm-19.03 6.504a.27.27 0 0 1-.246.018zm-.71 2.194a2.185 2.185 0 0 1-.137-.41zm-.293-.292c.01.017.019.036.028.055zm-.102-.199.102.199-.102-.199zm.395.492c.07.152.154.304.268.45l-.282-.352c-.068-.014-.21-.245 0 0 .022.006.028-.03.014-.098z"/>
  </defs>
  <path fill="#ee3c6e" d="M180.355 110.745c0 38.564-31.262 69.826-69.826 69.826-38.564 0-69.826-31.262-69.826-69.826 0-4.84.493-9.565 1.43-14.127-.07-.263-.12-.51-.185-.743l.262.376c6.672-31.608 34.725-55.332 68.32-55.332 15.44 0 29.71 5.012 41.272 13.497.946-.602 3.34.624 3.25-.511.57 1.006-.094 1.188 1.786 2.336 1.506.396-.406-2.154-.674-2.788 1.658.636 1.818.458 2.088.212l-.008-.218.128.128-.12.09c.145 1.984-.73 4.431-2.126 4.195 14.838 12.805 24.23 31.748 24.23 52.885zm5.773-.006c-.18-.089-.97.135-.93-.541zm.01.007-.01-.007a.091.091 0 0 1 .01.007zm-4.534-12.96 1.076 1.483-.368-.142zm.65-2.368-1.33-.566.242-.366c.022-1.936-2.244-4.164-1.148-5.516.042 1.64 1.488 4.27 2.236 6.448zm-.973-11.486c-1.18-2.326-.696-.788-.304-1.33.152.53.262.834.352 1.05.176-.867.431 1.062 0 .001-.018.088-.036.136-.048.28zm-1.118-5.167c-.432-.354.086.898-.08 1.314l-1.102-1.152c.11-1.016.26-1.456 1.182-.162zm-1.743.546c-.996-.102-.584-.314-.47-.608l1.11 1.288c-.574-.506-1.082-.622-.64-.68zm.842 1.605c.098.87.264 1.95-.738.772zm-.218 9.887-.688-.75c.06-.386.064-.758.074-1.132.442-.208.3 1.5.614 1.882zm-3.72-18.551-.871-.762c.276-.298.392-1.078.698-1.16-.342.306.058 1.33.174 1.922zm.333 5.864 2.374 2.37-2.14-1.92zm-4.825-13.447 1.866.722-1.136-.346zm-3.918-5.492c.928.352 1.974.76 2.838 1.564-.776-.326.04 1.182-.878 1.03-.504-1.268-1.14-2.066-1.96-2.594zm0-.001c-.555-.214-1.063-.402-1.479-.65zm4.446 8.262.304-1.018c.394.866.146 1.336.07 1.544l-.374-.526zm-.796-1.145.794 1.146-.008.034-.786-1.18zm1.265 1.803c-.036-.048-.06-.084-.094-.132zm.791 6.37c-.35-1.978 1.096-.584 2.008 0zm.285-3.89c-.444-.276-.558.17-.732.32-.25-.516-.462-1.06-.75-1.556.528.384.984.822 1.482 1.236zm-1.802-1.786.32.55-.724-.518zm-6.262-9.04c.67.645 1.244 1.23 2.03 1.543.742.773.088.768-.207.844.432.466.867.865 1.309 1.225-.488-.148-.944-.34-1.318-.998-.192-.15-.125-.194.006-.228a18.466 18.466 0 0 1-1.82-2.387zm4.14 4.453c.034.025.069.05.1.075zm-.038-.03.039.03a5.7 5.7 0 0 1-.04-.03zm-5.58-7.23c.187.39.385.811.593 1.251zm5.611 6.881c.034.022.066.038.098.066zm-.032.35a7.3 7.3 0 0 1-.97-.812c.33.12.674.23 1.002.462-.024.106-.04.238-.032.35zm-15.146-8.239c.675.534 1.34 1.08 1.996 1.639a2.782 2.782 0 0 0-1.996-1.639zm7.079.059-2.502-2.42c.23-.146.598-.212 1.734.296.386 1.188.596 1.808 1.098 2.45l-.588-.402zm.33.327c.913.654 1.911 1.232 2.765 1.968v.016c-.036.03-.082.04-.12.06-.276-.154-.86-.724-.332.116a.824.824 0 0 0 .332-.116c.016.012.046.038.06.04.066.164.08.082.06-.1l.012-.006-.012-.01c-.006-.032-.008-.058-.014-.094.258.518.556 1.036.886 1.554-.404-.388-.834-.794-1.38-1.176 1.264 2.112-2.1-.55.274 1.74-1.108-.622-1.11.222-2.594-1.132-.112-1.336 1.414-.532 2.372-.696-1.166-1.056-1.882-1.586-2.31-2.164zm8.942 17.645c.014-.124.068-.152.118-.192zm.58-3.698c-.094.522-.036 1.988.288 2.97l.218.132c.386 1.442-.542.666-.968.404.222-.178.694.302.576-.392-.318-.694-.71-.674-.93-.806.18-1.045.433-1.633.815-2.308zm.108-.188a7.518 7.518 0 0 0-.109.188c.026-.143.063-.215.109-.188zm-5.35-5.204-.298.338-.348-1.494c.706.576 1.446 1.13 2.07 1.786-.398.074-.584.648-1.424-.63zm-8.435-12.435c.688 0 1.424-.044 2.09.012l-.86.45zm-2.23-2.394 1.062.198-.584.552zm-85.417-1.91-.794-.53c-.62-.664 1.184-.426 2.594-.418-.564.124-1.168.38-1.8.948zm49.241-12.039c.712.148 1.516.414 2.488.904zM46.285 146.91c-.162.106-.426.012-.822-.34zm72.36-110.81c-.912-.19-1.694-.053-2.458.033-.18-.082-.356-.136-.532-.232 1.056-.53 2.116-.306 2.99.198zm64.791 84.447c.004.336-.078.874-.142 1.384zM142.944 42.88c.152-.032.726.286 0 0zm1.301 4.904c.11-.168.278-.224.466-.242zm-1.203-4.705c.304.214.566.44.78.662zm1.395.596c-.17-.108-.348-.224-.574-.37zm-1.492-.796c-.05.01-.014.082.098.2a6.617 6.617 0 0 0-1.094-.626l.996.426z"/>
  <path fill="#fff" d="M128.306 97.804c1.142-.446 1.256-1.692 1.39-2.366.422-.18.546.92 1.164-.11.912-1.424-.95-.426-.4-1.284l1.014-.066c.47-1.312 1.48-1.69 2.294-2.406.13-.216.16-.354.146-.45.942-.542 1.48-2.484 1.436-2.112.09.114.468.16.676.196a.675.675 0 0 0-.177-.404c.141.127.578.247.973.39.118-.174-.088-.28-.066-.37.136.066.24.164.566.104a.807.807 0 0 0-.468-.462 1.038 1.038 0 0 0-.278.108c.096-.112-.154-.156.5-.454.284-.052.512-.042.782-.078-.902.318-.308.236.08.29.29-.38.272-.106.976-.418.258-.428-.842-.316-1.45-.026.284-.396.324-.728-.626-.472l.944-.492a2.454 2.454 0 0 0-.63.084c.412-.216.866-.42 1.348-.586-.426-.514-1.526.886-1.914.544l.506-.476c-.596.172-1.258.918-1.126.476l.016-.066c-.22.128-.218.278-.258.41-.03.122-.082.23-.21.3a.56.56 0 0 1-.17.062c.078-.248-.06-.43-.218-.528-.198.204-.036.524.05.512-.506.208-.503-1.775-1.778-.812.548.21-.05.95.884.734-.328.324-1.118-.448-1.46.326.018-.24.044-.486.082-.728-.212.08-.34.412-.412.536l-.188-.438c-.24 1.09-1.678.678-1.54 1.908-.16-.94-.594.484-1.116.464.32-.992 1.972-1.412 1.602-2.126-.462.038-.522.562-.968.596.148-.252.342-.652.332-.842-1.332.408-1.392 1.596-1.896 2.242l1.016-.984c.376.702-.43.478-.372 1.216-.812.08-.878.898-1.488 1.036.11-.081.09-.144.176-.22-1.174.91-2.293.178-2.784.536-.532.3-1.14 1.35-.61 1.35-.24.48 1.428-1.466 1.394-.114-1.422-.37-1.112 1.46-3.072 2.064.364-.858-.808-.194-.444-.916-.636.658-.544.816-.63 1.336l-.448-.1c-.346 1.408.266.732-.774 2.252.252-.618-.892.082-.728-.42-.386.314-.672.724-.79 1.13l.012-.084c-1.196 1.376-1.416.662-2.33 2.106l.272.048c-1.154 1.914-3.35 3.57-4.706 5.376l.615-.4c-.268.233-.778 1.31-1.46 1.552.083-.116.177-.358.289-.432-.196-.158-.656-.222-1.068.13l.136.414-.364-.044c-.568.596.562.2-.002.794-1.136-.402-2.502 2.498-3.684 2.39.218.946 1.122-1.086 1.248-.148-.256.108-.44.092-.844.45l.476.178c-1.854 1.674-2.79 2.12-4.134 3.906l-.02-.136c-.646.49-.856.876-.77 1.414-.274-.018.006-.53-.34-.42.034 1.86-2.466 1.574-2.364 2.776-.66-.702-2.534.122-2.618-.944l-.28.516c-.366-.55 1.142-1.4.848-2.08l1.668-.972c-.218-.108-.296-.566-.546-.394.278-.354.504-.678-.132-.446 3.96-2.316 5.754-6.714 9.342-9.268.158-.25-.12-.282-.304-.3.984-.162.292-.77.53-1.146l1.436-.228c.138-.522-.308-.444-.412-.59 1.416-1.704 3.532-2.61 4.46-4.208.628-.166.394.604 1.006.166-1.308.037 1.069-1.65.482-1.811 1.135.09 2.048-1.653 2.688-.47.714-.539.168-.919-.104-.837.8-.662 1.444-1.194 1.806-2.074.61-.144 3.37-3.255 4.755-3.096-.83-.124-.12-.3.177-.89l-.788-.114 1.122-.8c.186-.218.264-.246.296-.204.204-.118.158.298.718.058.768-.532.614-.814.848-1.364l-.166.018.48-.424c.382-.264-.986 1.448.412.778-.078-.14.2-1.284.776-1.188-.648.432-.332.7 0 .67l.904-.604-.716-.384c1.032-.756 2.57-1.624 4.276-1.858.868-.134 1.664-.092 2.672.014l2.844.13c.642.136 1.296.258 1.97.368-.312.258.376.34.89.48.478.156.846.598.29.728l-.026-.12c-.866-.272-.346.368.054.952-.098-.78 1.536.828.716-.848.446.306.788.752 1.002 1.216.462.076.71.418.712.808.002.196-.052.4-.15.602-.16.238-.366.498-.584.758l-1.408 1.578c-.65.554-1.254 1.096-1.648 1.682.088-.18.03-.258-.008-.3-.318.514-.808 1.028-1.31 1.512-.45.434-.716.604-1.082.86-.676.452-1.248.784-1.282 1.024l-.464-.23c-.468 1.588-.524 1.76-1.942 2.84-.044-.07-.012-.314-.276-.18-.012.56-.02 1.122-.892 1.948l-.084-.14-1.17 1.472c-1.164-1.006-1.366 3.052-2.99 2.438.112.572-.654 1.72-.862 2.336-.054-.036-.132-.05-.25-.014.192 1.074-1.5 1.474-1.916 2.17-.166.534.178.514.524.494-1.154.416-1.152 2.704-1.6 2.834-.502.568-.636-.126-1.032-.164-.556.99 1.22.678-.17 1.522.052-.18.202-.472.056-.424-.45.38-2.476.174-2.532.85l.446-.146c-.308 1.08-2.482 1.288-1.746 2.032l.446.202c-1.582 1.104-.3.734-1.826 1.912l-.052-.064c-.392.708-1.134.718-.73 1.486l.244-.166c-.524.852-.628.89-1.24 1.702-.008.14-.194.608-.408.632.496.4-1.1 2.108-1.386 2.46.378-.716-.064-.556-.408-.516.164.688.024.988-.658 1.32.608.526 1.234 1.108.552 2.206.012-.234.132-.532-.076-.516-.21.018-.228.368-.234.484-.208.016-.082-.4-.394-.434.146 1.148-.796 1.284-1.27 2.49.022-.468-.298-.266-.608-.298.698.578-1.608 1.02-.37 1.256-1.954 1.692-3.454 5.268-4.604 5.688-.414.048-.332.918-.548 1.292l-.304-.26c-.03 1.408-.272.944-.4 2.534-.094-.748-.408-.654-1.036-.34l.194 1.264-.622-.156c-.006.462-.314.792-.623 1.125.168.313.083.749-.04 1.17-.121.457-.453 1.17-.363 1.415-.95-.054-.59 1.468-1.442 1.256a3.64 3.64 0 0 1-.244.844c.386.076.716.316.244.654l-.078.126-.406-.238c-.286.556-.608 1.178-.872 1.358.126-.074.302-.05.476-.142-.182.166-.382.138-.548.208l-.146.102a.341.341 0 0 1 .08-.09c-.282.066-.532.202-.908.554-.86.052-2.022.206-2.912-.12-.896-.154-1.786-1.268-2.204-2.552.144.356.43.788.596.73-.296-.364-.568-.77-.812-1.172-.198-.4-.358-.798-.52-1.162-.314-.726-.63-1.378-.976-1.57l-.344.292c-.684-.686-1.2-1.22-1.596-1.872l-.446.244c-.448-1.03-2.448-2.54-1.964-3.688-.486.002-.764-1.334-1.234-1.778l.23-.352c-.36-.752-.766-1.09-1.14-1.43-.288-1.836-1.836-2.646-2.636-3.872l.084-.076-1.086-1.05c.51.114-.368-.098-.548-.518-.43-.274-.792-.956-.914-1.558l-.536-.782c.828.704.412-.386.742-.698l-.646-.282c.032-.324.514.112.33-.308-.432-.19-1.12-1.172-1.716-1.206-.056.114-.058.294-.024.492.052.024.046.026.002.018l.004.046-.018-.05a.878.878 0 0 0-.24-.03c-.36-.67-.348-.338-.496-.198.065-1.054-.536-1.205-.346-2.096-.282.885-1.118-1.656-1.532-.798.09-1.128-.324-.542-.112-1.298.582 1.214 1.566 1.446 2.25 1.872l-.072-.826c.922-.092.69 1.47 1.158 1.656-.3-.117-.517-.683-.428-.85l-.368.488c.394.968 1.256 1.344 1.922 1.752-.232-.672.782.454.844-.2l-.374-.392c.032-.326.488-.012.81.128.63 1.64 2.758 3.944 2.714 4.722-.072-.374-.554-.814-.876-.958l.256.796c-.394-.514-.246-1.246-.968-1.906-.222.358-1.056.104-1.072 1.006.564 1.838 1.696.632 2.848 2.512.216.096-.782-.008.064.826 1.168.976 2.508 1.358 3.198.872-.558-.368-1.676-1.102-1.286-1.608.56.362 1.298 1.158 1.654.976-.212.932-.846-.842-.844.188.264.348.56.368.776.466-.406-.07-.18.604-.24.804.8 1.164 1.006 2.01 1.81 3.294-.04.124-.134.39-.302.45.574.502 2.044.786 2.254.312.512.706.256.932.83 1.44-.128-1.336.042.25.68-.02.488.586-.128.402-.066.78.13.066.484.194.648.11-.176.672-1.62-.012-1.822.774-.11.526.204 2.248.22 2.374.676-.012 2.616-1.384 2.964-2.26.366-.168.034.836.178 1.138.024 1.22 1.01.652 1.118 1.29a5.31 5.31 0 0 1-.486-.094c-.036.094.102.292.272.448.164.144.304.164.4.1-.096.268-.914.706-.946 1.16.288.568.74.796 1.066.57.348-.212.57-.85.624-1.348-.27.172-.518.152-.862.048.31-.556.664.004.866-.948.062.204.208.446.406.498-.056.074-.31.23-.246.732.348.006.17.19.464.512-.136.674-.668 1.664-1.288 2.114-.598.438-1.216.422-1.7.518.33.234.624.502.93.624.034.186.078.364.126.544.646.224 1.488-.018 1.94-.984.434-1.19.368-2.41.34-2.862.302-.122.738 1.458.698 1.94.434-.572.378-1.388.286-2.014-.068-.688-.314-1.058.066-1.528-.138.062-.28.13-.404.17.04-.286.72-.958.488-1 .335.01 1.018.151 1.138.461-.105-.505-.164-1.08-.247-1.616.074.235.888.59.985.743.3-.432-.393-1.293-.732-1.183 1.091-.544.66-.515 1.794-.835.108-.308-.884-.506-1.096-.36.156-.752.482-1.052.75-1.29-.274 1.234 1.666 1.402 2.17 1.976l-1.09-3.682c.1.166.77.82.87.866-.61-.63.856-3.188 1.736-4.334l-.112.186c.09.402.956-.512.978-1.098.098.164-.008.234-.118.42 1.054-.46-.408-1.746.758-2.16-.55.702-.358 1.034-.05 1.178.134-.778 1.338-2.006.308-2.258.432-.276.556-.698.958-.386l.49-1.822c.012.168.193.428.54.032-.666.762-.423 2.084-1.256 2.166.502.36.986.228 1.16.916.81-1.772.52-3.238.606-4.652l1.326-1.162-.194-.22.756.158c-.016-.268-.056-.462.024-.46.076.004.124.102.164.23.07-.168.11-.338.096-.45.348.156.532.648.674 1.132-.198.056-.398.112-.59.164.11.478.28.882.736.632l.006-.282c.102.326.21.556.386.486l.444-1.262c-.164.066-.454.134-.79.216.07-.936.134-2.024-.676-1.696l.908-.578c.082-1.362.086-1.11.468-2.578.248.078.204.51.498.404-.058-1.308 2.218-1.524 1.774-2.112.344-.78-.298-.64-.15-1.188.05.066.148.198.248.08l-.048-.812c.298-.1-.05.68.542.23.404-1.21.608-1.948 1.41-2.626.762-1.242-1.188-.098-.38-1.028.444.102.936.266 1.44-.312.008-.498-.284-.646-.02-1.31l.486.418c.36-.528.57-1.006.958-.72.092-.582.352-.836.596-.992.318-.974-1.466-.218-1.802-.186.96-.472 1.138-1.164 2.078-1.128l-.372.774c1.712-.948.322-1.906 1.902-1.734-.418.454-.6 1.246-.098 1.174l.284-.902c.198.02-.216.472.186.27.046-.286.104-.898.078-1.21l.024.034.83-1.209c-.072.165.051.268.224.085l.394-1.036c-.076.352.284.216.666-.084 1.008-.928-.43-1.758.748-2.16-.11.108-.064.178-.174.29l.57-.234c-.974-.964 1.962-2.546 1.02-3.516.926-.232.28.176.114 1.352l.836-.374c-.18.288-.442.434-.576.792zm-3.738 4.764-.083.121a.44.44 0 0 1 .083-.12zm-14.794 21.444-.001.002v-.002zm-8.936 13.592zm-.21.382zm2.85 1.457c.093-.173-.01-.104-.11-.149a.656.656 0 0 1 .11.15zm12.032-43.61a.33.33 0 0 1 .096.012 1.069 1.069 0 0 1-.096-.013zm-2.422 8.853-.06.04a.21.21 0 0 1 .06-.04zm22.106-17.04zm.642 1.142zm-54.832 35.796c-.118-.05-.168-.006-.196.072.144-.01.294.184.426.43.058-.136.048-.302-.23-.502zm31.048-2.562c-.324.15-.542.33-.508.566zm9.778-16.012c-.332-.034-.37.532-.434.784zm-9.649 14.467a.52.52 0 0 1 .274.064zm21.697-29.444c.016.024.03.054.036.088l-.03.024zm-39.865 45.125c.066.228.062.382.032.502zm-17.048-15.792.058.055a.224.224 0 0 1-.058-.055zm.058.055c.094.058.143-.098.212-.165.038.184.022.344.24.606zm-.087-7.241.236.056c-.006.094-.134.166-.13.266-.346.352-.378.046-.106-.322zm.548 4.818c-.016-.03-.038-.054-.058-.082.408.458.756.702.462.988-.426-.266-.996-.77-.404-.906zm-.147-.185a2.552 2.552 0 0 1-.314-.432zm2.346 5.792c.12-.057.27-.126.297.012zm-.153-.006.153.006c-.1.046-.178.085-.153-.006zm-.603-5.375-.488.012.304-.434zm1.17 2.145c.102.078.2.13.262.072l.344.716c-.11.102-.338-.386-.606-.788zm-.436-.463c.148.066.296.254.436.464zm.17-.603-.291-.472-.05-.248zm6.191 8.872c.24.22.288.472.098.498l-.61-.614c.06-.202.296.018.512.116zm-.457-2.828-.522.338c.058-.202.142-.28.092-.528zm1.594 1.628c.658.864-.272.104-.462.134zm5.196 11.632.836-.584.126.178zm6.52 2.382c-.044-.328-.276.038-.32-.36.326.058-.232-.722.044-.708.432.586.306.518.276 1.068zm0 0c-.002.095-.006.199-.012.325zm-2.028-25.084-.534.106.582-.368zm-.57 1.567-.203-.676.598.296c-.184-.008-.324.248-.396.38zm23.574-10.199c-.206.232-.308.348-.504.328l-.096-.134zm5.813-6.322-.638-.146.108-.112zm3.797-6.507c-.224.216-.368.574-.594.79"/>
  <path fill="#ee3c6e" d="M220.45 110.745c0 60.706-49.215 109.918-109.92 109.918C49.822 220.663.61 171.451.61 110.745.61 50.037 49.822.825 110.53.825c60.705 0 109.92 49.212 109.92 109.92zm-16.485 0c0-44.95-31.74-82.488-74.032-91.42l-.682.332c-.128-.108-.256-.22-.378-.324.195-.049.384-.083.568-.111a93.85 93.85 0 0 0-18.912-1.915c-51.604 0-93.436 41.834-93.436 93.438s41.832 93.436 93.436 93.436c28.27 0 53.607-12.554 70.74-32.39.031-.115.077-.234.138-.357.1-.045.197-.093.292-.144a93.895 93.895 0 0 0 2.144-2.612c.196-.613.195-1.134.004-1.354.576-.428.322.514.528.616l1.086-2.306c.22.048.356.173.435.35 11.36-15.472 18.07-34.572 18.07-55.239zM38.251 62.553a13.98 13.98 0 0 1-.094-1.418zm22.866 121.644a.882.882 0 0 1-.074-.088zm.136.164-.136-.164c.05.054.102.106.136.164zm-40.67-61.657a.702.702 0 0 1 .011-.048zm-.039.162.039-.162c-.01.052-.019.108-.039.162zm150.758-77.659c.022.032.056.078.08.114-.036-.018-.068-.018-.106-.04zm.867-2.592-.866 2.592c-.636-.884-1.156-1.536-2.902-1.666 1.236-.326 2.492-.634 3.768-.926z"/>
  <use xlink:href="#reuse-0"/>
  <use xlink:href="#reuse-0"/>
</svg>
