<?xml version="1.0" encoding="utf-8"?>
<!-- Generator: Adobe Illustrator 27.4.0, SVG Export Plug-In . SVG Version: 6.00 Build 0)  -->
<svg version="1.1" id="Layer_1" xmlns="http://www.w3.org/2000/svg" xmlns:xlink="http://www.w3.org/1999/xlink" x="0px" y="0px"
	 viewBox="0 0 110.92 110.92" style="enable-background:new 0 0 110.92 110.92;" xml:space="preserve">
<style type="text/css">
	.st0{fill:#EE3C6E;}
	.st1{fill:none;}
	.st2{fill:#FFFFFF;}
</style>
<g>
	<g>
		<circle class="st0" cx="56.49" cy="55.46" r="33.52"/>
		<g>
			<g>
				<g>
					<g>
						<path class="st0" d="M92.43,55.2c-0.02,0.33,0.39,0.21,0.47,0.26C92.78,54.9,92.33,55.21,92.43,55.2z"/>
						<polygon class="st0" points="91.01,49.87 91.19,49.94 90.66,49.23 						"/>
						<path class="st0" d="M89.91,44.99c-0.55,0.66,0.57,1.72,0.55,2.65l-0.12,0.18l0.66,0.27C90.63,47.04,89.92,45.78,89.91,44.99z
							"/>
						<path class="st0" d="M90.42,41.9c-0.2,0.26-0.43-0.48,0.14,0.64c0.01-0.07,0.02-0.09,0.03-0.14
							C90.55,42.31,90.5,42.16,90.42,41.9z"/>
						<path class="st0" d="M90.59,42.41C90.8,42.92,90.68,41.99,90.59,42.41L90.59,42.41z"/>
						<path class="st0" d="M89.46,40.14l0.54,0.55c0.08-0.2-0.16-0.81,0.05-0.64C89.59,39.43,89.52,39.64,89.46,40.14z"/>
						<path class="st0" d="M88.69,39.75l0.26,0.29C88.98,39.95,88.96,39.85,88.69,39.75z"/>
						<path class="st0" d="M89.49,40.65l-0.54-0.62c-0.06,0.14-0.26,0.25,0.23,0.29C88.95,40.36,89.21,40.41,89.49,40.65z"/>
						<path class="st0" d="M89.58,41.1c0.04,0.42,0.12,0.94-0.37,0.38C89.78,42.7,90.2,42.33,89.58,41.1z"/>
						<path class="st0" d="M89.12,44.97c-0.01,0.18-0.01,0.36-0.04,0.55l0.34,0.36C89.26,45.7,89.34,44.87,89.12,44.97z"/>
						<path class="st0" d="M87.62,35.99c-0.15,0.04-0.22,0.42-0.35,0.57l0.43,0.36C87.64,36.64,87.45,36.14,87.62,35.99z"/>
						<path class="st0" d="M87.27,36.56l-0.63-0.54C86.98,36.64,87.15,36.68,87.27,36.56z"/>
						<polygon class="st0" points="87.92,39.98 88.97,40.9 87.81,39.77 						"/>
						<polygon class="st0" points="85.89,33.44 86.45,33.6 85.54,33.27 						"/>
						<path class="st0" d="M84.6,31.87c0.45,0.07,0.06-0.66,0.44-0.51c-0.42-0.39-0.93-0.58-1.38-0.74
							C84.05,30.86,84.36,31.25,84.6,31.87z"/>
						<path class="st0" d="M82.94,30.31c0.2,0.12,0.45,0.21,0.72,0.31C83.44,30.48,83.21,30.37,82.94,30.31z"/>
						<path class="st0" d="M85.95,34.87c0.04-0.1,0.17-0.33-0.02-0.75l-0.16,0.5C85.83,34.69,85.89,34.78,85.95,34.87z"/>
						<path class="st0" d="M85.77,34.63l0-0.02c-0.19-0.28-0.32-0.47-0.38-0.55C85.44,34.13,85.55,34.3,85.77,34.63z"/>
						<path class="st0" d="M86,34.93c-0.02-0.02-0.03-0.04-0.05-0.06C85.94,34.91,85.94,34.94,86,34.93z"/>
						<path class="st0" d="M87.33,38c-0.45-0.28-1.15-0.94-0.99,0.02C86.76,38.15,86.66,37.6,87.33,38z"/>
						<path class="st0" d="M85.79,35.54c0.14,0.24,0.24,0.5,0.36,0.75c0.09-0.07,0.15-0.29,0.36-0.16
							C86.27,35.93,86.04,35.72,85.79,35.54z"/>
						<polygon class="st0" points="85.43,35.29 85.79,35.54 85.63,35.27 						"/>
						<path class="st0" d="M83.62,31.65c-0.38-0.15-0.66-0.43-0.98-0.74c0.26,0.41,0.56,0.81,0.87,1.15
							C83.65,32.03,83.97,32.02,83.62,31.65z"/>
						<path class="st0" d="M84.68,33.09c-0.02-0.02-0.05-0.03-0.07-0.05C84.61,33.1,84.63,33.14,84.68,33.09z"/>
						<polygon class="st0" points="79.46,27.88 79.46,27.99 79.52,27.94 						"/>
						<path class="st0" d="M83.5,32.18c0.18,0.32,0.4,0.41,0.64,0.48c-0.21-0.17-0.42-0.36-0.63-0.59
							C83.44,32.08,83.41,32.1,83.5,32.18z"/>
						<path class="st0" d="M81.93,29.55c0.09,0.19,0.18,0.4,0.28,0.61C82.19,29.92,82.06,29.51,81.93,29.55z"/>
						<path class="st0" d="M84.63,32.87c0.02,0.01,0.03,0.02,0.05,0.03C84.68,32.75,84.65,32.79,84.63,32.87z"/>
						<path class="st0" d="M84.63,32.87c-0.16-0.11-0.33-0.16-0.49-0.22c0.16,0.15,0.32,0.29,0.47,0.39
							C84.61,32.99,84.61,32.92,84.63,32.87z"/>
						<path class="st0" d="M76.72,29.24c0.27-0.27,1.26-0.07,1.53,0.8c0.75,0.28,1.26-1.02,1.2-2.05c-0.13,0.12-0.22,0.21-1.02-0.09
							c0.12,0.31,1.04,1.55,0.3,1.37c-0.91-0.55-0.58-0.64-0.85-1.13c0.04,0.64-1.51-0.23-1.75,0.49l0.87,0.33
							C76.96,29.06,76.59,29.01,76.72,29.24z"/>
						<path class="st0" d="M80.6,29.07l0.28,0.19c-0.24-0.31-0.34-0.61-0.52-1.19c-0.55-0.24-0.73-0.2-0.85-0.13l1.2,1.17
							L80.6,29.07z"/>
						<path class="st0" d="M81.99,30.31c-0.47,0.09-1.21-0.29-1.17,0.36c0.71,0.65,0.72,0.24,1.26,0.53
							c-1.15-1.1,0.48,0.17-0.12-0.85c0.27,0.18,0.47,0.38,0.67,0.56c-0.16-0.25-0.3-0.5-0.42-0.75c0,0.02,0,0.03,0.01,0.05l0.01,0
							l-0.01,0c0.01,0.09,0,0.13-0.03,0.05c-0.01,0-0.02-0.01-0.03-0.02C82.11,30.28,82.05,30.29,81.99,30.31
							c-0.25-0.41,0.03-0.13,0.17-0.06c0.02-0.01,0.04-0.02,0.06-0.03l0-0.01c-0.41-0.35-0.9-0.63-1.34-0.94
							C81.08,29.54,81.43,29.8,81.99,30.31z"/>
						<path class="st0" d="M85.12,37.8c0.01-0.06,0.04-0.07,0.06-0.09C85.08,37.65,85.03,37.64,85.12,37.8z"/>
						<path class="st0" d="M85.01,37.13c0.11,0.06,0.3,0.05,0.45,0.38c0.05,0.34-0.18,0.11-0.29,0.2c0.21,0.12,0.66,0.49,0.48-0.2
							l-0.11-0.06c-0.19-0.6-0.17-1.59-0.06-1.53C85.26,36.28,85.12,36.57,85.01,37.13z"/>
						<path class="st0" d="M83.6,33.71c-0.3-0.31-0.66-0.58-1-0.85l0.16,0.73l0.15-0.17C83.3,34.03,83.4,33.75,83.6,33.71z"/>
						<path class="st0" d="M79.48,27.61l0.42-0.23c-0.33-0.02-0.68,0.01-1.02,0.01L79.48,27.61z"/>
						<polygon class="st0" points="78.04,26.6 78.33,26.32 77.82,26.23 						"/>
						<path class="st0" d="M29.71,71.31l0.27,0.23C29.87,71.43,29.79,71.36,29.71,71.31z"/>
						<path class="st0" d="M28.56,69.12l-0.2,0.03C28.51,69.21,28.6,69.21,28.56,69.12z"/>
						<path class="st0" d="M37.56,24.86c-0.69-0.02-1.57-0.15-1.26,0.19l0.39,0.27C36.99,25.04,37.28,24.92,37.56,24.86z"/>
						<path class="st0" d="M23.72,48.88l0.15-0.13c-0.11-0.16-0.22-0.3-0.32-0.44C23.61,48.49,23.64,48.68,23.72,48.88z"/>
						<path class="st0" d="M25.43,49.59l-0.38,0.61C25.17,50.07,25.3,49.87,25.43,49.59z"/>
						<path class="st0" d="M39.14,80.77c0.19-0.04,0.37-0.08,0.57-0.14C39.21,80.28,39.31,80.61,39.14,80.77z"/>
						<path class="st0" d="M61.59,19.96c-0.47-0.24-0.85-0.37-1.2-0.44C60.97,19.85,61.39,20.3,61.59,19.96z"/>
						<path class="st0" d="M25.17,72.7c0.19,0.17,0.32,0.21,0.4,0.16C25.39,72.69,25.24,72.61,25.17,72.7z"/>
						<path class="st0" d="M58.96,19.42c0.08,0.05,0.17,0.07,0.26,0.12c0.37-0.04,0.74-0.11,1.18-0.02
							C59.98,19.27,59.47,19.16,58.96,19.42z"/>
						<path class="st0" d="M82.23,72.82c0.04-0.02,0.06-0.05,0.1-0.07C82.29,72.71,82.26,72.76,82.23,72.82z"/>
						<path class="st0" d="M91.57,60.18c0,0.16-0.04,0.42-0.07,0.67C91.55,60.73,91.57,60.53,91.57,60.18z"/>
						<path class="st0" d="M72.1,22.78C72.45,22.92,72.17,22.76,72.1,22.78L72.1,22.78z"/>
						<path class="st0" d="M72.92,25.08c-0.09,0.01-0.17,0.04-0.23,0.12C72.77,25.13,72.84,25.09,72.92,25.08z"/>
						<path class="st0" d="M55.34,22.06h-0.03C55.41,22.14,55.4,22.12,55.34,22.06z"/>
						<path class="st0" d="M72.52,23.2c-0.1-0.11-0.23-0.22-0.37-0.32C72.2,22.94,72.31,23.04,72.52,23.2z"/>
						<path class="st0" d="M72.54,22.99c0.11,0.07,0.19,0.13,0.28,0.18C72.89,23.12,72.87,23.06,72.54,22.99z"/>
						<path class="st0" d="M71.62,22.58c0.2,0.09,0.37,0.19,0.53,0.3c-0.05-0.06-0.07-0.09-0.05-0.1
							C72,22.74,71.85,22.68,71.62,22.58z"/>
						<path class="st0" d="M60.71,87.36c0.02,0.01,0.05,0.02,0.08,0.03C61.1,87.16,60.96,87.21,60.71,87.36z"/>
						<path class="st0" d="M33.42,34.05c0.01-0.01,0-0.03,0.01-0.04c-0.01,0.01-0.03,0.02-0.04,0.03L33.42,34.05z"/>
						<path class="st0" d="M32.88,35.13c-0.08-0.72,0.17-0.89,0.51-1.09l-1.19-0.55C32.42,34.04,32.64,34.59,32.88,35.13z"/>
						<path class="st0" d="M33.3,76.02l-0.25-0.85c1.14,0.29,1.42,0.93,1.34,0.03c-0.53,0.4-1.12-0.11-1.6-0.7
							c-0.49-0.6-0.97-1.19-1.56-0.84l-0.09-0.59c0.08,0.13,0.16,0.1,0.24,0.23c-0.09-1.18-1.26-0.06-1.82-1.33
							c-0.16-0.46-0.16-0.84,0.15-0.65l-0.84-0.73c-0.13-0.28,0.11-0.32,0.25-0.05c-0.3-0.44-0.53-0.92-0.8-1.38l0.04-0.01
							c-0.29-0.11-0.81-0.44-1.06-0.62c0-0.45,0.22,0.13,0.33-0.04c-0.22-0.22-0.47-0.44-0.68-0.68c0.1-0.24,0.29-0.22,0.48-0.06
							c0.21,0.15,0.42,0.42,0.53,0.7c0.44-0.65,0.28-0.77,0.01-0.98c-0.24-0.22-0.6-0.54-0.53-1.5l0.44,0.71
							c0.54-0.77,0.06-1.26,0.21-2.26c-0.17,0.26-0.51,2.11-1.16,1.34c0.01-0.29-0.08-0.63-0.5-1.04c0.46-0.15,0.22-0.6,0.04-1.2
							l0.63-0.13c-0.34-0.6-0.65-0.47-1.03-0.79c-0.13-0.75,0.31-1,0.7-1.25c-0.08-1.2-0.66,0.97-0.99-0.42
							c0.05-0.52-0.02-0.94-0.17-1.38c-0.15-0.44-0.41-0.89-0.6-1.49c0.18-0.73,0.4,0.09,0.57-0.18l-0.54-0.59
							c0-0.16,0.16-0.11,0.24-0.09c-0.22-0.52-0.64-0.01-0.86-0.85c-0.35-0.11-0.14-0.56,0.11-1.09c0.27-0.54,0.54-1.16,0.17-1.7
							c0.19-0.25,0.39,0.15,0.64,0.08c-0.45-1.46-0.35-1.24-0.86-2.5l0.57-0.94c-0.59,0.66-1.01-0.36-1.33-1.32
							c-0.27,0.23-0.5,0.43-0.62,0.57C23.05,48.97,23,48.48,23.03,48c0.15-0.14,0.32,0.04,0.53,0.32c-0.03-0.1-0.06-0.2-0.09-0.28
							c0.36-0.43,0.65-0.09,0.91,0.32l-0.51,0.4c0.33,0.42,0.71,0.8,1.08,0.8c-0.06-0.1-0.1-0.28-0.1-0.47
							c0.09,0.11,0.17,0.18,0.24,0.15c0.08-0.03-0.06-0.2-0.16-0.44l0.77-0.14l-0.26-0.13l0.86-1.55c-0.1-0.34-0.22-0.69-0.33-1.04
							c-0.09-0.35-0.18-0.71-0.25-1.09c-0.12-0.76-0.2-1.65,0.07-2.65c0.26,0.66,0.74,0.43,1.29,0.7c-0.82,0.25-0.27,1.54-0.75,2.43
							c0.25-0.48,0.49-0.27,0.54-0.11l0.06-1.9c0.45,0.23,0.47-0.22,0.89-0.55c-1.07-0.08-0.02-1.49,0.03-2.31
							c0.32,0.12,0.55,0.43,0.09,1.2c1.11-0.53-0.52-1.72,0.58-2.26c-0.11,0.19-0.22,0.27-0.11,0.43c0.01-0.59,0.88-1.56,0.97-1.15
							l-0.11,0.19c0.22-0.3,0.47-0.68,0.71-1.1c0.26-0.41,0.57-0.83,0.8-1.25c0.48-0.83,0.76-1.65,0.53-1.99
							c0.09,0.06,0.66,0.8,0.74,0.98c-0.18-1.26-0.27-2.54-0.33-3.9c0.37,0.68,2.21,1.23,1.7,2.41c0.32-0.17,0.65-0.44,1.01-1.11
							c-0.25,0.08-1.18-0.34-0.99-0.62c1.24-0.03,0.78-0.12,2.05-0.34c-0.37,0.12-0.84-0.99-0.38-1.36c0.05,0.19,0.77,0.83,0.7,1.05
							c0.09-0.6,0.2-1.2,0.36-1.77c-0.16,0.37,0.55,0.78,0.99,0.85c-0.25-0.09,0.97-0.7,1.2-1.01l-0.62,0.14
							c1.33-0.82,0.39-2.21,1.82-3.03c-0.06,0.31,0.33,1.47,1.08,1.18c0.02-0.33,0-1.18,0.18-2.02c0.18-0.84,0.53-1.74,1.13-2.27
							l0.4,0.17c0.3-0.28,0.59-0.57,0.92-0.81c-0.19,0.5-0.53,1.44-0.89,2.33c-0.36,0.9-0.72,1.77-1,2.31
							c0.65-0.03,0.33,0.27,1.1-0.13c0.41,0.14-0.21,0.62-0.43,0.74l1.87-0.68c-0.18-0.29,0.09-0.61,0.38-0.92
							c0.3-0.28,0.62-0.54,0.48-0.79c-0.63,0.44-1.18,1.02-1.74,1.53c-0.19-0.28-0.11-0.85,0.21-1.42c0.3-0.6,0.89-1.11,1.62-1.31
							c0.45,0.12,0.16,1.22,0.27,1.41c0.09-0.28,1.14-0.89,1.32-0.78l-0.46,0.55c0.42-0.02,0.65-0.34,0.93-0.63
							c0.28-0.28,0.61-0.47,1.17-0.29c0.34-0.04,1.17,0.59,1.13,0.19c-0.69-0.61-1.42-2.88-1.17-3.54c0.07,0.01,0.58,0.07,1.13,0.16
							c0.54,0.07,1.14,0.3,1.37,0.44c0.67,0.51-0.59,1.54-0.02,1.97c-0.01-0.18,0.25-0.45,0.37-0.54c0.38,0.1-0.05,0.58,0.7,0.39
							c0.02-0.69,1.56-0.18,0.28-0.63c0.73-0.29,0.82-0.03,1.7-0.11c-0.33-0.42,0.69-1.53,1.5-1.77c-0.04,0.18,0.15,0.39,0.24,0.49
							c0.4-0.01,0.76,0.01,1.09,0.03c0.33,0.04,0.64,0.11,0.94,0.17c0.6,0.12,1.18,0.22,1.93,0.27c0.13,0.17,0.82,0.42,0.48,0.68
							c0.22-0.09,0.44-0.29,0.89-0.24c0.79,0.72-1.01-0.06-0.43,0.74c0.1-0.38,1.22-0.37,1.9-0.51c-0.09-0.63-1.48-0.34-2.14-0.2
							c0.08-0.84,1.33-1.55,3.03-1.68c1.32,0.03,0.44,0.65,0.69,0.57c1.15,0.37,1.74,0.14,2.29-0.04c0.54-0.18,1.04-0.34,1.91,0.33
							c0.59,0.79-0.32,1.02-0.28,1.45c-0.52-0.08-0.86-0.3-1.16-0.51c-0.31-0.19-0.58-0.4-0.93-0.47l0.77,0.46
							c-0.37,0.09-1.07,0.05-1.39-0.19c0.52,0.56,3.82,1.21,5.27,2.43c0.36-0.03,0.95,0.05,0.8-0.26l-0.55-0.18
							c-0.31-0.63,1.25-0.07,0.66-0.57c0.42,0.03,0.89,0.04,1.37,0.13c0.24,0.05,0.48,0.11,0.72,0.21c0.23,0.12,0.45,0.27,0.66,0.47
							l-0.13,0.64c0.07-0.17-0.45-0.7-0.81-0.7c0.55,0.01,1.04,1.6,1.89,1.18l-0.45-0.77c0.83,0.17,2.11,0.1,2.8,0.91
							c-0.03-0.77-0.22-0.09-0.42-1.1c0.06,1.06-2.25-1.41-1.86-0.09c-0.23-1.08-0.9-1.01-1.47-2.06c-0.07,0.19,0.14,0.5-0.6,0.03
							c-0.06,0.04-0.18,0.06-0.25,0.08c-0.02-0.02-0.03-0.02-0.05-0.04l0.03,0.04c-0.05,0.01-0.05,0.01,0.01,0.02
							c0.15,0.17,0.25,0.34,0.26,0.47c-0.6,0.23-1.81-0.37-2.32-0.35c-0.42-0.31,0.28-0.12,0.12-0.44
							c-0.25,0.01-0.51,0.02-0.77,0.06c0.11-0.44-1-1.16,0.24-0.99l-1.02-0.4c-0.52-0.45-1.33-0.87-1.92-0.86
							c-0.48-0.23-1.41,0.15-0.87-0.08l-1.73-0.16l0.01-0.11c-0.81-0.27-1.71-0.18-2.61-0.23c-0.9-0.03-1.8-0.22-2.74-0.64
							c-0.58,0.08-1.17,0.19-2.11,0.02l-0.18-0.4c-0.73,0.09-2.23-0.3-2.53,0.1c-0.42-0.48-1.35-0.57-2.3-0.35
							c-0.96,0.19-1.95,0.51-2.61,0.52l0.05,0.51c-0.88,0.13-1.67,0.53-2.68,0.98l0.18,0.42c-0.81,0.53-2.38,0.42-3.78,0.98
							c0.03-0.19,0.4-0.28,0.69-0.28c-0.51-0.08-0.97,0-1.4,0.17c-0.42,0.19-0.8,0.5-1.17,0.8c-0.73,0.61-1.43,1.17-2.3,1.27
							c-0.26,0.35-0.54,0.45-0.84,0.5c0.03-0.02,0.06-0.04,0.07-0.07c-0.04,0.02-0.09,0.05-0.14,0.08c-0.19,0.03-0.4,0.04-0.6,0.09
							c0.2,0,0.39,0,0.53-0.04c-0.26,0.17-0.63,0.46-0.96,0.79l-0.43-0.3c-0.03,0.02-0.05,0.04-0.08,0.07
							c-0.49,0.09-0.18,0.38,0.22,0.56c-0.16,0.18-0.26,0.4-0.33,0.58c-0.74-0.42-0.8,0.92-1.69,0.56c0,0.25-0.42,0.66-0.78,1.1
							c-0.34,0.48-0.62,0.99-0.43,1.39c-0.08-0.07-0.22-0.02-0.04-0.19c-0.43,0.26-0.87,0.53-1.04,1.01l-0.58-0.3
							c-0.09,0.44-0.16,0.89-0.19,1.36c-0.71,0.23-1.07,0.29-0.95-0.53c-0.55,1.69-0.7,1.16-1.04,2.64l-0.27-0.3
							c-0.28,0.4-0.32,1.34-0.76,1.38c-1.35,0.38-3.11,4.36-4.83,6.67c0.66-0.01,0.38,0.22,0.07,0.54
							c-0.29,0.32-0.65,0.72-0.24,0.93c-0.31,0.05-0.6,0.37-0.66-0.15c-0.23,1.46-1.22,1.92-0.71,3.12
							c-0.31,0.09-0.31-0.41-0.5-0.31c0.03,0.13,0.11,0.52-0.08,0.62c-0.2,0.1-0.17-0.27-0.23-0.53c-0.34,1.48,0.46,1.82,1.21,2.1
							c-0.27,0.31-0.42,0.56-0.45,0.81c-0.01,0.25,0.1,0.5,0.32,0.81c-0.29,0.2-0.63,0.58-0.58-0.33c-0.11,0.49-0.87,3.05-0.2,3.16
							c-0.17,0.14-0.08,0.7-0.02,0.84c-0.1,1.13-0.16,1.23-0.15,2.35l0.12-0.31c0.73,0.44,0.17,0.92,0.3,1.81l-0.08-0.02
							c-0.23,1.04-0.15,1.26-0.08,1.47c0.09,0.21,0.07,0.42-0.07,1.47l0.46-0.17c1.05,0.05-0.34,1.85,0.24,2.96l0.2-0.47
							c0.43,0.54-0.95,2.04-0.92,2.75c-0.05,0.16-0.2-0.19-0.31-0.37c-0.15,1.86,0.66,0.06,1.13,1.27
							c-0.25,0.33-0.93-0.05-0.72,0.82c-0.09,0.52,1.87,2.04,1.75,3.35c0.13-0.34,0.26-0.67,0.69-0.22
							c0.48,0.75,0.16,2.69,1.31,3.01c0,0.13-0.04,0.21-0.09,0.24c0.55,0.5,1.48,1.76,2.07,1.86c-0.52,0.73,0.32,1.49,1.08,2.15
							c0.75,0.68,1.54,1.19,0.96,1.68l1.51,1.53l-0.15,0.07c0.88,1.07,1.54,1.09,2.13,1.15c0.16,0.29-0.1,0.24-0.18,0.28
							c1.25,1.6,1.55,1.61,3.31,2.01l-0.15,0.51c0.26,0.02,0.72,0.62,1.43,1.21c0.71,0.59,1.57,1.34,2.6,1.5
							c-0.04,0.04-0.12,0.11-0.3,0.1c1.14,0.21,2.15,1.15,3.18,1.74c1.02,0.58,1.96,0.96,2.62,0.24c0.49,0.05,1.02-0.02,1.51-0.03
							c-1.75-0.6,0.48-0.68-0.17-1.16c0.71,0.07,1.64,0.98,0.77,0.86l-0.11-0.12c-0.56,0.82,2.13,0.92,1.97,1.49
							c3.62,0.66,7.24,1.24,10.77,0.97c-0.16-0.22-0.32-0.44-0.47-0.68c0.4-0.02,0.8-0.08,1.19-0.13c0.33,0.12,0.5,0.5-0.36,0.6
							c0.51,0.34,1.4-0.56,1.39-0.72c1.72,0.04-0.52,0.94,0,0.88l0.7-0.16l-0.17-0.06c0.52-0.41,0.52-0.65,1.53-0.88
							c0.67-0.02,0.43,0.36,0.69,0.32c0.01,0.05,0.1,0.05,0.39-0.08l1.51-0.33l-0.76-0.4c0.58-0.43,1.38-0.34,0.52-0.78
							c0.63,0.35,1.99-0.08,3.28-0.54c1.26-0.53,2.39-1.22,2.75-1.2c0.68-0.75,1.42-1.29,2.44-1.82c-0.31,0.05-0.79-0.42,0.08-0.85
							c0.21,0.64,0.69,0.57,1.23,0.29c0.54-0.28,1.17-0.68,1.78-0.54c-0.48-0.04,0.06-0.5,0.54-0.95c0.48-0.46,0.83-0.97,0.13-0.93
							c0.68-0.47,0.36,0.35,1.04,0.16c0.55-0.88,1.47-1.48,2.31-2.28c0.85-0.78,1.87-1.53,2.51-2.61c-0.12-0.14-0.57,0.02-0.47-0.55
							l1.48-0.52c0.21-0.46-0.53-0.91,0.43-1.33c-0.19,0.03-0.47,0.06-0.35-0.25c1.64-1.78,2.67-4.07,3.46-6.39
							c0.38-1.17,0.83-2.31,1.18-3.49c0.2-0.58,0.42-1.16,0.69-1.73c0.27-0.57,0.47-1.16,0.77-1.74c-0.44,0.61-0.4,0.16-0.34-0.34
							c-0.13,0.31-0.43-0.07-0.67-0.05c0.31-0.63,0.66-1.27,0.94-1.93c-0.64-0.43,0.07-2.2-0.55-2.43l0.08,0.64
							c-0.7-0.86-1.72,1.08-2.66,0.87c0.2,0.24,0.22,0.5,0.14,0.78c-0.09,0.28-0.29,0.56-0.47,0.87c-0.37,0.61-0.69,1.26-0.2,2.09
							c-0.24,0.28-0.26-0.33-0.51-0.2c0.37,0.44,0.32,0.89-0.06,1.63l-0.08-0.11c-0.25,1.11-0.47,1.9-0.91,2.64
							c-0.21,0.37-0.42,0.75-0.65,1.18c-0.24,0.43-0.47,0.91-0.83,1.44l0.51,0.02c-0.3,0.47-0.48,0.51-0.7,0.69
							c0.38,0.87,0.7-1.37,1.18-0.53c-0.6,0.14-1.02,1-1.45,1.84c-0.44,0.83-0.99,1.56-1.57,1.49c-0.44,0.71,0.59,0.08,0.15,0.79
							l-0.36,0.03l0.21,0.39c-0.33,0.45-0.84,0.43-1.05,0.31c0.1-0.09,0.17-0.34,0.23-0.46c-0.71,0.36-1.09,1.65-1.33,1.78
							l0.62-0.53c-0.29,0.49-0.6,1.01-0.99,1.48c-0.41,0.46-0.83,0.93-1.25,1.39l-0.61,0.71c-0.22,0.22-0.44,0.43-0.64,0.66
							c-0.41,0.45-0.79,0.91-1.1,1.4l0.27,0.06c-1.05,1.42-1.23,0.65-2.6,1.94l0.02-0.08c-0.16,0.42-0.54,0.76-1,1.01
							c0.26-0.46-1.03,0.03-0.65-0.54c-1.34,1.32-0.57,0.79-1.25,2.11l-0.43-0.2c-0.22,0.48-0.18,0.65-1,1.16
							c0.57-0.63-0.78-0.25-0.18-1.01c-0.53,0.03-0.92,0.17-1.25,0.35c-0.34,0.16-0.62,0.35-0.86,0.53
							c-0.5,0.35-0.91,0.62-1.51,0.21c-0.52,1.28,1.78-0.05,1.38,0.33c0.53,0.16-0.45,0.98-1.08,1.1c-0.61,0.23-1.43-0.94-2.92-0.53
							c0.15-0.03,0.14-0.11,0.29-0.15c-0.62-0.13-1.02,0.68-1.82,0.34c-0.29,0.67-0.92,0.1-0.91,0.9l1.41-0.4
							c-0.76,0.32-1.41,1.36-2.84,1.13c0.09-0.18,0.47-0.45,0.73-0.6c-0.42-0.18-0.74,0.3-1.18,0.07c0.04-0.76,1.73-0.43,2.49-1.14
							c-0.46-0.27-1.53,0.81-1.22-0.1c-0.23,0.59-0.62,0.61-1.06,0.61c-0.45-0.04-0.93-0.12-1.44,0.32l0.04-0.48
							c-0.16,0.08-0.5,0.32-0.8,0.33l0.53-0.64c-0.83,0.56-1.62-0.34-2.42-0.14c0.84,0.04,0.93,0.18,0.91,0.37
							c-0.03,0.19-0.18,0.43,0.19,0.58c-2.15,0.57-1.19-1.28-3.5-1.17c0.31-0.03,1.15,0.35,0.64,0.55c-0.44-0.1-1-0.37-1.23-0.66
							c-1.53-0.14,0.17,0.52-0.52,0.71c-0.44-0.65-0.79,0.12-1.52,0.19l0.08-0.48c-1.68-0.64-0.67,0.89-2.18,0.15l0.82-0.48
							l-0.85-0.04l0.3-0.49c-0.97,0.15-1.25,0.05-2.02-0.42c0.09,0.39-0.38,0.79-1.14,0.53c-0.41-0.46,0.44-0.33-0.64-0.65
							c0.35-0.19,0.73-0.46,1.04,0.13c0.1-0.13,0.33-0.2,0.43-0.33c-0.42-0.51-1.31-0.56-1.69-0.69c0.14,0.07,0.3,0.16,0.36,0.25
							c-0.29,0.01-0.59,0.03-0.88,0.03l-0.87-0.05c-0.16-0.28,0.09-0.32,0.33-0.36c-0.31-0.09-0.61,0.01-1.07-0.16
							c0.28-0.3,0.44-0.67,1.11-0.55l-1.55-0.26c-0.02-0.19-0.47-0.76-0.23-0.8c-0.57-0.64-2.15-0.39-2.91-1.27
							c-0.09,0.03-0.22,0.02-0.45-0.08c-0.4-0.35-0.71-0.76-1.08-1.12c-0.19-0.18-0.4-0.34-0.63-0.49c-0.22-0.16-0.48-0.31-0.8-0.42
							l-0.05-0.99c-0.83-0.53,0.11,1.3-1.28,0.39c-1.02-0.63,0.09-0.71-0.05-1.14c-0.62-0.16-1.85-0.44-2.13-1.6
							C32.94,75.54,33.04,75.81,33.3,76.02z M26.94,65.79c0.18,0.19,0.63,0.52,0.42,0.78C26.75,66.51,26.92,66.22,26.94,65.79z
							 M25.08,47.26c0.11,0.22-0.04,0.47-0.29,0.73C24.8,47.76,24.89,47.51,25.08,47.26z M68.18,21.59c-0.01,0-0.02,0.01-0.03,0.01
							C67.64,21.22,67.82,21.36,68.18,21.59z M69.28,22.22c0.14-0.02,0.16-0.08,0.13-0.17c-0.13,0.08-0.39,0-0.68-0.15
							C68.77,22.05,68.89,22.19,69.28,22.22z M64.97,89.85l-0.26-0.06C65.2,89.52,65.09,89.68,64.97,89.85z"/>
						<path class="st0" d="M25.23,49.5c-0.09,0.05-0.18,0.05-0.27,0.05C25.02,49.67,25.12,49.68,25.23,49.5z"/>
						<path class="st0" d="M39.04,80.79l0.03,0.03c0.03-0.01,0.06-0.03,0.08-0.05L39.04,80.79z"/>
						<path class="st0" d="M51.04,24.41c-0.24-0.03-0.38-0.1-0.48-0.18C50.57,24.35,50.69,24.43,51.04,24.41z"/>
						<path class="st0" d="M75.61,24.45l-0.76-0.32c0.35,0.18,0.41,0.35,0.54,0.51C75.43,24.54,75.39,24.32,75.61,24.45z"/>
						<path class="st0" d="M79.2,30.91c0.12,0.03,0.18,0.15,0.3,0.18l0.13-0.18C79.27,30.6,78.91,30.52,79.2,30.91z"/>
						<path class="st0" d="M75.38,26.19c-0.18,0.39,0.34,0.48,0.81,0.76c-0.03-0.02-0.05-0.03-0.08-0.06
							C76.57,26.51,75.99,26.32,75.38,26.19z"/>
						<path class="st0" d="M76.3,27.01c0.15,0.08,0.29,0.18,0.41,0.29C76.89,27.16,76.57,27.14,76.3,27.01z"/>
						<path class="st0" d="M70.86,22.55c0.2,0.21,0.36-0.4,0.43-0.19C71.77,22.01,69.42,22.19,70.86,22.55z"/>
						<polygon class="st0" points="75.02,27.53 75.13,27.01 74.66,27.2 						"/>
						<path class="st0" d="M71.59,25.15l0.7,0.49c0.03-0.08,0.15-0.08,0.29-0.05C72.11,25.34,71.63,25.01,71.59,25.15z"/>
						<path class="st0" d="M72.57,25.59c0.24,0.13,0.46,0.27,0.63,0.27C73.07,25.79,72.8,25.63,72.57,25.59z"/>
						<polygon class="st0" points="73.96,27.06 73.8,26.85 73.32,26.51 						"/>
						<path class="st0" d="M63,22.11l-0.94,0c-0.12,0.16,0.11,0.3,0.46,0.28C62.76,22.31,63.11,22.29,63,22.11z"/>
						<path class="st0" d="M65.36,24.1c-0.21-0.16-0.19-0.27-0.28-0.47l-0.19,0.59L65.36,24.1z"/>
						<path class="st0" d="M62.81,23.61c-0.12,0.16-1.35,0.3-0.25,0.42C62.68,23.87,63.58,23.9,62.81,23.61z"/>
						<polygon class="st0" points="49.36,22.99 49.59,22.92 49.34,21.93 						"/>
						<path class="st0" d="M39.64,29.67c0.98-0.31-0.13-0.65,0.81-0.87c0.08-0.33-0.77,0.18-0.67-0.13
							C39.38,29.21,39.03,29.26,39.64,29.67z"/>
						<path class="st0" d="M39.77,28.68c0.06-0.09,0.13-0.18,0.19-0.3C39.84,28.53,39.79,28.62,39.77,28.68z"/>
						<polygon class="st0" points="92.36,57.52 92.61,56.78 92.24,57.25 						"/>
						<path class="st0" d="M91.68,56.07l0.66-0.16l-0.57-0.45C91.79,55.63,91.83,55.95,91.68,56.07z"/>
						<path class="st0" d="M27.64,63.71l-0.16,0c-0.14,0.14-0.11,0.29-0.07,0.58L27.64,63.71z"/>
						<polygon class="st0" points="30.68,71.67 30.61,71.54 30.26,72.09 						"/>
						<path class="st0" d="M35.72,76.76c-0.21-0.2-0.53-0.36-0.7-0.6C35.5,76.56,35.27,77.33,35.72,76.76z"/>
					</g>
				</g>
			</g>
		</g>
	</g>
	<g>
		<g>
			<path class="st0" d="M56.49,2.69c-29.14,0-52.77,23.63-52.77,52.77c0,29.14,23.63,52.77,52.77,52.77
				c29.14,0,52.77-23.63,52.77-52.77C109.26,26.31,85.63,2.69,56.49,2.69z M56.49,100.32c-24.77,0-44.86-20.08-44.86-44.86
				c0-24.77,20.08-44.86,44.86-44.86s44.86,20.08,44.86,44.86C101.35,80.23,81.26,100.32,56.49,100.32z"/>
		</g>
		<g>
			<path class="st1" d="M56.49,2.69c-29.14,0-52.77,23.63-52.77,52.77c0,29.14,23.63,52.77,52.77,52.77
				c29.14,0,52.77-23.63,52.77-52.77C109.26,26.31,85.63,2.69,56.49,2.69z M56.49,100.32c-24.77,0-44.86-20.08-44.86-44.86
				c0-24.77,20.08-44.86,44.86-44.86s44.86,20.08,44.86,44.86C101.35,80.23,81.26,100.32,56.49,100.32z"/>
			<g>
				<g>
					<g>
						<path class="st0" d="M56.84,102.74c-0.44-0.02-0.28,0.4-0.35,0.47C57.23,103.08,56.81,102.63,56.84,102.74z"/>
						<polygon class="st0" points="63.89,101.16 63.79,101.35 64.75,100.77 						"/>
						<path class="st0" d="M70.35,99.7c-0.81-0.51-2.29,0.71-3.5,0.77l-0.22-0.11l-0.39,0.69C67.62,100.59,69.32,99.77,70.35,99.7z"
							/>
						<path class="st0" d="M74.25,99.91c-0.32-0.18,0.65-0.49-0.83,0.21c0.09,0,0.12,0.01,0.17,0.01
							C73.72,100.08,73.91,100.02,74.25,99.91z"/>
						<path class="st0" d="M73.59,100.14C72.91,100.41,74.11,100.19,73.59,100.14L73.59,100.14z"/>
						<path class="st0" d="M76.59,98.7l-0.75,0.64c0.25,0.06,1.03-0.27,0.79-0.03C77.46,98.76,77.2,98.7,76.59,98.7z"/>
						<path class="st0" d="M77.17,97.84l-0.39,0.31C76.88,98.17,77.01,98.13,77.17,97.84z"/>
						<path class="st0" d="M75.93,98.79l0.84-0.65c-0.17-0.04-0.28-0.25-0.39,0.28C76.37,98.19,76.27,98.47,75.93,98.79z"/>
						<path class="st0" d="M75.36,98.95c-0.53,0.1-1.21,0.23-0.44-0.35c-0.8,0.39-1.12,0.63-1,0.73
							C74.02,99.41,74.57,99.38,75.36,98.95z"/>
						<path class="st0" d="M70.44,98.88c-0.23,0.01-0.47,0.03-0.71,0.01l-0.5,0.38c0.13-0.09,0.46-0.13,0.74-0.17
							C70.26,99.05,70.5,98.97,70.44,98.88z"/>
						<path class="st0" d="M81.96,96.19c-0.03-0.16-0.49-0.18-0.65-0.31l-0.51,0.51C81.17,96.3,81.8,96.03,81.96,96.19z"/>
						<path class="st0" d="M81.32,95.89l0.75-0.76C81.26,95.58,81.18,95.78,81.32,95.89z"/>
						<polygon class="st0" points="76.97,97.05 75.68,98.28 77.25,96.91 						"/>
						<polygon class="st0" points="85.29,93.93 85.02,94.57 85.56,93.51 						"/>
						<path class="st0" d="M87.37,92.25c-0.14,0.52,0.77-0.03,0.54,0.42c0.51-0.53,0.81-1.14,1.07-1.68
							C88.62,91.47,88.13,91.88,87.37,92.25z"/>
						<path class="st0" d="M89.45,90.11c-0.17,0.25-0.31,0.55-0.47,0.87C89.17,90.72,89.33,90.44,89.45,90.11z"/>
						<path class="st0" d="M83.57,94.21c0.12,0.03,0.38,0.13,0.91-0.14l-0.58-0.1C83.8,94.04,83.69,94.13,83.57,94.21z"/>
						<path class="st0" d="M83.89,93.97l0.02,0c0.36-0.26,0.61-0.43,0.72-0.51C84.53,93.53,84.31,93.68,83.89,93.97z"/>
						<path class="st0" d="M83.49,94.27c0.03-0.02,0.05-0.04,0.08-0.06C83.52,94.2,83.49,94.2,83.49,94.27z"/>
						<path class="st0" d="M79.52,96.16c0.4-0.52,1.33-1.38,0.12-1.08C79.42,95.56,80.12,95.38,79.52,96.16z"/>
						<path class="st0" d="M82.78,94.13c-0.31,0.19-0.65,0.33-0.97,0.5c0.08,0.08,0.34,0.12,0.15,0.37
							C82.23,94.71,82.52,94.44,82.78,94.13z"/>
						<polygon class="st0" points="83.13,93.7 82.78,94.13 83.13,93.92 						"/>
						<path class="st0" d="M87.77,91.1c0.23-0.46,0.6-0.82,1.02-1.24c-0.52,0.36-1.03,0.77-1.49,1.18
							C87.32,91.2,87.28,91.56,87.77,91.1z"/>
						<path class="st0" d="M85.9,92.52c0.02-0.03,0.05-0.06,0.07-0.08C85.9,92.45,85.85,92.47,85.9,92.52z"/>
						<polygon class="st0" points="92.78,85.68 92.66,85.7 92.7,85.76 						"/>
						<path class="st0" d="M87.17,91.05c-0.4,0.25-0.54,0.52-0.66,0.8c0.23-0.27,0.49-0.54,0.79-0.81
							C87.29,90.97,87.27,90.93,87.17,91.05z"/>
						<path class="st0" d="M90.48,88.84c-0.23,0.12-0.47,0.28-0.75,0.42C90.02,89.2,90.51,88.99,90.48,88.84z"/>
						<path class="st0" d="M86.17,92.43l-0.05,0.06C86.31,92.47,86.27,92.45,86.17,92.43z"/>
						<path class="st0" d="M86.17,92.43c0.16-0.2,0.24-0.39,0.34-0.58c-0.21,0.2-0.39,0.4-0.54,0.58
							C86.04,92.43,86.11,92.43,86.17,92.43z"/>
						<path class="st0" d="M91.68,82.61c0.25,0.28-0.11,1.53-1.16,1.98c-0.45,0.94,0.96,1.32,2.14,1.1
							c-0.12-0.14-0.2-0.22,0.25-1.23c-0.36,0.21-1.92,1.48-1.59,0.58c0.4-0.57,0.59-0.79,0.77-0.89c0.19-0.1,0.36-0.1,0.64-0.31
							C92,84,93.23,81.99,92.46,81.81l-0.51,1.11C91.84,82.87,91.96,82.41,91.68,82.61z"/>
						<path class="st0" d="M91.24,87.2l-0.26,0.36c0.39-0.33,0.76-0.49,1.44-0.79c0.36-0.68,0.35-0.89,0.28-1.01l-1.52,1.59
							L91.24,87.2z"/>
						<path class="st0" d="M89.6,89.03c-0.02-0.52,0.52-1.46-0.23-1.3c-0.87,0.94-0.4,0.88-0.83,1.55c1.47-1.49-0.28,0.58,1.01-0.27
							c-0.26,0.33-0.52,0.6-0.77,0.85c0.32-0.22,0.64-0.42,0.95-0.6c-0.02,0.01-0.04,0.01-0.05,0.01l-0.01,0.01l0-0.01
							c-0.11,0.02-0.15,0.02-0.05-0.03c0-0.01,0.02-0.03,0.03-0.04C89.61,89.16,89.61,89.1,89.6,89.03
							c0.52-0.35,0.15,0.02,0.05,0.18c0.01,0.02,0.01,0.05,0.03,0.06l0.01,0c0.48-0.52,0.86-1.14,1.29-1.71
							C90.62,87.85,90.28,88.3,89.6,89.03z"/>
						<path class="st0" d="M80.09,93.72c0.07,0,0.09,0.03,0.11,0.05C80.29,93.66,80.31,93.61,80.09,93.72z"/>
						<path class="st0" d="M80.95,93.51c-0.09,0.13-0.11,0.34-0.54,0.55c-0.43,0.11-0.11-0.18-0.2-0.29
							c-0.18,0.25-0.71,0.79,0.18,0.5l0.09-0.13c0.78-0.3,1.99-0.41,1.9-0.29C81.96,93.66,81.62,93.55,80.95,93.51z"/>
						<path class="st0" d="M85.33,91.4c0.43-0.38,0.8-0.84,1.18-1.28l-0.89,0.3l0.18,0.14C84.99,91.13,85.31,91.19,85.33,91.4z"/>
						<path class="st0" d="M93.08,85.67l0.19,0.47c0.08-0.38,0.09-0.81,0.14-1.21L93.08,85.67z"/>
						<polygon class="st0" points="94.42,83.79 94.69,84.09 94.86,83.46 						"/>
						<path class="st0" d="M34.87,18.94l-0.34,0.34C34.7,19.13,34.8,19.03,34.87,18.94z"/>
						<path class="st0" d="M37.85,17.36l-0.01-0.21C37.75,17.31,37.73,17.41,37.85,17.36z"/>
						<path class="st0" d="M96.72,30.57c-0.08-0.84-0.05-1.9-0.37-1.57l-0.24,0.44C96.44,29.85,96.62,30.23,96.72,30.57z"/>
						<path class="st0" d="M65.29,11.58c0.06,0.05,0.12,0.11,0.18,0.16c0.2-0.1,0.39-0.2,0.56-0.29
							C65.81,11.49,65.56,11.51,65.29,11.58z"/>
						<path class="st0" d="M64.46,13.27l-0.85-0.41C63.8,12.98,64.07,13.12,64.46,13.27z"/>
						<path class="st0" d="M21.84,31.71c0.01,0.23,0.02,0.45,0.06,0.69C22.36,31.7,21.98,31.89,21.84,31.71z"/>
						<path class="st0" d="M103.19,62.18c0.27-0.62,0.41-1.13,0.5-1.58C103.33,61.35,102.87,61.92,103.19,62.18z"/>
						<path class="st0" d="M33.78,14.22c-0.23,0.23-0.31,0.38-0.25,0.46C33.77,14.44,33.89,14.27,33.78,14.22z"/>
						<path class="st0" d="M103.82,58.7c-0.05,0.11-0.08,0.22-0.12,0.34c0.04,0.48,0.11,0.97-0.01,1.55
							C103.97,60.04,104.08,59.36,103.82,58.7z"/>
						<path class="st0" d="M32.79,90.6c0.03,0.04,0.08,0.08,0.1,0.12C32.93,90.68,32.88,90.64,32.79,90.6z"/>
						<path class="st0" d="M50.26,101.76c-0.21-0.01-0.55-0.06-0.88-0.1C49.54,101.71,49.8,101.75,50.26,101.76z"/>
						<path class="st0" d="M99.39,75.95C99.2,76.4,99.4,76.04,99.39,75.95L99.39,75.95z"/>
						<path class="st0" d="M96.84,77.28c0-0.11-0.02-0.21-0.1-0.27C96.81,77.1,96.84,77.19,96.84,77.28z"/>
						<path class="st0" d="M101.2,53.92c0-0.01,0-0.02,0-0.04C101.13,54.02,101.14,54,101.2,53.92z"/>
						<path class="st0" d="M98.89,76.53c0.13-0.14,0.26-0.31,0.39-0.51C99.2,76.1,99.08,76.25,98.89,76.53z"/>
						<path class="st0" d="M99.12,76.53c-0.09,0.15-0.16,0.26-0.22,0.37C98.93,76.98,98.99,76.96,99.12,76.53z"/>
						<path class="st0" d="M99.66,75.32c-0.12,0.26-0.25,0.48-0.39,0.7c0.07-0.07,0.11-0.1,0.11-0.07
							C99.45,75.82,99.53,75.63,99.66,75.32z"/>
						<path class="st0" d="M13.36,61.17c-0.01,0.03-0.01,0.07-0.03,0.1C13.58,61.7,13.53,61.5,13.36,61.17z"/>
						<path class="st0" d="M85.6,24.09c0.02,0.01,0.03,0.01,0.05,0.02c-0.01-0.02-0.03-0.04-0.04-0.06L85.6,24.09z"/>
						<path class="st0" d="M84.21,23.27c0.85,0.04,1.1,0.36,1.4,0.79l0.45-1.28C85.44,22.93,84.82,23.09,84.21,23.27z"/>
						<path class="st0" d="M28.42,23.8l1.07-0.45c-0.56,1.38-1.39,1.83-0.28,1.56c-0.38-0.54,0.33-1.34,1.15-1.99
							c0.83-0.66,1.65-1.32,1.32-1.91l0.75-0.2c-0.17,0.11-0.15,0.2-0.33,0.31c1.48-0.32,0.29-1.43,1.98-2.24
							c0.61-0.25,1.08-0.31,0.79,0.06l1.05-1.03c0.37-0.18,0.39,0.07,0.03,0.26c0.61-0.4,1.26-0.7,1.89-1.06l0,0.04
							c0.18-0.33,0.68-0.93,0.94-1.21c0.58-0.07-0.19,0.25,0.01,0.35c0.32-0.27,0.63-0.57,0.97-0.82c0.3,0.08,0.24,0.28,0.02,0.5
							c-0.22,0.24-0.6,0.51-0.98,0.66c0.79,0.37,0.96,0.19,1.27-0.13c0.32-0.28,0.78-0.69,2.05-0.73l-0.99,0.55
							c0.95,0.47,1.67-0.08,2.98-0.06c-0.33-0.14-2.75-0.28-1.65-1.04c0.38-0.02,0.84-0.16,1.43-0.64c0.15,0.46,0.77,0.18,1.6-0.06
							l0.11,0.63c0.84-0.41,0.69-0.7,1.15-1.12c1.02-0.2,1.32,0.23,1.64,0.61c1.63-0.14-1.27-0.61,0.63-1.02
							c0.7,0.02,1.28-0.07,1.88-0.25c0.6-0.17,1.23-0.47,2.04-0.67c0.99,0.17-0.14,0.4,0.22,0.56l0.82-0.55
							c0.21,0,0.15,0.16,0.12,0.24c0.71-0.23,0.02-0.64,1.17-0.87c0.15-0.35,0.75-0.16,1.48,0.1c0.73,0.28,1.57,0.56,2.31,0.2
							c0.34,0.2-0.19,0.38-0.1,0.64c1.97-0.43,1.68-0.34,3.36-0.78l1.3,0.62c-0.92-0.63,0.43-0.99,1.68-1.28
							c-0.32-0.28-0.6-0.53-0.79-0.66c0.64-0.02,1.29-0.05,1.92,0.02c0.2,0.16-0.04,0.33-0.39,0.51c0.13-0.02,0.26-0.04,0.37-0.06
							c0.6,0.4,0.17,0.67-0.36,0.9c-0.19-0.18-0.38-0.37-0.56-0.55c-0.53,0.31-1.02,0.67-1,1.05c0.13-0.05,0.36-0.08,0.62-0.08
							c-0.14,0.09-0.23,0.17-0.19,0.24c0.05,0.08,0.26-0.05,0.58-0.13l0.24,0.8l0.16-0.25l2.15,1.01c0.45-0.07,0.9-0.17,1.36-0.25
							c0.45-0.05,0.92-0.1,1.41-0.13c0.99-0.04,2.13-0.04,3.45,0.37c-0.82,0.18-0.47,0.72-0.75,1.27c-0.42-0.89-2.05-0.46-3.28-1.06
							c0.65,0.31,0.4,0.54,0.2,0.57l2.51,0.28c-0.24,0.44,0.35,0.52,0.83,1.01c-0.03-1.13,1.93,0.19,2.98,0.35
							c-0.1,0.32-0.48,0.53-1.54-0.07c0.85,1.27,2.14-0.34,2.97,0.95c-0.26-0.15-0.37-0.28-0.56-0.19c0.75,0.11,2.1,1.2,1.6,1.24
							l-0.26-0.15c0.41,0.28,0.93,0.62,1.5,0.96c0.56,0.36,1.12,0.78,1.68,1.11c1.1,0.69,2.15,1.13,2.52,0.93
							c-0.06,0.1-0.85,0.61-1.06,0.68c1.49,0.02,3,0.14,4.59,0.29c-0.74,0.32-1.06,2.37-2.56,1.57c0.26,0.41,0.65,0.83,1.5,1.38
							c-0.13-0.31,0.2-1.33,0.55-1.06c0.24,1.47,0.26,0.94,0.75,2.51c-0.21-0.46,1-0.83,1.5-0.23c-0.21,0.02-0.81,0.78-1.09,0.66
							c0.71,0.21,1.43,0.44,2.09,0.74c-0.45-0.26-0.79,0.53-0.79,1.06c0.06-0.29,0.96,1.31,1.35,1.65l-0.27-0.79
							c1.16,1.78,2.53,0.84,3.64,2.75c-0.34-0.11-1.56,0.19-1.12,1.18c0.36,0.07,1.3,0.17,2.22,0.53c0.92,0.35,1.92,0.92,2.56,1.73
							L98.4,36.7c0.33,0.41,0.69,0.82,0.96,1.26c-0.54-0.3-1.58-0.84-2.57-1.42c-1-0.57-1.98-1.17-2.6-1.6
							c0.13,0.83-0.24,0.38,0.3,1.43c-0.1,0.51-0.7-0.37-0.86-0.67l1,2.53c0.28-0.19,0.66,0.21,1.03,0.62
							c0.33,0.43,0.64,0.88,0.88,0.73c-0.52-0.88-1.23-1.66-1.85-2.46c0.28-0.2,0.89-0.02,1.55,0.46c0.32,0.25,0.68,0.55,0.94,0.94
							c0.26,0.39,0.48,0.84,0.63,1.33c-0.08,0.57-1.25,0.06-1.44,0.19c0.3,0.15,1.06,1.6,0.97,1.83l-0.63-0.67
							c0.07,0.55,0.43,0.9,0.76,1.29c0.32,0.39,0.54,0.86,0.4,1.58c0.07,0.46-0.5,1.52-0.1,1.5c0.56-0.88,2.82-1.65,3.51-1.27
							c0,0.09-0.02,0.76-0.07,1.46c-0.02,0.71-0.24,1.48-0.37,1.78c-0.48,0.86-1.58-0.89-1.99-0.14c0.18-0.01,0.47,0.36,0.57,0.53
							c-0.08,0.5-0.59-0.1-0.35,0.92c0.7,0.07,0.27,2.11,0.64,0.41c0.32,1,0.09,1.1,0.18,2.3c0.42-0.43,1.55,0.97,1.8,2.05
							c-0.18-0.06-0.39,0.19-0.49,0.31c0.01,0.54,0.01,1.02-0.01,1.47c-0.05,0.44-0.12,0.85-0.18,1.26
							c-0.13,0.81-0.25,1.59-0.3,2.59c-0.17,0.17-0.43,1.11-0.69,0.67c0.08,0.29,0.27,0.58,0.19,1.19
							c-0.76,1.09,0.12-1.36-0.72-0.55c0.38,0.12,0.3,1.62,0.42,2.53c0.64-0.16,0.42-2,0.31-2.88c0.84,0.08,1.49,1.71,1.54,3.95
							c-0.11,1.74-0.69,0.62-0.62,0.94c-0.47,1.54-0.28,2.29-0.14,2.98c0.15,0.69,0.27,1.32-0.51,2.5
							c-0.88,0.83-1.03-0.31-1.47-0.21c0.14-0.68,0.41-1.14,0.66-1.56c0.22-0.43,0.45-0.8,0.56-1.26l-0.53,1.05
							c-0.06-0.48,0.04-1.4,0.31-1.84c-0.6,0.73-1.59,5.12-3.08,7.12c-0.02,0.46-0.18,1.22,0.17,0.99l0.27-0.73
							c0.71-0.47-0.09,1.58,0.52,0.77c-0.09,0.54-0.16,1.13-0.32,1.75c-0.08,0.31-0.18,0.62-0.31,0.94c-0.16,0.3-0.36,0.6-0.61,0.89
							l-0.68-0.07c0.17,0.06,0.83-0.65,0.87-1.1c-0.09,0.68-1.89,1.52-1.56,2.52l0.91-0.67c-0.31,1.05-0.39,2.62-1.4,3.57
							c0.86-0.15,0.13-0.28,1.28-0.67c-1.17,0.23,1.85-2.96,0.36-2.3c0.61-0.21,0.91-0.53,1.21-0.9c0.3-0.37,0.63-0.76,1.21-1.2
							c-0.2-0.06-0.54,0.24,0.04-0.75c-0.03-0.07-0.04-0.22-0.05-0.31c0.02-0.03,0.03-0.04,0.05-0.06l-0.05,0.05
							c-0.01-0.06-0.01-0.07-0.02,0.02c-0.2,0.21-0.39,0.36-0.53,0.38c-0.17-0.72,0.62-2.32,0.66-2.96c0.38-0.56,0.09,0.34,0.45,0.1
							c0.03-0.32,0.04-0.64,0.02-0.97c0.44,0.09,1.31-1.41,1,0.19l0.52-1.35c0.52-0.71,1.04-1.79,1.08-2.53
							c0.27-0.64-0.05-1.8,0.14-1.13l0.29-2.26l0.11,0.01c0.35-1.06,0.28-2.24,0.38-3.42c0.07-1.18,0.32-2.37,0.74-3.61
							c-0.07-0.76-0.17-1.53,0.02-2.78l0.4-0.24c-0.07-0.96,0.28-2.92-0.12-3.32c0.25-0.28,0.37-0.71,0.42-1.24
							c0.02-0.26,0.03-0.55,0.02-0.85c-0.02-0.3-0.09-0.6-0.14-0.92c-0.24-1.25-0.6-2.56-0.64-3.43l-0.51,0.03
							c-0.18-1.16-0.66-2.21-1.2-3.55l-0.41,0.21c-0.59-1.1-0.65-3.11-1.37-4.95c0.21,0.06,0.34,0.55,0.36,0.91
							c0.04-0.64-0.1-1.24-0.32-1.81c-0.25-0.56-0.63-1.06-0.98-1.57c-0.75-0.99-1.41-1.96-1.64-3.04c-0.42-0.37-0.57-0.73-0.66-1.1
							c0.03,0.04,0.06,0.08,0.09,0.1c-0.02-0.05-0.06-0.12-0.11-0.19c-0.06-0.24-0.1-0.49-0.18-0.75c0.02,0.25,0.06,0.48,0.12,0.66
							c-0.22-0.34-0.59-0.85-1-1.3l0.27-0.48c-0.03-0.04-0.05-0.07-0.09-0.11c-0.17-0.61-0.44-0.28-0.58,0.19
							c-0.21-0.22-0.48-0.38-0.7-0.49c0.35-0.83-1.15-1.11-0.88-2.13c-0.28-0.04-0.8-0.6-1.35-1.12c-0.6-0.47-1.24-0.89-1.66-0.72
							c0.07-0.09-0.01-0.25,0.21-0.02c-0.37-0.55-0.75-1.11-1.32-1.39L90,23.02l-0.78-0.25l-0.82-0.19
							c-0.39-0.86-0.52-1.27,0.46-1.02c-2.07-0.9-1.47-0.98-3.28-1.62l0.32-0.25c-0.53-0.38-1.67-0.57-1.78-1.06
							c-0.64-1.59-5.8-4.09-8.95-6.17c0.09,0.7-0.24,0.37-0.67,0.01c-0.44-0.34-0.99-0.75-1.22-0.35c-0.1-0.33-0.54-0.66,0.12-0.67
							c-1.89-0.38-2.57-1.47-4.08-1.03c-0.14-0.32,0.51-0.29,0.37-0.49C69.51,9.94,69.02,10,68.87,9.8
							c-0.15-0.21,0.33-0.15,0.67-0.19c-1.94-0.45-2.33,0.33-2.64,1.07c-0.43-0.3-0.77-0.48-1.09-0.52
							c-0.33-0.02-0.66,0.08-1.05,0.28c-0.28-0.31-0.8-0.66,0.4-0.57c-0.65-0.13-4.04-1.03-4.17-0.35c-0.19-0.17-0.93-0.1-1.12-0.03
							c-1.5-0.11-1.63-0.18-3.11-0.19l0.41,0.12c-0.59,0.71-1.22,0.17-2.4,0.32l0.03-0.08c-1.37-0.21-1.67-0.13-1.95-0.06
							c-0.14,0.04-0.28,0.07-0.56,0.06c-0.28-0.02-0.68-0.04-1.37-0.09l0.2,0.45c-0.11,1.06-2.43-0.25-3.92,0.39l0.61,0.18
							c-0.75,0.45-2.61-0.81-3.52-0.73c-0.21-0.04,0.26-0.21,0.5-0.35c-2.4-0.01-0.13,0.68-1.74,1.25c-0.4-0.23,0.14-0.96-0.99-0.67
							c-0.31-0.03-1.03,0.52-1.85,1.06c-0.82,0.57-1.78,1.03-2.61,1.11c0.42,0.09,0.82,0.18,0.2,0.7c-1.01,0.61-3.41,0.49-3.96,1.78
							c-0.17,0.02-0.25-0.01-0.29-0.07c-0.69,0.66-2.38,1.86-2.6,2.51c-0.82-0.47-1.85,0.59-2.78,1.54
							c-0.45,0.49-0.91,0.93-1.25,1.23c-0.35,0.3-0.66,0.4-0.9,0.11l-2.04,1.97l-0.05-0.16c-0.73,0.55-1.05,1.11-1.29,1.52
							c-0.22,0.43-0.3,0.79-0.38,1.15c-0.36,0.24-0.26-0.08-0.29-0.16c-2.04,1.72-2.07,2.09-2.79,4.28l-0.54-0.1
							c-0.07,0.32-0.81,0.96-1.54,1.93c-0.38,0.47-0.79,1.01-1.15,1.58c-0.37,0.57-0.7,1.18-0.83,1.85
							c-0.04-0.05-0.1-0.14-0.07-0.36c-0.19,0.73-0.55,1.44-0.97,2.15c-0.41,0.71-0.93,1.37-1.26,2.07c-0.71,1.37-1.2,2.6-0.52,3.38
							c-0.11,0.64-0.07,1.32-0.1,1.96c0.75-2.34,0.66,0.57,1.2-0.32c-0.13,0.94-1.14,2.24-0.94,1.08l0.13-0.16
							c-0.79-0.66-1.11,2.86-1.66,2.68c-0.89,4.8-1.49,9.59-1.12,14.22c0.22-0.2,0.42-0.4,0.67-0.6c0.03,0.53,0.12,1.05,0.18,1.58
							c-0.11,0.43-0.48,0.64-0.62-0.5c-0.32,0.65,0.63,1.86,0.79,1.86c0.05,2.26-0.97-0.73-0.89-0.05l0.2,0.92l0.05-0.22
							c0.21,0.35,0.39,0.53,0.54,0.79c0.14,0.26,0.28,0.6,0.44,1.26c0.07,0.87-0.33,0.53-0.27,0.87c-0.05,0.01-0.05,0.13,0.11,0.52
							l0.45,1.99l0.35-0.95c0.48,0.79,0.46,1.83,0.84,0.75c-0.3,0.79,0.29,2.58,0.9,4.28c0.7,1.67,1.59,3.18,1.62,3.63
							c0.23,0.23,0.43,0.48,0.62,0.73c0.21,0.24,0.41,0.5,0.59,0.76c0.38,0.53,0.72,1.13,1.09,1.79c-0.1-0.39,0.34-0.92,0.94,0.23
							c-0.67,0.15-0.53,0.77-0.13,1.47c0.39,0.69,0.94,1.51,0.88,2.24c-0.03-0.58,0.56,0.15,1.14,0.8c0.58,0.65,1.24,1.13,1.08,0.3
							c0.65,0.88-0.34,0.37-0.02,1.2c0.54,0.4,1.03,0.88,1.51,1.41c0.23,0.27,0.47,0.55,0.72,0.83c0.25,0.27,0.51,0.54,0.78,0.82
							c1.06,1.1,2.08,2.4,3.48,3.25c0.15-0.11-0.12-0.65,0.59-0.44l0.85,1.73c0.59,0.3,1.02-0.43,1.68,0.67
							c-0.06-0.21-0.15-0.52,0.25-0.35c2.43,2.06,5.42,3.46,8.48,4.53c1.54,0.51,3.05,1.12,4.62,1.55c0.77,0.25,1.54,0.52,2.31,0.83
							c0.76,0.32,1.55,0.53,2.32,0.87c-0.82-0.47-0.23-0.41,0.43-0.33c-0.42-0.15,0.08-0.43,0.03-0.68c0.85,0.34,1.7,0.73,2.58,1.03
							c0.55-0.63,2.9,0.1,3.2-0.51l-0.85,0.07c1.14-0.69-1.47-1.74-1.21-2.68c-0.31,0.2-0.67,0.21-1.04,0.13
							c-0.37-0.1-0.77-0.32-1.19-0.52c-0.84-0.4-1.74-0.76-2.82-0.31c-0.39-0.26,0.42-0.25,0.24-0.5c-0.57,0.36-1.16,0.26-2.19-0.19
							l0.14-0.07c-1.5-0.36-2.58-0.62-3.6-1.19c-0.51-0.26-1.04-0.52-1.63-0.82c-0.59-0.3-1.25-0.59-1.98-1.05l0.04,0.54
							c-0.64-0.38-0.72-0.58-0.98-0.84c-1.08,0.28,1.86,0.94,0.84,1.33c-0.26-0.66-1.43-1.23-2.57-1.8
							c-1.13-0.59-2.13-1.33-2.13-1.95c-0.96-0.59,0,0.64-0.97,0.04l-0.1-0.41l-0.46,0.17c-0.62-0.43-0.67-1.01-0.56-1.22
							c0.13,0.13,0.45,0.25,0.61,0.35c-0.56-0.86-2.23-1.52-2.43-1.81l0.76,0.79c-0.65-0.42-1.35-0.85-1.99-1.38
							c-0.62-0.56-1.26-1.13-1.89-1.7c-0.32-0.28-0.64-0.56-0.96-0.84c-0.29-0.3-0.58-0.6-0.88-0.89c-0.59-0.57-1.2-1.11-1.82-1.57
							l-0.02,0.31c-0.48-0.35-0.76-0.65-0.94-0.92c-0.19-0.26-0.31-0.47-0.42-0.7c-0.22-0.45-0.44-0.93-1.28-1.89l0.1,0.04
							c-0.51-0.26-0.94-0.8-1.28-1.41c0.55,0.41-0.19-1.3,0.49-0.73c-1.66-1.9-0.97-0.84-2.49-1.91l0.16-0.52
							c-0.54-0.36-0.72-0.32-1.37-1.45c0.74,0.81,0.16-0.97,1.05-0.1c-0.1-0.68-0.31-1.22-0.55-1.67c-0.22-0.46-0.44-0.85-0.65-1.2
							c-0.42-0.7-0.75-1.26-0.39-2.02c-1.39-0.82,0.25,2.35-0.19,1.78c-0.11,0.67-1.07-0.69-1.27-1.53
							c-0.32-0.82,0.84-1.8,0.28-3.82c0.05,0.21,0.13,0.2,0.18,0.41c0.03-0.41-0.15-0.77-0.32-1.15c-0.08-0.19-0.17-0.39-0.22-0.6
							c-0.03-0.22-0.02-0.46,0.05-0.71c-0.69-0.43-0.15-1.25-0.96-1.29L14,64.04c-0.37-1.05-1.44-1.97-1.28-3.88
							c0.18,0.13,0.47,0.65,0.65,1.01c0.17-0.56-0.34-1.01-0.12-1.59c0.75,0.08,0.52,2.34,1.27,3.42c0.25-0.61-0.9-2.12,0.04-1.65
							c-0.6-0.34-0.65-0.87-0.67-1.46c0.03-0.6,0.1-1.27-0.35-1.96L14,57.99c-0.09-0.22-0.33-0.68-0.34-1.1l0.65,0.73
							c-0.58-1.13,0.3-2.22,0.12-3.3c-0.06,1.14-0.2,1.27-0.38,1.24c-0.19-0.04-0.43-0.24-0.58,0.25c-0.55-2.91,1.3-1.63,1.23-4.78
							c0.02,0.43-0.37,1.58-0.56,0.89c0.1-0.6,0.4-1.38,0.71-1.71c0.22-2.09-0.53,0.26-0.69-0.67c0.68-0.63-0.08-1.06-0.12-2.03
							l0.48,0.08c0.15-0.59,0.2-0.92,0.19-1.14c-0.02-0.22-0.12-0.31-0.22-0.4c-0.2-0.18-0.41-0.33,0.05-1.36l0.42,1.06l0.12-1.14
							l0.47,0.36c-0.04-0.64-0.02-1.06,0.08-1.45c0.09-0.39,0.24-0.76,0.54-1.3c-0.42,0.16-0.78-0.42-0.42-1.45
							c0.52-0.6,0.29,0.54,0.75-0.92c0.16,0.44,0.39,0.91-0.25,1.38c0.12,0.12,0.17,0.42,0.29,0.53c0.58-0.62,0.74-1.81,0.92-2.32
							c-0.09,0.19-0.2,0.42-0.31,0.51c0.02-0.38,0.03-0.77,0.07-1.15l0.18-1.13c0.32-0.24,0.33,0.07,0.34,0.37
							c0.15-0.42,0.08-0.79,0.33-1.4c0.28,0.33,0.66,0.47,0.43,1.37l0.51-2.06c0.2-0.05,0.88-0.73,0.89-0.42
							c0.8-0.83,0.77-2.8,1.88-3.91c-0.02-0.11,0.02-0.27,0.17-0.57c0.47-0.55,0.99-1.01,1.46-1.53c0.24-0.26,0.46-0.55,0.67-0.86
							c0.23-0.3,0.45-0.64,0.63-1.04l1.17-0.24c0.77-1.09-1.53,0.37-0.23-1.46c0.91-1.33,0.82-0.02,1.35-0.27
							c0.32-0.76,0.86-2.23,2.31-2.78C29.06,23.29,28.72,23.46,28.42,23.8z M42.42,15.21c-0.27,0.21-0.76,0.72-1.08,0.53
							C41.49,15.1,41.86,15.25,42.42,15.21z M67.55,13.09c-0.28,0.09-0.62-0.08-1-0.36C66.86,12.77,67.2,12.88,67.55,13.09z
							 M101.06,70.85c0-0.02,0-0.03-0.01-0.04C101.5,70.12,101.34,70.36,101.06,70.85z M100.3,72.32c0.01,0.18,0.07,0.19,0.16,0.15
							c-0.07-0.15,0.04-0.5,0.22-0.88C100.52,71.65,100.37,71.82,100.3,72.32z M11.1,66.66l0.04-0.34
							C11.46,66.98,11.29,66.82,11.1,66.66z"/>
						<path class="st0" d="M64.57,13.07c-0.08-0.09-0.08-0.19-0.09-0.28C64.33,12.85,64.32,12.95,64.57,13.07z"/>
						<path class="st0" d="M21.83,31.58l-0.03,0.04c0.01,0.04,0.02,0.07,0.04,0.09L21.83,31.58z"/>
						<path class="st0" d="M98.69,48.05c0.02-0.32,0.08-0.5,0.16-0.63C98.73,47.42,98.65,47.58,98.69,48.05z"/>
						<path class="st0" d="M97.14,80.52l0.45-0.98c-0.25,0.45-0.43,0.56-0.63,0.74C97.06,80.32,97.31,80.23,97.14,80.52z"/>
						<path class="st0" d="M89.35,85.86c-0.06,0.15-0.2,0.23-0.26,0.38l0.19,0.12C89.69,85.89,89.85,85.45,89.35,85.86z"/>
						<path class="st0" d="M95.28,80.5c-0.4-0.16-0.56,0.5-0.96,1.1c0.02-0.04,0.05-0.07,0.08-0.1C94.75,82,95.06,81.27,95.28,80.5z
							"/>
						<path class="st0" d="M94.24,81.74c-0.12,0.19-0.24,0.38-0.39,0.54C93.98,82.48,94.05,82.09,94.24,81.74z"/>
						<path class="st0" d="M99.78,74.36c-0.25,0.27,0.38,0.41,0.14,0.52C100.24,75.45,100.34,72.5,99.78,74.36z"/>
						<polygon class="st0" points="93.86,80.26 94.41,80.32 94.28,79.76 						"/>
						<path class="st0" d="M96.94,75.61l-0.61,0.95c0.08,0.02,0.06,0.18,0.02,0.35C96.66,76.29,97.08,75.65,96.94,75.61z"/>
						<path class="st0" d="M96.34,76.91c-0.17,0.32-0.36,0.61-0.39,0.83C96.05,77.57,96.27,77.2,96.34,76.91z"/>
						<polygon class="st0" points="94.53,78.87 94.79,78.64 95.23,77.98 						"/>
						<path class="st0" d="M100.96,64.15l0.05-1.25c-0.15-0.15-0.3,0.16-0.31,0.63C100.77,63.84,100.77,64.3,100.96,64.15z"/>
						<path class="st0" d="M98.75,67.41c0.18-0.29,0.29-0.28,0.5-0.41l-0.59-0.2L98.75,67.41z"/>
						<path class="st0" d="M99.45,63.99c-0.15-0.16-0.23-1.8-0.41-0.3C99.2,63.83,99.12,65.04,99.45,63.99z"/>
						<polygon class="st0" points="100.03,45.91 100.12,46.21 101.1,45.95 						"/>
						<path class="st0" d="M91.76,32.41c0.5,1.3,0.7-0.06,1.08,1.16c0.37,0.15-0.32-1,0.03-0.83
							C92.23,32.16,92.12,31.72,91.76,32.41z"/>
						<path class="st0" d="M92.88,32.75c0.1,0.09,0.22,0.19,0.35,0.29C93.05,32.86,92.95,32.78,92.88,32.75z"/>
						<polygon class="st0" points="53.78,102.63 54.76,102.89 54.13,102.52 						"/>
						<path class="st0" d="M55.68,101.97l0.22,0.66l0.59-0.56C56.27,102.09,55.84,102.13,55.68,101.97z"/>
						<path class="st0" d="M45.13,15.72l0.02-0.17c-0.18-0.13-0.38-0.09-0.78-0.02L45.13,15.72z"/>
						<polygon class="st0" points="34.25,20.06 34.43,19.96 33.8,19.66 						"/>
						<path class="st0" d="M27.08,26.78c0.27-0.29,0.53-0.7,0.85-0.94C27.34,26.47,26.49,26.36,27.08,26.78z"/>
					</g>
				</g>
			</g>
			<g>
				<g>
					<g>
						<path class="st0" d="M56.86,5.14c-0.47-0.06-0.3,0.37-0.37,0.44C57.26,5.53,56.84,5.03,56.86,5.14z"/>
						<polygon class="st0" points="64.68,4.89 64.51,5.04 65.73,4.8 						"/>
						<path class="st0" d="M71.83,6.52c-0.46-0.87-2.61-0.56-3.81-1.13l-0.17-0.21l-0.69,0.41C68.69,5.9,70.8,6.03,71.83,6.52z"/>
						<path class="st0" d="M74.93,9.3c-0.12-0.34,0.86,0.06-0.8-0.38C74.2,8.97,74.21,9,74.25,9.03C74.4,9.08,74.6,9.16,74.93,9.3z"
							/>
						<path class="st0" d="M74.25,9.03C73.54,8.8,74.63,9.42,74.25,9.03L74.25,9.03z"/>
						<path class="st0" d="M77.5,10.24l-0.99-0.2c0.12,0.24,0.89,0.65,0.55,0.62C78.02,10.97,77.91,10.73,77.5,10.24z"/>
						<path class="st0" d="M78.58,10.18l-0.51-0.13C78.12,10.15,78.23,10.23,78.58,10.18z"/>
						<path class="st0" d="M76.99,9.77l1.08,0.28c-0.08-0.17,0-0.38-0.49-0.15C77.75,9.75,77.47,9.84,76.99,9.77z"/>
						<path class="st0" d="M76.47,9.4c-0.43-0.4-1.09-0.73-0.06-0.58c-0.91-0.32-1.36-0.3-1.34-0.16C75.09,8.82,75.6,9.03,76.47,9.4
							z"/>
						<path class="st0" d="M72.4,5.94c-0.22-0.16-0.44-0.32-0.68-0.44l-0.72,0.06c0.18-0.02,0.53,0.12,0.83,0.24
							C72.14,5.93,72.39,6.06,72.4,5.94z"/>
						<path class="st0" d="M82.73,13.49c0.13-0.1-0.07-0.52-0.03-0.72l-0.72-0.23C82.25,12.83,82.8,13.28,82.73,13.49z"/>
						<path class="st0" d="M82.7,12.77l1.08,0.35C82.95,12.59,82.73,12.6,82.7,12.77z"/>
						<polygon class="st0" points="79.09,9.54 77.2,9.24 79.42,9.69 						"/>
						<polygon class="st0" points="86.13,15.86 85.43,15.78 86.63,16.01 						"/>
						<path class="st0" d="M88.35,17.49c-0.52-0.08,0.14,0.8-0.33,0.61c0.58,0.46,1.21,0.7,1.79,0.92
							C89.28,18.7,88.82,18.24,88.35,17.49z"/>
						<path class="st0" d="M90.75,19.43c-0.28-0.16-0.6-0.28-0.94-0.41C90.1,19.19,90.4,19.33,90.75,19.43z"/>
						<path class="st0" d="M85.3,14.23c0.02,0.13,0.01,0.42,0.44,0.87l-0.1-0.61C85.54,14.42,85.42,14.33,85.3,14.23z"/>
						<path class="st0" d="M85.64,14.48l0,0.02c0.37,0.29,0.63,0.49,0.74,0.58C86.29,15,86.06,14.82,85.64,14.48z"/>
						<path class="st0" d="M85.21,14.17c0.03,0.02,0.06,0.04,0.09,0.07C85.29,14.17,85.28,14.15,85.21,14.17z"/>
						<path class="st0" d="M81.51,11.24c0.67,0.13,1.99,0.63,1.03-0.38C81.99,10.87,82.54,11.44,81.51,11.24z"/>
						<path class="st0" d="M85.08,13.4c-0.3-0.26-0.63-0.47-0.95-0.71c-0.04,0.11,0.05,0.36-0.29,0.29
							C84.25,13.12,84.69,13.23,85.08,13.4z"/>
						<polygon class="st0" points="85.62,13.64 85.08,13.4 85.41,13.69 						"/>
						<path class="st0" d="M89.55,17.79c0.5,0.2,0.92,0.56,1.4,0.96c-0.44-0.51-0.93-1.02-1.42-1.46
							C89.38,17.33,89.01,17.32,89.55,17.79z"/>
						<path class="st0" d="M87.72,16.1c0.03,0.02,0.07,0.03,0.11,0.05C87.8,16.07,87.76,16.03,87.72,16.1z"/>
						<polygon class="st0" points="95.21,23.22 95.2,23.1 95.13,23.13 						"/>
						<path class="st0" d="M89.5,17.16c-0.32-0.4-0.61-0.53-0.91-0.62c0.31,0.22,0.62,0.47,0.94,0.76
							C89.6,17.28,89.64,17.25,89.5,17.16z"/>
						<path class="st0" d="M92.13,20.46c-0.11-0.26-0.26-0.53-0.45-0.78C91.79,19.94,91.99,20.47,92.13,20.46z"/>
						<path class="st0" d="M87.89,16.34c-0.02-0.01-0.05-0.02-0.07-0.03C87.89,16.48,87.91,16.43,87.89,16.34z"/>
						<path class="st0" d="M87.89,16.34c0.25,0.11,0.48,0.15,0.7,0.2c-0.27-0.16-0.53-0.29-0.76-0.39
							C87.86,16.21,87.88,16.28,87.89,16.34z"/>
						<path class="st0" d="M98.52,23.03c-0.19,0.08-0.56-0.1-0.93-0.45c-0.19-0.17-0.37-0.4-0.54-0.64
							c-0.19-0.23-0.35-0.5-0.47-0.79c-1.02-0.68-1.47,0.76-1.37,1.95c0.15-0.08,0.31-0.22,1.19,0.59c-0.02-0.5-1.31-2.32-0.37-1.81
							c0.62,0.51,0.78,0.81,0.84,1.04c0.07,0.23,0.03,0.42,0.18,0.79c-0.01-0.83,1.78,1.18,2.16,0.47l-1.05-0.98
							C98.22,23.1,98.67,23.4,98.52,23.03z"/>
						<path class="st0" d="M93.74,21.43l-0.36-0.32c0.32,0.45,0.46,0.85,0.71,1.58c0.68,0.46,0.9,0.48,1.04,0.44l-1.54-1.78
							L93.74,21.43z"/>
						<path class="st0" d="M91.91,19.54c0.6-0.08,1.48,0.69,1.35-0.17c-1.02-1.01-0.98-0.44-1.72-0.89c1.77,1.46-0.65-0.27,0.4,1.01
							c-0.38-0.25-0.69-0.5-0.99-0.74c0.27,0.31,0.51,0.62,0.73,0.93c-0.01-0.02-0.01-0.04-0.02-0.05l-0.01-0.01l0.01,0
							c-0.03-0.1-0.04-0.15,0.02-0.05c0.01,0,0.03,0.02,0.04,0.03C91.78,19.56,91.84,19.55,91.91,19.54c0.42,0.5,0,0.15-0.19,0.05
							c-0.02,0.01-0.05,0.01-0.07,0.03l0,0.01c0.63,0.44,1.14,0.99,1.72,1.48C93.09,20.72,92.71,20.25,91.91,19.54z"/>
						<path class="st0" d="M84.09,10.72c0.04,0.07,0.02,0.09,0.01,0.12C84.26,10.88,84.33,10.87,84.09,10.72z"/>
						<path class="st0" d="M84.78,11.44c-0.18-0.04-0.39,0.03-0.84-0.29c-0.34-0.36,0.11-0.17,0.16-0.31
							c-0.35-0.08-1.16-0.34-0.38,0.38l0.17,0.04c0.73,0.62,1.46,1.69,1.28,1.65C85.17,12.44,85.11,12.09,84.78,11.44z"/>
						<path class="st0" d="M88.72,15.29c0.58,0.31,1.08,0.71,1.61,1.09l-0.49-0.95l-0.11,0.21C88.94,14.86,88.92,15.25,88.72,15.29z
							"/>
						<path class="st0" d="M95.19,23.52l-0.52,0.11c0.42,0.12,0.77,0.29,1.17,0.44L95.19,23.52z"/>
						<polygon class="st0" points="96.7,25.44 96.33,25.6 96.9,25.98 						"/>
						<path class="st0" d="M28.42,102.87l-0.58-0.22C28.1,102.77,28.28,102.83,28.42,102.87z"/>
						<path class="st0" d="M32.27,104.98l0.18-0.13C32.22,104.86,32.11,104.89,32.27,104.98z"/>
						<path class="st0" d="M99.2,81.88c-0.73,0.5-1.67,0.94-1.25,1.1l0.49,0.03C98.67,82.49,98.94,82.15,99.2,81.88z"/>
						<path class="st0" d="M66.89,107.3c0.09,0.03,0.18,0.06,0.27,0.09c0.17-0.2,0.33-0.38,0.47-0.55
							C67.41,106.98,67.16,107.17,66.89,107.3z"/>
						<path class="st0" d="M66.63,109.15l-1.19-0.1C65.71,109.11,66.1,109.14,66.63,109.15z"/>
						<path class="st0" d="M10.64,86.9c-0.26-0.11-0.53-0.21-0.77-0.34C10.5,87.49,10.42,86.94,10.64,86.9z"/>
						<path class="st0" d="M106.31,48.29c-0.06,0.71-0.05,1.27,0,1.75C106.44,49.19,106.71,48.46,106.31,48.29z"/>
						<path class="st0" d="M32.12,99.73c-0.33-0.11-0.5-0.11-0.54-0.02C31.92,99.83,32.13,99.86,32.12,99.73z"/>
						<path class="st0" d="M106.45,52.03c0.04-0.12,0.05-0.25,0.08-0.37c-0.11-0.5-0.15-1.01-0.21-1.62
							C106.23,50.67,106.1,51.38,106.45,52.03z"/>
						<path class="st0" d="M25.59,9.66c0.06-0.02,0.13-0.05,0.2-0.06C25.77,9.54,25.69,9.58,25.59,9.66z"/>
						<path class="st0" d="M49.71,5.1c-0.22,0.06-0.59,0.12-0.94,0.18C48.94,5.28,49.23,5.23,49.71,5.1z"/>
						<path class="st0" d="M101.61,33.92C101.36,33.46,101.53,33.86,101.61,33.92L101.61,33.92z"/>
						<path class="st0" d="M102.03,30.83c0.09,0.08,0.18,0.13,0.28,0.09C102.19,30.94,102.1,30.9,102.03,30.83z"/>
						<path class="st0" d="M109.23,57.28c0,0.02,0,0.03,0,0.05C109.32,57.16,109.3,57.19,109.23,57.28z"/>
						<path class="st0" d="M101.45,33.13c0.04,0.2,0.09,0.42,0.17,0.65C101.6,33.67,101.55,33.47,101.45,33.13z"/>
						<path class="st0" d="M101.31,33.31c-0.06-0.17-0.11-0.3-0.16-0.43C101.06,32.86,101.04,32.93,101.31,33.31z"/>
						<path class="st0" d="M101.94,34.55c-0.13-0.26-0.24-0.52-0.32-0.77c0.02,0.1,0.01,0.15-0.01,0.13
							C101.68,34.05,101.78,34.24,101.94,34.55z"/>
						<path class="st0" d="M2.92,48.37c0.02-0.03,0.03-0.08,0.06-0.11C2.88,47.67,2.88,47.92,2.92,48.37z"/>
						<path class="st0" d="M93.72,95.58c0.02-0.02,0.02-0.04,0.03-0.06c-0.02,0.01-0.05,0.03-0.07,0.05L93.72,95.58z"/>
						<path class="st0" d="M92.42,97.19c0.29-0.99,0.69-1.27,1.25-1.62l-1.34-0.48C92.38,95.78,92.41,96.48,92.42,97.19z"/>
						<path class="st0" d="M19.86,96.77l0.81,1.26c-1.71-0.69-2.53-1.73-1.87-0.39c0.27-0.22,0.67-0.09,1.13,0.2
							c0.47,0.29,0.98,0.77,1.58,1.16c1.15,0.82,2.31,1.64,2.78,1.15l0.6,0.8c-0.21-0.17-0.29-0.13-0.5-0.31
							c1.11,1.66,1.67,0,3.55,1.39c0.64,0.51,1.04,0.98,0.48,0.83l1.74,0.66c0.45,0.29,0.22,0.44-0.22,0.14
							c0.83,0.44,1.71,0.77,2.56,1.15l-0.04,0.03c0.45-0.02,1.4,0.07,1.85,0.13c0.55,0.48-0.38-0.02-0.28,0.21
							c0.51,0.11,1.01,0.26,1.52,0.35c0.23,0.27,0.01,0.38-0.39,0.36c-0.39-0.05-0.95-0.24-1.42-0.49c0.37,0.93,0.71,1,1.25,1.08
							c0.57,0.04,1.34,0.09,2.68,1l-1.45-0.35c0.62,1.05,1.81,1.19,3.26,2.22c-0.32-0.38-2.77-2.3-1.07-2.04
							c0.41,0.25,0.98,0.54,1.93,0.56c-0.13,0.46,0.76,0.57,1.85,0.83l-0.24,0.6c1.23,0.13,1.21-0.22,1.96-0.32
							c1.28,0.39,1.45,0.95,1.69,1.4c2.13,0.43-1.32-1.01,1.22-0.74c0.86,0.26,1.62,0.37,2.42,0.41c0.81,0.03,1.66,0.04,2.73-0.13
							c1.22,0.28-0.25,0.38,0.18,0.58l1.14-0.45c0.27,0.03,0.17,0.18,0.12,0.25c0.94-0.15,0.11-0.63,1.56-0.74
							c0.2-0.36,0.93-0.02,1.85,0.21c0.91,0.2,2.03,0.38,2.9-0.07c0.45,0.16-0.19,0.4-0.04,0.64c2.44-0.65,2.11-0.45,4.01-1.46
							l1.76,0.16c-1.32-0.28,0.19-1.09,1.45-1.75c-0.48-0.16-0.88-0.31-1.14-0.36c0.7-0.22,1.39-0.43,2.05-0.75
							c0.27,0.04,0.11,0.31-0.18,0.66c0.13-0.09,0.26-0.17,0.35-0.25c0.81,0.04,0.5,0.5,0.03,0.99c-0.29-0.06-0.57-0.12-0.85-0.19
							c-0.46,0.46-0.89,0.96-0.71,1.31c0.13-0.09,0.4-0.2,0.69-0.28c-0.12,0.13-0.2,0.23-0.12,0.28c0.09,0.05,0.3-0.1,0.62-0.36
							l0.65,0.57l0.06-0.31l2.98-0.31c0.47-0.31,0.91-0.62,1.35-0.96c0.43-0.37,0.86-0.75,1.33-1.13c0.93-0.78,2.02-1.47,3.45-2.24
							c-0.52,0.83,0.18,0.86,0.38,1.45c-1.09-0.25-2.32,1.16-4.01,1.65c0.87-0.25,0.79,0.1,0.6,0.28l2.71-1.63
							c0.13,0.5,0.77,0.14,1.58-0.05c-0.96-0.65,1.81-1.61,2.8-2.43c0.23,0.26,0.11,0.7-1.31,1.3c1.88-0.09,1.46-1.93,3.16-2.26
							c-0.32,0.2-0.51,0.26-0.55,0.49c0.6-0.71,2.53-1.61,2.26-1.1l-0.32,0.2c0.55-0.3,1.23-0.69,1.94-1.13
							c0.69-0.47,1.36-1.05,1.99-1.57c1.23-1.08,2.19-2.06,2.03-2.53c0.09,0.07,0.42,1.01,0.4,1.23c0.53-1.71,0.95-3.42,1.34-5.05
							c0.22,0.79,2.54,1.03,1.29,2.72c0.49-0.34,1.19-0.7,1.86-1.81c-0.35,0.24-1.44-0.01-1.11-0.45c1.59-0.54,1.01-0.46,2.78-1.38
							c-0.53,0.35-0.92-0.92-0.27-1.59c0.03,0.22,0.91,0.68,0.76,1.02c0.26-0.83,0.51-1.66,0.66-2.54c-0.19,0.6,0.68,0.68,1.25,0.44
							c-0.32,0.07,1.26-1.65,1.56-2.23l-0.82,0.66c1.79-2.06,0.22-3.06,1.64-5.23c0.04,0.38,0.81,1.42,1.64,0.32
							c-0.1-0.42-0.29-1.32-0.51-2.44c-0.21-1.12-0.34-2.37-0.06-3.47l0.49-0.25c0.13-0.57,0.29-1.13,0.34-1.72
							c0.26,0.68,0.39,1.85,0.5,3.14c0.1,1.29,0.14,2.69,0.06,3.63c0.69-0.78,0.47-0.07,1.11-1.46c0.51-0.35,0.05,0.97-0.13,1.38
							l1.74-3.15c-0.34-0.07-0.2-0.75-0.04-1.43c0.11-0.7,0.2-1.39-0.08-1.43c-0.17,1.31-0.59,2.53-0.92,3.8
							c-0.34-0.08-0.52-0.79-0.49-1.73c0.01-0.48,0.12-0.99,0.21-1.56c0.09-0.57,0.25-1.16,0.49-1.72c0.47-0.5,0.96,0.86,1.18,0.9
							c-0.1-0.39,0.4-2.38,0.64-2.55l-0.03,1.12c0.36-0.62,0.35-1.23,0.39-1.85c0.03-0.62,0.04-1.28,0.56-2
							c0.18-0.54,1.27-1.47,0.91-1.66c-0.98,0.75-3.32,0.3-3.73-0.41c0.05-0.09,0.42-0.73,0.82-1.44c0.44-0.7,0.75-1.49,1.01-1.77
							c0.73-0.82,1.2,1.64,1.83,0.95c-0.17-0.07-0.32-0.63-0.36-0.85c0.25-0.57,0.52,0.34,0.64-0.97c-0.64-0.32,0.46-2.62-0.48-0.7
							c0-0.64,0.08-0.97,0.2-1.33c0.11-0.36,0.27-0.74,0.27-1.49c-0.46,0.43-1.43-1.46-1.56-2.69c0.17,0.08,0.41-0.19,0.52-0.32
							c0.05-0.64,0.11-1.2,0.17-1.73c0.02-0.53,0.04-1.01,0.06-1.5c0.04-0.97,0.07-1.92,0.01-3.12c0.16-0.23,0.28-1.42,0.61-0.95
							c-0.17-0.33-0.45-0.62-0.58-1.36c0.37-1.51,0.34,1.64,0.88,0.46c-0.41-0.05-0.83-1.86-1.24-2.86
							c-0.55,0.43,0.25,2.43,0.66,3.46c-0.84,0.09-1.99-1.61-2.74-3.93c-0.23-0.94-0.21-1.15-0.05-1.2
							c0.14-0.04,0.34,0.11,0.24-0.04c-0.39-1.79-0.94-2.46-1.41-3.04c-0.47-0.59-0.83-1.11-1.09-2.59c0.1-1.3,0.99-0.4,1.27-0.78
							c0.37,0.72,0.52,1.32,0.58,1.88c0.03,0.57,0.03,1.07,0.17,1.59l-0.09-1.36c0.3,0.44,0.7,1.45,0.69,2.05
							c0.31-1.15-1.66-6.05-2.54-8.81c-0.39-0.39-0.94-1.1-0.95-0.63l0.46,0.78c-0.04,0.92-1.28-1.27-0.97-0.16
							c-0.4-0.47-0.85-0.96-1.26-1.52c-0.21-0.28-0.4-0.58-0.58-0.91c-0.21-0.31-0.4-0.66-0.56-1.05l0.37-0.58
							c-0.14,0.12,0.26,1.12,0.66,1.43c-0.59-0.46-0.63-2.63-1.71-2.87l0.25,1.23c-0.91-0.85-2.11-1.79-2.87-3.02
							c-0.1,0.88,0.27,0.23,0.28,1.46c0.27-1.25,1.88,3.18,1.93,1.47c-0.07,0.67,0.09,1.1,0.28,1.56c0.19,0.46,0.45,0.94,0.41,1.73
							c0.16-0.13,0.13-0.62,0.57,0.52c0.08,0.02,0.2,0.11,0.27,0.16c0.01,0.04,0.01,0.05,0.02,0.08c0-0.03,0-0.05-0.01-0.07
							c0.05,0.03,0.06,0.04,0-0.03c-0.05-0.3-0.05-0.56,0.01-0.7c0.67,0.33,1.51,2.11,2.02,2.61c0.23,0.7-0.35-0.18-0.37,0.26
							c0.26,0.24,0.51,0.5,0.72,0.77c-0.38,0.27-0.03,2.09-0.86,0.59l0.5,1.44c0.06,0.93,0.42,2.1,0.82,2.77
							c0.08,0.72,0.93,1.62,0.43,1.11l0.87,2.25l-0.1,0.05c0.32,1.14,0.62,2.32,0.91,3.56c0.27,1.24,0.54,2.54,0.14,3.93
							c0.15,0.79,0.33,1.61,0.27,2.94l-0.38,0.26c0.13,0.51-0.04,1.27-0.13,1.96c-0.1,0.69-0.16,1.3,0.03,1.53
							c-0.27,0.26-0.44,0.69-0.54,1.22c-0.05,0.27-0.08,0.56-0.1,0.86c-0.04,0.3-0.08,0.62-0.13,0.94c-0.15,1.29-0.2,2.7-0.43,3.56
							l0.49,0.16c-0.24,1.21-0.47,2.36-0.63,3.91l0.46,0.03c0.1,1.43-1.35,3.18-2.01,5.17c-0.11-0.2,0.11-0.68,0.34-1
							c-0.45,0.5-0.75,1.07-0.96,1.68c-0.25,0.6-0.46,1.22-0.64,1.85c-0.18,0.63-0.36,1.26-0.59,1.84c-0.23,0.58-0.5,1.13-0.98,1.51
							c-0.15,0.57-0.42,0.89-0.72,1.18c0.03-0.05,0.04-0.09,0.05-0.13c-0.03,0.05-0.08,0.12-0.13,0.2c-0.2,0.17-0.41,0.35-0.61,0.55
							c0.22-0.15,0.41-0.29,0.55-0.44c-0.22,0.38-0.52,0.98-0.76,1.6l-0.55-0.03c-0.02,0.05-0.04,0.09-0.07,0.14
							c-0.48,0.44-0.08,0.57,0.4,0.47c-0.09,0.33-0.22,0.62-0.26,0.87c-0.95-0.03-0.83,1.54-1.92,1.61c0.03,0.3-0.4,1-0.79,1.74
							c-0.44,0.69-0.85,1.41-0.65,1.82c-0.1-0.06-0.27,0.05-0.03-0.22c-0.57,0.48-1.14,0.96-1.41,1.62l-0.65-0.19l-0.25,0.88
							l-0.31,0.84c-0.99,0.4-1.43,0.5-1.04-0.49c-1.24,2.09-1.2,1.48-2.23,3.35l-0.17-0.36c-0.56,0.43-1.15,1.54-1.7,1.54
							c-0.43,0.09-1.05,0.42-1.78,0.9c-0.72,0.51-1.68,0.98-2.64,1.58c-1.9,1.26-4.3,2.28-6.26,2.86c0.59,0.36,0.11,0.46-0.49,0.54
							c-0.62,0.05-1.35,0.11-1.27,0.56c-0.32-0.17-0.9-0.13-0.38-0.58c-1.86,0.94-3,0.72-4.18,1.74c-0.3-0.21,0.32-0.5,0.07-0.6
							c-0.14,0.1-0.57,0.39-0.82,0.29c-0.24-0.11,0.23-0.3,0.51-0.49c-1.99,0.56-2.01,1.44-1.98,2.26c-0.57-0.05-0.98-0.03-1.33,0.1
							c-0.36,0.09-0.66,0.28-1,0.59c-0.42-0.2-1.09-0.37,0.2-0.67c-0.75,0.06-4.53,0.33-4.55,0.93c-0.25-0.15-1.05,0-1.24,0.09
							c-1.68,0.05-1.83,0-3.47,0.14l0.46,0.08c-0.65,0.84-1.38,0.18-2.71,0.2l0.04-0.08c-1.52-0.36-1.84-0.3-2.17-0.26
							c-0.16,0.02-0.33,0.04-0.63,0c-0.31-0.02-0.76-0.13-1.48-0.42l0.11,0.5c-0.42,0.98-2.57-1-4.35-0.88
							c0.19,0.13,0.38,0.24,0.57,0.37c-0.51,0.13-1.1-0.4-1.65-0.97c-0.55-0.57-1.07-1.19-1.51-1.36c-0.17-0.14,0.35-0.06,0.64-0.05
							c-2.21-1.19-0.47,0.53-2.29,0.21c-0.22-0.42,0.66-0.69-0.49-1.11c-0.24-0.24-1.16-0.28-2.2-0.42
							c-0.52-0.07-1.07-0.16-1.58-0.31c-0.25-0.07-0.49-0.16-0.71-0.27c-0.21-0.12-0.4-0.27-0.56-0.44c0.23,0.4,0.46,0.8-0.39,0.61
							c-0.62-0.25-1.32-0.86-2.03-1.37c-0.71-0.53-1.47-0.9-2.16-0.89c-0.11-0.15-0.13-0.24-0.1-0.3c-0.96-0.34-2.97-1.39-3.75-1.34
							c0.06-0.93-1.28-1.72-2.58-2.41c-0.64-0.36-1.3-0.66-1.67-1.02c-0.38-0.35-0.53-0.68-0.28-0.96l-2.35-2.02l0.17-0.06
							c-0.72-0.67-1.16-1.18-1.61-1.45c-0.43-0.29-0.8-0.43-1.18-0.56c-0.23-0.41,0.1-0.26,0.18-0.28
							c-1.76-2.32-1.84-2.57-3.95-4.07l0.25-0.49c-0.16-0.09-0.35-0.37-0.59-0.78c-0.24-0.4-0.45-0.98-0.73-1.58
							c-0.27-0.61-0.59-1.26-0.96-1.9c-0.38-0.63-0.81-1.25-1.22-1.83c0.06,0,0.17,0.01,0.33,0.18c-0.47-0.65-0.84-1.44-1.16-2.27
							c-0.3-0.83-0.62-1.66-0.78-2.48c-0.38-1.61-0.82-2.91-1.88-3.18c-0.42-0.61-0.67-1.27-1.01-1.91
							c0.55,2.72-0.86-0.18-0.86,1.01c-0.38-1.05-0.18-2.9,0.24-1.62l-0.03,0.23c1.05,0.23-0.57-3.41,0.15-3.48
							C5.25,60.13,5.7,54.83,6.17,49.9c-0.27,0.16-0.55,0.33-0.8,0.5c0.06-0.58,0.2-1.16,0.29-1.74c0.24-0.44,0.66-0.53,0.44,0.69
							c0.51-0.59-0.03-2.11-0.18-2.18c0.66-2.37,0.7,1.08,0.83,0.34l0.1-1.01l-0.12,0.21c-0.09-0.43-0.2-0.68-0.27-1.01
							c-0.08-0.33-0.07-0.73,0.15-1.45C7,43.36,7.18,43.88,7.3,43.52c0.05,0.01,0.1-0.1,0.16-0.55l0.6-2.11L7.3,41.56
							c-0.04-1.03,0.57-2.01-0.33-1.21c0.69-0.59,1.53-2.48,2.2-4.35c0.78-1.83,1.61-3.57,1.92-3.93c0.06-0.36,0.13-0.7,0.23-1.05
							c0.12-0.33,0.28-0.65,0.45-0.97c0.34-0.64,0.75-1.29,1.21-2c-0.32,0.29-1.01,0.17-0.17-1.05c0.44,0.61,0.85,0.08,1.46-0.57
							c0.61-0.65,1.3-1.49,2.03-1.66c-0.57,0.22,0.02-0.62,0.53-1.43c0.52-0.81,1.08-1.49,0.17-1.19c0.9-0.83,0.43,0.27,1.29-0.2
							c0.38-0.62,0.86-1.2,1.39-1.78c0.27-0.29,0.54-0.58,0.84-0.85c0.32-0.25,0.64-0.51,0.97-0.77c1.34-1,2.66-2.14,4.07-3.2
							c-0.06-0.17-0.71-0.03-0.25-0.69l2.02-0.41c0.25-0.24,0.24-0.55,0.33-0.83c0.09-0.29,0.3-0.53,1.02-0.6
							c-0.24-0.03-0.59-0.08-0.22-0.37c3.18-1.51,6.21-3.34,9.54-4.69c1.67-0.64,3.33-1.35,5.11-1.63c0.88-0.18,1.76-0.33,2.64-0.44
							c0.88-0.12,1.8-0.03,2.69,0.01c-0.99-0.19-0.38-0.32,0.34-0.44c-0.48-0.01-0.06-0.43-0.18-0.65c1.02,0.08,2.02,0.1,3.02,0.24
							c0.48-0.68,3.16-0.2,3.45-0.85l-0.94,0.16c1.25-0.81-1.86-1.57-1.77-2.53c-0.35,0.23-0.77,0.28-1.25,0.24
							c-0.47-0.01-1-0.06-1.56-0.12c-1.11-0.1-2.38-0.13-3.46,0.65c-0.57-0.11,0.39-0.37,0.07-0.55c-0.54,0.47-1.23,0.77-2.61,0.92
							l0.13-0.14c-1.86,0.56-3.25,0.73-4.64,1.18c-0.71,0.19-1.43,0.38-2.24,0.6c-0.81,0.22-1.73,0.44-2.74,0.89l0.49,0.29
							c-0.87,0.35-1.11,0.3-1.56,0.39c-0.67,1.12,2.4-1.11,1.84,0.04c-0.75-0.17-2.25,0.54-3.71,1.23
							c-1.44,0.71-2.75,1.56-3.41,1.29c-1.25,0.75,0.65,0.24-0.59,0.99L26.6,9.5l-0.1,0.51c-0.85,0.43-1.41,0.47-1.59,0.27
							c0.2-0.11,0.49-0.45,0.68-0.62c-1.2,0.46-2.75,2.2-3.16,2.36l1.24-0.7c-0.75,0.66-1.6,1.28-2.41,1.99
							c-0.79,0.73-1.6,1.47-2.41,2.21c-0.4,0.37-0.8,0.75-1.2,1.12c-0.35,0.41-0.7,0.82-1.04,1.23c-0.67,0.82-1.29,1.63-1.82,2.44
							l0.36-0.07c-0.42,0.59-0.7,1.02-0.94,1.35c-0.24,0.32-0.45,0.54-0.67,0.76c-0.44,0.44-0.93,0.89-1.8,2.23l0.03-0.12
							c-0.23,0.62-0.55,1.42-1.03,2.15c0.2-0.83-1.22,1.03-0.92-0.03C8.58,29.51,9.26,28.07,9,30.28l-0.54,0.26
							C8.46,31.33,8.59,31.46,8,32.91c0.27-1.3-0.95,0.67-0.7-0.82C6.75,32.76,6.38,33.41,6.12,34c-0.24,0.61-0.33,1.18-0.43,1.69
							c-0.2,1.02-0.37,1.78-1.19,2.32c0.45,1.77,1.53-2.53,1.44-1.65c0.56-0.55,0.29,1.44-0.16,2.37c-0.42,0.96-1.77,1.32-2.45,3.96
							c0.07-0.26,0-0.3,0.07-0.55c-0.25,0.46-0.29,0.96-0.35,1.49c-0.03,0.26-0.07,0.53-0.15,0.8c-0.05,0.28-0.14,0.56-0.29,0.85
							c0.5,0.8-0.28,1.59,0.47,1.91l0.19-2.46c-0.01,1.43,0.71,2.84-0.07,5.02c-0.13-0.19-0.24-0.89-0.28-1.36
							C2.6,49,2.84,49.66,2.58,50.32c-0.84-0.28,0.25-2.98-0.13-4.57C2,46.43,2.58,48.67,1.85,47.8c0.46,0.62,0.32,1.27,0.14,2.01
							c-0.12,0.75-0.25,1.6,0.12,2.54L1.64,52.2c0.06,0.3,0.25,0.91,0.21,1.44l-0.57-0.99c0.46,1.51-0.65,2.88-0.24,4.33
							c-0.09-1.51,0.06-1.68,0.26-1.63c0.19,0.05,0.41,0.31,0.61-0.32c0.32,1.83,0.1,2.35-0.25,2.95c-0.32,0.6-0.73,1.28-0.47,3.35
							c-0.13-0.56,0.16-2.14,0.42-1.28c-0.09,0.8-0.12,1.85-0.28,2.36c0.51,2.72,0.42-0.48,0.89,0.64c-0.43,1,0.44,1.3,0.8,2.43
							l-0.47,0.1c0.02,0.39,0.05,0.7,0.1,0.93c0.06,0.23,0.13,0.4,0.2,0.52c0.14,0.24,0.28,0.31,0.42,0.36
							c0.28,0.11,0.54,0.18,0.7,1.56l-0.94-0.98l0.53,1.37l-0.61-0.16c0.4,0.73,0.6,1.21,0.73,1.71c0.13,0.5,0.19,1.02,0.4,1.78
							c0.2-0.45,0.9-0.08,1.38,1.19c0.05,0.97-0.61-0.34,0.12,1.47c-0.43-0.3-0.96-0.63-0.83-1.58c-0.18-0.03-0.44-0.31-0.61-0.34
							c0.04,1.07,0.81,2.44,1.06,3.11c-0.08-0.27-0.17-0.58-0.16-0.77c0.27,0.4,0.53,0.81,0.81,1.21l0.92,1.14
							c0.03,0.48-0.26,0.22-0.54-0.04c0.3,0.5,0.67,0.76,1.07,1.5c-0.45-0.03-0.79,0.2-1.48-0.81l1.58,2.27
							c-0.08,0.25,0.21,1.48-0.07,1.23c0.61,1.42,2.55,2.83,3.41,4.64c0.12,0.04,0.31,0.17,0.61,0.48c0.53,0.78,0.94,1.57,1.45,2.36
							c0.26,0.39,0.52,0.79,0.86,1.16c0.36,0.35,0.76,0.7,1.24,1.02l0.33,1.41c1.3,1.19-0.5-1.86,1.65,0.1
							c1.54,1.34,0.08,0.99,0.46,1.64c1.02,0.45,2.8,1.09,3.82,2.79C20.62,97.53,20.32,97.13,19.86,96.77z M38.37,107.3
							c-0.42-0.05-1.31-0.04-1.5-0.41C37.51,106.54,37.76,106.91,38.37,107.3z M70.06,107.46c-0.25,0.23-0.73,0.27-1.28,0.22
							C69.15,107.55,69.57,107.46,70.06,107.46z M104.13,39.01c0.01,0.01,0.02,0.02,0.04,0.03
							C104.28,39.9,104.25,39.59,104.13,39.01z M103.72,37.29c-0.12-0.14-0.18-0.11-0.22-0.01c0.16,0.07,0.3,0.44,0.42,0.88
							C104,37.99,104,37.74,103.72,37.29z M7.18,43.29L6.97,43.6C7.03,42.81,7.1,43.05,7.18,43.29z"/>
						<path class="st0" d="M66.67,108.93c-0.13-0.06-0.18-0.15-0.22-0.23C66.31,108.81,66.32,108.9,66.67,108.93z"/>
						<path class="st0" d="M10.78,86.96l-0.03-0.06c-0.05-0.01-0.08-0.01-0.11,0L10.78,86.96z"/>
						<path class="st0" d="M110.36,64.91c-0.13,0.38-0.25,0.58-0.36,0.7C110.11,65.66,110.24,65.5,110.36,64.91z"/>
						<path class="st0" d="M98.86,29.34l0.69,0.89c-0.3-0.45-0.31-0.67-0.39-0.94C99.08,29.37,99.05,29.64,98.86,29.34z"/>
						<path class="st0" d="M95.21,19.63c-0.16-0.09-0.25-0.27-0.41-0.35l-0.13,0.19C95.17,20,95.65,20.26,95.21,19.63z"/>
						<path class="st0" d="M99.67,27.59c0.27-0.28-0.15-0.88-0.73-1.46c0.03,0.04,0.06,0.07,0.09,0.11
							C98.43,26.37,99.1,26.94,99.67,27.59z"/>
						<path class="st0" d="M98.82,25.99c-0.17-0.19-0.33-0.39-0.46-0.59C98.13,25.45,98.51,25.66,98.82,25.99z"/>
						<path class="st0" d="M102.65,35.31c-0.07-0.38-0.58,0-0.52-0.26C101.49,34.87,103.76,37.05,102.65,35.31z"/>
						<polygon class="st0" points="100.45,26.29 100.18,26.82 100.76,26.99 						"/>
						<path class="st0" d="M103.35,32.12l-0.45-1.25c-0.07,0.06-0.18-0.07-0.3-0.24C102.94,31.37,103.23,32.21,103.35,32.12z"/>
						<path class="st0" d="M102.6,30.64c-0.18-0.38-0.42-0.71-0.61-0.87C102.11,29.96,102.4,30.36,102.6,30.64z"/>
						<polygon class="st0" points="101.52,27.76 101.63,28.15 102.08,28.96 						"/>
						<path class="st0" d="M107.81,45.43l0.36,1.39c0.19,0.12,0.24-0.29,0.09-0.81C108.08,45.7,107.94,45.19,107.81,45.43z"/>
						<path class="st0" d="M108.1,40.87c0,0.41-0.1,0.47-0.21,0.73l0.61-0.12L108.1,40.87z"/>
						<path class="st0" d="M109.27,44.99c0.19,0.11,0.81,2.03,0.49,0.18C109.59,45.05,109.17,43.63,109.27,44.99z"/>
						<polygon class="st0" points="108.27,66.82 108.36,66.46 107.35,66.3 						"/>
						<path class="st0" d="M102.9,85.8c1.14-1.4-0.31-0.7,0.79-1.92c0.01-0.48-0.89,0.99-0.85,0.52
							C102.5,85.45,102.08,85.85,102.9,85.8z"/>
						<path class="st0" d="M102.84,84.4c0.06-0.17,0.11-0.35,0.15-0.55C102.89,84.15,102.85,84.3,102.84,84.4z"/>
						<polygon class="st0" points="53.6,5.29 54.66,5.45 53.97,5.14 						"/>
						<path class="st0" d="M55.6,4.43l0.26,0.64l0.63-0.62C56.25,4.49,55.79,4.57,55.6,4.43z"/>
						<path class="st0" d="M41.03,109.53l0.13-0.13c-0.13-0.21-0.39-0.29-0.91-0.45L41.03,109.53z"/>
						<polygon class="st0" points="26.84,102.65 27.07,102.81 26.95,102.05 						"/>
						<path class="st0" d="M16.04,94.91c0.34,0.44,0.9,0.78,1.29,1.16C16.36,95.36,16.47,94.28,16.04,94.91z"/>
					</g>
				</g>
			</g>
		</g>
	</g>
	<g>
		<path class="st2" d="M50.29,59.23c0.97-1.17,1.9-2.32,2.86-3.44c3.87-4.48,8.07-8.6,12.91-12.04c0.72-0.51,1.44-0.81,2.34-0.73
			c0.76,0.07,1.53,0.01,2.3,0.02c0.37,0,0.66,0.13,0.8,0.5c0.14,0.37,0.01,0.66-0.26,0.91c-4.46,4.07-8.12,8.82-11.6,13.72
			c-2.99,4.2-5.77,8.54-8.37,12.99c-0.48,0.82-1.1,0.83-1.59,0.03c-2.62-4.26-5.56-8.3-8.48-12.36c-0.25-0.35-0.51-0.69-0.75-1.04
			c-0.33-0.47-0.3-0.79,0.12-1.2c0.62-0.61,1.24-1.23,1.86-1.84c0.46-0.45,0.74-0.47,1.27-0.1c2.08,1.45,4.15,2.9,6.23,4.35
			C50.04,59.06,50.16,59.14,50.29,59.23z"/>
		<g>
			<g>
				<g>
					<g>
						<path class="st2" d="M50.89,58.16c0.1,0.09,0.18-0.11,0.22-0.13C50.89,57.94,50.86,58.21,50.89,58.16z"/>
						<polygon class="st2" points="48.68,57.21 48.75,57.16 48.36,57.14 						"/>
						<path class="st2" d="M46.84,55.94c0.03,0.45,0.69,0.41,0.96,0.75l0.02,0.11l0.28-0.15C47.68,56.4,47.08,56.22,46.84,55.94z"/>
						<path class="st2" d="M46.13,54.52c0.02,0.18-0.26-0.04,0.22,0.2c-0.01-0.03-0.02-0.04-0.03-0.06
							C46.28,54.64,46.22,54.6,46.13,54.52z"/>
						<path class="st2" d="M46.32,54.66C46.52,54.79,46.23,54.46,46.32,54.66L46.32,54.66z"/>
						<path class="st2" d="M45.37,54.1l0.3,0.06c-0.03-0.12-0.26-0.3-0.15-0.3C45.22,53.75,45.25,53.87,45.37,54.1z"/>
						<path class="st2" d="M45.04,54.19l0.15,0.04C45.18,54.18,45.15,54.14,45.04,54.19z"/>
						<path class="st2" d="M45.51,54.32l-0.32-0.09c0.02,0.08-0.01,0.2,0.14,0.05C45.28,54.37,45.37,54.31,45.51,54.32z"/>
						<path class="st2" d="M45.66,54.48c0.12,0.18,0.29,0.35-0.01,0.29C46.16,55.07,46.18,54.78,45.66,54.48z"/>
						<path class="st2" d="M46.61,56.21l0.15,0.23l0.21,0C46.86,56.44,46.64,56.1,46.61,56.21z"/>
						<path class="st2" d="M43.53,52.81c-0.03,0.07,0.14,0.25,0.16,0.36c0.11,0.01,0.22,0.02,0.34,0.04
							C43.87,53.07,43.55,52.93,43.53,52.81z"/>
						<path class="st2" d="M43.68,53.17c-0.17-0.01-0.33,0-0.49,0.03C43.62,53.27,43.7,53.27,43.68,53.17z"/>
						<polygon class="st2" points="44.88,54.55 45.43,54.6 44.79,54.49 						"/>
						<path class="st2" d="M41.61,53.35c0.05-0.12,0.07-0.25,0.14-0.36c-0.11,0.2-0.17,0.41-0.25,0.6L41.61,53.35z"/>
						<path class="st2" d="M40.74,54.26c0.06-0.26-0.36,0.03-0.26-0.2c-0.24,0.28-0.37,0.58-0.47,0.83
							C40.16,54.65,40.39,54.44,40.74,54.26z"/>
						<path class="st2" d="M39.83,55.29c0.07-0.11,0.12-0.25,0.18-0.4C39.93,55.01,39.86,55.14,39.83,55.29z"/>
						<path class="st2" d="M42.37,53.31c-0.05-0.03-0.15-0.13-0.42-0.02c0.08,0.03,0.17,0.07,0.25,0.1
							C42.24,53.37,42.3,53.34,42.37,53.31z"/>
						<path class="st2" d="M42.2,53.4L42.2,53.4c-0.2,0.09-0.31,0.19-0.35,0.23C41.88,53.59,41.98,53.51,42.2,53.4z"/>
						<path class="st2" d="M42.41,53.3l-0.04,0.02C42.39,53.33,42.4,53.33,42.41,53.3z"/>
						<path class="st2" d="M44.19,53.84c-0.18,0-0.6-0.1-0.28,0.31C44.06,54.09,43.9,53.85,44.19,53.84z"/>
						<path class="st2" d="M42.68,53.48c0.16-0.03,0.33-0.03,0.49,0c-0.01-0.06-0.1-0.15,0.03-0.19
							C43.02,53.31,42.84,53.38,42.68,53.48z"/>
						<path class="st2" d="M42.48,53.63c0.06-0.06,0.13-0.11,0.2-0.15c-0.06,0.01-0.12,0.03-0.17,0.04L42.48,53.63z"/>
						<path class="st2" d="M40.59,54.8c-0.09,0.21-0.24,0.37-0.41,0.56c0.23-0.17,0.44-0.35,0.63-0.54
							C40.79,54.75,40.8,54.58,40.59,54.8z"/>
						<path class="st2" d="M41.36,54.11l-0.03,0.04C41.36,54.15,41.38,54.14,41.36,54.11z"/>
						<polygon class="st2" points="39.09,57.6 39.12,57.56 39.08,57.55 						"/>
						<path class="st2" d="M40.87,54.82c0.17-0.11,0.22-0.23,0.26-0.37c-0.1,0.12-0.2,0.25-0.32,0.37
							C40.81,54.86,40.83,54.87,40.87,54.82z"/>
						<path class="st2" d="M39.39,55.86c0.12-0.06,0.24-0.13,0.37-0.21C39.62,55.69,39.36,55.81,39.39,55.86z"/>
						<path class="st2" d="M41.25,54.16l0.02-0.03C41.19,54.14,41.21,54.15,41.25,54.16z"/>
						<path class="st2" d="M41.25,54.16c-0.06,0.1-0.09,0.2-0.12,0.3c0.08-0.1,0.15-0.2,0.2-0.3
							C41.31,54.16,41.27,54.16,41.25,54.16z"/>
						<path class="st2" d="M40.79,57.93c-0.2,0.05-0.69-0.25-0.53-0.61c-0.15-0.34-0.84-0.23-1.13,0.24c0.1,0,0.14,0.03,0.46,0.42
							c0.01-0.08-0.03-0.32,0-0.5c0.03-0.18,0.11-0.28,0.22-0.11c0.26,0.5,0.09,0.41,0.12,0.67c0.13-0.23,0.73,0.44,1,0.19
							l-0.36-0.28C40.62,57.94,40.8,58.03,40.79,57.93z"/>
						<path class="st2" d="M39.22,56.6c0.02-0.07,0.04-0.13,0.06-0.19c-0.14,0.2-0.29,0.34-0.47,0.67c0.09,0.39,0.21,0.44,0.27,0.47
							c-0.07-0.33-0.02-0.71,0.13-1.02L39.22,56.6z"/>
						<path class="st2" d="M39.85,55.73c0.08,0.21-0.13,0.55,0.27,0.46c0.34-0.36,0.09-0.33,0.24-0.6
							c-0.57,0.64,0.08-0.24-0.48,0.15c0.09-0.14,0.2-0.26,0.3-0.38c-0.14,0.1-0.28,0.2-0.42,0.29l0.03-0.01l0,0l0,0
							c0.05-0.02,0.08-0.02,0.03,0.01l-0.01,0.02C39.83,55.68,39.84,55.71,39.85,55.73c-0.23,0.17-0.08,0-0.04-0.07
							c-0.01-0.01-0.01-0.02-0.02-0.02l0,0c-0.18,0.25-0.4,0.44-0.5,0.77C39.4,56.22,39.56,56.04,39.85,55.73z"/>
						<path class="st2" d="M43.49,54.42c-0.02-0.03-0.01-0.04-0.01-0.06C43.43,54.37,43.42,54.38,43.49,54.42z"/>
						<path class="st2" d="M43.22,54.19c0.05-0.02,0.1-0.1,0.26-0.01c0.13,0.13-0.01,0.11-0.01,0.18c0.09-0.01,0.35,0.02,0.07-0.25
							l-0.05,0.01c-0.26-0.24-0.75-0.4-0.69-0.44C42.92,53.86,43.03,53.96,43.22,54.19z"/>
						<path class="st2" d="M41.62,54.69l-0.41,0.55l0.35-0.09l-0.08-0.07C41.76,54.85,41.63,54.8,41.62,54.69z"/>
						<path class="st2" d="M39.01,57.7l-0.26-0.09c0.14,0.16,0.31,0.31,0.49,0.43C39.15,57.93,39.07,57.82,39.01,57.7z"/>
						<polygon class="st2" points="39.55,58.62 39.34,58.65 39.61,58.84 						"/>
						<path class="st2" d="M63.45,51.11l0.06-0.17C63.47,51.01,63.46,51.06,63.45,51.11z"/>
						<path class="st2" d="M62.69,52.05l0.06,0.08C62.74,52.05,62.72,52.01,62.69,52.05z"/>
						<path class="st2" d="M51.79,72.4c0.28-0.09,0.73-0.18,0.57-0.34l-0.19-0.11C52.04,72.18,51.91,72.32,51.79,72.4z"/>
						<path class="st2" d="M57.83,60.68l-0.09,0.02c0.03,0.09,0.06,0.17,0.08,0.25C57.82,60.87,57.82,60.78,57.83,60.68z"/>
						<path class="st2" d="M57.18,60.04l0.3-0.18C57.4,59.88,57.3,59.94,57.18,60.04z"/>
						<path class="st2" d="M67.66,45.96l-0.02-0.3C67.42,45.89,67.6,45.86,67.66,45.96z"/>
						<path class="st2" d="M44.12,64.94c0.05,0.22,0.11,0.37,0.19,0.5C44.27,65.16,44.31,64.89,44.12,64.94z"/>
						<path class="st2" d="M64.95,52.91c0.03-0.1,0.02-0.16-0.02-0.19C64.9,52.83,64.9,52.9,64.95,52.91z"/>
						<path class="st2" d="M44.65,65.92c0-0.04-0.01-0.08-0.02-0.12c-0.12-0.1-0.23-0.21-0.32-0.37
							C44.34,65.64,44.41,65.84,44.65,65.92z"/>
						<path class="st2" d="M57.02,53.35c-0.02,0.01-0.04,0.02-0.05,0.02C56.99,53.39,57,53.38,57.02,53.35z"/>
						<path class="st2" d="M50.85,57.07c0.03-0.06,0.1-0.15,0.17-0.23C50.98,56.87,50.92,56.94,50.85,57.07z"/>
						<path class="st2" d="M41.35,61.35C41.25,61.23,41.32,61.35,41.35,61.35L41.35,61.35z"/>
						<path class="st2" d="M41.61,60.24c0.04,0.01,0.08,0.01,0.12-0.01C41.68,60.25,41.64,60.25,41.61,60.24z"/>
						<path class="st2" d="M46.63,66.43c0,0,0,0.01,0.01,0.01C46.65,66.38,46.65,66.39,46.63,66.43z"/>
						<path class="st2" d="M41.3,61.1c0.01,0.06,0.03,0.13,0.06,0.2C41.35,61.27,41.34,61.21,41.3,61.1z"/>
						<path class="st2" d="M41.23,61.19c-0.02-0.05-0.04-0.09-0.06-0.12C41.13,61.07,41.12,61.1,41.23,61.19z"/>
						<path class="st2" d="M41.49,61.52c-0.05-0.07-0.09-0.14-0.13-0.22c0.01,0.03,0,0.05-0.01,0.05
							C41.38,61.39,41.42,61.44,41.49,61.52z"/>
						<path class="st2" d="M65.99,44.62c-0.01,0-0.02,0-0.04,0C65.88,44.78,65.92,44.73,65.99,44.62z"/>
						<polygon class="st2" points="52.52,67.11 52.52,67.13 52.54,67.11 						"/>
						<path class="st2" d="M52.68,66.55c0.1,0.35,0.01,0.44-0.14,0.57l0.63,0.17L52.68,66.55z"/>
						<path class="st2" d="M65.26,48.83l-0.41,0.17c0.07-0.57,0.38-0.77-0.07-0.66c0.47,0.48-0.96,1.23-0.47,1.71l-0.28,0.11
							c0.05-0.05,0.03-0.09,0.08-0.14c-0.58,0.19,0.14,0.6-0.35,1.05c-0.18,0.14-0.36,0.21-0.33,0.03l-0.18,0.5
							c-0.1,0.11-0.17,0.01-0.07-0.1l-0.44,0.64l-0.01-0.02c0.02,0.15-0.01,0.45-0.03,0.59c-0.2,0.09,0-0.12-0.09-0.13l-0.13,0.44
							c-0.25,0.03-0.16-0.35,0.04-0.57c-0.78-0.1-0.09,0.38-0.92,0.83l0.18-0.37c-0.46-0.03-0.54,0.31-1.01,0.53
							c0.17-0.01,1.04-0.36,0.89,0.11c-0.12,0.07-0.25,0.2-0.28,0.48c-0.19-0.14-0.29,0.09-0.46,0.34l-0.24-0.21
							c-0.12,0.32,0.02,0.4,0.02,0.64c-0.24,0.28-0.49,0.19-0.71,0.14c-0.39,0.45,0.56-0.09,0.2,0.5c-0.39,0.32-0.48,0.68-0.67,1.26
							c-0.29,0.21-0.12-0.16-0.27-0.12l0.03,0.4c-0.05,0.06-0.1-0.01-0.12-0.04c-0.07,0.27,0.25,0.2,0.09,0.58
							c0.22,0.29-0.9,0.37-0.86,1.01c-0.14,0.05-0.13-0.16-0.25-0.2c-0.17,0.71-0.18,0.59-0.21,1.25l-0.44,0.27
							c0.4-0.15,0.38,0.38,0.35,0.83c0.17-0.04,0.31-0.07,0.39-0.1l-0.21,0.61c-0.09,0.03-0.14-0.08-0.19-0.24c0,0.05,0,0.1,0,0.14
							c-0.22,0.12-0.31-0.08-0.37-0.31c0.09-0.02,0.19-0.05,0.29-0.07c-0.07-0.24-0.17-0.48-0.34-0.56
							c0.01,0.05-0.01,0.14-0.04,0.22c-0.02-0.06-0.05-0.11-0.08-0.11c-0.04,0-0.02,0.09-0.01,0.22l-0.37-0.08l0.1,0.11l-0.64,0.55
							c-0.03,0.69,0.13,1.4-0.26,2.26c-0.09-0.34-0.33-0.28-0.58-0.46c0.41-0.03,0.28-0.68,0.6-1.04c-0.17,0.19-0.26,0.06-0.27-0.02
							l-0.23,0.88c-0.2-0.16-0.26,0.05-0.47,0.18c0.51,0.13-0.07,0.72-0.13,1.1c-0.15-0.07-0.25-0.24,0.01-0.57
							c-0.57,0.19,0.16,0.83-0.36,1.04c0.05-0.09,0.1-0.12,0.05-0.2c-0.01,0.29-0.42,0.72-0.47,0.53l0.05-0.09
							c-0.42,0.55-1.13,1.78-0.82,2.09c-0.05-0.02-0.39-0.35-0.44-0.43l0.57,1.8c-0.25-0.28-1.21-0.38-1.09-0.98
							c-0.13,0.11-0.29,0.26-0.36,0.62c0.1-0.07,0.6,0.04,0.55,0.18c-0.57,0.15-0.34,0.14-0.9,0.4c0.15-0.1,0.55,0.35,0.4,0.57
							c-0.05-0.08-0.5-0.27-0.5-0.39c0.05,0.28,0.08,0.59,0.15,0.84c-0.01-0.17-0.4-0.27-0.57-0.28c0.11,0.03-0.19,0.31-0.21,0.44
							c0.06-0.01,0.12-0.04,0.19-0.06c-0.17,0.2-0.06,0.41-0.02,0.75c0.04,0.32,0.07,0.72-0.14,1c0.02-0.24-0.19-1.04-0.34-0.99
							c0.01,0.23,0.05,0.84-0.16,1.44c-0.22,0.48-0.62,0.61-0.93,0.51l-0.06-0.27c-0.15-0.05-0.29-0.18-0.45-0.28
							c0.23-0.07,0.53-0.07,0.81-0.3c0.3-0.24,0.55-0.74,0.62-1.08c-0.14-0.16-0.06-0.26-0.22-0.26c-0.03-0.25,0.09-0.33,0.12-0.37
							c-0.1-0.03-0.17-0.15-0.2-0.25c-0.1,0.48-0.27,0.21-0.42,0.5c0.17,0.04,0.28,0.04,0.41-0.05c-0.03,0.25-0.13,0.58-0.3,0.69
							c-0.16,0.12-0.37,0.02-0.51-0.25c0.02-0.23,0.41-0.47,0.45-0.61c-0.07,0.1-0.34-0.13-0.31-0.23c0.08,0.01,0.15,0.02,0.22,0.02
							c-0.04-0.29-0.5,0.03-0.51-0.56c-0.07-0.15,0.1-0.64-0.08-0.55c-0.18,0.43-1.15,1.11-1.49,1.13c-0.01-0.06-0.15-0.9-0.09-1.15
							c0.11-0.38,0.81-0.07,0.91-0.39c-0.08,0.04-0.26-0.02-0.32-0.05c-0.03-0.18,0.28-0.1,0.04-0.38
							c-0.32,0.14-0.39-0.63-0.34,0.02c-0.28-0.24-0.15-0.35-0.4-0.69c-0.11,0.23-0.83,0.11-1.11-0.13
							c0.08-0.03,0.13-0.16,0.15-0.22c-0.38-0.62-0.48-1.03-0.86-1.59c0.03-0.1-0.07-0.42,0.13-0.39c-0.11-0.05-0.25-0.05-0.38-0.22
							c0.01-0.5,0.31,0.36,0.42-0.1c-0.18,0.09-0.53-0.29-0.81-0.46c-0.2,0.25,0.35,0.6,0.62,0.77c-0.35,0.24-1,0.07-1.57-0.39
							c-0.41-0.4,0.08-0.36-0.02-0.4c-0.55-0.9-1.12-0.31-1.38-1.2c0.02-0.44,0.43-0.32,0.54-0.5c0.35,0.31,0.27,0.67,0.46,0.92
							l-0.12-0.39c0.16,0.07,0.39,0.28,0.42,0.46c0.03-0.38-1-1.48-1.29-2.27c-0.16-0.07-0.38-0.21-0.4-0.05l0.18,0.19
							c-0.04,0.32-0.53-0.22-0.42,0.1c-0.33-0.19-0.75-0.37-0.93-0.83l0.2-0.25c-0.07,0.06,0.04,0.37,0.19,0.42
							c-0.23-0.09-0.1-0.85-0.56-0.8l0.03,0.4c-0.33-0.2-0.81-0.3-1.1-0.9c-0.11,0.37,0.1,0.08,0.05,0.64
							c0.22-0.44,0.64,0.92,0.77,0.31c-0.15,0.5,0.18,0.54,0.13,1.08c0.07-0.07,0.07-0.23,0.24,0.09c0.03,0,0.09,0.01,0.12,0.01
							c0,0.01,0,0.01,0.01,0.02l0-0.02c0.02,0,0.02,0,0-0.01c-0.01-0.1-0.01-0.18,0.02-0.24c0.29,0.01,0.62,0.48,0.84,0.57
							c0.09,0.2-0.15-0.01-0.17,0.15l0.32,0.13c-0.17,0.15,0.03,0.68-0.37,0.35l0.26,0.38c0.05,0.29,0.23,0.62,0.44,0.75
							c0.09,0.2,0.52,0.3,0.27,0.25l0.53,0.5l-0.04,0.04c0.38,0.59,1.14,0.97,1.26,1.86c0.18,0.16,0.38,0.32,0.55,0.68l-0.12,0.17
							c0.23,0.21,0.35,0.86,0.59,0.85c-0.25,0.56,0.72,1.28,0.94,1.77l0.22-0.12c0.19,0.31,0.44,0.57,0.77,0.89l0.17-0.14
							c0.17,0.08,0.33,0.42,0.49,0.78c0.08,0.18,0.16,0.39,0.27,0.59c0.12,0.19,0.25,0.38,0.39,0.55c-0.08,0.04-0.22-0.17-0.29-0.34
							c0.2,0.62,0.63,1.13,1.06,1.2c0.42,0.15,0.98,0.07,1.39,0.05c0.18-0.17,0.3-0.23,0.43-0.26c-0.02,0.01-0.03,0.03-0.04,0.04
							c0.02-0.01,0.04-0.03,0.07-0.05c0.08-0.03,0.17-0.01,0.26-0.09c-0.08,0.04-0.17,0.02-0.23,0.06c0.12-0.08,0.28-0.38,0.42-0.64
							l0.2,0.13c0.01-0.02,0.02-0.04,0.04-0.06c0.23-0.15,0.07-0.28-0.12-0.33c0.06-0.15,0.1-0.29,0.12-0.41
							c0.41,0.14,0.25-0.66,0.71-0.61c-0.04-0.12,0.13-0.49,0.18-0.71c0.07-0.24,0.11-0.49-0.05-0.64c0.05,0.02,0.1-0.01,0.05,0.08
							c0.15-0.16,0.3-0.32,0.3-0.54l0.31,0.08l-0.11-0.62c0.31-0.15,0.46-0.19,0.52,0.17c0.05-0.77,0.17-0.54,0.18-1.23l0.15,0.13
							c0.1-0.18,0.05-0.6,0.26-0.62c0.56-0.19,1.27-1.92,2.22-2.72c-0.61-0.13,0.52-0.32,0.17-0.61c0.15,0.02,0.31-0.08,0.3,0.15
							c0.22-0.58,0.69-0.64,0.6-1.2c0.15,0.02,0.1,0.22,0.2,0.21c0-0.06,0.01-0.23,0.11-0.23c0.1-0.01,0.05,0.14,0.04,0.25
							c0.33-0.53,0.01-0.82-0.29-1.08c0.33-0.15,0.4-0.3,0.31-0.64c0.17-0.02,0.39-0.09,0.21,0.25c0.14-0.17,0.91-0.98,0.66-1.18
							c0.11-0.01,0.19-0.24,0.2-0.3c0.29-0.39,0.34-0.41,0.6-0.82l-0.12,0.08c-0.21-0.38,0.16-0.38,0.35-0.72l0.03,0.03
							c0.74-0.56,0.11-0.39,0.88-0.91l-0.22-0.1c-0.37-0.37,0.7-0.45,0.84-0.97L61.6,56.2c0.02-0.33,1.02-0.21,1.24-0.39
							c0.07-0.02,0,0.12-0.02,0.21c0.68-0.4-0.2-0.26,0.07-0.74c0.2,0.02,0.27,0.36,0.51,0.09c0.22-0.06,0.2-1.17,0.76-1.36
							c-0.17,0.01-0.34,0.01-0.26-0.25c0.2-0.34,1.03-0.51,0.92-1.04c0.06-0.02,0.1-0.01,0.12,0.01c0.1-0.3,0.46-0.85,0.4-1.13
							c0.8,0.32,0.86-1.66,1.45-1.16l0.56-0.71l0.04,0.07c0.42-0.4,0.42-0.67,0.42-0.94c0.13-0.06,0.12,0.06,0.14,0.09
							c0.68-0.51,0.71-0.6,0.92-1.37l0.23,0.12c0.01-0.12,0.29-0.27,0.62-0.49c0.08-0.06,0.16-0.12,0.25-0.18
							c0.09-0.07,0.24-0.21,0.35-0.31c0.24-0.23,0.47-0.48,0.61-0.72c0.02,0.02,0.05,0.05,0.02,0.14c0.18-0.28,0.47-0.54,0.78-0.81
							c0.21-0.25,0.44-0.51,0.65-0.75c0.1-0.12,0.19-0.25,0.26-0.36c0.05-0.1,0.07-0.19,0.07-0.28c0-0.18-0.13-0.34-0.36-0.37
							c-0.11-0.22-0.27-0.43-0.49-0.58c0.39,0.8-0.41,0.04-0.36,0.42c-0.19-0.28-0.43-0.59-0.01-0.46l0.01,0.06
							c0.28-0.07,0.1-0.28-0.13-0.35c-0.24-0.07-0.57-0.11-0.41-0.23c-0.36-0.06-0.7-0.13-1.04-0.2l-1.32-0.07
							c-0.44-0.05-0.92-0.07-1.34,0.01c-0.8,0.12-1.53,0.53-2.01,0.89l0.35,0.2l-0.44,0.29c-0.16,0.01-0.32-0.12-0.01-0.33
							c-0.28-0.05-0.41,0.51-0.37,0.58c-0.68,0.32-0.02-0.51-0.21-0.39l-0.23,0.2l0.08-0.01c-0.11,0.27-0.03,0.41-0.4,0.66
							c-0.27,0.11-0.25-0.09-0.35-0.04c-0.02-0.02-0.05-0.01-0.14,0.1L63,44.68l0.39,0.06c-0.14,0.29-0.5,0.37-0.05,0.44
							c-0.67-0.13-2.01,1.41-2.31,1.47c-0.17,0.43-0.48,0.68-0.86,1c0.13-0.04,0.4,0.15,0.06,0.41c-0.33-0.6-0.78,0.31-1.36,0.2
							c0.44,0.02-0.84,0.9-0.17,0.89c-0.3,0.21-0.19-0.17-0.49-0.09c-0.44,0.77-1.47,1.2-2.14,2.02c0.05,0.07,0.27,0.04,0.21,0.29
							l-0.7,0.1c-0.11,0.18,0.23,0.49-0.25,0.56c0.09,0.01,0.23,0.03,0.15,0.15c-1.74,1.21-2.57,3.35-4.5,4.44
							c0.31-0.11,0.2,0.05,0.07,0.22c0.12-0.08,0.16,0.14,0.27,0.2l-0.81,0.46c0.15,0.34-0.58,0.73-0.4,1.01l0.13-0.25
							c0.05,0.52,0.96,0.14,1.3,0.49c-0.06-0.59,1.17-0.42,1.13-1.33c0.17-0.05,0.04,0.2,0.17,0.21c-0.05-0.26,0.05-0.45,0.36-0.68
							L53.2,57c0.64-0.86,1.1-1.07,1.99-1.87l-0.24-0.09c0.19-0.17,0.29-0.16,0.41-0.21c-0.07-0.46-0.49,0.52-0.61,0.06
							c0.58,0.06,1.22-1.34,1.78-1.13c0.27-0.29-0.28-0.1-0.01-0.39l0.18,0.03l-0.07-0.2c0.2-0.17,0.43-0.13,0.52-0.05
							c-0.05,0.03-0.1,0.15-0.14,0.21c0.36-0.12,0.61-0.72,0.73-0.76l-0.33,0.21c0.65-0.87,1.71-1.66,2.25-2.59l-0.13-0.03
							c0.43-0.7,0.55-0.35,1.12-1.01l-0.01,0.04c0.05-0.2,0.19-0.4,0.38-0.55c-0.08,0.24,0.48-0.09,0.36,0.21
							c0.49-0.74,0.2-0.41,0.36-1.1l0.22,0.05c0.04-0.25-0.01-0.33,0.29-0.65c-0.17,0.35,0.39,0.04,0.23,0.45
							c0.95-0.28,0.78-1.18,1.48-0.98c0-0.66-0.79,0.28-0.68,0.04c-0.26-0.01,0.03-0.52,0.28-0.66c0.24-0.17,0.8,0.21,1.37-0.25
							c-0.06,0.04-0.04,0.08-0.1,0.12c0.3-0.06,0.32-0.46,0.71-0.5c-0.04-0.36,0.36-0.25,0.17-0.6l-0.48,0.48
							c0.24-0.31,0.26-0.9,0.9-1.09c0.01,0.09-0.08,0.29-0.15,0.41c0.22-0.01,0.24-0.27,0.47-0.28c0.19,0.36-0.61,0.55-0.76,1.03
							c0.25,0.02,0.45-0.68,0.54-0.22c-0.08-0.61,0.63-0.39,0.73-0.92l0.1,0.22c0.03-0.06,0.09-0.22,0.19-0.26
							c-0.02,0.12-0.03,0.24-0.03,0.36c0.14-0.38,0.57,0.01,0.65-0.14c-0.14,0.02-0.24-0.01-0.24-0.11c-0.02-0.09,0-0.22-0.14-0.27
							c0.62-0.47,0.41,0.55,0.7,0.42c-0.04,0.03-0.12-0.14-0.01-0.25c0.07,0.05,0.13,0.14,0.08,0.27c0.02-0.01,0.03-0.01,0.05-0.01
							c0.14-0.05,0.15-0.16,0.19-0.27c0.01-0.02,0.02-0.04,0.04-0.06c0.02-0.02,0.04-0.03,0.06-0.05c-0.12,0.29,0.24-0.12,0.55-0.21
							l-0.27,0.24c0.17,0.17,0.77-0.53,0.95-0.28c-0.24,0.09-0.47,0.19-0.68,0.3c0.1-0.03,0.21-0.04,0.31-0.05l-0.48,0.25
							c0.48-0.13,0.45,0.03,0.31,0.22c0.31-0.15,0.87-0.21,0.74-0.01c-0.35,0.16-0.35,0.03-0.49,0.21c-0.2-0.02-0.51,0.03-0.05-0.13
							c-0.14,0.02-0.26,0.02-0.4,0.05c-0.33,0.15-0.2,0.17-0.24,0.22c0.03-0.02,0.07-0.04,0.14-0.05c0.12,0.04,0.21,0.11,0.26,0.2
							c-0.17,0.03-0.22-0.01-0.3-0.04c-0.01,0.04,0.1,0.09,0.05,0.17c-0.22-0.06-0.46-0.11-0.53-0.17c0.06,0.04,0.1,0.11,0.11,0.19
							c-0.11-0.01-0.31-0.03-0.36-0.08c-0.04,0-0.04,0.01-0.03,0.05l0.02,0.06c0.01,0.02,0.02,0.04-0.03,0.12
							c-0.13,0.26-0.27,0.52-0.52,0.67c0.01,0.05-0.01,0.11-0.07,0.22c-0.39,0.34-0.89,0.52-1.1,1.16l-0.5,0.02
							c-0.26,0.41,0.64-0.06,0.21,0.63c-0.29,0.5-0.36-0.04-0.57,0.04c-0.06,0.33-0.1,0.94-0.66,1.14
							C65.05,49.04,65.18,48.97,65.26,48.83z M61.67,53.54c0.03-0.12,0.04-0.4,0.21-0.38C62.02,53.43,61.85,53.43,61.67,53.54z
							 M56.96,61.13c-0.02-0.11,0.09-0.2,0.25-0.27C57.16,60.96,57.09,61.06,56.96,61.13z M42.5,62.61l0.02,0
							C42.59,62.88,42.56,62.78,42.5,62.61z M42.28,62.13c-0.06-0.02-0.08,0-0.1,0.04c0.07-0.01,0.14,0.09,0.21,0.21
							C42.42,62.3,42.41,62.22,42.28,62.13z M63.69,44.31l0.12-0.01C63.66,44.49,63.68,44.4,63.69,44.31z"/>
						<path class="st2" d="M57.25,60.11c0.05,0,0.09,0.01,0.14,0.03C57.38,60.09,57.34,60.06,57.25,60.11z"/>
						<path class="st2" d="M67.66,46.01L67.68,46c0-0.02-0.01-0.03-0.02-0.04L67.66,46.01z"/>
						<path class="st2" d="M48.59,67.64c0.03,0.11,0.03,0.18,0.01,0.24C48.66,67.86,48.67,67.79,48.59,67.64z"/>
						<path class="st2" d="M40.33,60.11l0.25,0.24c-0.1-0.12-0.1-0.2-0.11-0.29C40.42,60.1,40.39,60.2,40.33,60.11z"/>
						<path class="st2" d="M40.41,56.78c0-0.05,0.06-0.08,0.06-0.13l-0.12-0.03C40.23,56.81,40.24,56.95,40.41,56.78z"/>
						<path class="st2" d="M40.8,59.39c0.15-0.14-0.02-0.26-0.22-0.48c0.01,0.01,0.02,0.03,0.03,0.04
							C40.31,59.02,40.59,59.27,40.8,59.39z"/>
						<path class="st2" d="M40.53,58.86c-0.06-0.07-0.11-0.14-0.15-0.21C40.26,58.67,40.42,58.75,40.53,58.86z"/>
						<path class="st2" d="M41.78,61.67c-0.02-0.12-0.25,0.09-0.22,0C41.28,61.71,42.25,62.08,41.78,61.67z"/>
						<polygon class="st2" points="41.23,58.85 41.07,59.06 41.32,59.05 						"/>
						<path class="st2" d="M42.16,60.46L42,60.12c-0.03,0.03-0.08,0-0.13-0.03C42,60.28,42.11,60.51,42.16,60.46z"/>
						<path class="st2" d="M41.87,60.09c-0.07-0.1-0.14-0.19-0.21-0.22C41.7,59.92,41.79,60.02,41.87,60.09z"/>
						<polygon class="st2" points="41.59,59.22 41.61,59.34 41.75,59.57 						"/>
						<path class="st2" d="M44.47,63.78l0.29,0.29c0.09-0.02,0.07-0.14-0.04-0.24C44.62,63.78,44.5,63.68,44.47,63.78z"/>
						<path class="st2" d="M44.31,62.37c0.02,0.12-0.02,0.16-0.05,0.26l0.26-0.17L44.31,62.37z"/>
						<path class="st2" d="M45.06,63.3c0.09-0.02,0.55,0.35,0.23-0.07C45.2,63.25,44.9,62.95,45.06,63.3z"/>
						<polygon class="st2" points="48.23,68.64 48.17,68.55 47.75,68.84 						"/>
						<path class="st2" d="M50.76,69.36c-0.13-0.02,0.14,0.39-0.02,0.35c0.02,0.2,0.13,0.02,0.15,0.19
							C50.91,69.63,50.97,69.67,50.76,69.36z"/>
						<path class="st2" d="M50.89,69.91c0,0.05,0,0.1-0.01,0.16C50.9,69.99,50.9,69.94,50.89,69.91z"/>
						<polygon class="st2" points="49.91,57.78 49.62,57.95 49.88,57.91 						"/>
						<path class="st2" d="M49.81,58.49l-0.3-0.15l0.11,0.33C49.65,58.6,49.72,58.48,49.81,58.49z"/>
						<path class="st2" d="M60.62,53.84l0.05,0.07c0.1,0.01,0.15-0.04,0.25-0.16L60.62,53.84z"/>
						<polygon class="st2" points="63.45,50.6 63.4,50.65 63.72,50.73 						"/>
						<path class="st2" d="M65.52,47.58c-0.11,0.1-0.18,0.28-0.28,0.38C65.41,47.69,65.82,47.8,65.52,47.58z"/>
					</g>
				</g>
			</g>
		</g>
	</g>
</g>
</svg>
