<?xml version="1.0" encoding="utf-8"?>
<!-- Generator: Adobe Illustrator 27.4.0, SVG Export Plug-In . SVG Version: 6.00 Build 0)  -->
<svg version="1.1" id="Layer_1" xmlns="http://www.w3.org/2000/svg" xmlns:xlink="http://www.w3.org/1999/xlink" x="0px" y="0px"
	 viewBox="0 0 86.46 86.47" enable-background="new 0 0 86.46 86.47" xml:space="preserve">
<g>
	<g>
		<circle fill="#FFCC04" cx="43.23" cy="43.23" r="37.99"/>
		<g>
			<g>
				<path fill="#A2812E" d="M43.23,82.4c-21.59,0-39.16-17.57-39.16-39.16S21.64,4.07,43.23,4.07S82.4,21.64,82.4,43.23
					S64.83,82.4,43.23,82.4z M43.23,6.41c-20.31,0-36.83,16.52-36.83,36.83s16.52,36.83,36.83,36.83s36.83-16.52,36.83-36.83
					S63.54,6.41,43.23,6.41z"/>
			</g>
			<g>
				<path fill="none" d="M43.23,82.4c-21.59,0-39.16-17.57-39.16-39.16S21.64,4.07,43.23,4.07S82.4,21.64,82.4,43.23
					S64.83,82.4,43.23,82.4z M43.23,6.41c-20.31,0-36.83,16.52-36.83,36.83s16.52,36.83,36.83,36.83s36.83-16.52,36.83-36.83
					S63.54,6.41,43.23,6.41z"/>
				<g>
					<g>
						<g>
							<path fill="#A2812E" d="M43.48,8.86c-0.32-0.05-0.2,0.37-0.25,0.44C43.76,9.24,43.47,8.75,43.48,8.86z"/>
							<polygon fill="#A2812E" points="48.87,8.39 48.75,8.54 49.61,8.25 							"/>
							<path fill="#A2812E" d="M53.8,9.51c-0.26-0.82-1.81-0.35-2.61-0.82l-0.11-0.2l-0.52,0.46C51.62,9.14,53.11,9.12,53.8,9.51z"
								/>
							<path fill="#A2812E" d="M55.75,11.88c-0.05-0.31,0.61-0.03-0.53-0.29c0.04,0.05,0.05,0.07,0.08,0.1
								C55.39,11.72,55.53,11.77,55.75,11.88z"/>
							<path fill="#A2812E" d="M55.3,11.69C54.81,11.54,55.52,12.02,55.3,11.69L55.3,11.69z"/>
							<path fill="#A2812E" d="M57.52,12.47l-0.71-0.07c0.06,0.21,0.58,0.5,0.33,0.52C57.82,13.09,57.76,12.88,57.52,12.47z"/>
							<path fill="#A2812E" d="M58.33,12.28l-0.36-0.06C57.99,12.31,58.06,12.37,58.33,12.28z"/>
							<path fill="#A2812E" d="M57.2,12.09l0.77,0.12c-0.04-0.15,0.05-0.36-0.34-0.08C57.77,11.98,57.55,12.09,57.2,12.09z"/>
							<path fill="#A2812E" d="M56.86,11.81c-0.28-0.32-0.71-0.57,0.02-0.54C55.61,10.89,55.63,11.4,56.86,11.81z"/>
							<path fill="#A2812E" d="M54.26,8.9c-0.15-0.13-0.29-0.26-0.45-0.37L53.3,8.65C53.56,8.58,54.23,9.11,54.26,8.9z"/>
							<path fill="#A2812E" d="M61.01,14.78c0.12-0.11,0.02-0.46,0.08-0.65l-0.52-0.11C60.74,14.24,61.11,14.58,61.01,14.78z"/>
							<path fill="#A2812E" d="M61.09,14.13l0.78,0.17C61.32,13.93,61.14,13.97,61.09,14.13z"/>
							<polygon fill="#A2812E" points="58.79,11.62 57.42,11.57 59.01,11.72 							"/>
							<polygon fill="#A2812E" points="63.32,16.4 62.78,16.43 63.69,16.45 							"/>
							<path fill="#A2812E" d="M64.84,17.49c-0.41,0.02-0.01,0.66-0.36,0.58c0.4,0.3,0.88,0.4,1.32,0.49
								C65.4,18.37,65.11,18.06,64.84,17.49z"/>
							<path fill="#A2812E" d="M66.51,18.76c-0.2-0.09-0.45-0.14-0.71-0.2C66,18.66,66.23,18.73,66.51,18.76z"/>
							<path fill="#A2812E" d="M62.9,15.08c-0.01,0.11-0.05,0.37,0.22,0.71l0.01-0.52C63.07,15.21,62.98,15.14,62.9,15.08z"/>
							<path fill="#A2812E" d="M63.14,15.25l0,0.02c0.25,0.2,0.42,0.34,0.5,0.4C63.57,15.61,63.42,15.49,63.14,15.25z"/>
							<path fill="#A2812E" d="M62.84,15.03c0.02,0.02,0.04,0.03,0.06,0.05C62.9,15.03,62.9,15.01,62.84,15.03z"/>
							<path fill="#A2812E" d="M60.4,12.89c0.5,0.02,1.45,0.3,0.84-0.49C60.81,12.48,61.16,12.93,60.4,12.89z"/>
							<path fill="#A2812E" d="M62.85,14.37c-0.2-0.19-0.42-0.34-0.64-0.52c-0.05,0.1-0.01,0.32-0.27,0.3
								C62.25,14.23,62.56,14.28,62.85,14.37z"/>
							<polygon fill="#A2812E" points="63.25,14.5 62.85,14.37 63.07,14.58 							"/>
							<path fill="#A2812E" d="M65.77,17.55c0.38,0.09,0.67,0.34,1.01,0.6c-0.28-0.37-0.61-0.73-0.94-1.03
								C65.7,17.18,65.4,17.23,65.77,17.55z"/>
							<path fill="#A2812E" d="M64.55,16.36c0.02,0.01,0.05,0.02,0.08,0.03C64.61,16.33,64.59,16.3,64.55,16.36z"/>
							<polygon fill="#A2812E" points="69.69,21.21 69.7,21.11 69.64,21.14 							"/>
							<path fill="#A2812E" d="M65.83,17.01c-0.2-0.3-0.42-0.36-0.65-0.39c0.22,0.14,0.44,0.31,0.66,0.5
								C65.9,17.1,65.93,17.07,65.83,17.01z"/>
							<path fill="#A2812E" d="M67.48,19.42c-0.05-0.2-0.14-0.4-0.25-0.59C67.28,19.04,67.37,19.45,67.48,19.42z"/>
							<path fill="#A2812E" d="M64.65,16.55c-0.02,0-0.04-0.01-0.05-0.02C64.63,16.67,64.64,16.63,64.65,16.55z"/>
							<path fill="#A2812E" d="M64.65,16.55c0.18,0.06,0.36,0.06,0.53,0.07c-0.19-0.1-0.38-0.18-0.55-0.23
								C64.64,16.44,64.65,16.5,64.65,16.55z"/>
							<path fill="#A2812E" d="M72.64,20.54c-0.37,0.2-1.17-0.39-1.44-1.25c-0.78-0.42-1.38,0.86-1.49,1.82
								c0.14-0.09,0.29-0.22,0.95,0.29c0.04-0.39-0.78-1.7-0.05-1.42c0.89,0.68,0.45,0.79,0.62,1.33c0.11-0.67,1.41,0.68,1.85,0.06
								l-0.8-0.64C72.36,20.65,72.72,20.83,72.64,20.54z"/>
							<path fill="#A2812E" d="M68.71,19.96l-0.26-0.21c0.2,0.32,0.26,0.63,0.36,1.19c0.51,0.27,0.7,0.26,0.82,0.2l-1.04-1.23
								L68.71,19.96z"/>
							<path fill="#A2812E" d="M67.45,18.68c0.51-0.15,1.15,0.34,1.16-0.36c-0.71-0.69-0.75-0.22-1.31-0.49
								c1.24,0.98-0.5-0.13,0.17,0.81c-0.28-0.15-0.5-0.32-0.7-0.48c0.17,0.23,0.32,0.45,0.46,0.68c0-0.02,0-0.03-0.01-0.04l-0.01,0
								l0.01,0c-0.01-0.08-0.01-0.12,0.03-0.05c0.01,0,0.02,0.01,0.03,0.02C67.33,18.71,67.39,18.69,67.45,18.68
								c0.27,0.37-0.03,0.13-0.17,0.07c-0.02,0.01-0.04,0.02-0.06,0.03l0,0.01c0.45,0.28,0.81,0.64,1.23,0.96
								C68.27,19.47,68.01,19.15,67.45,18.68z"/>
							<path fill="#A2812E" d="M62.46,12.06c0.02,0.06,0.01,0.08-0.01,0.11C62.57,12.18,62.63,12.17,62.46,12.06z"/>
							<path fill="#A2812E" d="M62.9,12.63c-0.13-0.01-0.31,0.08-0.62-0.15c-0.22-0.28,0.11-0.17,0.17-0.3
								c-0.26-0.03-0.86-0.16-0.35,0.4l0.13,0.01c0.48,0.47,0.89,1.34,0.76,1.33C63.06,13.49,63.07,13.18,62.9,12.63z"/>
							<path fill="#A2812E" d="M65.47,15.51c0.41,0.2,0.77,0.46,1.15,0.7l-0.27-0.75l-0.12,0.2C65.71,15.1,65.65,15.44,65.47,15.51z
								"/>
							<path fill="#A2812E" d="M69.62,21.45l-0.46,0.17c0.34,0.03,0.63,0.11,0.95,0.17L69.62,21.45z"/>
							<polygon fill="#A2812E" points="70.67,22.75 70.31,22.94 70.77,23.15 							"/>
							<path fill="#A2812E" d="M23.28,76.92l-0.43-0.13C23.05,76.87,23.18,76.91,23.28,76.92z"/>
							<path fill="#A2812E" d="M26.01,78.43l0.15-0.14C25.99,78.32,25.9,78.37,26.01,78.43z"/>
							<path fill="#A2812E" d="M72.39,61.27c-0.6,0.28-1.39,0.47-0.98,0.66l0.45,0.1C71.99,61.66,72.18,61.43,72.39,61.27z"/>
							<path fill="#A2812E" d="M50.49,79.43c0.06,0.03,0.13,0.07,0.2,0.1c0.11-0.18,0.21-0.35,0.3-0.51
								C50.85,79.15,50.68,79.31,50.49,79.43z"/>
							<path fill="#A2812E" d="M50.41,81.26l-0.85-0.15C49.76,81.18,50.03,81.23,50.41,81.26z"/>
							<path fill="#A2812E" d="M10.54,65.65c-0.22-0.05-0.45-0.1-0.66-0.17C10.34,66.14,10.33,65.71,10.54,65.65z"/>
							<path fill="#A2812E" d="M77.29,38.33c-0.1,0.49-0.11,0.87-0.08,1.2C77.37,38.95,77.67,38.43,77.29,38.33z"/>
							<path fill="#A2812E" d="M26.56,73.53c-0.24-0.05-0.37-0.03-0.41,0.06C26.4,73.65,26.55,73.65,26.56,73.53z"/>
							<path fill="#A2812E" d="M77.3,40.9c0.04-0.09,0.06-0.17,0.09-0.26c-0.1-0.34-0.14-0.68-0.18-1.1
								C77.09,39.97,76.97,40.46,77.3,40.9z"/>
							<path fill="#A2812E" d="M21.26,10.66c0.05-0.01,0.1-0.03,0.15-0.03C21.39,10.58,21.33,10.61,21.26,10.66z"/>
							<path fill="#A2812E" d="M38.58,8.66c-0.15,0.05-0.41,0.09-0.65,0.13C38.06,8.8,38.25,8.77,38.58,8.66z"/>
							<path fill="#A2812E" d="M73.97,28.56C73.79,28.26,73.9,28.53,73.97,28.56L73.97,28.56z"/>
							<path fill="#A2812E" d="M74.73,26.2c0.08,0.05,0.16,0.07,0.25,0.03C74.88,26.26,74.8,26.24,74.73,26.2z"/>
							<path fill="#A2812E" d="M80.06,44.5c0,0.01,0,0.02,0,0.03C80.15,44.42,80.13,44.44,80.06,44.5z"/>
							<path fill="#A2812E" d="M73.91,28c0.01,0.14,0.04,0.3,0.08,0.46C73.99,28.38,73.97,28.24,73.91,28z"/>
							<path fill="#A2812E" d="M73.76,28.15c-0.04-0.12-0.07-0.21-0.1-0.3C73.58,27.85,73.56,27.91,73.76,28.15z"/>
							<path fill="#A2812E" d="M74.2,28.99c-0.09-0.18-0.16-0.36-0.21-0.53c0,0.08-0.01,0.11-0.03,0.1
								C74.01,28.65,74.08,28.78,74.2,28.99z"/>
							<path fill="#A2812E" d="M5.46,38.23c0.02-0.02,0.03-0.05,0.05-0.08C5.39,37.74,5.4,37.91,5.46,38.23z"/>
							<path fill="#A2812E" d="M69.61,71.66c0.01-0.02,0.01-0.03,0.02-0.05c-0.02,0.01-0.04,0.02-0.05,0.03L69.61,71.66z"/>
							<path fill="#A2812E" d="M68.76,72.87c0.1-0.82,0.4-1,0.82-1.23l-1.19-0.61C68.52,71.64,68.65,72.25,68.76,72.87z"/>
							<path fill="#A2812E" d="M17.18,72.62l0.51,0.98c-1.34-0.35-1.89-1.14-1.52-0.07c0.52-0.47,1.25,0.23,2.08,0.81
								c0.83,0.58,1.66,1.16,2.11,0.65l0.38,0.64c-0.15-0.13-0.22-0.08-0.37-0.21c0.69,1.33,1.35-0.23,2.65,0.8
								c0.44,0.39,0.69,0.77,0.27,0.7l1.28,0.38c0.31,0.21,0.12,0.38-0.19,0.16c0.59,0.3,1.22,0.53,1.83,0.79l-0.03,0.03
								c0.35-0.07,1.06-0.09,1.4-0.08c0.37,0.39-0.28,0.02-0.24,0.23c0.37,0.05,0.74,0.12,1.11,0.16c0.14,0.24-0.03,0.36-0.33,0.38
								c-0.29,0-0.69-0.12-1.03-0.3c0.18,0.84,0.43,0.87,0.84,0.88c0.42-0.01,0.99-0.04,1.9,0.72l-1.05-0.2
								c0.36,0.95,1.24,0.98,2.24,1.85c-0.22-0.34-1.87-1.97-0.62-1.87c0.28,0.21,0.69,0.42,1.38,0.36
								c-0.14,0.46,0.51,0.51,1.29,0.68l-0.22,0.6c0.89,0.04,0.9-0.29,1.45-0.45c0.9,0.3,1,0.84,1.14,1.27
								c1.51,0.34-0.9-0.94,0.92-0.78c0.6,0.22,1.14,0.3,1.72,0.3c0.58,0,1.19-0.04,1.95-0.22c0.86,0.27-0.18,0.38,0.12,0.58
								l0.82-0.47c0.19,0.02,0.12,0.18,0.08,0.25c0.67-0.16,0.09-0.64,1.11-0.76c0.15-0.36,0.65-0.04,1.3,0.19
								c0.65,0.21,1.44,0.41,2.05-0.02c0.32,0.17-0.13,0.4-0.02,0.64c1.72-0.61,1.49-0.43,2.8-1.35l1.26,0.23
								c-0.96-0.34,0.09-1.07,0.93-1.68c-0.35-0.18-0.64-0.34-0.82-0.41c0.48-0.18,0.95-0.37,1.4-0.62c0.2,0.06,0.1,0.31-0.08,0.63
								c0.09-0.08,0.17-0.15,0.24-0.22c0.58,0.1,0.39,0.52,0.08,0.97c-0.21-0.08-0.42-0.16-0.62-0.25c-0.3,0.44-0.58,0.92-0.43,1.27
								c0.09-0.09,0.27-0.18,0.48-0.25c-0.08,0.12-0.13,0.22-0.07,0.28c0.07,0.05,0.21-0.09,0.42-0.32l0.5,0.61l0.02-0.3l2.15-0.09
								c0.32-0.27,0.61-0.55,0.91-0.84c0.28-0.32,0.57-0.65,0.88-0.97c0.61-0.66,1.34-1.23,2.32-1.82c-0.3,0.73,0.22,0.84,0.44,1.42
								c-0.84-0.35-1.61,0.9-2.82,1.21c0.62-0.16,0.59,0.17,0.47,0.33l1.86-1.32c0.15,0.49,0.59,0.2,1.19,0.12
								c-0.79-0.73,1.2-1.32,1.85-1.97c0.21,0.27,0.17,0.67-0.85,1.07c1.43,0.13,0.87-1.68,2.15-1.74
								c-0.22,0.14-0.37,0.17-0.37,0.38c0.38-0.58,1.78-1.15,1.63-0.72l-0.22,0.14c0.39-0.2,0.88-0.48,1.37-0.79
								c0.49-0.33,0.96-0.75,1.39-1.14c0.85-0.79,1.48-1.54,1.29-1.96c0.09,0.07,0.49,0.94,0.5,1.14c0.2-1.42,0.3-2.84,0.37-4.18
								c0.3,0.71,2.3,1.25,1.5,2.53c0.37-0.22,0.89-0.45,1.31-1.29c-0.27,0.15-1.23-0.23-1.02-0.55c1.3-0.21,0.8-0.23,2.2-0.75
								c-0.41,0.21-0.93-0.91-0.47-1.37c0.06,0.19,0.9,0.7,0.82,0.96c0.1-0.66,0.19-1.32,0.21-2c-0.09,0.46,0.7,0.66,1.18,0.55
								c-0.28,0.01,0.9-1.17,1.08-1.6l-0.64,0.42c1.31-1.43-0.23-2.43,0.78-3.93c0.09,0.3,0.93,1.22,1.56,0.46
								c-0.15-0.34-0.46-1.08-0.79-1.95c-0.33-0.88-0.6-1.83-0.47-2.62l0.43-0.13c0.06-0.41,0.13-0.81,0.13-1.23
								c0.3,0.52,0.58,1.41,0.84,2.4c0.25,0.98,0.44,2.06,0.47,2.78c0.56-0.52,0.43,0.01,0.88-0.98c0.44-0.21,0.16,0.75,0.03,1.05
								l1.3-2.22c-0.33-0.09-0.27-0.6-0.21-1.1c0.04-0.51,0.07-1.02-0.21-1.08c-0.06,0.95-0.29,1.84-0.47,2.78
								c-0.33-0.1-0.58-0.66-0.66-1.37c-0.05-0.7-0.02-1.59,0.33-2.38c0.4-0.32,1.01,0.73,1.22,0.79c-0.13-0.3,0.16-1.73,0.37-1.83
								l0.08,0.83c0.29-0.43,0.22-0.88,0.2-1.33c-0.03-0.46-0.06-0.93,0.41-1.42c0.14-0.38,1.15-0.98,0.78-1.14
								c-0.92,0.48-3.24-0.02-3.7-0.55c0.04-0.06,0.35-0.49,0.7-0.96c0.38-0.47,0.67-1,0.91-1.19c0.69-0.54,1.26,1.22,1.85,0.77
								c-0.18-0.06-0.34-0.46-0.39-0.63c0.22-0.39,0.53,0.27,0.59-0.66c-0.65-0.26,0.34-1.85-0.5-0.52
								c-0.08-0.91,0.33-0.92,0.36-1.98c-0.46,0.29-1.45-1.06-1.6-1.91c0.17,0.06,0.41-0.13,0.51-0.22
								c0.04-0.45,0.09-0.84,0.15-1.21c0.03-0.37,0.05-0.71,0.08-1.05c0.05-0.68,0.1-1.34,0.06-2.18c0.16-0.17,0.3-1,0.62-0.69
								c-0.15-0.23-0.42-0.43-0.51-0.94c0.43-1.08,0.27,1.15,0.85,0.3c-0.4-0.02-0.75-1.29-1.11-1.98c-0.57,0.33,0.14,1.7,0.5,2.42
								c-0.84,0.08-1.91-1.07-2.55-2.64c-0.45-1.27,0.41-0.68,0.26-0.88c-0.25-1.25-0.74-1.68-1.16-2.06
								c-0.42-0.38-0.74-0.71-0.83-1.76c0.22-0.95,1-0.39,1.3-0.69c0.29,0.49,0.36,0.92,0.38,1.32c-0.01,0.4-0.05,0.76,0.05,1.12
								l0.01-0.97c0.26,0.29,0.58,0.98,0.53,1.42c0.35-0.84-1.13-4.22-1.62-6.21c-0.32-0.25-0.75-0.72-0.82-0.37L76.6,28
								c-0.15,0.7-1.05-0.8-0.89-0.01c-0.32-0.31-0.68-0.61-1-0.98c-0.16-0.18-0.31-0.39-0.43-0.61c-0.15-0.21-0.28-0.45-0.37-0.73
								l0.42-0.49c-0.14,0.11,0.08,0.83,0.41,1.02c-0.48-0.27-0.22-1.95-1.18-1.99l0.06,0.91c-0.71-0.54-1.7-1.07-2.18-1.94
								c-0.23,0.71,0.2,0.15,0.03,1.11c0.42-1.01,1.27,2.18,1.55,0.85c-0.35,1.05,0.4,1.23,0.19,2.41c0.17-0.12,0.2-0.48,0.47,0.31
								c0.07,0.01,0.17,0.05,0.24,0.08c0,0.03,0.01,0.03,0.01,0.06l0-0.05c0.04,0.02,0.05,0.02,0-0.02
								c-0.01-0.22,0.02-0.41,0.09-0.52c0.59,0.16,1.17,1.38,1.59,1.7c0.13,0.49-0.3-0.1-0.38,0.24c0.21,0.15,0.42,0.31,0.6,0.48
								c-0.39,0.24-0.24,1.52-0.88,0.52l0.34,0.98c-0.03,0.66,0.18,1.47,0.51,1.9c0.03,0.5,0.78,1.06,0.34,0.74l0.68,1.51
								l-0.11,0.04c0.23,0.78,0.46,1.58,0.7,2.42c0.21,0.84,0.4,1.74,0,2.69c0.14,0.53,0.31,1.09,0.23,2.01l-0.38,0.18
								c0.18,0.7-0.48,2.06-0.07,2.37c-0.27,0.17-0.43,0.46-0.52,0.82c-0.08,0.36-0.11,0.78-0.17,1.22
								c-0.09,0.88-0.07,1.84-0.25,2.42l0.49,0.14c-0.18,0.82-0.28,1.62-0.33,2.69l0.45,0.06c0.18,1.02-1.03,2.15-1.46,3.51
								c-0.13-0.16,0.04-0.48,0.23-0.69c-0.38,0.31-0.61,0.69-0.75,1.11c-0.17,0.41-0.28,0.84-0.37,1.29
								c-0.2,0.88-0.31,1.82-1.05,2.31c-0.06,0.41-0.26,0.63-0.5,0.8c0.02-0.03,0.03-0.06,0.03-0.09c-0.03,0.03-0.06,0.08-0.09,0.13
								c-0.16,0.11-0.32,0.21-0.48,0.34c0.18-0.08,0.33-0.17,0.44-0.26c-0.15,0.26-0.34,0.68-0.47,1.12l-0.5-0.1
								c-0.01,0.03-0.03,0.06-0.04,0.1c-0.37,0.27,0.01,0.43,0.43,0.43c-0.04,0.24-0.1,0.45-0.1,0.65c-0.85-0.16-0.5,1.11-1.46,1
								c0.07,0.24-0.21,0.74-0.44,1.27c-0.27,0.5-0.51,1.03-0.27,1.4c-0.09-0.06-0.22,0-0.06-0.18c-0.42,0.31-0.83,0.62-0.96,1.13
								l-0.59-0.27c-0.04,0.47-0.11,0.93-0.2,1.37c-0.77,0.19-1.11,0.21-0.95-0.57c-0.7,1.6-0.76,1.08-1.33,2.54l-0.2-0.35
								c-0.38,0.3-0.69,1.2-1.13,1.12c-1.25,0.14-4.59,3-7.47,3.46c0.48,0.41,0.14,0.45-0.3,0.46c-0.45-0.01-0.97-0.03-0.86,0.41
								c-0.25-0.2-0.67-0.21-0.34-0.59c-1.24,0.72-2.09,0.36-2.83,1.29c-0.23-0.23,0.18-0.46,0-0.58c-0.09,0.08-0.37,0.34-0.55,0.22
								c-0.18-0.12,0.14-0.27,0.32-0.44c-1.35,0.39-1.3,1.26-1.22,2.06c-0.41-0.09-0.69-0.1-0.93,0c-0.24,0.07-0.44,0.24-0.66,0.54
								c-0.31-0.22-0.78-0.42,0.11-0.65c-0.52,0.03-3.13,0.11-3.12,0.72c-0.18-0.15-0.72-0.01-0.85,0.07
								c-1.16,0.02-1.26-0.03-2.4,0.09l0.32,0.09c-0.44,0.82-0.95,0.17-1.88,0.22l0.03-0.08c-1.04-0.33-1.27-0.28-1.5-0.23
								c-0.22,0.02-0.47,0.14-1.45-0.36l0.06,0.49c-0.33,0.99-1.76-0.88-3-0.68c0.12,0.12,0.25,0.22,0.38,0.34
								c-0.75,0.25-1.49-1.81-2.06-2.07c-0.11-0.12,0.25-0.08,0.45-0.1c-1.45-1-0.37,0.55-1.63,0.38c-0.12-0.39,0.53-0.73-0.25-1.04
								c-0.15-0.2-0.8-0.15-1.54-0.18c-0.73-0.05-1.58-0.09-1.96-0.67c0.12,0.35,0.25,0.7-0.36,0.62c-0.87-0.34-1.77-1.91-2.86-1.6
								c-0.06-0.12-0.07-0.2-0.04-0.26c-0.69-0.17-2.1-0.86-2.71-0.71c0.18-0.86-0.76-1.35-1.7-1.77c-0.96-0.4-1.79-0.86-1.28-1.44
								l-1.63-1.37l0.15-0.07c-0.91-1-1.44-1.15-2.06-1.25c-0.14-0.31,0.13-0.23,0.2-0.26c-1.14-1.66-1.2-1.81-2.85-2.7l0.3-0.43
								c-0.26-0.1-0.55-0.78-0.86-1.65c-0.31-0.87-0.84-1.81-1.5-2.56c0.06-0.01,0.16-0.02,0.29,0.09
								c-0.71-0.86-1.04-2.17-1.26-3.28c-0.21-1.13-0.49-2.01-1.49-2.11c-0.33-0.4-0.55-0.84-0.83-1.28
								c0.34,1.89-0.82-0.06-0.91,0.79c-0.3-0.73,0.03-2.06,0.35-1.18l-0.05,0.16c1,0.08-0.29-2.38,0.39-2.47
								c-0.76-3.65-0.29-7.3,0.05-10.67c-0.26,0.1-0.53,0.21-0.78,0.32c0.05-0.4,0.14-0.8,0.21-1.2c0.22-0.29,0.63-0.34,0.47,0.5
								c0.48-0.39-0.13-1.46-0.28-1.52c0.55-1.61,0.74,0.79,0.84,0.28l0.05-0.69l-0.11,0.14c-0.19-0.6-0.57-0.73-0.26-1.73
								c0.31-0.6,0.52-0.22,0.61-0.46c0.05,0.01,0.1-0.06,0.12-0.37l0.43-1.44l-0.7,0.42c-0.12-0.74,0.4-1.38-0.42-0.89
								c0.63-0.36,1.23-1.65,1.69-2.94c0.54-1.26,1.09-2.47,1.35-2.69c0.01-0.26,0.04-0.51,0.1-0.76c0.07-0.23,0.17-0.46,0.28-0.68
								c0.22-0.45,0.51-0.89,0.83-1.38c-0.25,0.18-0.9,0-0.3-0.84c0.48,0.53,0.8,0.19,1.25-0.24c0.44-0.43,0.94-1,1.56-1.03
								c-0.47,0.09-0.08-0.49,0.26-1.07c0.34-0.57,0.7-1.06-0.04-0.94c0.65-0.55,0.42,0.29,1.08,0.03c0.92-1.85,3.23-2.91,5.02-4.49
								c-0.08-0.16-0.57-0.13-0.31-0.65l1.55-0.06c0.34-0.34-0.25-1.14,0.85-1.08c-0.19-0.06-0.47-0.15-0.22-0.36
								c2.26-0.93,4.31-2.23,6.59-3.19c1.14-0.45,2.28-0.95,3.52-1.12c0.61-0.11,1.22-0.19,1.83-0.23c0.61-0.05,1.25,0.06,1.87,0.15
								c-0.7-0.24-0.28-0.34,0.22-0.42c-0.33-0.03-0.06-0.43-0.16-0.66c0.71,0.12,1.41,0.21,2.1,0.37c0.31-0.68,2.17-0.15,2.36-0.8
								l-0.65,0.15c0.86-0.79-1.32-1.59-1.28-2.56c-0.24,0.22-0.54,0.27-0.88,0.23c-0.33-0.02-0.71-0.1-1.11-0.18
								c-0.79-0.15-1.7-0.24-2.44,0.49c-0.41-0.13,0.26-0.35,0.02-0.54c-0.36,0.45-0.84,0.69-1.83,0.74l0.08-0.13
								c-1.31,0.41-2.3,0.51-3.29,0.79c-0.51,0.12-1.02,0.23-1.6,0.37c-0.58,0.14-1.24,0.27-1.96,0.58l0.4,0.33
								c-0.62,0.23-0.81,0.16-1.15,0.19c-0.38,0.98,1.71-0.78,1.4,0.25c-0.59-0.25-1.65,0.26-2.68,0.73
								c-1.02,0.5-1.95,1.09-2.5,0.76c-0.89,0.53,0.55,0.31-0.33,0.84l-0.39-0.11l-0.01,0.45c-0.61,0.29-1.07,0.23-1.24,0.03
								c0.15-0.07,0.34-0.34,0.47-0.46c-0.91,0.24-1.94,1.59-2.24,1.68l0.91-0.45c-2.15,1.82-4.86,4.03-6.2,6.47l0.31-0.01
								c-1,1.82-1.2,1.14-2.42,3.05l0.01-0.1c-0.11,0.48-0.31,1.06-0.65,1.57c0.08-0.63-0.99,0.65-0.85-0.15
								c-0.77,2.16-0.31,1.12-0.28,2.8l-0.47,0.13c0.08,0.6,0.22,0.72-0.17,1.75c0.11-0.96-0.82,0.4-0.76-0.7
								c-0.44,0.45-0.71,0.9-0.89,1.32c-0.16,0.43-0.2,0.85-0.26,1.21c-0.1,0.74-0.19,1.29-0.94,1.61c0.6,1.34,1.24-1.73,1.24-1.09
								c0.48-0.35,0.42,1.09,0.07,1.73c-0.3,0.67-1.62,0.81-2.09,2.68c0.05-0.18-0.02-0.21,0.03-0.4C5.19,34.43,5.54,35.21,5.02,36
								c0.54,0.6-0.21,1.13,0.55,1.39l0.08-1.75c0.05,1.03,0.83,2.05,0.15,3.56c-0.14-0.14-0.28-0.64-0.34-0.98
								c-0.29,0.44-0.01,0.91-0.27,1.38c-0.82-0.23,0.13-2.11-0.32-3.26c-0.41,0.46,0.26,2.09-0.51,1.44
								c0.48,0.46,0.38,0.92,0.23,1.44c-0.1,0.53-0.23,1.13,0.15,1.8l-0.47-0.11c0.06,0.21,0.27,0.65,0.24,1.02l-0.58-0.71
								c0.48,1.08-0.6,2.05-0.22,3.08c-0.06-1.08,0.08-1.19,0.28-1.16c0.19,0.04,0.41,0.22,0.61-0.22c0.71,2.57-1.2,1.52-0.8,4.49
								c-0.12-0.4,0.2-1.53,0.44-0.92c-0.09,0.57-0.16,1.32-0.35,1.7c0.39,1.93,0.44-0.36,0.85,0.42c-0.47,0.74,0.38,0.91,0.69,1.7
								l-0.47,0.09c0,0.56,0.09,0.87,0.22,1.03c0.12,0.17,0.26,0.21,0.39,0.24c0.27,0.06,0.52,0.09,0.58,1.09l-0.86-0.65l0.43,0.96
								l-0.58-0.07c0.7,0.99,0.61,1.37,0.85,2.47c0.24-0.35,0.88-0.14,1.23,0.76c-0.04,0.72-0.56-0.19-0.02,1.08
								c-0.39-0.18-0.86-0.38-0.65-1.1c-0.17-0.01-0.39-0.19-0.56-0.2c-0.06,0.79,0.56,1.75,0.74,2.22
								c-0.05-0.19-0.11-0.42-0.09-0.56c0.22,0.28,0.43,0.55,0.67,0.82l0.74,0.77C8,59.63,7.76,59.46,7.53,59.3
								c0.23,0.35,0.55,0.51,0.85,1.03c-0.42,0.03-0.77,0.25-1.31-0.46l1.24,1.56c-0.1,0.2,0.04,1.12-0.2,0.96
								c0.38,1.05,2.01,1.91,2.55,3.25c0.11,0.02,0.26,0.09,0.48,0.3c0.36,0.56,0.63,1.15,0.98,1.72c0.18,0.28,0.36,0.57,0.61,0.83
								c0.26,0.25,0.57,0.48,0.93,0.68l0.09,1.14c0.96,0.81-0.17-1.5,1.41-0.16c1.14,0.91-0.07,0.83,0.16,1.33
								c0.8,0.25,2.2,0.55,2.81,1.88C17.71,73.17,17.52,72.85,17.18,72.62z M30.37,80.03c-0.31,0-0.97,0.08-1.07-0.26
								C29.81,79.37,29.95,79.7,30.37,80.03z M52.78,79.82c-0.17,0.21-0.51,0.21-0.91,0.13C52.13,79.84,52.42,79.78,52.78,79.82z
								 M75.81,31.99c0.01,0.01,0.02,0.01,0.03,0.02C75.86,32.62,75.86,32.4,75.81,31.99z M75.59,30.79
								c-0.1-0.09-0.16-0.06-0.21,0.01c0.14,0.03,0.24,0.29,0.32,0.59C75.78,31.27,75.81,31.09,75.59,30.79z M9.39,34.89l-0.18,0.2
								C9.21,34.53,9.3,34.71,9.39,34.89z"/>
							<path fill="#A2812E" d="M50.43,81.05c-0.1-0.07-0.14-0.15-0.17-0.24C50.17,80.91,50.18,81,50.43,81.05z"/>
							<path fill="#A2812E" d="M10.67,65.68l-0.02-0.04c-0.04,0-0.07,0-0.1,0.01L10.67,65.68z"/>
							<path fill="#A2812E" d="M81.41,49.93c-0.11,0.26-0.22,0.4-0.33,0.49C81.19,50.45,81.31,50.35,81.41,49.93z"/>
							<path fill="#A2812E" d="M72.04,25.49l0.5,0.58c-0.21-0.3-0.19-0.47-0.22-0.67C72.23,25.47,72.17,25.68,72.04,25.49z"/>
							<path fill="#A2812E" d="M70.25,18.23c-0.12-0.05-0.18-0.18-0.3-0.23l-0.14,0.18C70.16,18.55,70.54,18.69,70.25,18.23z"/>
							<path fill="#A2812E" d="M73.02,24.01c0.29-0.26-0.04-0.65-0.45-1.04c0.02,0.03,0.04,0.05,0.06,0.08
								C72.06,23.24,72.57,23.6,73.02,24.01z"/>
							<path fill="#A2812E" d="M72.48,22.88c-0.12-0.13-0.23-0.26-0.32-0.41C71.93,22.55,72.24,22.66,72.48,22.88z"/>
							<path fill="#A2812E" d="M74.77,29.47c-0.02-0.27-0.54,0.07-0.46-0.13C73.73,29.28,75.62,30.62,74.77,29.47z"/>
							<polygon fill="#A2812E" points="73.9,22.89 73.59,23.34 74.09,23.39 							"/>
							<path fill="#A2812E" d="M75.83,27l-0.27-0.89c-0.07,0.05-0.16-0.03-0.26-0.14C75.53,26.49,75.7,27.09,75.83,27z"/>
							<path fill="#A2812E" d="M75.3,25.98c-0.13-0.26-0.29-0.49-0.45-0.59C74.93,25.52,75.14,25.8,75.3,25.98z"/>
							<polygon fill="#A2812E" points="74.68,23.89 74.73,24.17 75.04,24.75 							"/>
							<path fill="#A2812E" d="M78.9,36.27l0.29,0.96c0.18,0.07,0.25-0.21,0.12-0.57C79.17,36.44,79.04,36.08,78.9,36.27z"/>
							<path fill="#A2812E" d="M79.51,32.98c-0.03,0.3-0.13,0.35-0.25,0.54l0.61-0.13L79.51,32.98z"/>
							<path fill="#A2812E" d="M80.38,35.87c0.18,0.06,0.72,1.41,0.48,0.1C80.68,35.89,80.34,34.9,80.38,35.87z"/>
							<polygon fill="#A2812E" points="79.44,51.18 79.5,50.92 78.5,50.75 							"/>
							<path fill="#A2812E" d="M76.29,64.84c0.87-0.96-0.37-0.6,0.48-1.41c-0.05-0.38-0.7,0.67-0.72,0.3
								C75.88,64.51,75.55,64.78,76.29,64.84z"/>
							<path fill="#A2812E" d="M76.06,63.73c0.03-0.12,0.05-0.26,0.07-0.41C76.07,63.54,76.05,63.65,76.06,63.73z"/>
							<polygon fill="#A2812E" points="41.26,8.96 41.98,9.14 41.51,8.82 							"/>
							<path fill="#A2812E" d="M42.62,8.13l0.18,0.64l0.43-0.61C43.07,8.2,42.75,8.27,42.62,8.13z"/>
							<path fill="#A2812E" d="M32.16,81.97l0.1-0.13c-0.08-0.2-0.26-0.26-0.63-0.38L32.16,81.97z"/>
							<polygon fill="#A2812E" points="22.07,76.92 22.22,77.04 22.23,76.35 							"/>
							<path fill="#A2812E" d="M14.2,71.54c0.24,0.32,0.67,0.53,0.94,0.81C14.43,71.87,14.66,70.95,14.2,71.54z"/>
						</g>
					</g>
				</g>
				<g>
					<g>
						<g>
							<path fill="#A2812E" d="M43.54,84.82c-0.38-0.02-0.25,0.39-0.3,0.47C43.88,85.17,43.52,84.71,43.54,84.82z"/>
							<polygon fill="#A2812E" points="49.72,83.31 49.64,83.5 50.47,82.95 							"/>
							<path fill="#A2812E" d="M55.39,82.03c-0.73-0.53-2,0.64-3.07,0.66l-0.2-0.12l-0.33,0.68C53,82.84,54.48,82.07,55.39,82.03z"
								/>
							<path fill="#A2812E" d="M58.88,82.39c-0.29-0.19,0.56-0.46-0.74,0.18c0.08,0,0.1,0.01,0.15,0.02
								C58.41,82.54,58.58,82.48,58.88,82.39z"/>
							<path fill="#A2812E" d="M58.29,82.59C57.7,82.83,58.77,82.66,58.29,82.59L58.29,82.59z"/>
							<path fill="#A2812E" d="M60.93,81.3l-0.65,0.59c0.22,0.07,0.92-0.22,0.72,0.01C61.72,81.4,61.48,81.33,60.93,81.3z"/>
							<path fill="#A2812E" d="M61.41,80.49l-0.34,0.28C61.17,80.8,61.28,80.77,61.41,80.49z"/>
							<path fill="#A2812E" d="M60.34,81.36l0.73-0.6c-0.16-0.05-0.27-0.26-0.34,0.25C60.71,80.8,60.63,81.06,60.34,81.36z"/>
							<path fill="#A2812E" d="M59.83,81.49c-0.48,0.07-1.07,0.18-0.41-0.36C58,81.78,58.41,82.2,59.83,81.49z"/>
							<path fill="#A2812E" d="M55.44,81.22c-0.21,0-0.41,0.01-0.63-0.02l-0.43,0.36c0.11-0.09,0.4-0.11,0.65-0.14
								C55.29,81.38,55.49,81.32,55.44,81.22z"/>
							<path fill="#A2812E" d="M65.68,79.13c-0.04-0.16-0.46-0.2-0.61-0.33l-0.43,0.47C64.96,79.19,65.53,78.96,65.68,79.13z"/>
							<path fill="#A2812E" d="M65.07,78.8l0.64-0.7C65,78.5,64.94,78.69,65.07,78.8z"/>
							<polygon fill="#A2812E" points="61.19,79.71 60.09,80.85 61.44,79.58 							"/>
							<polygon fill="#A2812E" points="68.62,77.13 68.4,77.73 68.84,76.74 							"/>
							<path fill="#A2812E" d="M70.44,75.65c-0.1,0.49,0.72,0.02,0.52,0.43c0.45-0.48,0.69-1.03,0.91-1.53
								C71.57,74.99,71.13,75.35,70.44,75.65z"/>
							<path fill="#A2812E" d="M72.26,73.75c-0.14,0.23-0.26,0.5-0.39,0.79C72.03,74.31,72.17,74.05,72.26,73.75z"/>
							<path fill="#A2812E" d="M67.05,77.3c0.11,0.03,0.36,0.15,0.83-0.08l-0.54-0.13C67.25,77.16,67.15,77.23,67.05,77.3z"/>
							<path fill="#A2812E" d="M67.32,77.09l0.02,0c0.32-0.22,0.54-0.38,0.64-0.45C67.89,76.7,67.69,76.84,67.32,77.09z"/>
							<path fill="#A2812E" d="M66.97,77.36c0.03-0.02,0.05-0.03,0.07-0.05C66.99,77.29,66.97,77.29,66.97,77.36z"/>
							<path fill="#A2812E" d="M63.46,78.97c0.34-0.48,1.13-1.27,0.05-1.03C63.33,78.38,63.96,78.24,63.46,78.97z"/>
							<path fill="#A2812E" d="M66.31,77.18c-0.27,0.16-0.58,0.29-0.86,0.43c0.08,0.09,0.32,0.13,0.15,0.37
								C65.84,77.71,66.1,77.47,66.31,77.18z"/>
							<polygon fill="#A2812E" points="66.61,76.79 66.31,77.18 66.62,77 							"/>
							<path fill="#A2812E" d="M70.75,74.58c0.19-0.42,0.52-0.74,0.88-1.11c-0.47,0.31-0.92,0.66-1.32,1.03
								C70.34,74.65,70.31,74.99,70.75,74.58z"/>
							<path fill="#A2812E" d="M69.1,75.82c0.02-0.02,0.04-0.05,0.06-0.08C69.09,75.75,69.04,75.77,69.1,75.82z"/>
							<polygon fill="#A2812E" points="75.13,69.8 75.02,69.81 75.06,69.87 							"/>
							<path fill="#A2812E" d="M70.18,74.5c-0.36,0.22-0.48,0.46-0.57,0.72c0.2-0.24,0.43-0.48,0.69-0.72
								C70.29,74.43,70.27,74.39,70.18,74.5z"/>
							<path fill="#A2812E" d="M73.15,72.61c-0.21,0.11-0.44,0.23-0.68,0.35C72.73,72.92,73.18,72.75,73.15,72.61z"/>
							<path fill="#A2812E" d="M69.34,75.76l-0.04,0.05C69.47,75.8,69.43,75.77,69.34,75.76z"/>
							<path fill="#A2812E" d="M69.34,75.76c0.13-0.18,0.2-0.36,0.28-0.54c-0.18,0.18-0.34,0.36-0.46,0.53
								C69.21,75.74,69.28,75.74,69.34,75.76z"/>
							<path fill="#A2812E" d="M73.9,66.9c0.26,0.28-0.02,1.4-0.98,1.76c-0.36,0.84,0.99,1.29,2.1,1.15
								c-0.12-0.14-0.21-0.22,0.17-1.12c-0.33,0.16-1.73,1.25-1.48,0.44c0.66-1.04,0.73-0.69,1.27-1.02
								c-0.69,0.09,0.36-1.68-0.39-1.89l-0.42,0.99C74.07,67.14,74.16,66.73,73.9,66.9z"/>
							<path fill="#A2812E" d="M73.77,71.13l-0.23,0.32c0.35-0.28,0.68-0.41,1.32-0.65c0.3-0.62,0.28-0.81,0.21-0.93l-1.34,1.4
								L73.77,71.13z"/>
							<path fill="#A2812E" d="M72.33,72.74c-0.06-0.5,0.41-1.34-0.3-1.24c-0.76,0.83-0.31,0.8-0.68,1.4
								c1.28-1.32-0.23,0.53,0.93-0.19c-0.22,0.3-0.45,0.54-0.66,0.76c0.28-0.19,0.57-0.36,0.85-0.51c-0.02,0-0.03,0.01-0.05,0.01
								l-0.01,0.01l0-0.01c-0.1,0.02-0.14,0.01-0.05-0.03c0-0.01,0.02-0.02,0.02-0.03C72.35,72.86,72.34,72.8,72.33,72.74
								c0.46-0.3,0.14,0.02,0.05,0.17c0.01,0.02,0.01,0.04,0.03,0.06l0.01,0c0.42-0.47,0.74-1.02,1.11-1.52
								C73.22,71.69,72.93,72.09,72.33,72.74z"/>
							<path fill="#A2812E" d="M63.84,76.64c0.07,0,0.08,0.03,0.1,0.06C64.01,76.6,64.03,76.54,63.84,76.64z"/>
							<path fill="#A2812E" d="M64.6,76.48c-0.08,0.12-0.08,0.32-0.46,0.5c-0.38,0.08-0.11-0.18-0.2-0.29
								c-0.15,0.23-0.6,0.73,0.19,0.49l0.08-0.12c0.69-0.25,1.79-0.29,1.72-0.18C65.53,76.69,65.22,76.56,64.6,76.48z"/>
							<path fill="#A2812E" d="M68.5,74.72c0.37-0.34,0.69-0.75,1.01-1.14l-0.81,0.23l0.17,0.15C68.17,74.44,68.47,74.52,68.5,74.72
								z"/>
							<path fill="#A2812E" d="M75.42,69.8l0.21,0.45c0.05-0.35,0.04-0.75,0.06-1.12L75.42,69.8z"/>
							<polygon fill="#A2812E" points="76.59,68.15 76.87,68.45 77,67.87 							"/>
							<path fill="#A2812E" d="M24.52,11.62l-0.29,0.31C24.38,11.8,24.46,11.7,24.52,11.62z"/>
							<path fill="#A2812E" d="M27.11,10.25l-0.02-0.21C27.01,10.2,27,10.3,27.11,10.25z"/>
							<path fill="#A2812E" d="M78.61,21.34c-0.03-0.76,0.05-1.73-0.28-1.41l-0.25,0.42C78.38,20.7,78.53,21.04,78.61,21.34z"/>
							<path fill="#A2812E" d="M50.92,4.94l0.15,0.16c0.18-0.11,0.34-0.21,0.5-0.3C51.37,4.84,51.15,4.86,50.92,4.94z"/>
							<path fill="#A2812E" d="M50.15,6.63l-0.73-0.39C49.57,6.36,49.81,6.49,50.15,6.63z"/>
							<path fill="#A2812E" d="M13.29,22.71c0.03,0.21,0.05,0.41,0.1,0.63C13.79,22.74,13.44,22.88,13.29,22.71z"/>
							<path fill="#A2812E" d="M84.3,49.14c0.25-0.54,0.39-0.99,0.47-1.39C84.43,48.41,83.97,48.91,84.3,49.14z"/>
							<path fill="#A2812E" d="M23.28,6.99c-0.2,0.21-0.26,0.35-0.2,0.43C23.28,7.21,23.38,7.05,23.28,6.99z"/>
							<path fill="#A2812E" d="M84.89,46.09c-0.05,0.1-0.08,0.2-0.12,0.3c0.04,0.43,0.11,0.86,0.01,1.37
								C85.04,47.26,85.15,46.67,84.89,46.09z"/>
							<path fill="#A2812E" d="M22.73,73.64c0.02,0.04,0.06,0.07,0.08,0.11C22.85,73.71,22.8,73.68,22.73,73.64z"/>
							<path fill="#A2812E" d="M37.77,83.89c-0.19,0-0.49-0.05-0.77-0.08C37.13,83.86,37.36,83.89,37.77,83.89z"/>
							<path fill="#A2812E" d="M80.99,61.27C80.82,61.67,81,61.35,80.99,61.27L80.99,61.27z"/>
							<path fill="#A2812E" d="M78.56,62.34c0-0.1-0.03-0.19-0.11-0.25C78.53,62.17,78.56,62.25,78.56,62.34z"/>
							<path fill="#A2812E" d="M82.26,41.89c0-0.01,0-0.02,0-0.03C82.18,41.98,82.2,41.96,82.26,41.89z"/>
							<path fill="#A2812E" d="M80.53,61.76c0.12-0.12,0.24-0.27,0.36-0.44C80.81,61.39,80.7,61.52,80.53,61.76z"/>
							<path fill="#A2812E" d="M80.75,61.78c-0.08,0.13-0.14,0.23-0.2,0.32C80.59,62.18,80.65,62.16,80.75,61.78z"/>
							<path fill="#A2812E" d="M81.23,60.71c-0.1,0.23-0.22,0.42-0.34,0.61c0.06-0.06,0.1-0.09,0.1-0.06
								C81.04,61.15,81.11,60.98,81.23,60.71z"/>
							<path fill="#A2812E" d="M5.75,48.2c-0.01,0.03-0.01,0.06-0.03,0.09C5.96,48.65,5.9,48.48,5.75,48.2z"/>
							<path fill="#A2812E" d="M68.46,16.05c0.02,0.01,0.03,0.01,0.05,0.01c-0.01-0.02-0.02-0.04-0.03-0.05L68.46,16.05z"/>
							<path fill="#A2812E" d="M67.23,15.36c0.78-0.02,0.99,0.27,1.24,0.65l0.5-1.23C68.38,14.96,67.8,15.16,67.23,15.36z"/>
							<path fill="#A2812E" d="M18.95,15.84l0.96-0.35c-0.42,1.26-1.16,1.62-0.15,1.45c-0.39-0.53,0.22-1.23,0.93-1.8
								c0.71-0.57,1.42-1.14,1.08-1.74l0.67-0.14c-0.15,0.1-0.13,0.18-0.28,0.28c1.33-0.2,0.17-1.34,1.65-2.03
								c0.53-0.2,0.96-0.23,0.72,0.1l0.89-0.93c0.32-0.16,0.36,0.09,0.04,0.25c0.52-0.35,1.09-0.62,1.63-0.93l0,0.04
								c0.15-0.31,0.56-0.87,0.78-1.13c0.52-0.03-0.16,0.24,0.02,0.34C28.16,9,28.42,8.73,28.71,8.5c0.27,0.09,0.23,0.28,0.04,0.49
								c-0.18,0.22-0.51,0.46-0.84,0.6c0.72,0.41,0.87,0.24,1.13-0.06c0.27-0.26,0.66-0.65,1.77-0.63l-0.85,0.49
								c0.86,0.51,1.46-0.01,2.62,0.07c-0.29-0.16-2.43-0.39-1.5-1.1c0.34-0.01,0.73-0.12,1.23-0.57c0.15,0.46,0.69,0.2,1.4-0.01
								l0.12,0.63c0.72-0.37,0.58-0.68,0.97-1.07c0.88-0.16,1.16,0.27,1.45,0.66c1.41-0.11-1.12-0.63,0.52-1
								c0.61,0.03,1.11-0.05,1.63-0.21c0.52-0.16,1.06-0.44,1.77-0.64c0.86,0.18-0.12,0.4,0.2,0.56l0.71-0.55
								c0.18,0,0.13,0.16,0.11,0.24c0.62-0.23,0.02-0.64,1.01-0.87c0.13-0.35,0.65-0.15,1.29,0.11c0.63,0.28,1.36,0.55,2,0.18
								c0.29,0.2-0.17,0.38-0.09,0.64c1.71-0.44,1.46-0.34,2.93-0.82l1.12,0.6c-0.79-0.61,0.4-1,1.5-1.3
								c-0.27-0.28-0.51-0.52-0.68-0.64c0.56-0.03,1.13-0.07,1.68-0.02c0.17,0.15-0.04,0.32-0.36,0.52
								c0.12-0.02,0.23-0.05,0.32-0.07c0.51,0.38,0.13,0.66-0.34,0.91l-0.48-0.53c-0.47,0.32-0.91,0.69-0.9,1.07
								c0.11-0.06,0.32-0.09,0.54-0.09c-0.12,0.09-0.2,0.17-0.17,0.24c0.04,0.08,0.23-0.06,0.51-0.14l0.19,0.79l0.14-0.26l1.85,0.94
								c0.4-0.08,0.79-0.19,1.2-0.29c0.4-0.07,0.81-0.14,1.25-0.19c0.87-0.08,1.88-0.12,3.05,0.22c-0.74,0.22-0.45,0.73-0.73,1.28
								c-0.33-0.86-1.79-0.37-2.85-0.91c0.56,0.28,0.33,0.51,0.15,0.55l2.2,0.17c-0.24,0.45,0.28,0.5,0.69,0.95
								c0.03-1.1,1.71,0.09,2.64,0.19c-0.11,0.32-0.46,0.54-1.37,0c0.69,1.19,1.93-0.43,2.61,0.77c-0.23-0.13-0.32-0.25-0.49-0.15
								c0.67,0.06,1.83,1.04,1.37,1.11l-0.22-0.13c0.35,0.25,0.81,0.54,1.3,0.83c0.48,0.31,0.97,0.67,1.46,0.96
								c0.97,0.58,1.9,0.95,2.26,0.73c-0.06,0.09-0.82,0.63-1.02,0.71c1.37-0.08,2.77-0.07,4.25-0.03
								c-0.71,0.35-1.15,2.29-2.48,1.64c0.22,0.36,0.54,0.74,1.3,1.19c-0.1-0.28,0.27-1.26,0.59-1.02c0.13,1.35,0.19,0.86,0.54,2.28
								c-0.16-0.41,1-0.84,1.43-0.31c-0.2,0.03-0.82,0.78-1.07,0.68c0.65,0.15,1.32,0.32,1.93,0.55c-0.41-0.21-0.79,0.54-0.82,1.03
								c0.07-0.27,0.83,1.14,1.18,1.42l-0.2-0.71c0.99,1.56,2.37,0.61,3.33,2.28c-0.32-0.08-1.51,0.26-1.15,1.13
								c0.35,0.04,1.24,0.09,2.12,0.35c0.88,0.27,1.83,0.72,2.42,1.43l-0.15,0.44c0.31,0.35,0.63,0.7,0.89,1.09
								c-0.52-0.25-1.51-0.68-2.45-1.15c-0.95-0.46-1.87-0.94-2.45-1.3c0.08,0.74-0.26,0.35,0.22,1.26
								c-0.12,0.46-0.66-0.29-0.8-0.55l0.84,2.2c0.28-0.19,0.63,0.15,0.98,0.5c0.31,0.36,0.59,0.75,0.84,0.6
								c-0.48-0.75-1.12-1.42-1.69-2.09c0.28-0.19,0.87-0.06,1.48,0.34c0.3,0.2,0.64,0.46,0.88,0.79c0.24,0.33,0.44,0.72,0.56,1.15
								c-0.1,0.51-1.23,0.11-1.43,0.23c0.29,0.12,0.97,1.37,0.87,1.57l-0.59-0.56c0.04,0.48,0.39,0.77,0.7,1.11
								c0.3,0.33,0.51,0.74,0.35,1.37c0.06,0.4-0.55,1.34-0.14,1.31c0.59-0.79,2.85-1.54,3.52-1.22c-0.01,0.08-0.04,0.67-0.11,1.3
								c-0.05,0.62-0.27,1.31-0.4,1.57c-0.49,0.77-1.56-0.74-1.98-0.08c0.18-0.01,0.46,0.31,0.56,0.45
								c-0.09,0.44-0.59-0.07-0.37,0.81c0.7,0.05,0.22,1.84,0.64,0.34c0.31,0.87,0.06,0.96,0.15,2c0.42-0.38,1.54,0.83,1.78,1.77
								c-0.18-0.05-0.39,0.17-0.49,0.27c0.01,0.47,0,0.89-0.02,1.28c-0.04,0.39-0.12,0.74-0.17,1.1c-0.12,0.7-0.24,1.39-0.28,2.26
								c-0.17,0.15-0.43,0.96-0.69,0.58c0.09,0.26,0.28,0.51,0.21,1.04c-0.74,0.94,0.09-1.18-0.73-0.49
								c0.38,0.11,0.33,1.42,0.46,2.21c0.64-0.13,0.38-1.74,0.25-2.51c0.84,0.08,1.52,1.52,1.61,3.49
								c-0.07,1.53-0.67,0.53-0.59,0.81c-0.42,1.34-0.21,2.02-0.05,2.63c0.16,0.61,0.3,1.18-0.42,2.2
								c-0.83,0.71-1.02-0.31-1.46-0.25c0.11-0.6,0.36-1,0.59-1.36c0.21-0.37,0.42-0.69,0.52-1.09l-0.5,0.91
								c-0.07-0.42-0.01-1.23,0.25-1.61c-0.58,0.62-1.4,4.46-2.75,6.18c0,0.41-0.11,1.08,0.22,0.9l0.23-0.64
								c0.67-0.39-0.01,1.41,0.54,0.72c-0.06,0.48-0.1,1.01-0.23,1.56c-0.06,0.27-0.14,0.55-0.26,0.83
								c-0.14,0.26-0.32,0.52-0.54,0.77l-0.66-0.1c0.17,0.07,0.76-0.55,0.78-0.95c-0.05,0.61-1.75,1.28-1.37,2.2l0.84-0.56
								c-0.24,0.94-0.24,2.36-1.16,3.18c0.82-0.09,0.11-0.25,1.19-0.54c-1.12,0.14,1.63-2.6,0.23-2.08
								c1.14-0.33,1.12-1.07,2.24-1.78c-0.19-0.06-0.52,0.19,0.01-0.68c-0.03-0.07-0.05-0.2-0.06-0.28
								c0.02-0.02,0.03-0.03,0.04-0.05l-0.05,0.04c-0.01-0.05-0.01-0.06-0.02,0.01c-0.18,0.18-0.36,0.3-0.5,0.32
								c-0.2-0.66,0.5-2.06,0.51-2.64c0.34-0.49,0.11,0.31,0.44,0.11c0.01-0.29,0.01-0.57-0.02-0.87c0.44,0.1,1.24-1.2,1,0.22
								l0.46-1.18c0.49-0.61,0.96-1.56,0.97-2.22c0.25-0.56-0.1-1.6,0.11-1l0.23-1.99l0.11,0.01c0.31-0.94,0.23-1.98,0.31-3.01
								c0.05-1.04,0.27-2.08,0.69-3.17c-0.08-0.67-0.18-1.35,0-2.44l0.4-0.21c-0.08-0.84,0.29-2.57-0.11-2.92
								c0.25-0.24,0.37-0.63,0.42-1.1c0.06-0.47,0.02-1.01-0.11-1.56c-0.22-1.1-0.55-2.25-0.58-3.02l-0.51,0.04
								c-0.16-1.02-0.59-1.94-1.09-3.11l-0.41,0.2c-0.56-0.96-0.54-2.74-1.17-4.36c0.2,0.05,0.31,0.48,0.32,0.8
								c0.06-0.57-0.05-1.11-0.25-1.61c-0.23-0.49-0.56-0.93-0.89-1.36c-0.68-0.86-1.29-1.69-1.46-2.66
								c-0.38-0.32-0.51-0.63-0.58-0.97c0.02,0.04,0.05,0.07,0.08,0.09c-0.02-0.04-0.06-0.1-0.09-0.17
								c-0.04-0.22-0.07-0.44-0.13-0.68c0.01,0.23,0.03,0.43,0.08,0.59c-0.19-0.3-0.53-0.74-0.9-1.13l0.28-0.46
								c-0.03-0.03-0.05-0.06-0.08-0.1c-0.13-0.55-0.41-0.23-0.57,0.21c-0.2-0.19-0.44-0.32-0.64-0.41
								c0.38-0.79-1.04-0.95-0.72-1.91c-0.27-0.02-0.73-0.51-1.22-0.95c-0.54-0.4-1.11-0.75-1.52-0.57c0.07-0.09,0.01-0.24,0.2-0.03
								c-0.32-0.49-0.64-0.99-1.16-1.21l0.27-0.61c-0.48-0.13-0.97-0.24-1.48-0.32c-0.31-0.78-0.41-1.17,0.49-0.98
								c-1.88-0.72-1.31-0.84-2.95-1.33l0.31-0.26c-0.46-0.33-1.51-0.45-1.58-0.91c-0.51-1.47-5.08-3.6-7.8-5.5
								c0.05,0.68-0.23,0.38-0.6,0.04c-0.38-0.31-0.85-0.7-1.07-0.3c-0.08-0.32-0.46-0.63,0.13-0.67c-1.67-0.31-2.24-1.35-3.6-0.87
								c-0.11-0.31,0.46-0.3,0.34-0.5c-0.15,0.02-0.59,0.1-0.71-0.11c-0.12-0.2,0.3-0.16,0.6-0.21c-1.71-0.4-2.07,0.39-2.37,1.14
								c-0.37-0.29-0.66-0.45-0.95-0.49c-0.29-0.01-0.58,0.09-0.93,0.3c-0.24-0.3-0.69-0.65,0.37-0.58
								c-0.57-0.12-3.54-0.95-3.66-0.28C47,2.77,46.35,2.85,46.19,2.92c-1.32-0.11-1.43-0.17-2.73-0.17l0.36,0.12
								c-0.52,0.72-1.07,0.17-2.11,0.31l0.03-0.08c-1.2-0.22-1.46-0.14-1.71-0.07c-0.25,0.1-0.49,0.06-1.7-0.05l0.18,0.46
								c-0.08,1.06-2.13-0.29-3.44,0.32c0.18,0.06,0.36,0.13,0.54,0.19c-0.65,0.44-2.33-0.88-3.13-0.82
								c-0.19-0.04,0.22-0.21,0.43-0.33c-2.13-0.08-0.1,0.67-1.5,1.19c-0.36-0.24,0.09-0.94-0.9-0.69c-0.28-0.04-0.9,0.47-1.61,0.98
								c-0.71,0.53-1.55,0.95-2.29,0.99c0.38,0.11,0.75,0.22,0.21,0.7c-0.88,0.55-3.05,0.33-3.48,1.55
								c-0.15,0.01-0.23-0.03-0.26-0.08c-0.59,0.61-2.07,1.67-2.23,2.29c-0.77-0.5-1.67,0.45-2.46,1.31
								c-0.82,0.84-1.42,1.73-1.92,1.15l-1.79,1.74l-0.06-0.16c-1.23,1.03-1.29,1.76-1.4,2.4c-0.32,0.2-0.25-0.09-0.29-0.17
								c-1.81,1.48-1.84,1.82-2.4,3.79l-0.52-0.13c-0.04,0.29-0.72,0.84-1.37,1.67c-0.34,0.41-0.71,0.88-1.03,1.38
								c-0.32,0.5-0.61,1.04-0.71,1.63c-0.04-0.05-0.1-0.13-0.09-0.33c-0.28,1.3-1.33,2.5-1.99,3.69c-0.64,1.19-1.08,2.28-0.38,2.99
								c-0.08,0.57-0.03,1.16-0.04,1.74c0.67-2.04,0.67,0.52,1.18-0.24c-0.1,0.82-1.06,1.94-0.9,0.92l0.13-0.13
								c-0.8-0.61-1.01,2.5-1.58,2.32c-0.78,4.21-1.37,8.41-1.04,12.48c0.22-0.18,0.43-0.36,0.67-0.54c0.03,0.46,0.1,0.92,0.15,1.39
								C2.91,49,2.53,49.19,2.41,48.18c-0.33,0.58,0.6,1.63,0.76,1.62c0.01,1.99-0.96-0.62-0.88-0.02l0.18,0.81l0.06-0.2
								c0.42,0.6,0.65,0.62,0.94,1.78c0.05,0.77-0.34,0.48-0.29,0.78c-0.05,0.01-0.05,0.12,0.1,0.46l0.39,1.75l0.38-0.85
								c0.46,0.68,0.41,1.6,0.81,0.64c-0.32,0.71,0.19,2.28,0.73,3.78c0.62,1.46,1.41,2.78,1.41,3.19c0.21,0.2,0.4,0.41,0.57,0.63
								c0.19,0.21,0.37,0.43,0.53,0.66c0.33,0.47,0.63,0.99,0.96,1.57c-0.07-0.35,0.38-0.85,0.9,0.15
								c-0.66,0.18-0.55,0.73-0.21,1.35c0.34,0.62,0.81,1.34,0.71,2.01c0-0.53,0.53,0.11,1.04,0.67c0.52,0.56,1.11,0.98,1,0.21
								c0.56,0.78-0.34,0.37-0.09,1.12c0.49,0.34,0.92,0.76,1.34,1.23c0.2,0.24,0.41,0.48,0.62,0.73c0.22,0.24,0.45,0.48,0.67,0.73
								c0.92,0.98,1.8,2.13,3.04,2.88c0.14-0.11-0.07-0.61,0.57-0.45l0.68,1.61c0.52,0.25,0.96-0.48,1.51,0.55
								c-0.04-0.2-0.1-0.5,0.25-0.35c2.1,1.85,4.74,3.07,7.42,4c1.36,0.44,2.68,0.98,4.05,1.37c0.68,0.22,1.35,0.47,2.02,0.76
								c0.67,0.3,1.35,0.5,2.03,0.83c-0.71-0.45-0.19-0.41,0.39-0.33c-0.37-0.14,0.08-0.43,0.04-0.67c0.74,0.33,1.49,0.7,2.26,0.99
								c0.49-0.64,2.55,0.09,2.82-0.53l-0.75,0.08c1-0.7-1.27-1.73-1.04-2.67c-0.27,0.2-0.58,0.21-0.91,0.14
								c-0.32-0.1-0.67-0.31-1.03-0.49c-0.72-0.38-1.5-0.73-2.45-0.26c-0.33-0.25,0.37-0.26,0.22-0.5c-0.5,0.36-1.02,0.29-1.91-0.13
								l0.13-0.07c-1.31-0.3-2.24-0.55-3.12-1.05c-0.44-0.23-0.9-0.47-1.41-0.74c-0.51-0.27-1.08-0.53-1.71-0.94l0.01,0.53
								c-0.56-0.34-0.61-0.53-0.83-0.77c-0.98,0.33,1.61,0.82,0.68,1.25c-0.2-0.63-1.21-1.13-2.2-1.62
								c-0.97-0.52-1.84-1.16-1.81-1.76c-0.84-0.51-0.04,0.62-0.88,0.1l-0.06-0.38l-0.42,0.19c-0.53-0.38-0.55-0.93-0.43-1.13
								c0.11,0.12,0.39,0.21,0.54,0.29c-0.46-0.78-1.94-1.3-2.1-1.57l0.64,0.71c-0.57-0.35-1.18-0.73-1.73-1.19
								c-0.54-0.48-1.09-0.98-1.64-1.47c-0.28-0.24-0.56-0.49-0.83-0.73c-0.25-0.26-0.51-0.52-0.77-0.77
								c-0.52-0.49-1.05-0.95-1.61-1.33l-0.04,0.29c-0.43-0.3-0.67-0.55-0.83-0.78c-0.17-0.23-0.26-0.42-0.35-0.61
								c-0.19-0.4-0.36-0.83-1.1-1.65l0.09,0.03c-0.47-0.21-0.85-0.67-1.15-1.2c0.51,0.33-0.11-1.16,0.51-0.69
								c-1.49-1.62-0.88-0.7-2.3-1.58l0.18-0.47c-0.51-0.29-0.69-0.25-1.26-1.22c0.69,0.69,0.2-0.88,1.03-0.14
								c-0.07-0.6-0.24-1.07-0.45-1.46c-0.19-0.4-0.39-0.73-0.59-1.03c-0.39-0.6-0.68-1.08-0.3-1.76c-1.34-0.67,0.15,2.06-0.26,1.58
								c-0.14,0.6-1.03-0.57-1.19-1.3c-0.27-0.72,0.89-1.62,0.4-3.37c0.04,0.18,0.12,0.17,0.16,0.35c0.04-0.36-0.13-0.67-0.28-1
								c-0.17-0.33-0.3-0.69-0.14-1.15c-0.68-0.36-0.13-1.09-0.93-1.1l0.44,1.66c-0.35-0.9-1.4-1.69-1.2-3.36
								c0.18,0.11,0.46,0.56,0.63,0.87c0.17-0.49-0.32-0.87-0.1-1.38c0.75,0.06,0.47,2.03,1.21,2.95c0.26-0.53-0.86-1.82,0.07-1.44
								c-0.6-0.29-0.63-0.74-0.64-1.26c0.03-0.52,0.11-1.1-0.34-1.7l0.48,0.05c-0.08-0.19-0.33-0.59-0.34-0.95l0.65,0.62
								c-0.57-0.98,0.32-1.92,0.13-2.85c-0.05,0.99-0.19,1.1-0.37,1.07c-0.19-0.03-0.43-0.21-0.58,0.22
								c-0.56-2.52,1.29-1.41,1.21-4.13c0.02,0.37-0.36,1.37-0.56,0.77c0.1-0.52,0.39-1.19,0.69-1.47c0.18-1.8-0.53,0.21-0.7-0.59
								c0.67-0.54-0.1-0.92-0.15-1.77l0.48,0.08c0.14-0.51,0.18-0.8,0.17-0.99c-0.03-0.19-0.13-0.28-0.24-0.36
								c-0.21-0.16-0.42-0.3,0.01-1.19l0.45,0.94l0.08-1l0.48,0.33c-0.06-0.56-0.05-0.93,0.03-1.26c0.08-0.34,0.22-0.66,0.49-1.12
								c-0.41,0.12-0.78-0.4-0.47-1.3c0.49-0.5,0.31,0.49,0.7-0.78c0.18,0.39,0.42,0.82-0.19,1.21c0.13,0.11,0.18,0.37,0.31,0.48
								c0.54-0.52,0.65-1.56,0.81-2.01c-0.08,0.16-0.18,0.36-0.28,0.44c0.01-0.34,0-0.68,0.02-1.02l0.11-1
								c0.3-0.2,0.32,0.08,0.35,0.35c0.12-0.37,0.04-0.7,0.25-1.23c0.29,0.3,0.67,0.45,0.49,1.24l0.39-1.8
								c0.2-0.04,0.82-0.6,0.84-0.32c0.72-0.7,0.58-2.47,1.58-3.41c-0.02-0.1,0-0.25,0.12-0.51c0.41-0.47,0.88-0.86,1.29-1.31
								c0.21-0.22,0.4-0.47,0.58-0.74c0.2-0.26,0.38-0.56,0.52-0.92l1.08-0.14c0.65-0.96-1.42,0.24-0.31-1.37
								c0.77-1.17,0.77,0.04,1.24-0.16c0.24-0.69,0.65-2.04,1.95-2.45C19.51,15.4,19.2,15.54,18.95,15.84z M31.05,8.37
								c-0.23,0.19-0.64,0.67-0.93,0.48C30.22,8.22,30.55,8.38,31.05,8.37z M52.85,6.37c-0.25,0.1-0.54-0.06-0.86-0.33
								C52.26,6.08,52.55,6.17,52.85,6.37z M82.42,56.76c0-0.02-0.01-0.03-0.01-0.04C82.83,56.13,82.67,56.33,82.42,56.76z
								 M81.73,58.05c0.01,0.16,0.08,0.18,0.16,0.14c-0.08-0.14,0.03-0.45,0.18-0.78C81.92,57.46,81.77,57.6,81.73,58.05z
								 M3.37,53.07l0.05-0.3C3.72,53.34,3.55,53.2,3.37,53.07z"/>
							<path fill="#A2812E" d="M50.24,6.44c-0.06-0.09-0.07-0.18-0.07-0.28C50.04,6.23,50.03,6.32,50.24,6.44z"/>
							<path fill="#A2812E" d="M13.27,22.6l-0.03,0.03c0.01,0.04,0.03,0.06,0.05,0.08L13.27,22.6z"/>
							<path fill="#A2812E" d="M79.83,36.81c0.03-0.28,0.09-0.44,0.17-0.56C79.88,36.26,79.8,36.4,79.83,36.81z"/>
							<path fill="#A2812E" d="M79.03,65.3l0.38-0.87c-0.22,0.4-0.39,0.48-0.57,0.64C78.94,65.11,79.17,65.05,79.03,65.3z"/>
							<path fill="#A2812E" d="M71.9,69.76c-0.04,0.13-0.18,0.2-0.22,0.34l0.19,0.13C72.23,69.81,72.35,69.41,71.9,69.76z"/>
							<path fill="#A2812E" d="M77.23,65.17c-0.39-0.17-0.52,0.42-0.86,0.95c0.02-0.03,0.04-0.06,0.07-0.09
								C76.8,66.52,77.05,65.86,77.23,65.17z"/>
							<path fill="#A2812E" d="M76.29,66.25c-0.1,0.17-0.21,0.33-0.34,0.47C76.09,66.92,76.13,66.56,76.29,66.25z"/>
							<path fill="#A2812E" d="M81.3,59.85c-0.23,0.24,0.39,0.39,0.16,0.48C81.8,60.85,81.76,58.21,81.3,59.85z"/>
							<polygon fill="#A2812E" points="75.85,64.87 76.38,64.96 76.22,64.44 							"/>
							<path fill="#A2812E" d="M78.58,60.84l-0.55,0.83c0.08,0.03,0.07,0.16,0.04,0.32C78.34,61.44,78.72,60.88,78.58,60.84z"/>
							<path fill="#A2812E" d="M78.06,61.98c-0.16,0.28-0.32,0.53-0.33,0.73C77.81,62.56,78,62.24,78.06,61.98z"/>
							<polygon fill="#A2812E" points="76.42,63.65 76.66,63.46 77.05,62.88 							"/>
							<path fill="#A2812E" d="M82.11,50.83l0.02-1.09c-0.15-0.14-0.3,0.14-0.29,0.54C81.92,50.55,81.93,50.96,82.11,50.83z"/>
							<path fill="#A2812E" d="M80.02,53.63c0.17-0.25,0.28-0.23,0.48-0.35l-0.59-0.19L80.02,53.63z"/>
							<path fill="#A2812E" d="M80.61,50.65c-0.15-0.14-0.26-1.57-0.42-0.28C80.36,50.51,80.3,51.56,80.61,50.65z"/>
							<polygon fill="#A2812E" points="81.21,34.9 81.29,35.16 82.27,34.91 							"/>
							<path fill="#A2812E" d="M73.73,23.31c0.41,1.14,0.68-0.1,0.98,0.98c0.35,0.12-0.25-0.88,0.08-0.75
								C74.19,23.06,74.12,22.66,73.73,23.31z"/>
							<path fill="#A2812E" d="M74.78,23.54c0.09,0.08,0.2,0.16,0.32,0.24C74.94,23.63,74.85,23.57,74.78,23.54z"/>
							<polygon fill="#A2812E" points="40.85,84.73 41.71,84.98 41.16,84.61 							"/>
							<path fill="#A2812E" d="M42.52,84.06l0.19,0.66l0.52-0.56C43.04,84.17,42.67,84.21,42.52,84.06z"/>
							<path fill="#A2812E" d="M33.44,8.97l0.01-0.16c-0.16-0.13-0.33-0.1-0.68-0.04L33.44,8.97z"/>
							<polygon fill="#A2812E" points="24.03,12.66 24.19,12.58 23.6,12.25 							"/>
							<path fill="#A2812E" d="M17.91,18.54c0.24-0.25,0.44-0.61,0.72-0.82C18.14,18.28,17.33,18.1,17.91,18.54z"/>
						</g>
					</g>
				</g>
			</g>
		</g>
	</g>
	
		<text transform="matrix(1 0 0 1 33.0825 56.0032)" fill="#FFFFFF" stroke="#FFFFFF" stroke-width="0.5" stroke-miterlimit="10" font-family="'Lato-Bold'" font-size="35px">2</text>
</g>
</svg>
